<svg preserveAspectRatio="none" width="100%" height="100%" overflow="visible" style="display: block;" viewBox="0 0 16 16" fill="none" xmlns="http://www.w3.org/2000/svg">
<g id="Coin Gecko AI">
<g id="Exclude" opacity="0.5">
<path fill-rule="evenodd" clip-rule="evenodd" d="M14.6713 12.4152C15.5445 11.0957 16.0069 9.54695 15.9999 7.96473C15.9953 6.91415 15.7838 5.87477 15.3775 4.90593C14.9711 3.9371 14.378 3.05779 13.6318 2.3182C12.8856 1.57861 12.0011 0.993233 11.0287 0.595489C10.0563 0.197745 9.01514 -0.00457562 7.96456 7.85074e-05C6.38234 0.00708788 4.83772 0.483124 3.52603 1.36799C2.21435 2.25285 1.19452 3.50681 0.595492 4.97127C-0.00353184 6.43574 -0.15484 8.04496 0.1607 9.59542C0.476241 11.1459 1.24446 12.568 2.36821 13.6818C3.49196 14.7957 4.92077 15.5513 6.47396 15.8531C8.02715 16.1549 9.63496 15.9894 11.0941 15.3775C12.5532 14.7655 13.7981 13.7346 14.6713 12.4152ZM14.1731 12.0846C14.9802 10.8638 15.4072 9.43112 15.3999 7.96767C15.39 6.00597 14.6015 4.12849 13.2078 2.74793C11.814 1.36738 9.92918 0.596714 7.96748 0.605345C6.50402 0.612013 5.07542 1.05253 3.86234 1.87118C2.64927 2.68984 1.70622 3.84985 1.15246 5.20451C0.598708 6.55916 0.459126 8.04762 0.75137 9.48161C1.04362 10.9156 1.75456 12.2307 2.79428 13.2606C3.834 14.2905 5.1558 14.989 6.5925 15.2676C8.0292 15.5463 9.51626 15.3926 10.8656 14.826C12.215 14.2594 13.366 13.3054 14.1731 12.0846Z" fill="white"/>
</g>
<path id="Exclude_2" fill-rule="evenodd" clip-rule="evenodd" d="M11.7529 5.35614C11.2201 5.20194 10.6678 4.98377 10.1087 4.76286L10.0961 4.75788L10.0954 4.75496L10.0961 4.75546L10.0941 4.74958C10.0842 4.71054 10.0673 4.66889 10.0428 4.62454C9.70049 3.90376 8.78686 3.8166 8.02769 4.05285L8.03541 4.05345L8.02766 4.05527C7.36795 3.89991 6.71635 3.84484 6.09085 3.9973C3.3728 4.74604 2.91764 6.06749 2.80643 7.66008L2.78646 7.90059C2.65091 9.53784 2.54741 10.788 1.91284 12.2099C3.21178 14.2899 6.26252 15.9067 9.08723 15.3326C9.16221 15.3192 9.23762 15.3045 9.31346 15.2883L9.31105 15.2824C9.00323 13.1172 10.8984 10.9966 11.9616 9.91313C12.062 9.81136 12.1849 9.69368 12.319 9.56517C12.5045 9.38757 12.7114 9.18931 12.9107 8.98385C14.3077 7.68489 14.5954 6.13029 11.7529 5.35614ZM13.4983 8.28997C13.1383 8.61809 12.7099 8.86099 12.274 9.07548C11.8326 9.28478 11.3727 9.45228 10.9001 9.57577C10.427 9.69809 9.93369 9.79026 9.43398 9.74504C8.93427 9.69983 8.42354 9.52997 8.09253 9.15548L8.10818 9.13751C8.51398 9.4007 8.98238 9.49345 9.44847 9.50678C9.9209 9.5213 10.3935 9.48241 10.8572 9.39084C11.3256 9.29266 11.7838 9.15098 12.2259 8.96765C12.6682 8.78504 13.1059 8.57345 13.4827 8.272L13.4983 8.28997ZM8.38241 6.17868C8.38252 6.46165 8.29872 6.7383 8.14161 6.97364C7.98449 7.20899 7.76112 7.39246 7.49973 7.50086C7.23834 7.60925 6.95068 7.6377 6.67312 7.58261C6.39557 7.52752 6.14058 7.39135 5.94041 7.19134C5.74024 6.99133 5.60387 6.73646 5.54855 6.45895C5.49323 6.18143 5.52145 5.89375 5.62963 5.63227C5.73782 5.3708 5.92111 5.14728 6.15632 4.98997C6.39154 4.83266 6.66813 4.74864 6.9511 4.74853C7.33035 4.74853 7.69409 4.8991 7.96237 5.16717C8.23065 5.43523 8.38152 5.79884 8.38183 6.1781L8.38241 6.17868ZM7.95831 6.19143C7.95831 6.39047 7.89929 6.58504 7.78871 6.75054C7.67813 6.91604 7.52095 7.04503 7.33706 7.1212C7.15317 7.19737 6.95082 7.2173 6.7556 7.17847C6.56038 7.13964 6.38106 7.04379 6.24032 6.90305C6.09957 6.7623 6.00373 6.58298 5.96489 6.38776C5.92606 6.19254 5.94599 5.9902 6.02216 5.8063C6.09833 5.62241 6.22732 5.46524 6.39282 5.35465C6.55832 5.24407 6.75289 5.18505 6.95194 5.18505C7.21884 5.18505 7.47482 5.29108 7.66355 5.47981C7.85229 5.66854 7.95831 5.92452 7.95831 6.19143Z" fill="var(--fill-0, white)" fill-opacity="0.5"/>
</g>
</svg>
