<svg preserveAspectRatio="none" width="100%" height="100%" overflow="visible" style="display: block;" viewBox="0 0 69.9991 17.6188" fill="none" xmlns="http://www.w3.org/2000/svg">
<g id="Echelon">
<path id="path22" d="M8.53831 3.50453L6.92188 1.88809L8.80946 9.42114e-06L10.6975 1.88759L9.0806 3.50453C8.93082 3.65431 8.6881 3.65431 8.53831 3.50453Z" fill="var(--fill-0, white)"/>
<path id="path26" d="M9.0811 14.1143L10.6975 15.7307L8.80995 17.6188L6.92188 15.7312L8.53881 14.1143C8.6886 13.9645 8.93131 13.9645 9.0811 14.1143Z" fill="var(--fill-0, white)"/>
<path id="path30" d="M14.4737 5.66391L12.068 8.06963C11.8538 8.28382 11.5633 8.40409 11.2604 8.40409H3.83758C3.53791 8.40409 3.25057 8.28511 3.03866 8.07321L1.88758 6.92243L0 8.81051L1.25812 10.0691L1.25832 10.0688L1.88758 10.6982L3.03786 9.54791C3.24977 9.336 3.53722 9.21693 3.83689 9.21693H11.2609C11.5637 9.21693 11.8543 9.33729 12.0685 9.55149L14.4737 11.9567L17.6199 8.81051H17.6203L14.4737 5.66391Z" fill="var(--fill-0, white)"/>
<path id="path34" d="M8.74053 4.6268H6.35777C6.05452 4.6268 5.76369 4.50634 5.5492 4.29195L5.03206 3.7747L3.77344 5.03323L5.03206 6.29185L5.5488 5.7748C5.7632 5.56021 6.05412 5.43965 6.35747 5.43965H8.74053C9.04378 5.43965 9.33461 5.56011 9.549 5.7745L11.0049 7.23042C11.1816 7.40714 11.4681 7.40714 11.6447 7.23042L13.8424 5.03283L11.3253 2.51569L9.549 4.29195C9.33461 4.50634 9.04378 4.6268 8.74053 4.6268Z" fill="var(--fill-0, white)"/>
<path id="path38" d="M8.74451 12.1777H6.35469C6.05372 12.1777 5.76509 12.0581 5.55228 11.8453L5.03246 11.3255L3.77344 12.5841L5.03246 13.8426L5.55218 13.3229C5.76499 13.1101 6.05372 12.9905 6.35469 12.9905H8.74451C9.04547 12.9905 9.33411 13.1101 9.54701 13.3229L11.3253 15.1012L13.8424 12.5841L11.6178 10.3595C11.4563 10.1979 11.1944 10.1979 11.0328 10.3595L9.54691 11.8453C9.33411 12.0581 9.04547 12.1777 8.74451 12.1777Z" fill="var(--fill-0, white)"/>
<path id="path42" d="M28.7564 13.3884H25.3359V2.97409H28.7164V3.7926H26.261V7.67879H28.4969V8.51061H26.261V12.5698H28.7564V13.3884Z" fill="var(--fill-0, white)"/>
<path id="path46" d="M35.7387 12.6497C35.7387 12.867 35.6678 13.0444 35.5258 13.182C35.3837 13.3196 35.2041 13.3884 34.9868 13.3884H32.3051C32.0876 13.3884 31.9101 13.3196 31.7726 13.182C31.6352 13.0444 31.5664 12.867 31.5664 12.6497V3.71279C31.5664 3.49531 31.6352 3.3179 31.7726 3.18034C31.9101 3.04287 32.0876 2.97409 32.3051 2.97409H34.9868C35.2041 2.97409 35.3837 3.04287 35.5258 3.18034C35.6678 3.3179 35.7387 3.49531 35.7387 3.71279V6.13491H34.8071V3.7926H32.4914V12.5698H34.8071V10.0079H35.7387V12.6497Z" fill="var(--fill-0, white)"/>
<path id="path50" d="M43.0775 13.3884H42.1525V8.38418H39.6438V13.3884H38.7188V2.97409H39.6438V7.55236H42.1525V2.97409H43.0775V13.3884Z" fill="var(--fill-0, white)"/>
<path id="path54" d="M49.522 13.3884H46.1016V2.97409H49.482V3.7926H47.0266V7.67879H49.2625V8.51061H47.0266V12.5698H49.522V13.3884Z" fill="var(--fill-0, white)"/>
<path id="path58" d="M55.6553 13.3884H52.3281V2.97409H53.2531V12.5698H55.6553V13.3884Z" fill="var(--fill-0, white)"/>
<path id="path60" d="M61.7549 3.7927H59.2062V12.5699H61.7549V3.7927ZM62.6798 12.6498C62.6798 12.8671 62.6099 13.0446 62.4702 13.1821C62.3304 13.3197 62.1516 13.3884 61.9346 13.3884H59.0198C58.8025 13.3884 58.6249 13.3197 58.4875 13.1821C58.3499 13.0446 58.2812 12.8671 58.2812 12.6498V3.71279C58.2812 3.49542 58.3499 3.318 58.4875 3.18044C58.6249 3.04297 58.8025 2.97419 59.0198 2.97419H61.9346C62.1516 2.97419 62.3304 3.04297 62.4702 3.18044C62.6099 3.318 62.6798 3.49542 62.6798 3.71279V12.6498Z" fill="var(--fill-0, white)"/>
<path id="path64" d="M69.9991 13.3884H69.3603L66.5787 5.72908V13.3884H65.707V2.97409H66.3991L69.1274 10.5003V2.97409H69.9991V13.3884Z" fill="var(--fill-0, white)"/>
</g>
</svg>
