<svg preserveAspectRatio="none" width="100%" height="100%" overflow="visible" style="display: block;" viewBox="0 0 16.902 16.2824" fill="none" xmlns="http://www.w3.org/2000/svg">
<g id="Group">
<path id="Vector" d="M14.6135 4.59961H7.48961C6.22509 4.59961 5.20117 5.6209 5.20117 6.88292V13.9966C5.20117 15.2611 6.22509 16.2824 7.48961 16.2824H14.6135C15.8755 16.2824 16.902 15.2611 16.902 13.9966V6.88292C16.902 5.6209 15.8755 4.59961 14.6135 4.59961ZM8.51865 13.9351C7.85564 13.9351 7.31812 13.3976 7.31812 12.7372C7.31812 12.0741 7.85564 11.5365 8.51865 11.5365C9.18416 11.5365 9.72174 12.0741 9.72174 12.7372C9.72174 13.3976 9.18416 13.9351 8.51865 13.9351ZM8.51865 9.34285C7.85564 9.34285 7.31812 8.80789 7.31812 8.14482C7.31812 7.48187 7.85564 6.94692 8.51865 6.94692C9.18416 6.94692 9.72174 7.48187 9.72174 8.14482C9.72174 8.80789 9.18416 9.34285 8.51865 9.34285ZM13.5819 13.9351C12.9164 13.9351 12.3788 13.3976 12.3788 12.7372C12.3788 12.0741 12.9163 11.5365 13.5819 11.5365C14.2449 11.5365 14.7824 12.0741 14.7824 12.7372C14.7824 13.3976 14.2449 13.9351 13.5819 13.9351ZM13.5819 9.34285C12.9164 9.34285 12.3788 8.80789 12.3788 8.14482C12.3788 7.48187 12.9163 6.94692 13.5819 6.94692C14.2449 6.94692 14.7824 7.48187 14.7824 8.14482C14.7824 8.80789 14.2449 9.34285 13.5819 9.34285Z" fill="var(--fill-0, white)" fill-opacity="0.5"/>
<path id="Vector_2" d="M13.0665 3.35466H6.58765C5.1132 3.35466 3.91524 4.55006 3.91524 6.02194V11.9376L1.7701 11.4385C0.538828 11.1518 -0.226547 9.92312 0.0601806 8.69435L1.67792 1.76754C1.96465 0.538894 3.19592 -0.226543 4.4272 0.0601847C5.95026 0.413405 9.60052 1.26334 11.3642 1.6728C12.2319 1.87503 12.8694 2.54573 13.0665 3.35466Z" fill="var(--fill-0, white)" fill-opacity="0.5"/>
</g>
</svg>
