<svg preserveAspectRatio="none" width="100%" height="100%" overflow="visible" style="display: block;" viewBox="0 0 8.446 7.77348" fill="none" xmlns="http://www.w3.org/2000/svg">
<g id="Vector">
<path d="M5.31827 1.18635L6.00425 1.30192L6.51874 1.76497L6.63569 1.08706L7.10425 0.57862L6.41827 0.463047L5.90378 0L5.78683 0.677911L5.31827 1.18635Z" fill="var(--fill-0, #FFDC42)"/>
<path d="M7.15586 3.55752L7.7503 3.2L8.446 3.2159L8.08421 2.62845L8.10031 1.94094L7.50586 2.29846L6.81017 2.28256L7.17195 2.87001L7.15586 3.55752Z" fill="var(--fill-0, #FFDC42)"/>
<path d="M6.34959 7.39567L5.76814 7.77348L5.75994 7.08583L5.37764 6.51122L6.07346 6.50312L6.65492 6.12531L6.66312 6.81295L7.04542 7.38756L6.34959 7.39567Z" fill="var(--fill-0, #FFDC42)"/>
<path d="M6.8544 5.61771L7.54605 5.54195L8.16976 5.84692L8.0931 5.16341L8.40169 4.54704L7.71005 4.6228L7.08634 4.31784L7.163 5.00134L6.8544 5.61771Z" fill="var(--fill-0, #FFDC42)"/>
<path fill-rule="evenodd" clip-rule="evenodd" d="M2.91667 4.45961L1.11407 5.60412L1.77917 3.72354L0 2.55031L2.21365 2.53256L2.91667 0.662947L3.61968 2.53256L5.83333 2.55031L4.05417 3.72354L4.71927 5.60412L2.91667 4.45961Z" fill="#FFDC42"/>
</g>
</svg>
