<svg preserveAspectRatio="none" width="100%" height="100%" overflow="visible" style="display: block;" viewBox="0 0 28.5773 24.9961" fill="none" xmlns="http://www.w3.org/2000/svg">
<path id="Vector" d="M20.4296 0.993404C20.832 0.991548 21.205 1.20467 21.4081 1.552C23.4423 5.03047 25.395 8.37284 27.4296 11.8518C27.6348 12.2029 27.6352 12.6371 27.4305 12.9885C25.3761 16.5161 23.3979 19.9154 21.3436 23.4426C21.1407 23.791 20.7673 24.005 20.3641 24.0032C16.2881 23.9843 12.2117 23.9645 8.13171 23.9456C7.73214 23.9437 7.36293 23.7312 7.16199 23.386C5.15671 19.9395 3.15177 16.489 1.14636 13.0383C0.942555 12.6876 0.942186 12.254 1.14636 11.9036C3.14555 8.47421 5.14508 5.04409 7.14441 1.61059C7.34551 1.26523 7.7146 1.05189 8.11413 1.05004C12.219 1.03111 16.3247 1.01234 20.4296 0.993404Z" stroke="url(#paint0_linear_35581_38283)" stroke-width="1.98664"/>
<defs>
<linearGradient id="paint0_linear_35581_38283" x1="6.508" y1="0.616454" x2="16.7758" y2="24.3142" gradientUnits="userSpaceOnUse">
<stop stop-color="#E3B34B"/>
<stop offset="1" stop-color="#FDD46D"/>
</linearGradient>
</defs>
</svg>
