<svg preserveAspectRatio="none" width="100%" height="100%" overflow="visible" style="display: block;" viewBox="0 0 12.1686 12.1686" fill="none" xmlns="http://www.w3.org/2000/svg">
<path id="Vector" d="M12.1684 0.476945C12.1669 0.214021 11.9546 0.00173319 11.6917 0.000253218C7.74024 -0.0219891 4.60182 1.42106 2.27011 4.331C1.41901 5.39488 0.675887 6.65169 0.0407513 8.10532C-0.0749859 8.37021 0.0664011 8.67304 0.330972 8.7895C0.983655 9.07679 1.5986 9.49153 2.13857 10.0301C2.67711 10.5701 3.09185 11.185 3.37915 11.8377C3.49561 12.1022 3.79844 12.2436 4.06333 12.1279C5.51695 11.4928 6.77376 10.7496 7.83765 9.89854C10.7476 7.56682 12.1906 4.42841 12.1684 0.476945ZM8.47581 6.02509C7.83231 6.67037 6.78706 6.67037 6.14356 6.02509C5.49828 5.38159 5.49828 4.33634 6.14356 3.69284C6.78706 3.04934 7.83231 3.04934 8.47581 3.69284C9.11931 4.33634 9.11931 5.38159 8.47581 6.02509Z" fill="var(--fill-0, white)"/>
</svg>
