<svg preserveAspectRatio="none" width="100%" height="100%" overflow="visible" style="display: block;" viewBox="0 0 20.0005 13.9459" fill="none" xmlns="http://www.w3.org/2000/svg">
<path id="Subtract" d="M12.7677 0.00396193C12.9142 -0.00616456 13.048 0.00172114 13.1896 0.044001C13.496 0.135622 13.7996 0.275067 14.0978 0.392634L16.0167 1.16217L17.257 1.65338C17.5323 1.76159 17.8336 1.85956 18.089 2.00982C18.3694 2.17657 18.5981 2.41786 18.7491 2.70709C18.8853 2.96257 18.9539 3.25575 19.0353 3.53228L19.3361 4.544L19.7433 5.87799C19.8169 6.11864 19.9004 6.36042 19.9611 6.60455C20.037 6.91038 20.006 7.14349 19.8439 7.41217C19.7557 7.55811 19.6377 7.69396 19.4884 7.77935C19.2302 7.92685 18.9544 8.05307 18.6886 8.18658L17.2394 8.91412L12.6193 11.2432C11.3912 11.8813 10.16 12.5132 8.92492 13.1378L8.10461 13.5547C7.83438 13.6925 7.56508 13.8488 7.26867 13.9219C7.25155 13.9258 7.23429 13.93 7.21692 13.9327C7.00031 13.9663 6.78528 13.9345 6.58215 13.8545C6.39353 13.7803 6.21451 13.6766 6.03528 13.5821L5.33215 13.212L3.15344 12.0547C2.61607 11.7663 2.07681 11.4807 1.53625 11.1983C1.1779 11.0105 0.778048 10.838 0.455198 10.5948C0.205791 10.4068 0.0550649 10.1439 0.0137919 9.83404C-0.0103883 9.65217 -0.00269521 9.46742 0.0362529 9.28814C0.0847108 9.0641 0.167512 8.84496 0.240354 8.62799L0.560667 7.67584L0.982542 6.42584C1.06539 6.18148 1.14194 5.93097 1.24035 5.69244C1.30753 5.52967 1.38699 5.37944 1.49426 5.23931C1.65799 5.02491 1.86585 4.84814 2.10364 4.72076C2.30956 4.60795 2.52881 4.51563 2.74231 4.41802L3.76184 3.95513L6.87219 2.55572L10.4835 0.938532L11.6739 0.406306C11.9063 0.30258 12.1389 0.190518 12.3761 0.0986885C12.5035 0.0494156 12.6325 0.0215762 12.7677 0.00396193ZM2.255 5.90435C2.08742 5.98372 2.03337 6.06561 1.9718 6.23834C1.73303 6.90838 1.51325 7.58626 1.28137 8.25884L1.03821 8.96588C0.986235 9.11644 0.923287 9.271 0.889768 9.42681C0.864816 9.54312 0.850733 9.67327 0.902464 9.78424C0.939751 9.86227 0.997196 9.92916 1.06946 9.97662C1.23736 10.0887 1.43769 10.1739 1.61731 10.2667C1.92571 10.427 2.2335 10.5894 2.54016 10.753L5.87219 12.5157C6.05677 12.6139 6.25151 12.7368 6.45032 12.8008C6.53519 12.7814 6.62439 12.7662 6.6759 12.6876C6.70827 12.6381 6.71267 12.5781 6.71789 12.5206C6.77174 11.9291 6.78944 11.3287 6.82727 10.7354L6.92785 9.17486C6.94314 8.94551 7.01434 8.38586 6.96594 8.18463C6.91201 7.96067 6.77077 7.80782 6.57532 7.69439C6.34935 7.56325 6.07912 7.47221 5.83801 7.37115C5.35951 7.1691 4.87915 6.96948 4.39856 6.77252L3.08899 6.21978C2.86551 6.12405 2.64087 6.01467 2.41223 5.93267C2.35823 5.91332 2.31213 5.90508 2.255 5.90435ZM17.3917 2.8858C17.047 2.95179 16.6385 3.18543 16.3155 3.33404L14.7423 4.05474L10.4161 6.03619L8.83215 6.76177C8.56427 6.8846 8.28996 7.00117 8.02649 7.13287C7.93486 7.17867 7.84702 7.2467 7.78918 7.33209C7.73453 7.41287 7.71278 7.51004 7.73547 7.60552C7.76138 7.71457 7.83888 7.80652 7.93469 7.86236C8.00645 7.90414 8.07265 7.91319 8.15442 7.91412C8.40645 7.86248 8.64835 7.69794 8.88391 7.59283C9.74072 7.20949 10.5942 6.81772 11.4435 6.41802L15.4396 4.59283L16.8009 3.97369C17.0424 3.86429 17.2907 3.76281 17.5284 3.64556C17.5993 3.61059 17.6709 3.56056 17.7169 3.49517C17.7775 3.40902 17.8008 3.27709 17.7784 3.17486C17.7575 3.07968 17.7009 2.99364 17.6173 2.94244C17.5493 2.90096 17.4711 2.88054 17.3917 2.8858Z" fill="var(--fill-0, white)" fill-opacity="0.5"/>
</svg>
