<svg preserveAspectRatio="none" width="100%" height="100%" overflow="visible" style="display: block;" viewBox="0 0 16 16" fill="none" xmlns="http://www.w3.org/2000/svg">
<g id="Coin Gecko AI">
<g id="Exclude" opacity="0.5">
<path fill-rule="evenodd" clip-rule="evenodd" d="M14.6713 12.4152C15.5445 11.0957 16.0069 9.54695 15.9999 7.96473C15.9953 6.91415 15.7838 5.87477 15.3775 4.90593C14.9711 3.9371 14.378 3.05779 13.6318 2.3182C12.8856 1.57861 12.0011 0.993233 11.0287 0.595489C10.0563 0.197745 9.01514 -0.00457562 7.96456 7.85074e-05C6.38233 0.00708788 4.83772 0.483124 3.52603 1.36799C2.21435 2.25285 1.19452 3.50681 0.595492 4.97127C-0.00353184 6.43574 -0.15484 8.04496 0.1607 9.59542C0.476241 11.1459 1.24446 12.568 2.36821 13.6818C3.49196 14.7957 4.92077 15.5513 6.47396 15.8531C8.02715 16.1549 9.63496 15.9894 11.0941 15.3775C12.5532 14.7655 13.7981 13.7346 14.6713 12.4152ZM14.1731 12.0846C14.9802 10.8638 15.4071 9.43112 15.3999 7.96767C15.39 6.00597 14.6015 4.12849 13.2078 2.74793C11.814 1.36738 9.92918 0.596714 7.96748 0.605345C6.50402 0.612013 5.07542 1.05253 3.86234 1.87118C2.64927 2.68984 1.70621 3.84985 1.15246 5.20451C0.598707 6.55916 0.459126 8.04762 0.75137 9.48161C1.04361 10.9156 1.75456 12.2307 2.79428 13.2606C3.834 14.2905 5.1558 14.989 6.5925 15.2676C8.0292 15.5463 9.51626 15.3926 10.8656 14.826C12.215 14.2594 13.366 13.3054 14.1731 12.0846Z" fill="white"/>
</g>
<path id="Exclude_2" d="M6.09131 3.99726C6.71668 3.84493 7.36828 3.89956 8.02783 4.05488C8.03033 4.05429 8.03314 4.05449 8.03564 4.0539C8.03308 4.05369 8.03031 4.05311 8.02783 4.05293C8.78685 3.81676 9.70006 3.90382 10.0425 4.62422C10.067 4.66844 10.0844 4.71026 10.0942 4.74922C10.0949 4.75107 10.0956 4.75322 10.0962 4.75508H10.0952L10.0962 4.75801L10.1089 4.76289C10.6678 4.9837 11.2199 5.20149 11.7524 5.35566C14.5949 6.12979 14.3075 7.68464 12.9106 8.98359C12.7114 9.18905 12.5043 9.38802 12.3188 9.56562C12.1848 9.69401 12.0618 9.8116 11.9614 9.91328C10.8982 10.9968 9.00322 13.1173 9.31104 15.2824L9.31299 15.2883C9.23738 15.3044 9.16216 15.3188 9.0874 15.3322C6.26271 15.9062 3.21155 14.2901 1.9126 12.2102C2.54717 10.7883 2.65108 9.53783 2.78662 7.90058L2.80615 7.66035C2.91737 6.06776 3.37326 4.746 6.09131 3.99726ZM13.4829 8.27168C13.1061 8.57311 12.6684 8.78536 12.2261 8.96797C11.784 9.15129 11.3253 9.29263 10.8569 9.39082C10.3934 9.48234 9.921 9.52152 9.44873 9.50703C8.98264 9.4937 8.51371 9.40108 8.10791 9.13789L8.09229 9.15547C8.4233 9.52996 8.93437 9.70009 9.43408 9.74531C9.93373 9.7905 10.4269 9.69769 10.8999 9.57539C11.3725 9.4519 11.8326 9.28469 12.2739 9.07539C12.7099 8.8609 13.1385 8.61834 13.4985 8.29023L13.4829 8.27168ZM6.95068 4.74824C6.66789 4.74844 6.39183 4.83323 6.15674 4.99043C5.92156 5.14771 5.73758 5.37061 5.62939 5.63203C5.52121 5.8935 5.49302 6.18167 5.54834 6.45918C5.60367 6.73657 5.73987 6.99165 5.93994 7.1916C6.14011 7.39161 6.39578 7.52713 6.67334 7.58222C6.95075 7.63726 7.23825 7.60945 7.49951 7.50117C7.7609 7.39278 7.98497 7.20917 8.14209 6.97383C8.29912 6.73856 8.38239 6.46176 8.38232 6.1789L8.38135 6.17793C8.381 5.79875 8.23063 5.43521 7.9624 5.16719C7.69412 4.89912 7.32994 4.74824 6.95068 4.74824ZM6.95166 5.18476C7.21854 5.18476 7.47485 5.29099 7.66357 5.47969C7.85231 5.66842 7.9585 5.92469 7.9585 6.1916C7.95846 6.39051 7.89905 6.58478 7.78857 6.75019C7.67804 6.91561 7.52118 7.0451 7.3374 7.12129C7.15351 7.19746 6.95059 7.21774 6.75537 7.1789C6.56041 7.1401 6.38137 7.04399 6.24072 6.90351C6.10003 6.76282 6.00419 6.58303 5.96533 6.38789C5.9265 6.19267 5.9458 5.98975 6.02197 5.80586C6.09816 5.6221 6.22766 5.46521 6.39307 5.35469C6.55845 5.24422 6.75278 5.18482 6.95166 5.18476Z" fill="var(--fill-0, white)" fill-opacity="0.5"/>
</g>
</svg>
