<svg preserveAspectRatio="none" width="100%" height="100%" overflow="visible" style="display: block;" viewBox="0 0 12 10.455" fill="none" xmlns="http://www.w3.org/2000/svg">
<g id="Vector">
<path d="M12 5.22751V5.92593C11.9788 6.60317 9.96825 7.1746 7.28042 7.30159V10.455H4.74074V7.30159C2.03175 7.1746 0.021164 6.60317 0 5.92593V5.22751H0.126984C0.719577 5.86243 3.11111 6.34921 5.98942 6.34921C8.86772 6.34921 11.2593 5.86243 11.8519 5.22751H12Z" fill="var(--fill-0, white)"/>
<path d="M12 4.50794V5.20635H11.8519C11.3439 4.67725 9.54497 4.2328 7.25926 4.12698V5.48148C6.85714 5.50265 6.4127 5.50265 5.98942 5.50265C5.54497 5.50265 5.12169 5.50265 4.71958 5.48148V4.12698C2.43386 4.25397 0.634921 4.67725 0.126984 5.22751H0V4.5291C0.021164 3.85185 2.03175 3.28042 4.71958 3.15344V1.86243H0.888889V0H11.0899V1.86243H7.28042V3.15344C9.96825 3.28042 11.9788 3.83069 12 4.50794Z" fill="var(--fill-0, white)"/>
</g>
</svg>
