<svg preserveAspectRatio="none" width="100%" height="100%" overflow="visible" style="display: block;" viewBox="0 0 16 11.983" fill="none" xmlns="http://www.w3.org/2000/svg">
<path id="Subtract" fill-rule="evenodd" clip-rule="evenodd" d="M6.9335 0.906253L6.53198 0.622492C5.9589 0.217493 5.27411 0 4.57203 0H4.08206C3.7587 0 3.43207 0.0203609 3.12732 0.128294C1.22116 0.803388 -0.0900094 3.27138 0.00482941 8.8695C0.0239378 9.99743 0.288239 11.244 1.30738 11.7307C1.62497 11.8824 1.99733 11.983 2.42137 11.983C2.93018 11.983 3.33424 11.8381 3.64611 11.634C3.97313 11.42 4.26107 11.1418 4.5489 10.8637C4.90457 10.5201 5.26009 10.1767 5.689 9.95457C6.15616 9.71266 6.67468 9.58638 7.20092 9.58638H8.79908C9.32532 9.58638 9.84385 9.71266 10.311 9.95457C10.7399 10.1767 11.0954 10.5201 11.4511 10.8637C11.7389 11.1418 12.0269 11.42 12.3539 11.634C12.6658 11.8381 13.0698 11.983 13.5786 11.983C14.0027 11.983 14.375 11.8824 14.6926 11.7307C15.7118 11.244 15.9761 9.99743 15.9952 8.8695C16.09 3.27138 14.7788 0.803383 12.8727 0.128292C12.5679 0.0203608 12.2413 0 11.918 0H11.428C10.7259 0 10.0411 0.217493 9.46804 0.622492L9.06654 0.906242C8.75469 1.12663 8.38206 1.24498 8.00001 1.24498C7.61798 1.24498 7.24535 1.12663 6.9335 0.906253ZM4.40937 3.39844C4.74075 3.39844 5.00937 3.66669 5.00937 3.99759V4.59674H5.60938C5.94075 4.59674 6.20938 4.86498 6.20938 5.19588C6.20938 5.52679 5.94075 5.79503 5.60938 5.79503H5.00937V6.39418C5.00937 6.72508 4.74075 6.99333 4.40937 6.99333C4.078 6.99333 3.80937 6.72508 3.80937 6.39418V5.79503H3.20937C2.878 5.79503 2.60938 5.52678 2.60938 5.19588C2.60938 4.86498 2.878 4.59674 3.20937 4.59674H3.80937V3.99759C3.80937 3.66669 4.078 3.39844 4.40937 3.39844ZM11.8366 6.74352C12.6827 6.74352 13.3685 6.05766 13.3685 5.2116C13.3685 4.36555 12.6827 3.67969 11.8366 3.67969C10.9905 3.67969 10.3047 4.36555 10.3047 5.2116C10.3047 6.05766 10.9905 6.74352 11.8366 6.74352Z" fill="var(--fill-0, white)"/>
</svg>
