<svg preserveAspectRatio="none" width="100%" height="100%" overflow="visible" style="display: block;" viewBox="0 0 11.6658 14.9989" fill="none" xmlns="http://www.w3.org/2000/svg">
<g id="Vector">
<path d="M1.66654 14.1656C1.66654 14.6239 2.04152 14.9989 2.49982 14.9989H9.16599C9.62429 14.9989 9.99927 14.6239 9.99927 14.1656V11.6658H1.66654V14.1656Z" fill="var(--fill-0, white)" fill-opacity="0.5"/>
<path d="M10.8325 3.33309C10.3742 3.33309 9.99927 3.70806 9.99927 4.16636V1.66654C9.99927 0.749945 9.24932 0 8.33272 0H1.66654C0.749945 0 0 0.749945 0 1.66654V6.49952C0 6.60785 0.00833269 6.71617 0.0333309 6.8245L0.699949 10.1576C0.774943 10.5492 1.11658 10.8242 1.51656 10.8242H10.1493C10.5242 10.8242 10.8909 10.5242 10.9659 10.1576L11.6325 6.8245C11.6575 6.71617 11.6658 6.60785 11.6658 6.49952V4.16636C11.6658 3.70806 11.2908 3.33309 10.8325 3.33309ZM8.33272 5.83291H1.66654V3.33309H8.33272V5.83291Z" fill="var(--fill-0, white)" fill-opacity="0.5"/>
</g>
</svg>
