<svg preserveAspectRatio="none" width="100%" height="100%" overflow="visible" style="display: block;" viewBox="0 0 19.9999 19.9617" fill="none" xmlns="http://www.w3.org/2000/svg">
<g id="Group 1321314296">
<path id="Path 1" d="M4.15604 9.48816C4.15606 9.37653 4.17813 9.266 4.22099 9.16293C4.26384 9.05986 4.32663 8.96626 4.40575 8.88752C4.48488 8.80878 4.57877 8.74644 4.68205 8.70409C4.78534 8.66174 4.89596 8.64021 5.00759 8.64073L6.41937 8.64534C6.64447 8.64534 6.86035 8.73476 7.01952 8.89393C7.17869 9.0531 7.26812 9.26898 7.26812 9.49409V14.8327C7.42712 14.7856 7.63062 14.7354 7.85454 14.6826C8.00968 14.6461 8.14794 14.5583 8.24691 14.4334C8.34588 14.3085 8.39975 14.1538 8.39978 13.9944V7.37263C8.39978 7.14751 8.4892 6.93161 8.64836 6.77242C8.80753 6.61322 9.02341 6.52376 9.24853 6.52372H10.6646C10.8897 6.52376 11.1056 6.61322 11.2648 6.77242C11.4239 6.93161 11.5133 7.14751 11.5133 7.37263V13.5187C11.5133 13.5187 11.8676 13.3753 12.2125 13.2297C12.3406 13.1755 12.45 13.0847 12.5269 12.9688C12.6038 12.8528 12.6449 12.7168 12.645 12.5777V5.25068C12.645 5.0256 12.7344 4.80975 12.8935 4.65058C13.0527 4.49141 13.2685 4.40197 13.4936 4.40193H14.9082C15.1331 4.40215 15.3488 4.49167 15.5078 4.65081C15.6668 4.80996 15.7561 5.02572 15.7561 5.25068V11.2842C16.9825 10.3954 18.2254 9.32635 19.2117 8.04095C19.3548 7.85437 19.4495 7.63526 19.4873 7.40319C19.5252 7.17111 19.505 6.93327 19.4286 6.7109C18.972 5.39735 18.2462 4.19357 17.2977 3.1766C16.3492 2.15963 15.1989 1.35186 13.9203 0.80499C12.6417 0.258116 11.263 -0.0158228 9.87245 0.000705803C8.48191 0.0172344 7.11013 0.323865 5.84489 0.900976C4.57965 1.47809 3.44882 2.31297 2.52476 3.3522C1.6007 4.39143 0.903763 5.61211 0.47854 6.93615C0.0533171 8.26018 -0.090823 9.65841 0.0553425 11.0413C0.201508 12.4243 0.63476 13.7615 1.32738 14.9674C1.44804 15.1754 1.62558 15.3447 1.83911 15.4553C2.05265 15.5659 2.29332 15.6133 2.53286 15.5919C2.80045 15.5683 3.13362 15.535 3.52974 15.4885C3.70213 15.4689 3.8613 15.3866 3.97691 15.2572C4.09253 15.1278 4.15652 14.9605 4.1567 14.7869V9.48816" fill="var(--fill-0, white)"/>
<path id="Path 2" d="M4.12577 18.0493C5.61684 19.1341 7.37892 19.7852 9.21707 19.9306C11.0552 20.076 12.8978 19.7101 14.5409 18.8734C16.184 18.0366 17.5636 16.7616 18.527 15.1895C19.4905 13.6173 20.0002 11.8093 19.9999 9.96537C19.9999 9.73469 19.9892 9.50763 19.9738 9.28123C16.322 14.7278 9.57911 17.2741 4.12577 18.0493" fill="var(--fill-0, #F0B90B)"/>
</g>
</svg>
