<svg preserveAspectRatio="none" width="100%" height="100%" overflow="visible" style="display: block;" viewBox="0 0 13.7507 5.904" fill="none" xmlns="http://www.w3.org/2000/svg">
<g id="Wallet">
<path id="Vector" d="M11.2989 5.55123C11.2442 5.55123 11.1978 5.5321 11.1595 5.49383C11.1212 5.45557 11.1021 5.4091 11.1021 5.35443V3.75543H9.5359C9.48123 3.75543 9.43476 3.7363 9.39649 3.69803C9.35823 3.65977 9.3391 3.6133 9.3391 3.55863V3.11583C9.3391 3.06117 9.35823 3.0147 9.39649 2.97643C9.43476 2.93817 9.48123 2.91903 9.5359 2.91903H11.1021V1.36923C11.1021 1.3091 11.1212 1.26263 11.1595 1.22983C11.1978 1.19157 11.2442 1.17243 11.2989 1.17243H11.7909C11.851 1.17243 11.8975 1.19157 11.9303 1.22983C11.9686 1.26263 11.9877 1.3091 11.9877 1.36923V2.91903H13.5539C13.6086 2.91903 13.655 2.93817 13.6933 2.97643C13.7316 3.0147 13.7507 3.06117 13.7507 3.11583V3.55863C13.7507 3.6133 13.7316 3.65977 13.6933 3.69803C13.6605 3.7363 13.614 3.75543 13.5539 3.75543H11.9877V5.35443C11.9877 5.4091 11.9686 5.45557 11.9303 5.49383C11.8975 5.5321 11.851 5.55123 11.7909 5.55123H11.2989Z" fill="var(--fill-0, white)"/>
<path id="Vector_2" d="M6.33062 5.904C5.85502 5.904 5.44502 5.8302 5.10062 5.6826C4.76168 5.52953 4.50202 5.31907 4.32162 5.0512C4.14122 4.78333 4.05102 4.4772 4.05102 4.1328C4.05102 3.82667 4.12482 3.55607 4.27242 3.321C4.42548 3.08047 4.63048 2.89733 4.88742 2.7716C4.68515 2.64587 4.52935 2.4846 4.42002 2.2878C4.31068 2.08553 4.25602 1.85593 4.25602 1.599C4.25602 1.11793 4.43642 0.732533 4.79722 0.4428C5.16348 0.1476 5.67462 0 6.33062 0C6.98662 0 7.49502 0.144867 7.85582 0.4346C8.21662 0.724334 8.39702 1.10973 8.39702 1.5908C8.39702 1.84773 8.34235 2.07733 8.23302 2.2796C8.12915 2.4764 7.97608 2.6404 7.77382 2.7716C8.03622 2.89733 8.24122 3.08047 8.38882 3.321C8.54188 3.55607 8.61842 3.8294 8.61842 4.141C8.61842 4.4854 8.52822 4.79153 8.34782 5.0594C8.16742 5.3218 7.90502 5.52953 7.56062 5.6826C7.21622 5.8302 6.80622 5.904 6.33062 5.904ZM6.33062 2.4108C6.61488 2.40533 6.84995 2.33427 7.03582 2.1976C7.22715 2.05547 7.32282 1.8696 7.32282 1.64C7.32282 1.40493 7.22988 1.21633 7.04402 1.0742C6.85815 0.932067 6.62035 0.861 6.33062 0.861C6.04635 0.861 5.81128 0.932067 5.62542 1.0742C5.43955 1.21633 5.34662 1.40493 5.34662 1.64C5.34662 1.87507 5.43955 2.06367 5.62542 2.2058C5.81128 2.34247 6.04635 2.4108 6.33062 2.4108ZM6.33062 5.043C6.65315 5.043 6.92102 4.961 7.13422 4.797C7.35288 4.633 7.46222 4.41433 7.46222 4.141C7.46222 3.86767 7.35288 3.649 7.13422 3.485C6.92102 3.321 6.65315 3.239 6.33062 3.239C6.00808 3.239 5.74022 3.321 5.52702 3.485C5.31382 3.64353 5.20722 3.8622 5.20722 4.141C5.20722 4.41433 5.31382 4.633 5.52702 4.797C5.74022 4.961 6.00808 5.043 6.33062 5.043Z" fill="var(--fill-0, white)"/>
<path id="Vector_3" d="M2.10746 5.82086C2.05279 5.82086 2.00632 5.80172 1.96806 5.76346C1.92979 5.72519 1.91066 5.67872 1.91066 5.62406V1.39286L0.672458 2.34406C0.639658 2.37139 0.598658 2.38506 0.549458 2.38506C0.483858 2.38506 0.431924 2.35772 0.393658 2.30306L0.0410577 1.84386C0.0137244 1.80559 5.76981e-05 1.76732 5.76981e-05 1.72906C5.76981e-05 1.66346 0.0301244 1.60879 0.0902577 1.56506L1.92706 0.138258C1.98719 0.0999908 2.05552 0.0808575 2.13206 0.0808575H2.87006C2.92473 0.0808575 2.97119 0.0999908 3.00946 0.138258C3.04772 0.176524 3.06686 0.222991 3.06686 0.277657V5.62406C3.06686 5.67872 3.04772 5.72519 3.00946 5.76346C2.97119 5.80172 2.92473 5.82086 2.87006 5.82086H2.10746Z" fill="var(--fill-0, white)"/>
</g>
</svg>
