<svg preserveAspectRatio="none" width="100%" height="100%" overflow="visible" style="display: block;" viewBox="0 0 13.7327 19.796" fill="none" xmlns="http://www.w3.org/2000/svg">
<g id="Group 330">
<g id="Vector 301" filter="url(#filter0_d_35581_36211)">
<path d="M1.07661 1.07661H12.6561V15.7811L6.94957 18.6819C6.85104 18.732 6.73446 18.7318 6.6361 18.6814L1.07661 15.8316V1.07661Z" fill="url(#paint0_linear_35581_36211)"/>
<path d="M1.07661 1.07661H12.6561V15.7811L6.94957 18.6819C6.85104 18.732 6.73446 18.7318 6.6361 18.6814L1.07661 15.8316V1.07661Z" stroke="url(#paint1_linear_35581_36211)" stroke-width="0.239246"/>
</g>
<path id="Intersect" fill-rule="evenodd" clip-rule="evenodd" d="M8.55026 17.7631L6.94879 18.5772C6.85025 18.6273 6.73368 18.6271 6.63532 18.5767L4.97114 17.7236V6.97192H8.55026V17.7631Z" fill="url(#paint2_linear_35581_36211)"/>
</g>
<defs>
<filter id="filter0_d_35581_36211" x="-1.49012e-08" y="-1.49012e-08" width="13.7327" height="19.796" filterUnits="userSpaceOnUse" color-interpolation-filters="sRGB">
<feFlood flood-opacity="0" result="BackgroundImageFix"/>
<feColorMatrix in="SourceAlpha" type="matrix" values="0 0 0 0 0 0 0 0 0 0 0 0 0 0 0 0 0 0 127 0" result="hardAlpha"/>
<feOffset/>
<feGaussianBlur stdDeviation="0.478492"/>
<feColorMatrix type="matrix" values="0 0 0 0 0.7 0 0 0 0 0.561568 0 0 0 0 0.32375 0 0 0 0.78 0"/>
<feBlend mode="normal" in2="BackgroundImageFix" result="effect1_dropShadow_35581_36211"/>
<feBlend mode="normal" in="SourceGraphic" in2="effect1_dropShadow_35581_36211" result="shape"/>
</filter>
<linearGradient id="paint0_linear_35581_36211" x1="6.86636" y1="8.86645" x2="6.86636" y2="18.7617" gradientUnits="userSpaceOnUse">
<stop offset="0.276423" stop-color="#CE9E3E"/>
<stop offset="0.625143" stop-color="#FFD97A"/>
</linearGradient>
<linearGradient id="paint1_linear_35581_36211" x1="1.85532" y1="8.67661" x2="11.7765" y2="16.794" gradientUnits="userSpaceOnUse">
<stop stop-color="#CE9E3E"/>
<stop offset="0.971703" stop-color="#FCD977"/>
</linearGradient>
<linearGradient id="paint2_linear_35581_36211" x1="6.7607" y1="6.97192" x2="6.7607" y2="18.6147" gradientUnits="userSpaceOnUse">
<stop stop-color="#DDB653"/>
<stop offset="1" stop-color="#FDD46D"/>
</linearGradient>
</defs>
</svg>
