<svg preserveAspectRatio="none" width="100%" height="100%" overflow="visible" style="display: block;" viewBox="0 0 10 9" fill="none" xmlns="http://www.w3.org/2000/svg">
<g id="Vector">
<path fill-rule="evenodd" clip-rule="evenodd" d="M8.62634 5.07647L7.7711 6.19021L7.82936 4.74787L6.57893 4.21838L7.87404 3.83218L7.95646 2.3912L8.69863 3.59486L10 3.23377L9.16358 4.36387L9.88544 5.58169L8.62634 5.07647Z" fill="white"/>
<path d="M7.497 7.26241C6.7304 8.31984 5.53391 9 4.18952 9C1.87571 9 0 6.98528 0 4.5C0 2.01472 1.87571 0 4.18952 0C5.53352 0 6.72971 0.679766 7.49633 1.73667C6.90476 1.27487 6.161 0.999802 5.35315 0.999802C3.42498 0.999802 1.86189 2.56681 1.86189 4.4998C1.86189 6.4328 3.42498 7.9998 5.35315 7.9998C6.1613 7.9998 6.90532 7.72453 7.497 7.26241Z" fill="var(--fill-0, white)"/>
</g>
</svg>
