<svg preserveAspectRatio="none" width="100%" height="100%" overflow="visible" style="display: block;" viewBox="0 0 14.8782 18.001" fill="none" xmlns="http://www.w3.org/2000/svg">
<path id="Union" d="M8.96889 5.57775C9.8975 5.42914 10.9503 5.26151 11.9123 5.39904C12.9665 5.54993 13.6943 6.0329 14.2023 6.91954C14.891 8.12174 15.0684 10.1028 14.6652 12.0895C14.4541 13.1295 14.0866 14.1257 13.6027 14.9703C13.0715 15.8975 12.4098 16.6417 11.6359 17.1813C10.2793 18.1268 9.51497 18.0445 8.54799 17.9401C8.20347 17.9028 7.8465 17.8639 7.43862 17.8639C7.03084 17.8639 6.67467 17.9028 6.33022 17.9401C5.36296 18.0446 4.59828 18.1271 3.24135 17.1813C2.46751 16.6418 1.80568 15.8974 1.27455 14.9703C0.790733 14.1258 0.424095 13.1294 0.213032 12.0895C-0.190186 10.1027 -0.0128714 8.12176 0.675922 6.91954C1.18397 6.03289 1.91156 5.54986 2.96596 5.39904C3.92796 5.26152 4.98066 5.42913 5.90932 5.57775C6.49592 5.67159 7.00245 5.7535 7.43862 5.75353C7.87487 5.75353 8.38215 5.67162 8.96889 5.57775ZM2.38686 0.00645712C3.17956 -0.0263816 4.90184 0.0312372 5.89565 1.02501C6.73378 1.86356 6.90559 3.21994 6.91909 4.09923C6.90912 4.25736 6.90614 4.40363 6.90737 4.53282C6.64719 4.54341 6.28835 4.54391 5.88881 4.50548C5.67869 4.47216 5.45833 4.4384 5.23061 4.40782C4.57826 4.27323 3.90123 4.01088 3.40541 3.51525C2.41136 2.52123 2.35402 0.798629 2.38686 0.00645712ZM10.7482 1.74083C10.75 1.90466 10.7444 2.10441 10.7208 2.31993C10.6692 2.79303 10.5181 3.44651 10.0929 3.87169C9.51465 4.44995 8.53438 4.53263 7.96987 4.52696C7.9745 4.40125 7.97685 4.25816 7.97475 4.10216C7.97851 4.05181 7.98367 3.99941 7.9894 3.94689C8.04112 3.47381 8.19229 2.82117 8.61733 2.39611C9.19844 1.81497 10.1847 1.73391 10.7482 1.74083Z" fill="var(--fill-0, white)" fill-opacity="0.5"/>
</svg>
