<svg preserveAspectRatio="none" width="100%" height="100%" overflow="visible" style="display: block;" viewBox="0 0 5.83891 5.83424" fill="none" xmlns="http://www.w3.org/2000/svg">
<path id="Union" d="M1.77148 3.88867C1.90045 3.88867 1.94602 3.93312 1.94629 4.05957C1.94717 4.59604 1.94717 5.13263 1.94629 5.66895C1.94629 5.79111 1.90201 5.83233 1.77832 5.83301C1.50965 5.835 1.24079 5.83398 0.97168 5.83398H0.176758C0.034688 5.83398 0 5.79904 0 5.65918V4.06152C0 3.9305 0.0404107 3.88987 0.171875 3.88965C0.705299 3.88906 1.2385 3.88867 1.77148 3.88867ZM5.67871 3.89062C5.79438 3.89062 5.83715 3.93446 5.83789 4.05176C5.83922 4.32317 5.83887 4.59578 5.83887 4.86719V5.66113C5.83887 5.79613 5.80205 5.83376 5.66992 5.83398H4.05957C3.93562 5.83398 3.8928 5.79223 3.89258 5.66895C3.8914 5.13256 3.8914 4.5961 3.89258 4.05957C3.89258 3.93716 3.9372 3.89085 4.05762 3.89062C4.59798 3.88945 5.13835 3.88945 5.67871 3.89062ZM3.7207 1.94531C3.85627 1.94539 3.89311 1.98537 3.89355 2.12598C3.89311 2.3865 3.89258 2.64746 3.89258 2.9082V3.71387C3.89251 3.85166 3.85423 3.88867 3.71582 3.88867H2.12695C1.98763 3.88865 1.94847 3.85112 1.94824 3.71484V2.11621C1.94824 1.9864 1.98912 1.9456 2.12012 1.94531H3.7207ZM5.66699 0C5.80067 0 5.83767 0.0374456 5.83789 0.170898V1.76953C5.83786 1.90594 5.7981 1.94412 5.65918 1.94434H4.07031C3.9355 1.94428 3.8928 1.90007 3.89258 1.76758V0.180664C3.8928 0.0382763 3.93261 6.57393e-05 4.07812 0H5.66699ZM1.75977 0C1.90714 0 1.94607 0.0373967 1.94629 0.179688V1.7666C1.94629 1.90138 1.90302 1.94336 1.76758 1.94336H0.179688C0.0407109 1.94424 0 1.90564 0 1.76953V0.170898C5.17827e-05 0.0380122 0.0376141 0.00116809 0.170898 0H1.75977Z" fill="var(--fill-0, #0C0713)"/>
</svg>
