<svg preserveAspectRatio="none" width="100%" height="100%" overflow="visible" style="display: block;" viewBox="0 0 15.8038 15.8038" fill="none" xmlns="http://www.w3.org/2000/svg">
<path id="Vector" fill-rule="evenodd" clip-rule="evenodd" d="M7.12408 1.80377C4.18575 1.80377 1.80377 4.18575 1.80377 7.12408C1.80377 10.0624 4.18575 12.4444 7.12408 12.4444C8.5545 12.4444 9.85307 11.8799 10.8092 10.9615C10.8312 10.9336 10.8551 10.9066 10.8808 10.8808C10.9066 10.8551 10.9336 10.8312 10.9615 10.8092C11.8799 9.85307 12.4444 8.5545 12.4444 7.12408C12.4444 4.18575 10.0624 1.80377 7.12408 1.80377ZM12.759 11.4835C13.6925 10.2787 14.2482 8.76625 14.2482 7.12408C14.2482 3.18956 11.0586 0 7.12408 0C3.18956 0 0 3.18956 0 7.12408C0 11.0586 3.18956 14.2482 7.12408 14.2482C8.76625 14.2482 10.2787 13.6925 11.4835 12.759L14.2642 15.5396C14.6164 15.8918 15.1874 15.8918 15.5396 15.5396C15.8918 15.1874 15.8918 14.6164 15.5396 14.2642L12.759 11.4835Z" fill="var(--fill-0, white)" fill-opacity="0.5"/>
</svg>
