<svg preserveAspectRatio="none" width="100%" height="100%" overflow="visible" style="display: block;" viewBox="0 0 17.9094 16.5972" fill="none" xmlns="http://www.w3.org/2000/svg">
<g id="metamask">
<path id="Vector" d="M16.9702 0.078125L10.0508 5.21478L11.3416 2.18886L16.9702 0.078125Z" fill="var(--fill-0, #E17726)"/>
<path id="Vector_2" d="M10.0542 5.30191C10.0406 5.30722 10.0255 5.30722 10.0119 5.30191C10.0042 5.29112 10 5.27817 10 5.26488C10 5.25159 10.0042 5.23864 10.0119 5.22785L11.308 2.19664C11.2997 2.18745 11.2943 2.17605 11.2924 2.16383C11.2906 2.15161 11.2923 2.13911 11.2974 2.12787L16.9313 0.0118361C16.9461 0.00629842 16.9625 0.00648271 16.9771 0.0123529C16.9918 0.018223 17.0038 0.0293568 17.0107 0.0435765C17.0211 0.0552151 17.0268 0.0702822 17.0268 0.0858971C17.0268 0.101512 17.0211 0.116579 17.0107 0.128218L10.0542 5.27017C10.0579 5.28044 10.0579 5.29164 10.0542 5.30191V5.30191ZM11.3979 2.25483L10.1812 5.02154L16.561 0.30279L11.3979 2.25483Z" fill="var(--fill-0, #E17726)"/>
<path id="Vector_3" d="M0.949219 0.078125L7.82631 5.26239L6.60431 2.18886L0.949219 0.078125Z" fill="var(--fill-0, #E27625)"/>
<path id="Vector_4" d="M7.83678 5.32988C7.82318 5.33519 7.80807 5.33519 7.79446 5.32988L0.90679 0.129737C0.89638 0.118098 0.890625 0.103031 0.890625 0.0874163C0.890625 0.0718014 0.89638 0.0567343 0.90679 0.0450957C0.912224 0.0331019 0.921253 0.0230946 0.932627 0.01646C0.944001 0.00982533 0.957156 0.00689162 0.970271 0.00806519L6.62536 2.12409C6.64378 2.13039 6.65899 2.1437 6.66768 2.16112L7.89497 5.23995C7.90357 5.25037 7.90828 5.26346 7.90828 5.27698C7.90828 5.29049 7.90357 5.30358 7.89497 5.31401C7.88765 5.32172 7.87835 5.32727 7.8681 5.33007C7.85784 5.33287 7.84701 5.3328 7.83678 5.32988ZM1.35116 0.293729L7.69924 5.05479L6.5513 2.23519L1.35116 0.293729Z" fill="var(--fill-0, #E27625)"/>
<path id="Vector_5" d="M14.4712 11.9922L12.625 14.8171L16.582 15.9068L17.7193 12.0557L14.4712 11.9922Z" fill="var(--fill-0, #E27625)"/>
<path id="Vector_6" d="M16.5808 15.9691L12.6239 14.8794C12.6133 14.8763 12.6035 14.8709 12.5953 14.8636C12.5871 14.8563 12.5806 14.8472 12.5763 14.837C12.5723 14.8278 12.5703 14.8179 12.5703 14.8079C12.5703 14.7979 12.5723 14.788 12.5763 14.7788L14.4278 11.9539C14.4331 11.9434 14.4415 11.9347 14.4519 11.929C14.4623 11.9233 14.4742 11.9209 14.486 11.9222L17.7288 11.9857C17.7393 11.9851 17.7497 11.9871 17.7592 11.9915C17.7687 11.9959 17.777 12.0026 17.7832 12.011C17.7895 12.0194 17.7936 12.0292 17.7952 12.0395C17.7968 12.0499 17.7958 12.0605 17.7923 12.0703L16.6549 15.9215C16.6537 15.9298 16.6508 15.9377 16.6463 15.9447C16.6418 15.9518 16.6358 15.9577 16.6288 15.9622C16.6217 15.9668 16.6138 15.9697 16.6056 15.9709C16.5973 15.9721 16.5889 15.9715 16.5808 15.9691V15.9691ZM12.7297 14.7736L16.5385 15.8316L17.6283 12.1285L14.5071 12.0703L12.7297 14.7736Z" fill="var(--fill-0, #E27625)"/>
<path id="Vector_7" d="M0.214844 12.0557L1.34163 15.9068L5.29331 14.8171L3.45237 11.9922L0.214844 12.0557Z" fill="var(--fill-0, #E27625)"/>
<path id="Vector_8" d="M1.34259 15.9688C1.32795 15.9704 1.31326 15.9663 1.30148 15.9575C1.2897 15.9486 1.28171 15.9357 1.27911 15.9212L0.152327 12.07C0.14722 12.0612 0.144531 12.0511 0.144531 12.0409C0.144531 12.0307 0.14722 12.0207 0.152327 12.0118C0.158336 12.0034 0.166292 11.9967 0.175509 11.992C0.184726 11.9874 0.194926 11.9851 0.205228 11.9854L3.43746 11.9219C3.44814 11.9227 3.45849 11.926 3.46767 11.9315C3.47686 11.937 3.48463 11.9446 3.49036 11.9536L5.33131 14.7785C5.33642 14.7874 5.33911 14.7974 5.33911 14.8076C5.33911 14.8178 5.33642 14.8279 5.33131 14.8367C5.32875 14.8469 5.32346 14.8563 5.31601 14.8637C5.30855 14.8712 5.29921 14.8765 5.28899 14.879L1.35846 15.9688H1.34259ZM0.284579 12.1176L1.36904 15.8207L5.17261 14.7626L3.4163 12.0594L0.284579 12.1176Z" fill="var(--fill-0, #E27625)"/>
<path id="Vector_9" d="M5.0808 7.22453L3.98047 8.88561L7.89512 9.06018L7.76816 4.82812L5.0808 7.22453Z" fill="var(--fill-0, #E27625)"/>
<path id="Vector_10" d="M7.89467 9.13589L3.97473 8.95603C3.9634 8.95515 3.95252 8.95126 3.94322 8.94474C3.93391 8.93823 3.92652 8.92934 3.92183 8.919C3.91673 8.9092 3.91406 8.89831 3.91406 8.88726C3.91406 8.87621 3.91673 8.86532 3.92183 8.85552L5.02216 7.19443L7.70952 4.8139C7.71997 4.80786 7.73183 4.80469 7.7439 4.80469C7.75597 4.80469 7.76783 4.80786 7.77829 4.8139C7.7904 4.81818 7.80093 4.82603 7.80849 4.83642C7.81604 4.84681 7.82027 4.85925 7.82061 4.87209L7.95286 9.10415C7.95773 9.11965 7.95773 9.13627 7.95286 9.15176C7.94264 9.15469 7.93181 9.15475 7.92155 9.15196C7.91129 9.14916 7.90199 9.1436 7.89467 9.13589V9.13589ZM4.0964 8.82907L7.79945 8.99835L7.67778 4.99376L5.12796 7.27379L4.0964 8.82907Z" fill="var(--fill-0, #E27625)"/>
<path id="Vector_11" d="M12.8439 7.22502L10.1143 4.79688L10.0508 9.06067L13.9654 8.8861L12.8439 7.22502Z" fill="var(--fill-0, #E27625)"/>
<path id="Vector_12" d="M10.0519 9.13435C10.0366 9.14052 10.0195 9.14052 10.0043 9.13435C9.99858 9.11898 9.99858 9.1021 10.0043 9.08674L10.0519 4.80178C10.0522 4.78894 10.0564 4.7765 10.064 4.76611C10.0715 4.75572 10.0821 4.74787 10.0942 4.74359C10.1046 4.73755 10.1165 4.73438 10.1286 4.73438C10.1406 4.73438 10.1525 4.73755 10.163 4.74359L12.8926 7.17173L13.993 8.83281C13.9981 8.84262 14.0007 8.8535 14.0007 8.86455C14.0007 8.8756 13.9981 8.88649 13.993 8.8963C13.9867 8.90645 13.9782 8.91505 13.9681 8.92146C13.958 8.92787 13.9466 8.93193 13.9348 8.93333L10.0201 9.11319L10.0519 9.13435ZM10.2053 4.9499L10.0942 9.00739L13.8237 8.8381L12.7921 7.28282L10.2053 4.9499Z" fill="var(--fill-0, #E27625)"/>
<path id="Vector_13" d="M5.29297 14.8209L7.66292 13.673L5.62095 12.0859L5.29297 14.8209Z" fill="var(--fill-0, #E27625)"/>
<path id="Vector_14" d="M5.29148 14.8849C5.28571 14.8877 5.27938 14.8892 5.27296 14.8892C5.26654 14.8892 5.26021 14.8877 5.25444 14.8849C5.24426 14.8778 5.23602 14.8683 5.23048 14.8572C5.22493 14.8461 5.22226 14.8338 5.2227 14.8214L5.55598 12.0865C5.55685 12.0751 5.56075 12.0643 5.56726 12.0549C5.57378 12.0456 5.58267 12.0383 5.59301 12.0336C5.60326 12.027 5.6152 12.0234 5.62739 12.0234C5.63959 12.0234 5.65153 12.027 5.66178 12.0336L7.70374 13.6206C7.70943 13.6292 7.71246 13.6393 7.71246 13.6497C7.71246 13.66 7.70943 13.6701 7.70374 13.6788C7.70287 13.6901 7.69897 13.701 7.69246 13.7103C7.68594 13.7196 7.67705 13.727 7.66671 13.7317L5.29677 14.8743L5.29148 14.8849ZM5.67236 12.2081L5.37083 14.7103L7.53446 13.6523L5.67236 12.2081Z" fill="var(--fill-0, #E27625)"/>
<path id="Vector_15" d="M10.2578 13.673L12.6225 14.8209L12.2998 12.0859L10.2578 13.673Z" fill="var(--fill-0, #E27625)"/>
<path id="Vector_16" d="M12.6244 14.8835H12.5979L10.2333 13.762C10.2229 13.7573 10.214 13.7499 10.2075 13.7406C10.201 13.7313 10.1971 13.7204 10.1962 13.7091C10.1905 13.7005 10.1875 13.6904 10.1875 13.68C10.1875 13.6697 10.1905 13.6596 10.1962 13.6509L12.2382 12.0639C12.2486 12.0579 12.2605 12.0547 12.2726 12.0547C12.2846 12.0547 12.2965 12.0579 12.307 12.0639C12.3173 12.0686 12.3262 12.076 12.3327 12.0853C12.3392 12.0946 12.3431 12.1055 12.344 12.1168L12.6984 14.82C12.7013 14.8321 12.7003 14.8447 12.6956 14.8561C12.6908 14.8675 12.6826 14.8771 12.672 14.8835C12.665 14.8883 12.6567 14.8908 12.6482 14.8908C12.6397 14.8908 12.6314 14.8883 12.6244 14.8835V14.8835ZM10.3867 13.6615L12.545 14.7195L12.2488 12.2173L10.3867 13.6615Z" fill="var(--fill-0, #E27625)"/>
<path id="Vector_17" d="M12.6225 14.8276L10.2578 13.6797L10.4483 15.2191V15.8698L12.6225 14.8276Z" fill="var(--fill-0, #D5BFB2)"/>
<path id="Vector_18" d="M10.4366 15.9232C10.4309 15.926 10.4245 15.9275 10.4181 15.9275C10.4117 15.9275 10.4054 15.926 10.3996 15.9232C10.389 15.9179 10.3803 15.9095 10.3746 15.8991C10.369 15.8887 10.3666 15.8768 10.3679 15.865V15.2143L10.1774 13.6908C10.1745 13.6788 10.1755 13.6661 10.1803 13.6547C10.185 13.6433 10.1933 13.6337 10.2039 13.6273C10.2141 13.6207 10.2261 13.6172 10.2382 13.6172C10.2504 13.6172 10.2624 13.6207 10.2726 13.6273L12.632 14.7753C12.6433 14.7802 12.653 14.7883 12.6597 14.7987C12.6665 14.809 12.6701 14.8211 12.6701 14.8334C12.6701 14.8458 12.6665 14.8579 12.6597 14.8682C12.653 14.8786 12.6433 14.8867 12.632 14.8916L10.4419 15.9496L10.4366 15.9232ZM10.3414 13.8072L10.5213 15.2196V15.7751L12.4733 14.8176L10.3414 13.8072Z" fill="var(--fill-0, #D5BFB2)"/>
<path id="Vector_19" d="M5.29297 14.8196L7.49364 15.8776V15.2269L7.67879 13.6875L5.29297 14.8196Z" fill="var(--fill-0, #D5BFB2)"/>
<path id="Vector_20" d="M7.48927 15.9267H7.45753L5.25686 14.8687C5.24553 14.8637 5.2359 14.8556 5.22913 14.8452C5.22236 14.8349 5.21875 14.8228 5.21875 14.8105C5.21875 14.7981 5.22236 14.786 5.22913 14.7757C5.2359 14.7654 5.24553 14.7572 5.25686 14.7523L7.6321 13.6043C7.64126 13.5975 7.6524 13.5938 7.66384 13.5938C7.67529 13.5938 7.68643 13.5975 7.69559 13.6043C7.70173 13.6138 7.705 13.6248 7.705 13.6361C7.705 13.6473 7.70173 13.6584 7.69559 13.6678L7.51043 15.2019V15.842C7.51169 15.8538 7.50933 15.8657 7.50366 15.8761C7.49799 15.8865 7.48928 15.8949 7.47869 15.9002C7.48211 15.9037 7.48481 15.9079 7.48663 15.9124C7.48844 15.9169 7.48934 15.9218 7.48927 15.9267V15.9267ZM5.44201 14.821L7.40463 15.7574V15.2284L7.5792 13.8054L5.44201 14.821Z" fill="var(--fill-0, #D5BFB2)"/>
<path id="Vector_21" d="M7.52888 11.1177L5.56097 10.5411C5.54787 10.5372 5.53638 10.5291 5.52821 10.5182C5.52004 10.5072 5.51563 10.4939 5.51563 10.4802C5.51563 10.4666 5.52004 10.4533 5.52821 10.4423C5.53638 10.4313 5.54787 10.4233 5.56097 10.4194L6.94697 9.77931C6.9546 9.77578 6.96286 9.7738 6.97127 9.77348C6.97967 9.77317 6.98806 9.77453 6.99593 9.77748C7.00381 9.78043 7.01102 9.78492 7.01714 9.79068C7.02327 9.79645 7.02819 9.80337 7.03161 9.81105L7.61352 11.0278C7.61956 11.0382 7.62273 11.0501 7.62273 11.0622C7.62273 11.0742 7.61956 11.0861 7.61352 11.0965C7.60347 11.1086 7.58986 11.1171 7.57465 11.1209C7.55944 11.1247 7.54341 11.1236 7.52888 11.1177ZM5.75141 10.4564L7.40721 10.9431L6.92052 9.92214L5.75141 10.4564Z" fill="var(--fill-0, #161616)"/>
<path id="Vector_22" d="M10.3902 11.1215C10.3801 11.1209 10.3701 11.1183 10.361 11.1138C10.3519 11.1092 10.3439 11.1028 10.3373 11.095C10.3313 11.0846 10.3281 11.0727 10.3281 11.0606C10.3281 11.0486 10.3313 11.0367 10.3373 11.0263L10.9192 9.80955C10.9271 9.79492 10.9401 9.78365 10.9556 9.77782C10.9712 9.77198 10.9883 9.77198 11.0039 9.77781L12.4005 10.4179C12.4125 10.4233 12.4225 10.4324 12.4291 10.4437C12.4357 10.4551 12.4387 10.4683 12.4375 10.4814C12.4368 10.4949 12.4318 10.5078 12.4232 10.5183C12.4147 10.5288 12.403 10.5362 12.3899 10.5396L10.4061 11.1215H10.3902ZM10.9986 9.92593L10.5119 10.9469L12.1677 10.4867L10.9986 9.92593Z" fill="var(--fill-0, #161616)"/>
<path id="Vector_23" d="M5.29407 14.8171L5.63793 11.9922L3.45313 12.0557L5.29407 14.8171Z" fill="var(--fill-0, #CC6228)"/>
<path id="Vector_24" d="M5.29207 14.879C5.26996 14.8782 5.24907 14.8687 5.23388 14.8526L3.39293 12.0912C3.38633 12.0809 3.38281 12.069 3.38281 12.0568C3.38281 12.0446 3.38633 12.0326 3.39293 12.0224C3.39763 12.012 3.40502 12.0032 3.41432 11.9966C3.42363 11.9901 3.43451 11.9862 3.44583 11.9854L5.63063 11.9219C5.63063 11.9219 5.67295 11.9219 5.68353 11.9219C5.68725 11.9293 5.68919 11.9374 5.68919 11.9457C5.68919 11.9539 5.68725 11.9621 5.68353 11.9695L5.35555 14.8155C5.35578 14.8293 5.35112 14.8427 5.3424 14.8534C5.33369 14.864 5.32147 14.8712 5.30794 14.8737L5.29207 14.879ZM3.57279 12.1123L5.24446 14.6304L5.56186 12.0594L3.57279 12.1123Z" fill="var(--fill-0, #CC6228)"/>
<path id="Vector_25" d="M12.2852 11.9922L12.6237 14.8171L14.47 12.0557L12.2852 11.9922Z" fill="var(--fill-0, #CC6228)"/>
<path id="Vector_26" d="M12.6223 14.8818C12.6092 14.8784 12.5975 14.871 12.589 14.8605C12.5804 14.85 12.5754 14.8371 12.5747 14.8236L12.2361 11.9987C12.2324 11.9913 12.2305 11.9832 12.2305 11.9749C12.2305 11.9666 12.2324 11.9585 12.2361 11.9511C12.2444 11.9473 12.2534 11.9453 12.2626 11.9453C12.2717 11.9453 12.2807 11.9473 12.289 11.9511L14.4738 12.0146C14.4857 12.016 14.4971 12.02 14.5072 12.0264C14.5172 12.0328 14.5257 12.0414 14.532 12.0516C14.5372 12.0623 14.5399 12.0741 14.5399 12.086C14.5399 12.0979 14.5372 12.1096 14.532 12.1204L12.6964 14.8553C12.6888 14.8674 12.6774 14.8766 12.6639 14.8814C12.6505 14.8862 12.6358 14.8863 12.6223 14.8818V14.8818ZM12.3578 12.0622L12.6646 14.6332L14.3522 12.1151L12.3578 12.0622Z" fill="var(--fill-0, #CC6228)"/>
<path id="Vector_27" d="M13.942 8.89062L10.0273 9.0652L10.3924 11.0754L10.969 9.864L12.3656 10.4988L13.942 8.89062Z" fill="var(--fill-0, #CC6228)"/>
<path id="Vector_28" d="M10.393 11.1217C10.3788 11.1207 10.3653 11.115 10.3548 11.1054C10.3442 11.0958 10.3372 11.0829 10.3348 11.0688L9.97511 9.0639C9.97093 9.05571 9.96875 9.04665 9.96875 9.03745C9.96875 9.02825 9.97093 9.01919 9.97511 9.011C9.98058 9.00334 9.9877 8.99698 9.99593 8.99241C10.0042 8.98783 10.0133 8.98515 10.0227 8.98455L13.9427 8.80469C13.9559 8.80584 13.9687 8.81032 13.9798 8.81772C13.9909 8.82511 14 8.83519 14.0061 8.84701C14.0134 8.85698 14.0174 8.86903 14.0174 8.88139C14.0174 8.89376 14.0134 8.9058 14.0061 8.91578L12.4191 10.5293C12.4079 10.5383 12.3939 10.5432 12.3794 10.5432C12.365 10.5432 12.351 10.5383 12.3398 10.5293L11.0067 9.92089L10.4777 11.0741C10.4759 11.0832 10.4723 11.0918 10.4669 11.0993C10.4615 11.1068 10.4545 11.1131 10.4464 11.1176C10.4384 11.1222 10.4294 11.1249 10.4202 11.1256C10.411 11.1263 10.4017 11.125 10.393 11.1217ZM10.1074 9.10622L10.4195 10.8414L10.9115 9.78335C10.9193 9.76873 10.9323 9.75746 10.9478 9.75162C10.9634 9.74579 10.9805 9.74578 10.9961 9.75161L12.3503 10.3706L13.7575 8.96339L10.1074 9.10622Z" fill="var(--fill-0, #CC6228)"/>
<path id="Vector_29" d="M5.56749 10.4988L6.95349 9.864L7.53011 11.0754L7.89512 9.0652L3.98047 8.89062L5.56749 10.4988Z" fill="var(--fill-0, #CC6228)"/>
<path id="Vector_30" d="M7.52874 11.1243C7.51608 11.1233 7.50394 11.1188 7.49367 11.1113C7.4834 11.1039 7.4754 11.0937 7.47055 11.0819L6.94154 9.92871L5.61374 10.5371C5.60331 10.5457 5.59022 10.5504 5.5767 10.5504C5.56319 10.5504 5.5501 10.5457 5.53967 10.5371L3.95265 8.92359C3.94535 8.91362 3.94141 8.90157 3.94141 8.88921C3.94141 8.87684 3.94535 8.8648 3.95265 8.85482C3.95918 8.84329 3.96833 8.83345 3.97935 8.8261C3.99038 8.81875 4.00298 8.81409 4.01613 8.8125L7.93608 8.99236C7.93674 8.99763 7.93674 9.00296 7.93608 9.00823C7.94026 9.01642 7.94244 9.02549 7.94244 9.03468C7.94244 9.04388 7.94026 9.05294 7.93608 9.06113L7.57635 11.0661C7.57401 11.0801 7.56699 11.093 7.55644 11.1026C7.54588 11.1122 7.53239 11.118 7.51816 11.119L7.52874 11.1243ZM6.95212 9.77529C6.96436 9.7752 6.97636 9.77865 6.98669 9.78522C6.99701 9.79179 7.00522 9.8012 7.01031 9.81232L7.50229 10.8703L7.81441 9.13519L4.1431 8.9712L5.5767 10.426L6.92567 9.80703L6.95212 9.77529Z" fill="var(--fill-0, #CC6228)"/>
<path id="Vector_31" d="M3.98047 8.89062L5.62039 12.0647L5.56749 10.4776L3.98047 8.89062Z" fill="var(--fill-0, #E27525)"/>
<path id="Vector_32" d="M5.61999 12.1715C5.60775 12.1716 5.59575 12.1681 5.58542 12.1616C5.5751 12.155 5.56689 12.1456 5.5618 12.1345L3.92187 8.93396C3.91183 8.92319 3.90625 8.90901 3.90625 8.89428C3.90625 8.87956 3.91183 8.86538 3.92187 8.85461C3.92777 8.84869 3.93478 8.84399 3.94249 8.84079C3.95021 8.83759 3.95848 8.83594 3.96684 8.83594C3.97519 8.83594 3.98347 8.83759 3.99118 8.84079C3.9989 8.84399 4.00591 8.84869 4.0118 8.85461L5.59883 10.4416C5.60338 10.4572 5.60338 10.4737 5.59883 10.4892L5.65702 12.0763C5.65655 12.0918 5.65119 12.1069 5.64169 12.1192C5.63219 12.1316 5.61905 12.1406 5.60412 12.145L5.61999 12.1715ZM4.23399 9.23549L5.54592 11.7853L5.5036 10.5157L4.23399 9.23549Z" fill="var(--fill-0, #E27525)"/>
<path id="Vector_33" d="M12.3643 10.4933L12.3008 12.0803L13.9407 8.90625L12.3643 10.4933Z" fill="var(--fill-0, #E27525)"/>
<path id="Vector_34" d="M12.3029 12.1794C12.288 12.1749 12.2748 12.1659 12.2653 12.1536C12.2558 12.1412 12.2505 12.1262 12.25 12.1106L12.3135 10.5236C12.3094 10.508 12.3094 10.4916 12.3135 10.476L13.9005 8.88897C13.9137 8.87987 13.9294 8.875 13.9455 8.875C13.9615 8.875 13.9772 8.87987 13.9904 8.88897C13.9991 8.90139 14.0037 8.91616 14.0037 8.93129C14.0037 8.94642 13.9991 8.96119 13.9904 8.97361L12.3452 12.1741C12.3323 12.1812 12.3172 12.183 12.3029 12.1794V12.1794ZM12.4299 10.55L12.3823 11.8197L13.6889 9.26985L12.4299 10.55Z" fill="var(--fill-0, #E27525)"/>
<path id="Vector_35" d="M7.89626 9.0625L7.53125 11.0727L7.99149 13.4427L8.09729 10.3162L7.89626 9.0625Z" fill="var(--fill-0, #E27525)"/>
<path id="Vector_36" d="M7.99247 13.5147C7.97731 13.5149 7.96258 13.5097 7.95094 13.5C7.9393 13.4903 7.93151 13.4768 7.92899 13.4618L7.46875 11.0866L7.83376 9.07634C7.83629 9.0614 7.84408 9.04785 7.85572 9.03815C7.86736 9.02845 7.88209 9.02323 7.89725 9.02344C7.91281 9.02391 7.92784 9.02927 7.94019 9.03877C7.95253 9.04827 7.96157 9.06141 7.96602 9.07634L8.16175 10.3301L8.06124 13.4724C8.06001 13.4888 8.05293 13.5043 8.04128 13.5159C8.02963 13.5276 8.01419 13.5347 7.99776 13.5359L7.99247 13.5147ZM7.601 11.076L7.93957 12.8587L8.01892 10.3195L7.88138 9.46252L7.601 11.076Z" fill="var(--fill-0, #E27525)"/>
<path id="Vector_37" d="M10.0498 9.0625L9.85938 10.311L9.9546 13.4427L10.4148 11.0727L10.0498 9.0625Z" fill="var(--fill-0, #E27525)"/>
<path id="Vector_38" d="M9.93214 13.5112C9.91571 13.51 9.90026 13.5029 9.88861 13.4912C9.87696 13.4796 9.86988 13.4641 9.86866 13.4477L9.77344 10.316L9.96917 9.05165C9.9709 9.04256 9.97458 9.03396 9.97998 9.02644C9.98538 9.01893 9.99235 9.01269 10.0004 9.00815C10.0085 9.00362 10.0174 9.0009 10.0267 9.00019C10.0359 8.99948 10.0451 9.00079 10.0538 9.00404V9.00404C10.069 9.00382 10.0837 9.00904 10.0953 9.01874C10.107 9.02845 10.1148 9.04199 10.1173 9.05694L10.4823 11.0672L10.0221 13.4424C10.0242 13.4539 10.0231 13.4658 10.0189 13.4768C10.0147 13.4877 10.0075 13.4973 9.99821 13.5044C9.9889 13.5115 9.9778 13.5159 9.96613 13.5171C9.95447 13.5183 9.94271 13.5163 9.93214 13.5112ZM10.0538 9.46427L9.92156 10.3213L10.0009 12.8499L10.3448 11.0725L10.0538 9.46427Z" fill="var(--fill-0, #E27525)"/>
<path id="Vector_39" d="M10.3899 11.0713L9.92969 13.4413L10.2577 13.674L12.2996 12.087L12.3631 10.5L10.3899 11.0713Z" fill="var(--fill-0, #F5841F)"/>
<path id="Vector_40" d="M10.2575 13.7601H10.2204L9.88717 13.5273C9.87669 13.5195 9.86864 13.509 9.86396 13.4968C9.85928 13.4846 9.85815 13.4713 9.86072 13.4586L10.3262 11.0886C10.3269 11.0765 10.3313 11.0648 10.3389 11.0554C10.3465 11.0459 10.3569 11.039 10.3686 11.0357L12.3418 10.4591C12.351 10.4552 12.3609 10.4531 12.3709 10.4531C12.3809 10.4531 12.3908 10.4552 12.4 10.4591C12.4068 10.4779 12.4068 10.4985 12.4 10.5173L12.3365 12.1043C12.34 12.1127 12.3418 12.1217 12.3418 12.1307C12.3418 12.1398 12.34 12.1488 12.3365 12.1572L10.2945 13.7442C10.2844 13.7537 10.2713 13.7594 10.2575 13.7601V13.7601ZM10.0036 13.4321L10.2575 13.612L12.236 12.0726L12.2889 10.6019L10.4479 11.1309L10.0036 13.4321Z" fill="var(--fill-0, #F5841F)"/>
<path id="Vector_41" d="M5.56641 10.5L5.61931 12.087L7.66127 13.674L7.98926 13.4413L7.52902 11.0713L5.56641 10.5Z" fill="var(--fill-0, #F5841F)"/>
<path id="Vector_42" d="M7.65935 13.7598C7.6456 13.7643 7.63079 13.7643 7.61703 13.7598L5.57507 12.1728C5.57007 12.1555 5.57007 12.1372 5.57507 12.1199L5.51688 10.5329C5.51 10.5141 5.51 10.4935 5.51688 10.4747C5.52607 10.4708 5.53597 10.4688 5.54597 10.4688C5.55597 10.4688 5.56587 10.4708 5.57507 10.4747L7.54297 11.0513C7.55498 11.055 7.56576 11.0618 7.57415 11.0711C7.58254 11.0805 7.58823 11.0919 7.59058 11.1042L8.05082 13.4742C8.05339 13.487 8.05226 13.5002 8.04758 13.5124C8.0429 13.5246 8.03485 13.5352 8.02437 13.5429L7.69109 13.7757L7.65935 13.7598ZM5.68087 12.0723L7.65935 13.6117L7.91857 13.4319L7.4742 11.1148L5.63326 10.5858L5.68087 12.0723Z" fill="var(--fill-0, #F5841F)"/>
<path id="Vector_43" d="M10.4349 15.8783V15.2276L10.2603 15.0742H7.61531L7.44603 15.2276V15.8783L5.29297 14.8203L6.06003 15.4498L7.64705 16.5078H10.3238L11.9108 15.4498L12.625 14.8203L10.4349 15.8783Z" fill="var(--fill-0, #C0AC9D)"/>
<path id="Vector_44" d="M10.2973 16.5972H7.62049H7.58346L6.02289 15.5392L5.25054 14.9044C5.24013 14.8927 5.23438 14.8777 5.23438 14.862C5.23438 14.8464 5.24013 14.8314 5.25054 14.8197C5.25991 14.8068 5.27321 14.7972 5.28846 14.7924C5.30372 14.7877 5.32011 14.788 5.33518 14.7933L7.45121 15.7931V15.2641C7.45175 15.2539 7.45438 15.244 7.45893 15.2349C7.46348 15.2258 7.46985 15.2177 7.47766 15.2112L7.64694 15.0631C7.66055 15.0578 7.67566 15.0578 7.68926 15.0631H10.3343C10.3479 15.0578 10.363 15.0578 10.3766 15.0631L10.5565 15.2112C10.5625 15.2283 10.5625 15.247 10.5565 15.2641V15.7931L12.6725 14.7933C12.6877 14.7888 12.7038 14.7889 12.7189 14.7936C12.734 14.7983 12.7473 14.8074 12.7572 14.8197C12.7676 14.8314 12.7733 14.8464 12.7733 14.862C12.7733 14.8777 12.7676 14.8927 12.7572 14.9044L11.9954 15.5392L10.4084 16.5972H10.2973ZM7.65223 16.4649H10.2973L11.8473 15.4069L12.1964 15.116L10.4824 15.9306C10.4733 15.9375 10.4621 15.9412 10.4507 15.9412C10.4392 15.9412 10.4281 15.9375 10.4189 15.9306C10.4084 15.9253 10.3996 15.9169 10.394 15.9065C10.3883 15.8961 10.3859 15.8842 10.3872 15.8724V15.2535L10.2497 15.1424H7.67339L7.54643 15.2535V15.8724C7.54769 15.8842 7.54533 15.8961 7.53966 15.9065C7.53399 15.9169 7.52528 15.9253 7.51469 15.9306C7.50553 15.9375 7.4944 15.9412 7.48295 15.9412C7.47151 15.9412 7.46037 15.9375 7.45121 15.9306L5.74252 15.1213L6.09166 15.4069L7.65223 16.4649Z" fill="var(--fill-0, #C0AC9D)"/>
<g id="Vector_45">
<path d="M7.52902 11.0708L5.56641 10.4942L6.9524 9.85938L7.52902 11.0708Z" fill="#161616"/>
<path d="M10.3906 11.0708L10.9673 9.85938L12.3638 10.4942L10.3906 11.0708Z" fill="#161616"/>
<path d="M10.2583 13.6735L9.93036 13.4407H7.9889L7.66091 13.6735L7.47576 15.2129L7.64504 15.0595H10.2901L10.4647 15.2129L10.2583 13.6735Z" fill="#161616"/>
</g>
<path id="Vector_46" d="M7.47795 15.2817H7.44621C7.43522 15.2742 7.42647 15.2638 7.42088 15.2517C7.41529 15.2396 7.41308 15.2262 7.41447 15.2129L7.59962 13.6788C7.59981 13.6693 7.60232 13.66 7.60693 13.6517C7.61154 13.6434 7.61811 13.6364 7.62607 13.6312L7.95405 13.3984H7.99108H9.93254H9.96957L10.2976 13.6312C10.3055 13.6364 10.3121 13.6434 10.3167 13.6517C10.3213 13.66 10.3238 13.6693 10.324 13.6788L10.5197 15.2129C10.52 15.2266 10.5168 15.2401 10.5103 15.2522C10.5038 15.2642 10.4943 15.2744 10.4827 15.2817C10.4719 15.2895 10.459 15.2936 10.4457 15.2936C10.4324 15.2936 10.4194 15.2895 10.4086 15.2817L10.2499 15.1494H7.67368L7.52027 15.2817C7.50666 15.287 7.49155 15.287 7.47795 15.2817V15.2817ZM7.64723 15.0013H10.2923C10.3059 14.996 10.321 14.996 10.3346 15.0013L10.3822 15.0384L10.2129 13.7L9.92725 13.4989H8.01224L7.72658 13.7L7.56259 15.0384L7.60491 15.0013C7.61851 14.996 7.63362 14.996 7.64723 15.0013V15.0013Z" fill="var(--fill-0, #161616)"/>
<path id="Vector_47" d="M17.2672 5.55612L17.8543 2.71535L16.9709 0.0703125L10.2578 5.04827L12.8447 7.22778L16.4895 8.2858L17.2936 7.34416L16.9286 7.09553L17.4576 6.56652L17.0344 6.23325L17.5634 5.81004L17.2672 5.55612Z" fill="var(--fill-0, #763E1A)"/>
<path id="Vector_48" d="M16.4898 8.35237L12.8397 7.29435L10.2158 5.09897C10.2093 5.08194 10.2093 5.06311 10.2158 5.04607C10.2156 5.03577 10.2179 5.02557 10.2225 5.01635C10.2271 5.00714 10.2339 4.99918 10.2423 4.99317L16.9289 0.00992469C16.9373 0.00349025 16.9475 0 16.958 0C16.9686 0 16.9788 0.00349025 16.9871 0.00992469C16.9973 0.0124841 17.0067 0.0177732 17.0141 0.0252271C17.0216 0.0326809 17.0269 0.0420194 17.0294 0.0522453L17.9076 2.69728C17.9101 2.70772 17.9101 2.71859 17.9076 2.72902L17.331 5.52747L17.6642 5.78139C17.673 5.78718 17.6801 5.79505 17.6851 5.80428C17.69 5.81351 17.6926 5.82382 17.6926 5.83429C17.6926 5.84477 17.69 5.85508 17.6851 5.86431C17.6801 5.87354 17.673 5.8814 17.6642 5.88719L17.1723 6.2575L17.532 6.53787C17.54 6.54305 17.5465 6.55009 17.5511 6.55839C17.5557 6.56669 17.5583 6.57599 17.5584 6.58548C17.5634 6.60276 17.5634 6.62111 17.5584 6.63839L17.0612 7.08804L17.3468 7.29435C17.3525 7.30972 17.3525 7.3266 17.3468 7.34196C17.3521 7.3574 17.3521 7.37414 17.3468 7.38958L16.5428 8.33121C16.536 8.33831 16.5277 8.34387 16.5186 8.34752C16.5095 8.35118 16.4997 8.35283 16.4898 8.35237V8.35237ZM12.8767 7.16739L16.4687 8.22541L17.1987 7.37371L16.9289 7.15152C16.9211 7.145 16.9147 7.13693 16.9102 7.12783C16.9056 7.11873 16.903 7.10878 16.9025 7.09862C16.8978 7.09058 16.8954 7.08146 16.8954 7.07217C16.8954 7.06289 16.8978 7.05376 16.9025 7.04572L17.3997 6.59077L17.0347 6.3104C17.0264 6.30439 17.0196 6.29644 17.015 6.28722C17.0104 6.278 17.0081 6.2678 17.0083 6.2575C17.0088 6.24734 17.0114 6.2374 17.016 6.22829C17.0205 6.21919 17.0269 6.21113 17.0347 6.2046L17.5267 5.83429L17.2305 5.60682C17.2244 5.59637 17.2212 5.58451 17.2212 5.57244C17.2212 5.56036 17.2244 5.5485 17.2305 5.53805L17.8124 2.71844L16.9289 0.184497L10.3639 5.05136L12.8767 7.16739Z" fill="var(--fill-0, #763E1A)"/>
<path id="Vector_49" d="M0.0703125 2.71258L0.65751 5.55335L0.281915 5.82843L0.842663 6.25164L0.419457 6.58492L0.974915 7.11392L0.62577 7.36785L1.42986 8.28832L5.08001 7.2303L7.66157 5.05079L0.948464 0.078125L0.0703125 2.71258Z" fill="var(--fill-0, #763E1A)"/>
<path id="Vector_50" d="M1.43018 8.35237C1.42179 8.35586 1.4128 8.35766 1.40373 8.35766C1.39465 8.35766 1.38566 8.35586 1.37727 8.35237L0.573184 7.41602C0.567944 7.40059 0.567944 7.38385 0.573184 7.36841C0.577451 7.35041 0.586604 7.33394 0.599634 7.3208L0.885298 7.11449L0.372161 6.63838C0.367165 6.6211 0.367165 6.60276 0.372161 6.58548C0.368804 6.578 0.367069 6.56988 0.367069 6.56168C0.367069 6.55347 0.368804 6.54536 0.372161 6.53787L0.731886 6.2575L0.234619 5.88719C0.22589 5.8814 0.218729 5.87354 0.213775 5.86431C0.208821 5.85508 0.206229 5.84477 0.206229 5.83429C0.206229 5.82382 0.208821 5.8135 0.213775 5.80427C0.218729 5.79504 0.22589 5.78718 0.234619 5.78139L0.578474 5.52747L0.00185623 2.72902C-0.000618743 2.71859 -0.000618743 2.70772 0.00185623 2.69728L0.880008 0.0522453C0.882971 0.0413264 0.889052 0.0315081 0.897508 0.0239917C0.905964 0.0164753 0.916428 0.0115869 0.927619 0.00992468C0.935953 0.00349025 0.946185 0 0.956714 0C0.967243 0 0.977475 0.00349025 0.98581 0.00992468L7.69891 4.99317C7.70795 4.99891 7.71553 5.00668 7.72104 5.01586C7.72656 5.02505 7.72984 5.03539 7.73065 5.04607C7.7363 5.06325 7.7363 5.08179 7.73065 5.09897L5.12265 7.27848L1.4725 8.3365L1.43018 8.35237ZM0.721306 7.36312L1.45134 8.21483L5.04858 7.15681L7.55608 5.04078L0.980519 0.184497L0.134108 2.71844L0.721306 5.53805C0.727912 5.5483 0.731425 5.56024 0.731425 5.57243C0.731425 5.58463 0.727912 5.59657 0.721306 5.60682L0.393322 5.829L0.885298 6.19931C0.893105 6.20584 0.899482 6.2139 0.904033 6.223C0.908584 6.23211 0.911211 6.24205 0.911749 6.25221C0.911964 6.26251 0.909669 6.27271 0.905061 6.28193C0.900452 6.29114 0.893669 6.2991 0.885298 6.30511L0.530863 6.59077L1.02813 7.04572C1.03277 7.05376 1.03522 7.06288 1.03522 7.07217C1.03522 7.08146 1.03277 7.09058 1.02813 7.09862C1.02759 7.10878 1.02497 7.11872 1.02041 7.12783C1.01586 7.13693 1.00949 7.14499 1.00168 7.15152L0.721306 7.36312Z" fill="var(--fill-0, #763E1A)"/>
<path id="Vector_51" d="M16.4905 8.28458L12.8457 7.22656L13.9407 8.88765L12.3008 12.0617H14.4697H17.7178L16.4905 8.28458Z" fill="var(--fill-0, #F5841F)"/>
<path id="Vector_52" d="M12.3003 12.1759C12.2888 12.1755 12.2776 12.1724 12.2675 12.1669C12.2574 12.1614 12.2487 12.1536 12.2421 12.1442C12.237 12.1344 12.2344 12.1235 12.2344 12.1124C12.2344 12.1014 12.237 12.0905 12.2421 12.0807L13.8662 8.90666L12.8082 7.28261C12.8004 7.27182 12.7963 7.25887 12.7963 7.24558C12.7963 7.23229 12.8004 7.21934 12.8082 7.20855C12.8163 7.1971 12.8278 7.18842 12.8411 7.18369C12.8543 7.17896 12.8687 7.17841 12.8822 7.1821L16.5324 8.24011C16.5426 8.24267 16.5519 8.24796 16.5594 8.25542C16.5669 8.26287 16.5721 8.27221 16.5747 8.28243L17.802 12.0543C17.8055 12.0641 17.8065 12.0747 17.8049 12.0851C17.8034 12.0954 17.7993 12.1052 17.793 12.1136C17.7867 12.122 17.7784 12.1287 17.7689 12.1331C17.7594 12.1375 17.749 12.1395 17.7385 12.1389H14.4693L12.3003 12.1653V12.1759ZM12.9986 7.36725L13.9984 8.87492C14.0035 8.88473 14.0062 8.89561 14.0062 8.90666C14.0062 8.91771 14.0035 8.9286 13.9984 8.9384L12.4114 12.0437L14.4693 12.0172H17.6433L16.4636 8.36708L12.9986 7.36725Z" fill="var(--fill-0, #F5841F)"/>
<path id="Vector_53" d="M5.08171 7.22656L1.43156 8.28458L0.214844 12.0617H3.45237H5.6213L3.98138 8.88765L5.08171 7.22656Z" fill="var(--fill-0, #F5841F)"/>
<path id="Vector_54" d="M5.6195 12.1711L3.45057 12.1446H0.213041C0.204741 12.1484 0.19572 12.1504 0.18659 12.1504C0.177461 12.1504 0.168439 12.1484 0.16014 12.1446C0.155033 12.1358 0.152344 12.1257 0.152344 12.1155C0.152344 12.1053 0.155033 12.0953 0.16014 12.0864L1.37686 8.3146C1.37942 8.30437 1.38471 8.29503 1.39216 8.28758C1.39961 8.28012 1.40895 8.27483 1.41918 8.27228L5.06933 7.21426C5.08285 7.2097 5.09751 7.20984 5.11095 7.21464C5.12438 7.21943 5.13581 7.22862 5.14339 7.24071C5.15114 7.2515 5.15531 7.26445 5.15531 7.27774C5.15531 7.29103 5.15114 7.30398 5.14339 7.31477L4.08537 8.93882L5.70943 12.1129C5.71453 12.1227 5.71719 12.1336 5.71719 12.1446C5.71719 12.1557 5.71453 12.1665 5.70943 12.1763C5.70359 12.1827 5.69641 12.1877 5.68842 12.1909C5.68042 12.1941 5.67181 12.1955 5.66321 12.195C5.6546 12.1945 5.64622 12.1921 5.63866 12.188C5.6311 12.1838 5.62455 12.178 5.6195 12.1711V12.1711ZM0.329422 12.0124H3.45057L5.51369 12.0388L3.92667 8.93353C3.92157 8.92373 3.91891 8.91284 3.91891 8.90179C3.91891 8.89074 3.92157 8.87986 3.92667 8.87005L4.92121 7.33593L1.48266 8.33576L0.329422 12.0124Z" fill="var(--fill-0, #F5841F)"/>
<path id="Vector_55" d="M10.0507 9.0593L10.2835 5.04414L11.3415 2.1875H6.60156L7.65958 5.04414L7.89234 9.0593L7.98227 10.3236V13.4395H9.92373V10.3236L10.0507 9.0593Z" fill="var(--fill-0, #F5841F)"/>
<path id="Vector_56" d="M9.92961 13.5092H7.98815C7.97935 13.5093 7.97064 13.5075 7.96257 13.5039C7.9545 13.5004 7.94725 13.4953 7.94128 13.4888C7.93531 13.4823 7.93076 13.4747 7.9279 13.4664C7.92504 13.4581 7.92394 13.4492 7.92467 13.4405V10.3246L7.83474 9.06557L7.60198 5.06099L6.54396 2.20964C6.54084 2.19075 6.54515 2.17138 6.556 2.15559C6.56685 2.13981 6.58339 2.12885 6.60215 2.125H11.3156C11.3259 2.12623 11.3358 2.1296 11.3448 2.13492C11.3537 2.14023 11.3614 2.14735 11.3674 2.15583C11.3734 2.16431 11.3775 2.17396 11.3795 2.18414C11.3815 2.19432 11.3814 2.20481 11.3791 2.21493L10.3211 5.06628L10.0883 9.07086L9.99838 10.3352V13.4458C9.99841 13.4546 9.99661 13.4633 9.99309 13.4713C9.98958 13.4794 9.98442 13.4867 9.97796 13.4926C9.97149 13.4986 9.96385 13.5032 9.95553 13.506C9.9472 13.5089 9.93838 13.51 9.92961 13.5092V13.5092ZM8.05692 13.377H9.86084V10.3246L9.94548 9.06028L10.1835 5.03983L11.2098 2.26783H6.69737L7.72365 5.02396L7.95641 9.04441L8.04634 10.3035L8.05692 13.377Z" fill="var(--fill-0, #F5841F)"/>
</g>
</svg>
