<svg preserveAspectRatio="none" width="100%" height="100%" overflow="visible" style="display: block;" viewBox="0 0 16.6667 16.6667" fill="none" xmlns="http://www.w3.org/2000/svg">
<path id="Subtract" fill-rule="evenodd" clip-rule="evenodd" d="M6.327 1.00023C6.12406 1.17317 6.02259 1.25965 5.91422 1.33228C5.6658 1.49879 5.38681 1.61435 5.09342 1.67227C4.96543 1.69754 4.83253 1.70814 4.56673 1.72935C3.89891 1.78265 3.565 1.80929 3.28642 1.90769C2.64209 2.13528 2.13528 2.64209 1.90769 3.28642C1.80929 3.565 1.78265 3.89891 1.72935 4.56673C1.70814 4.83253 1.69754 4.96543 1.67227 5.09342C1.61435 5.38681 1.49879 5.6658 1.33228 5.91422C1.25965 6.02259 1.17317 6.12406 1.00023 6.327C0.565695 6.8369 0.34842 7.09186 0.221013 7.35842C-0.073671 7.97496 -0.073671 8.69171 0.221013 9.30824C0.348421 9.57481 0.56569 9.82976 1.00023 10.3397C1.17315 10.5426 1.25965 10.6441 1.33228 10.7524C1.49879 11.0009 1.61435 11.2799 1.67227 11.5732C1.69754 11.7012 1.70814 11.8341 1.72935 12.0999C1.78265 12.7678 1.80929 13.1017 1.90769 13.3802C2.13528 14.0246 2.64209 14.5314 3.28642 14.759C3.565 14.8574 3.89891 14.884 4.56673 14.9373C4.83253 14.9585 4.96543 14.9691 5.09342 14.9944C5.38681 15.0523 5.6658 15.1679 5.91422 15.3344C6.02259 15.407 6.12406 15.4935 6.327 15.6664C6.83691 16.101 7.09186 16.3182 7.35842 16.4457C7.97496 16.7403 8.69171 16.7403 9.30824 16.4457C9.57481 16.3182 9.82976 16.101 10.3397 15.6664C10.5426 15.4935 10.6441 15.407 10.7524 15.3344C11.0009 15.1679 11.2799 15.0523 11.5732 14.9944C11.7012 14.9691 11.8341 14.9585 12.0999 14.9373C12.7678 14.884 13.1017 14.8574 13.3802 14.759C14.0246 14.5314 14.5314 14.0246 14.759 13.3802C14.8574 13.1017 14.884 12.7678 14.9373 12.0999C14.9585 11.8341 14.9691 11.7012 14.9944 11.5732C15.0523 11.2799 15.1679 11.0009 15.3344 10.7524C15.407 10.6441 15.4935 10.5426 15.6664 10.3397C16.101 9.82976 16.3182 9.57481 16.4457 9.30824C16.7403 8.69171 16.7403 7.97496 16.4457 7.35842C16.3182 7.09186 16.101 6.83691 15.6664 6.327C15.4935 6.12406 15.407 6.02259 15.3344 5.91422C15.1679 5.6658 15.0523 5.38681 14.9944 5.09342C14.9691 4.96543 14.9585 4.83253 14.9373 4.56673C14.884 3.89891 14.8574 3.565 14.759 3.28642C14.5314 2.64209 14.0246 2.13528 13.3802 1.90769C13.1017 1.80929 12.7678 1.78265 12.0999 1.72935C11.8341 1.70814 11.7012 1.69754 11.5732 1.67227C11.2799 1.61435 11.0009 1.49879 10.7524 1.33228C10.6441 1.25965 10.5426 1.17317 10.3397 1.00023C9.82976 0.56569 9.57481 0.348421 9.30824 0.221013C8.69171 -0.073671 7.97496 -0.073671 7.35842 0.221013C7.09186 0.34842 6.8369 0.565694 6.327 1.00023ZM11.5258 5.14133C11.7906 5.40619 11.7906 5.83561 11.5258 6.10047L6.10003 11.5262C5.83517 11.7911 5.40574 11.7911 5.14088 11.5262C4.87602 11.2613 4.87602 10.8319 5.14088 10.5671L10.5666 5.14133C10.8315 4.87647 11.2609 4.87647 11.5258 5.14133ZM11.4983 10.5945C11.4983 11.0939 11.0935 11.4988 10.594 11.4988C10.0946 11.4988 9.68976 11.0939 9.68976 10.5945C9.68976 10.0951 10.0946 9.6902 10.594 9.6902C11.0935 9.6902 11.4983 10.0951 11.4983 10.5945ZM6.0726 6.97733C6.57202 6.97733 6.97689 6.57247 6.97689 6.07304C6.97689 5.57362 6.57202 5.16875 6.0726 5.16875C5.57317 5.16875 5.16831 5.57362 5.16831 6.07304C5.16831 6.57247 5.57317 6.97733 6.0726 6.97733Z" fill="var(--fill-0, white)" fill-opacity="0.5"/>
</svg>
