<svg preserveAspectRatio="none" width="100%" height="100%" overflow="visible" style="display: block;" viewBox="0 0 9.71076 15.4115" fill="none" xmlns="http://www.w3.org/2000/svg">
<g id="Group 313">
<g id="Group 328">
<path id="Vector 314" d="M4.65518 1.13116L9.67386 1.13116L9.67386 15.4115C6.53718 15.4115 4.65518 13.194 4.65518 11.3923L4.65518 1.13116Z" fill="url(#paint0_linear_35581_37645)"/>
<path id="Vector 315" d="M4.53367 1.25297L9.55234 1.25297L9.55234 15.1687C6.41567 15.1687 4.53367 12.9512 4.53367 11.1495L4.53367 1.25297Z" stroke="url(#paint1_linear_35581_37645)" stroke-width="0.316836"/>
</g>
<path id="Vector 312" d="M0.158418 0.158418L5.17709 0.158418L5.17709 12.0081C2.04042 12.0081 0.158418 9.79059 0.158418 7.98889L0.158418 0.158418Z" fill="url(#paint2_linear_35581_37645)"/>
<path id="Vector 313" d="M0.158418 0.158418L5.17709 0.158418L5.17709 12.0081C2.04042 12.0081 0.158418 9.79059 0.158418 7.98889L0.158418 0.158418Z" stroke="url(#paint3_linear_35581_37645)" stroke-width="0.316836"/>
</g>
<defs>
<linearGradient id="paint0_linear_35581_37645" x1="4.65518" y1="8.1623" x2="8.90711" y2="12.4142" gradientUnits="userSpaceOnUse">
<stop stop-color="#CE9E3E"/>
<stop offset="0.875" stop-color="#FBE28A"/>
</linearGradient>
<linearGradient id="paint1_linear_35581_37645" x1="9.55234" y1="14.3501" x2="1.65474" y2="5.99909" gradientUnits="userSpaceOnUse">
<stop stop-color="#FCECB1"/>
<stop offset="0.729174" stop-color="#DCB355"/>
</linearGradient>
<linearGradient id="paint2_linear_35581_37645" x1="0.158415" y1="5.99277" x2="3.62607" y2="10.1718" gradientUnits="userSpaceOnUse">
<stop stop-color="#CE9E3E"/>
<stop offset="0.875" stop-color="#FBE28A"/>
</linearGradient>
<linearGradient id="paint3_linear_35581_37645" x1="5.17709" y1="11.311" x2="-1.40352" y2="3.13932" gradientUnits="userSpaceOnUse">
<stop stop-color="#FCECB1"/>
<stop offset="0.729174" stop-color="#DCB355"/>
</linearGradient>
</defs>
</svg>
