<svg preserveAspectRatio="none" width="100%" height="100%" overflow="visible" style="display: block;" viewBox="0 0 16 16" fill="none" xmlns="http://www.w3.org/2000/svg">
<path id="Vector" d="M15.8684 5.43347L13.5928 12.3693C13.4493 12.8517 13.1973 13.2948 12.8561 13.6647C12.515 14.0346 12.0937 14.3215 11.6246 14.5035C11.8738 13.9228 12.0019 13.2974 12.0013 12.6654V5.99634C11.9999 4.75865 11.5077 3.57205 10.6328 2.69687C9.75779 1.82168 8.5715 1.32938 7.33412 1.32797H6.224C6.63571 0.783194 7.20425 0.377506 7.85323 0.165415C8.50221 -0.0466755 9.20054 -0.0550076 9.8544 0.141538L13.6455 1.30596C14.4824 1.56602 15.1839 2.14396 15.5996 2.91568C16.0152 3.6874 16.1117 4.59136 15.8684 5.43347ZM10.6678 5.99634V12.6654C10.6668 13.5495 10.3152 14.397 9.69023 15.0222C9.06527 15.6473 8.21795 15.9989 7.33412 16H3.33369C2.44987 15.9989 1.60254 15.6473 0.977585 15.0222C0.352626 14.397 0.00105869 13.5495 0 12.6654L0 5.99634C0.00105869 5.11229 0.352626 4.26475 0.977585 3.63963C1.60254 3.01451 2.44987 2.66285 3.33369 2.66179H7.33412C8.21795 2.66285 9.06527 3.01451 9.69023 3.63963C10.3152 4.26475 10.6668 5.11229 10.6678 5.99634ZM8.00086 8.66399C8.00086 8.31023 7.86037 7.97097 7.6103 7.72083C7.36022 7.47069 7.02105 7.33016 6.66739 7.33016C6.31373 7.33016 5.97455 7.47069 5.72448 7.72083C5.4744 7.97097 5.33391 8.31023 5.33391 8.66399C5.33391 8.31023 5.19342 7.97097 4.94334 7.72083C4.69327 7.47069 4.35409 7.33016 4.00043 7.33016C3.64677 7.33016 3.3076 7.47069 3.05752 7.72083C2.80745 7.97097 2.66695 8.31023 2.66695 8.66399C2.66695 9.63101 3.6964 10.9255 4.47648 11.5837C4.71616 11.7866 5.01995 11.8979 5.33391 11.8979C5.64786 11.8979 5.95166 11.7866 6.19133 11.5837C6.97142 10.9255 8.00086 9.63101 8.00086 8.66399Z" fill="var(--fill-0, white)"/>
</svg>
