<svg preserveAspectRatio="none" width="100%" height="100%" overflow="visible" style="display: block;" viewBox="0 0 21.615 19.5923" fill="none" xmlns="http://www.w3.org/2000/svg">
<g id="number">
<path id="3" d="M9.30866 18.592C6.26066 18.568 2.94866 18.136 1.07666 17.296L1.48466 13.72C2.97266 14.512 6.74066 15.088 9.02066 15.088C13.1487 15.088 15.5967 14.464 15.8127 13.192C16.0527 11.848 13.7727 11.392 6.04466 11.248L6.30866 8.32C14.6367 7.984 16.3647 7.384 16.5807 6.088C16.8207 4.864 14.3247 4.504 11.3487 4.504C8.85266 4.504 4.86866 5.272 3.06866 6.016L3.50066 2.2C5.68466 1.384 9.54866 1 11.7327 1C17.2527 1 21.2127 2.056 20.5407 5.896C19.9407 9.328 16.3407 9.664 12.5487 9.688V9.784C15.9087 9.784 20.2287 10.456 19.5807 14.104C18.9327 17.68 15.0207 18.616 9.30866 18.592Z" fill="url(#paint0_linear_35581_37718)"/>
<path id="3 (Stroke)" d="M11.7324 0C14.5109 0 17.0722 0.258534 18.8809 1.10156C19.8051 1.53242 20.599 2.14583 21.0938 3.0166C21.5318 3.78773 21.6866 4.67435 21.585 5.64648L21.5254 6.06836C21.3449 7.10068 20.9278 7.94776 20.3027 8.61621C19.7697 9.18622 19.1184 9.59026 18.416 9.88086C19.0661 10.2302 19.6576 10.7032 20.0713 11.3535C20.5916 12.1716 20.7644 13.1594 20.5654 14.2793L20.5645 14.2822C20.1638 16.4932 18.7182 17.8604 16.7012 18.6318C14.7472 19.379 12.1857 19.6039 9.30469 19.5918H9.30078C6.21876 19.5675 2.7346 19.1358 0.666992 18.208L0 17.9092L0.658203 12.1475L1.9541 12.8369C2.54596 13.1519 3.72239 13.4746 5.125 13.7158C6.49555 13.9515 7.94966 14.0879 9.02051 14.0879V15.0879C6.74048 15.0879 2.97233 14.5117 1.48438 13.7197L1.07715 17.2959C2.94917 18.1358 6.2608 18.5678 9.30859 18.5918C14.8421 18.615 18.6868 17.7376 19.5107 14.4316L19.5811 14.1045C20.229 10.4565 15.9088 9.78419 12.5488 9.78418V9.68848C16.2222 9.66522 19.7152 9.34866 20.4756 6.20898L20.541 5.89648C21.171 2.29656 17.7298 1.14281 12.749 1.0127L11.7324 1C9.54842 1.00004 5.6849 1.38427 3.50098 2.2002L3.06836 6.01562C4.86833 5.27163 8.85263 4.50393 11.3486 4.50391C14.3245 4.50391 16.8208 4.86403 16.5811 6.08789L16.5557 6.20703C16.2503 7.42105 14.3772 7.99478 6.30859 8.32031L6.04492 11.248C13.7728 11.3921 16.0525 11.8484 15.8125 13.1924L15.7861 13.3096C15.4421 14.5025 13.0193 15.0879 9.02051 15.0879V14.0879C11.0524 14.0879 12.5933 13.9327 13.6211 13.6523C14.1357 13.512 14.4622 13.3555 14.6504 13.2178C14.7242 13.1638 14.7657 13.1184 14.79 13.0879C14.6398 13.0003 14.3254 12.8713 13.7217 12.751C12.3167 12.4711 9.90214 12.3203 6.02637 12.248L4.95215 12.2275L5.3916 7.35645L6.26855 7.32129C10.4403 7.15298 12.863 6.91974 14.2568 6.59082C14.9547 6.42613 15.2938 6.2591 15.4531 6.13867C15.5059 6.09873 15.5366 6.06576 15.5566 6.03418C15.4454 5.97084 15.2472 5.88725 14.9268 5.80664C14.0859 5.59512 12.8201 5.50391 11.3486 5.50391C10.1846 5.50392 8.63061 5.68507 7.13086 5.96387C5.62362 6.24408 4.25654 6.60759 3.45117 6.94043L1.88477 7.58789L2.57617 1.47754L3.15039 1.26367C5.49957 0.385957 9.50348 3.60917e-05 11.7324 0Z" fill="url(#paint1_linear_35581_37718)" fill-opacity="0.1"/>
</g>
<defs>
<linearGradient id="paint0_linear_35581_37718" x1="11.0527" y1="3.333" x2="11.0527" y2="14.808" gradientUnits="userSpaceOnUse">
<stop stop-color="white"/>
<stop offset="0.395833" stop-color="white"/>
<stop offset="0.46875" stop-color="#9DEDFF"/>
<stop offset="0.723958" stop-color="#C3F4FF"/>
<stop offset="1" stop-color="white"/>
</linearGradient>
<linearGradient id="paint1_linear_35581_37718" x1="12.8609" y1="0.644482" x2="8.32522" y2="18.8307" gradientUnits="userSpaceOnUse">
<stop stop-color="white"/>
<stop offset="1" stop-color="white" stop-opacity="0.3"/>
</linearGradient>
</defs>
</svg>
