<svg preserveAspectRatio="none" width="100%" height="100%" overflow="visible" style="display: block;" viewBox="0 0 12.0714 13" fill="none" xmlns="http://www.w3.org/2000/svg">
<g id="Vector">
<path d="M6.09147 0C6.18626 0.0571779 6.28104 0.119554 6.37862 0.171534C7.42404 0.738114 8.46947 1.3021 9.51489 1.86608C9.55392 1.88687 9.59295 1.91026 9.65149 1.94405C9.6041 1.97264 9.56786 1.99863 9.53162 2.01942C9.20266 2.19615 8.8737 2.37028 8.54753 2.55221C8.47225 2.5938 8.42207 2.5912 8.34959 2.54961C7.61919 2.15197 6.88321 1.75692 6.15002 1.35927C6.06917 1.31509 6.00784 1.31509 5.92699 1.35927C5.19659 1.75692 4.46061 2.15197 3.72742 2.54961C3.65494 2.5886 3.60197 2.5938 3.52949 2.55221C3.20053 2.36768 2.86599 2.19095 2.53146 2.01162C2.50079 1.99603 2.47012 1.97524 2.42273 1.94665C2.48964 1.91026 2.54261 1.87907 2.59557 1.84788C3.68839 1.25791 4.784 0.667941 5.87681 0.0753708C5.91584 0.0545789 5.94651 0.0259899 5.98275 0C6.0162 0 6.05523 0 6.09147 0Z" fill="white"/>
<path d="M5.97995 12.9948C5.74299 12.8623 5.50882 12.7271 5.27185 12.5972C5.14919 12.5296 5.02095 12.4672 4.90108 12.3945C4.86483 12.3737 4.8258 12.3243 4.8258 12.2879C4.82023 11.8825 4.82302 11.477 4.82302 11.0534C4.87041 11.0742 4.90665 11.0898 4.9401 11.108C5.27743 11.2873 5.61475 11.4666 5.94929 11.6537C6.01341 11.6901 6.05801 11.6901 6.12213 11.6537C6.4483 11.4744 6.77726 11.2977 7.10622 11.121C7.14525 11.1002 7.18707 11.0794 7.2484 11.0482C7.2484 11.1287 7.2484 11.1911 7.2484 11.2535C7.2484 11.5784 7.24283 11.9032 7.25119 12.2255C7.25398 12.3269 7.21495 12.3789 7.12295 12.4282C6.81072 12.5894 6.50406 12.7583 6.1974 12.9246C6.15837 12.9454 6.12492 12.974 6.09147 13C6.05522 12.9948 6.01619 12.9948 5.97995 12.9948Z" fill="white"/>
<path d="M9.65706 5.19551C9.65706 5.37744 9.65148 5.55937 9.65984 5.7413C9.66263 5.82707 9.62918 5.87125 9.55112 5.91283C8.82629 6.30008 8.10704 6.68993 7.385 7.07718C7.28464 7.13176 7.24561 7.18894 7.2484 7.3007C7.25397 8.0752 7.25119 8.8523 7.25397 9.6268C7.25397 9.72036 7.22609 9.77494 7.13688 9.82172C6.80514 9.99326 6.47618 10.17 6.15 10.3519C6.06637 10.3987 6.00504 10.3935 5.92419 10.3493C5.59802 10.1674 5.26906 9.99066 4.93731 9.81912C4.85368 9.77494 4.82301 9.72556 4.82301 9.6346C4.8258 8.8497 4.82301 8.0674 4.82859 7.2825C4.82859 7.18894 4.79792 7.13696 4.7115 7.08758C3.98388 6.70033 3.25906 6.30528 2.53144 5.91543C2.45059 5.87125 2.41435 5.82707 2.41435 5.7361C2.41993 5.37744 2.41993 5.01618 2.41435 4.65752C2.41435 4.57955 2.43387 4.53277 2.51193 4.49378C2.85482 4.31445 3.19494 4.12992 3.53505 3.9428C3.60474 3.90381 3.65492 3.90901 3.72183 3.94539C4.44108 4.33784 5.16591 4.72249 5.88516 5.11754C5.99946 5.17992 6.0831 5.17732 6.1974 5.11494C6.91107 4.72249 7.63311 4.34044 8.34679 3.95059C8.41927 3.91161 8.47224 3.90641 8.54751 3.94799C8.88484 4.13512 9.22773 4.31965 9.57063 4.49898C9.64312 4.53537 9.66263 4.58215 9.66263 4.65492C9.65427 4.83165 9.65706 5.01358 9.65706 5.19551Z" fill="white"/>
<path d="M0.00310276 5.83997C0.329275 6.0141 0.624782 6.19343 0.939803 6.33638C1.15725 6.43774 1.23252 6.56249 1.22695 6.7938C1.20743 7.52152 1.22137 8.24923 1.21858 8.97435C1.21858 9.06272 1.24646 9.1121 1.33288 9.15628C2.06329 9.54613 2.7909 9.94378 3.52409 10.3336C3.60773 10.3778 3.64118 10.4246 3.63839 10.5156C3.63282 10.8664 3.6356 11.2173 3.6356 11.5681C3.6356 11.6045 3.6356 11.6435 3.6356 11.7007C3.57427 11.6695 3.52967 11.6513 3.48785 11.6279C2.36158 11.0198 1.23531 10.4142 0.111827 9.80343C0.0644343 9.77744 0.014254 9.71767 0.0114662 9.67348C0.00031496 8.40517 0.00310276 7.13687 0.00310276 5.83997Z" fill="white"/>
<path d="M8.43851 11.7059C8.43851 11.2719 8.43572 10.8613 8.44408 10.4506C8.44408 10.4116 8.5082 10.3623 8.5556 10.3389C9.28043 9.94642 10.0053 9.55397 10.7329 9.16672C10.8277 9.11734 10.8555 9.06276 10.8555 8.964C10.85 8.1817 10.8555 7.3968 10.85 6.61451C10.85 6.53134 10.875 6.48456 10.9559 6.44037C11.296 6.26364 11.6305 6.07911 11.9679 5.89718C11.9957 5.88159 12.0236 5.87119 12.0682 5.8504C12.0682 5.90758 12.0682 5.94916 12.0682 5.99075C12.0682 7.20188 12.0682 8.41561 12.071 9.62674C12.071 9.7203 12.0431 9.77228 11.9539 9.81906C10.8332 10.4194 9.71532 11.0224 8.59741 11.6254C8.55281 11.6488 8.5082 11.6695 8.43851 11.7059Z" fill="white"/>
<path d="M2.42817 3.24869C2.0574 3.44881 1.71171 3.63854 1.36045 3.82047C1.25451 3.87505 1.2099 3.93223 1.21269 4.05178C1.22384 4.42864 1.21548 4.80549 1.21548 5.19794C1.17088 5.17715 1.13185 5.16415 1.09839 5.14596C0.766645 4.96403 0.437684 4.7821 0.100361 4.60537C0.027878 4.56638 0 4.5248 0 4.44423C0.0055756 4.08037 0.0055756 3.71651 0 3.35265C0 3.27468 0.0250902 3.2279 0.100361 3.18892C0.44326 3.00958 0.780584 2.81986 1.12348 2.64053C1.16251 2.61974 1.23499 2.60674 1.27124 2.62753C1.65038 2.82506 2.02673 3.03038 2.42817 3.24869Z" fill="white"/>
<path d="M9.64584 3.2486C9.92741 3.09526 10.1895 2.95231 10.4515 2.81196C10.5881 2.73919 10.7247 2.61704 10.8641 2.61704C10.9951 2.61444 11.1317 2.73919 11.2628 2.81196C11.4941 2.93672 11.7255 3.06927 11.9625 3.18622C12.0517 3.2304 12.074 3.28498 12.0712 3.37075C12.0656 3.72681 12.0656 4.08027 12.0712 4.43634C12.0712 4.5195 12.0489 4.56888 11.9681 4.61047C11.6001 4.80279 11.2405 5.00032 10.853 5.20824C10.853 4.85997 10.8362 4.5325 10.8585 4.20762C10.8753 3.97891 10.8 3.84896 10.577 3.7476C10.2619 3.60206 9.96643 3.42273 9.64584 3.2486Z" fill="white"/>
<path d="M2.42819 7.14994C2.72927 7.31108 3.01642 7.49041 3.32307 7.62556C3.57398 7.73472 3.65761 7.88026 3.63531 8.13496C3.60743 8.44944 3.62973 8.76652 3.62973 9.09659C3.5907 9.0836 3.56283 9.0784 3.53773 9.06541C3.19205 8.88088 2.84636 8.69635 2.50625 8.50402C2.46443 8.48063 2.41983 8.42345 2.41704 8.37927C2.41146 7.98422 2.41425 7.59177 2.41425 7.19673C2.41425 7.18633 2.41983 7.17593 2.42819 7.14994Z" fill="white"/>
<path d="M8.43886 9.08875C8.43886 8.67291 8.43886 8.26747 8.44165 7.86203C8.44165 7.83344 8.46116 7.78925 8.48625 7.77626C8.86261 7.57354 9.24175 7.37342 9.6181 7.17329C9.62368 7.17069 9.63483 7.17589 9.65713 7.17849C9.65713 7.46958 9.62925 7.76586 9.6655 8.05435C9.70174 8.36623 9.58744 8.54296 9.28357 8.66771C9.00479 8.77947 8.75109 8.94581 8.48625 9.08615C8.47789 9.08875 8.46674 9.08615 8.43886 9.08875Z" fill="white"/>
<path d="M7.25094 3.24853C7.02512 3.37069 6.81604 3.48244 6.60974 3.5942C6.44526 3.68256 6.28357 3.77353 6.1163 3.8593C6.08006 3.87749 6.01315 3.88788 5.98249 3.87229C5.60613 3.67477 5.23536 3.47205 4.86458 3.27192C4.859 3.26932 4.85621 3.25893 4.84506 3.24074C5.13499 3.0822 5.43886 2.94445 5.71207 2.76252C5.94624 2.60918 6.13024 2.60918 6.36163 2.76252C6.63483 2.93925 6.9387 3.0796 7.25094 3.24853Z" fill="white"/>
</g>
</svg>
