<svg preserveAspectRatio="none" width="100%" height="100%" overflow="visible" style="display: block;" viewBox="0 0 15.9484 16" fill="none" xmlns="http://www.w3.org/2000/svg">
<path id="Vector" d="M15.4585 10.0981C14.9983 9.36717 14.2132 8.93401 13.3739 8.93401C13.022 8.93401 12.6159 9.0423 12.264 9.20474L12.1827 9.23181C11.3164 7.41794 10.8291 5.41455 10.8291 3.38409V2.62606L12.9949 1.62437L12.4535 0.541455L9.23181 2.03046C9.17767 2.05753 9.15059 2.0846 9.09645 2.0846L9.0423 2.00338C8.12183 0.758037 6.6599 0 5.08968 0C4.25042 0 3.41117 0.216582 2.65313 0.649746L0 2.16582L1.51607 3.30288C2.65313 4.14213 4.00677 4.60237 5.41455 4.60237C5.65821 4.60237 5.87479 4.5753 6.09137 4.54822C5.03553 5.92893 4.41286 7.58037 4.33164 9.36717L3.9797 9.20474C3.62775 9.01523 3.24873 8.93401 2.86971 8.93401C2.03046 8.93401 1.24535 9.36717 0.758037 10.0981C0.460237 10.6396 0.270728 11.2623 0.270728 11.8849C0.270728 13.0491 0.758037 14.132 1.62437 14.9442C2.3824 15.621 3.3841 16 4.38579 16H4.90017C6.14552 16 7.2555 15.3773 7.87817 14.3215C8.20305 13.8071 8.39256 13.1574 8.39256 12.5347C8.39256 10.8291 7.06599 9.47547 5.36041 9.47547H4.90017C5.25212 7.09306 6.60575 5.03553 8.58207 3.76311C8.71743 3.68189 8.85279 3.60068 8.98816 3.51946C9.17767 3.41117 9.39425 3.30288 9.61083 3.19459L9.74619 3.11337C9.80034 5.33333 10.3959 7.49915 11.4789 9.47547H10.8562C9.88156 9.47547 8.98816 9.9357 8.41963 10.6937C8.71743 11.2352 8.90694 11.8579 8.90694 12.5347C8.90694 13.2115 8.7445 13.8613 8.41963 14.4569C9.06937 15.4315 10.1252 16 11.3164 16H11.8308C12.8596 16 13.8342 15.621 14.5922 14.9442C15.4585 14.1591 15.9459 13.0761 15.9459 11.8849C15.9729 11.2623 15.7834 10.6396 15.4585 10.0981Z" fill="var(--fill-0, white)" fill-opacity="0.5"/>
</svg>
