<svg preserveAspectRatio="none" width="100%" height="100%" overflow="visible" style="display: block;" viewBox="0 0 28.521 24.998" fill="none" xmlns="http://www.w3.org/2000/svg">
<path id="Vector" d="M20.2828 1.09245C20.7254 1.09049 21.1356 1.32479 21.359 1.70671C23.3502 5.11087 25.2669 8.39091 27.2584 11.7956C27.4844 12.1819 27.4846 12.6599 27.2594 13.0466C25.2477 16.4998 23.3059 19.8368 21.2945 23.2897C21.0713 23.6728 20.6598 23.907 20.2164 23.905C16.2198 23.8864 12.2227 23.8678 8.22225 23.8493C7.78274 23.8472 7.37686 23.6128 7.15585 23.2331C5.19086 19.8566 3.22547 16.4769 1.26034 13.0964C1.03601 12.7105 1.03646 12.233 1.26132 11.8473C3.22023 8.4879 5.17922 5.12777 7.13827 1.76433C7.35948 1.38461 7.76536 1.15023 8.20468 1.14812C12.2308 1.12955 16.2567 1.11102 20.2828 1.09245Z" stroke="url(#paint0_linear_35581_36034)" stroke-width="2.1853"/>
<defs>
<linearGradient id="paint0_linear_35581_36034" x1="6.47704" y1="0.615971" x2="16.7443" y2="24.3185" gradientUnits="userSpaceOnUse">
<stop stop-color="#BABCC5"/>
<stop offset="1" stop-color="#F0F0F2"/>
</linearGradient>
</defs>
</svg>
