<svg preserveAspectRatio="none" width="100%" height="100%" overflow="visible" style="display: block;" viewBox="0 0 7 6.41667" fill="none" xmlns="http://www.w3.org/2000/svg">
<path id="Vector" d="M5.28228 1.96027C5.15312 1.87888 4.98523 1.87888 4.84318 1.96027L3.83578 2.58431L3.15128 2.99129L2.14391 3.61531C2.01476 3.6967 1.84686 3.6967 1.7048 3.61531L0.904059 3.12693C0.774907 3.04553 0.684502 2.89632 0.684502 2.73353V1.77035C0.684502 1.60756 0.761993 1.45833 0.904059 1.37694L1.69188 0.902133C1.82103 0.820738 1.98893 0.820738 2.13099 0.902133L2.91882 1.37694C3.04796 1.45833 3.13837 1.60756 3.13837 1.77035V2.39438L3.82287 1.97384V1.34981C3.82287 1.18702 3.7454 1.03779 3.60332 0.956396L2.14391 0.0610466C2.01476 -0.0203489 1.84686 -0.0203489 1.7048 0.0610466L0.219557 0.956396C0.0774907 1.03779 0 1.18702 0 1.34981V3.15408C0 3.31686 0.0774907 3.4661 0.219557 3.54749L1.7048 4.44284C1.83395 4.52423 2.00184 4.52423 2.14391 4.44284L3.15128 3.83237L3.83578 3.41183L4.84318 2.80136C4.97232 2.71996 5.14021 2.71996 5.28228 2.80136L6.0701 3.27617C6.19924 3.35756 6.28966 3.5068 6.28966 3.66958V4.63275C6.28966 4.79556 6.21218 4.94477 6.0701 5.02616L5.28228 5.51455C5.15312 5.59594 4.98523 5.59594 4.84318 5.51455L4.05536 5.03974C3.92619 4.95835 3.83578 4.80911 3.83578 4.64632V4.0223L3.15128 4.44284V5.06686C3.15128 5.22964 3.22879 5.37888 3.37083 5.46028L4.85609 6.35562C4.98523 6.43701 5.15312 6.43701 5.29519 6.35562L6.78045 5.46028C6.90959 5.37888 7 5.22964 7 5.06686V3.26259C7 3.09981 6.92249 2.9506 6.78045 2.8692L5.28228 1.96027Z" fill="var(--fill-0, white)"/>
</svg>
