<svg preserveAspectRatio="none" width="100%" height="100%" overflow="visible" style="display: block;" viewBox="0 0 49.5787 27.8526" fill="none" xmlns="http://www.w3.org/2000/svg">
<g id="visual-content" opacity="0.9">
<path id="Vector" d="M12.1302 6.02915C14.1951 5.88553 15.6419 6.36199 16.034 9.71546C16.2642 11.6806 20.5238 10.7505 21.0459 9.39174C21.568 8.03302 18.9043 7.25792 18.9043 7.25792C18.9043 7.25792 22.35 6.27536 25.378 8.03302C26.6906 8.79445 27.6943 11.3888 28.7384 10.6707C29.7719 9.95938 27.7966 6.72674 27.7454 6.64695C27.8158 6.66975 30.6072 7.66143 30.7543 9.79296C30.9034 11.9496 34.4151 13.2285 34.4897 12.1912C34.5643 11.1517 32.9193 10.1121 32.9193 10.1121C32.9193 10.1121 36.4011 10.527 36.6995 13.404C36.9978 16.2811 40.3348 16.3335 40.2602 15.6154C40.1856 14.8973 39.1202 14.1883 39.1202 14.1883C39.1202 14.1883 41.982 13.648 44.8523 16.3517C45.5363 16.9969 46.2928 17.9156 46.9683 18.8093L11.4867 18.8093C10.3467 17.3799 9.73509 14.4687 9.72017 14.3866C9.77771 14.455 12.1387 17.2704 12.3604 15.6131C12.5841 13.9352 10.14 12.2687 8.04742 12.3485C5.95488 12.4283 5.80571 9.79069 5.80571 9.79069C5.80571 9.79069 6.25533 10.5088 7.45077 10.1896C8.64407 9.87048 6.52596 8.32482 5.5841 7.38102C3.48517 5.27456 3.9774 2.46594 3.9774 2.46594C3.9774 2.46594 5.01089 6.51929 12.1302 6.02915Z" fill="var(--fill-0, #F04924)"/>
<path id="Vector_2" d="M42.1358 18.2644C42.7324 18.5653 43.0925 18.3829 42.9455 17.9224C42.8027 17.4779 42.5364 17.4186 42.5193 17.4118C42.562 17.414 43.7425 17.4528 44.5501 18.237C44.7014 18.3852 44.8846 18.5767 45.0764 18.8047H37.9059C37.7035 18.4764 37.3604 18.1002 36.8767 17.7469C36.783 17.6785 36.6999 17.6192 36.6231 17.5645C36.5699 17.5258 36.5209 17.4916 36.4761 17.4574C36.263 17.3023 36.1288 17.2043 36.0435 17.1428C36.035 17.1359 36.0265 17.1314 36.0201 17.1245H36.018C35.8944 17.0356 35.8944 17.0356 35.8944 17.0356C35.8944 17.0356 36.035 16.9763 36.2715 16.8965C36.2737 16.8943 36.2758 16.8943 36.2801 16.8943C36.523 16.8122 36.8639 16.7073 37.256 16.6207C38.0572 16.4474 39.063 16.354 39.8493 16.6914C41.4027 17.357 41.5413 17.9635 42.1358 18.2644Z" fill="var(--fill-0, #FFD95A)"/>
<path id="Vector_3" d="M25.3735 10.869C25.9403 11.0673 27.9071 11.8858 28.1756 13.8121C28.3503 15.0614 29.2368 15.5994 29.5053 15.5242C29.7631 15.4535 29.5969 14.5736 29.5862 14.5097C29.6097 14.5622 29.9208 15.2643 30.4407 15.6906C30.7327 15.93 31.112 16.4954 31.4316 17.0151C31.7044 17.4574 31.9366 17.87 32.0346 18.0228C32.0453 18.0387 32.056 18.0524 32.0687 18.0661C32.1028 18.1071 32.1391 18.1345 32.1774 18.1504C32.2605 18.1869 32.3522 18.171 32.4374 18.1208C32.4544 18.1117 32.4694 18.1003 32.4843 18.0912C32.5248 18.0592 32.5652 18.0205 32.5993 17.9749C32.6057 17.9658 32.6143 17.9544 32.6206 17.9453C32.6718 17.8746 32.7123 17.7902 32.7336 17.7013C32.8295 17.3343 32.3905 16.5752 32.3905 16.5752C32.3905 16.5752 32.6526 16.6846 33.2407 17.1519C33.3366 17.2272 33.4261 17.3115 33.5114 17.4027C33.5135 17.4027 33.5156 17.405 33.5178 17.4072C33.5987 17.4916 33.6733 17.5828 33.7458 17.6785C33.7479 17.6808 33.75 17.6854 33.7522 17.6877C33.7522 17.6899 33.7522 17.6899 33.7522 17.6899C33.8864 17.8678 34.0015 18.0615 34.108 18.2713C34.1954 18.4422 34.2742 18.6223 34.3445 18.8093H27.856C27.5683 18.5631 27.0611 18.3009 26.6179 17.984C25.9914 17.5372 25.4885 16.9878 25.9062 16.2286C25.9339 16.1785 25.9595 16.1283 25.9829 16.0782C26.0298 15.9847 26.0703 15.8867 26.1065 15.7864C26.2535 15.3897 26.3302 14.9611 26.3537 14.5302C26.4474 12.8888 25.789 11.1859 25.3735 10.869Z" fill="var(--fill-0, #FFD95A)"/>
<path id="Vector_4" d="M25.3736 10.8687C25.2777 10.8347 25.2201 10.8189 25.2201 10.8189C25.2649 10.8098 25.316 10.8257 25.3736 10.8687Z" fill="var(--fill-0, #FFD95A)"/>
<path id="Vector_5" d="M36.7012 17.1084C36.9314 17.113 37.1551 17.1449 37.3618 17.195C38.0991 17.3706 38.6467 17.7581 38.7149 17.8083C38.6702 17.7878 38.4422 17.6966 38.0863 17.8585C37.69 18.0385 37.8413 18.3532 38.472 18.5264C39.0367 18.6792 39.482 18.4808 40.6924 18.8068H32.497C32.5161 18.7726 32.5374 18.7384 32.5588 18.7065C32.563 18.6997 32.5673 18.6928 32.5715 18.6837C32.6142 18.6176 32.661 18.5538 32.7079 18.4945C32.7122 18.4899 32.7143 18.4854 32.7186 18.4831C32.7228 18.4763 32.7292 18.4717 32.7335 18.4649C32.7868 18.3987 32.8443 18.3349 32.904 18.2756C32.9104 18.2711 32.9146 18.2642 32.921 18.2597C33.0723 18.1092 33.2406 17.9793 33.4196 17.8653C33.4729 17.8288 33.5283 17.7969 33.5858 17.765C33.6413 17.7353 33.6967 17.7057 33.7542 17.6784C33.7563 17.6761 33.7585 17.6738 33.7627 17.6738C33.8458 17.6328 33.9311 17.594 34.0184 17.5575C34.1995 17.4823 34.3849 17.4185 34.5725 17.366C34.5916 17.3615 34.6108 17.3546 34.63 17.3501C35.1158 17.2178 35.6059 17.154 36.0257 17.1267H36.0279C36.0428 17.1244 36.0577 17.1244 36.0726 17.1244H36.0747C36.1834 17.1175 36.2878 17.113 36.3858 17.1107C36.4945 17.1061 36.6032 17.1061 36.7012 17.1084Z" fill="var(--fill-0, #FFD95A)"/>
<path id="Vector_6" d="M18.5142 14.7629C19.4539 15.5266 20.2615 15.7545 20.4618 15.5494C20.66 15.3442 20.4213 15.1573 20.4213 15.1573C20.4213 15.1573 20.6791 15.1003 21.3546 15.1983C21.8469 15.2712 22.7482 15.7773 23.3342 16.1125C23.5516 16.2356 23.7242 16.3382 23.8158 16.3837C24.161 16.5616 24.3635 16.1011 24.2782 15.7317C24.1909 15.3624 23.46 14.9338 23.46 14.9338C23.46 14.9338 23.7391 14.8905 24.4658 14.984C24.6916 15.0136 24.9154 15.0775 25.137 15.1732H25.1391C25.4758 15.3168 25.8018 15.5243 26.1151 15.7796C26.2536 15.8913 26.3878 16.0122 26.5199 16.1398C26.5604 16.1786 26.5988 16.2219 26.635 16.2652C27.1826 16.9081 27.4874 18.0571 27.5896 17.9112C27.6962 17.7561 27.579 17.3982 27.5769 17.3891C27.5854 17.3959 27.7132 17.535 27.8517 17.7767C27.9242 17.8998 27.9988 18.0502 28.0606 18.2212C28.1011 18.3352 28.1394 18.4606 28.165 18.5928C28.1778 18.6589 28.1842 18.7273 28.1863 18.8025H20.0527C20.0207 18.782 19.9887 18.7592 19.9568 18.7341C19.7075 18.5563 19.4134 18.3169 19.0511 17.9362C18.9574 17.8359 18.8572 17.7288 18.7528 17.608C17.6384 16.3222 17.5787 13.9969 17.5787 13.9969C17.5787 13.9969 17.5723 13.9992 18.5142 14.7629Z" fill="var(--fill-0, #FFD95A)"/>
<path id="Vector_7" d="M16.1442 13.9258C16.9667 14.2724 17.5591 14.1743 17.5591 14.1743L17.329 13.1348C17.329 13.1348 18.4669 14.1971 19.4833 14.6531C20.4998 15.1067 20.9387 14.9472 20.9174 14.5961C20.8961 14.2746 20.7491 14.1128 20.7235 14.0854C20.7725 14.1128 21.188 14.3567 21.8465 14.9677C22.1299 15.2321 22.8629 15.7473 23.3296 16.1144C23.5299 16.2694 23.6791 16.3993 23.7259 16.47L23.0313 17.081L22.8246 17.2633L22.669 17.4001L22.3323 17.6965L21.6611 18.2869V18.2892L21.2861 18.6175L21.0879 18.7908L21.0708 18.8044H17.3801C17.2203 18.6722 17.0498 18.54 16.8772 18.4123C16.6045 18.2094 16.3807 18.0043 16.2017 17.815C15.8139 17.4115 15.6392 17.0924 15.6392 17.0924C15.6392 17.0924 16.6556 17.546 16.9731 17.3477C17.2906 17.1494 14.2179 15.435 13.5381 13.8096C12.8584 12.1864 13.0097 11.2449 13.0097 11.2449C13.0097 11.2449 14.5375 13.2488 16.1442 13.9258Z" fill="var(--fill-0, #FFD95A)"/>
<path id="Vector_8" d="M37.9734 13.5728C38.1676 13.5728 38.325 13.4044 38.325 13.1966C38.325 12.9889 38.1676 12.8205 37.9734 12.8205C37.7793 12.8205 37.6218 12.9889 37.6218 13.1966C37.6218 13.4044 37.7793 13.5728 37.9734 13.5728Z" fill="var(--fill-0, #EE4B3A)"/>
<path id="Vector_9" d="M17.3037 9.394C17.4979 9.394 17.6553 9.22559 17.6553 9.01785C17.6553 8.81011 17.4979 8.6417 17.3037 8.6417C17.1095 8.6417 16.9521 8.81011 16.9521 9.01785C16.9521 9.22559 17.1095 9.394 17.3037 9.394Z" fill="var(--fill-0, #EE4B3A)"/>
<path id="Vector_10" d="M19.6754 8.12193C19.2705 7.78909 18.8465 7.65459 18.7271 7.82101C18.6078 7.98743 18.8379 8.39094 19.2428 8.72378C19.6477 9.05662 20.0717 9.19112 20.1911 9.0247C20.3104 8.85828 20.0803 8.45477 19.6754 8.12193Z" fill="var(--fill-0, #EE4B3A)"/>
<path id="Vector_11" d="M26.4775 7.3687C26.5456 7.2819 26.2727 6.9169 25.868 6.55346C25.4632 6.19002 25.0799 5.96576 25.0118 6.05256C24.9437 6.13936 25.2166 6.50435 25.6214 6.86779C26.0261 7.23123 26.4095 7.45549 26.4775 7.3687Z" fill="var(--fill-0, #EE4B3A)"/>
<path id="Vector_12" d="M45.484 15.47C45.5591 15.3901 45.2431 14.9201 44.7783 14.4203C44.3135 13.9205 43.8758 13.5801 43.8007 13.66C43.7257 13.7399 44.0416 14.2099 44.5064 14.7097C44.9712 15.2096 45.4089 15.5499 45.484 15.47Z" fill="var(--fill-0, #EE4B3A)"/>
<path id="Vector_13" d="M26.8356 15.4217C25.8063 12.8593 22.9595 12.2575 22.9595 12.2575C22.9595 12.2575 24.1869 13.9946 25.3375 15.4308C26.4861 16.8693 27.1573 16.2265 26.8356 15.4217Z" fill="var(--fill-0, #FFD95A)"/>
<path id="Vector_14" d="M24.7281 8.81958C23.8438 7.02316 21.617 7.58625 21.617 7.58625C21.617 7.58625 22.6271 8.60301 23.5689 9.39407C24.5086 10.1851 25.0051 9.38267 24.7281 8.81958Z" fill="var(--fill-0, #FFD95A)"/>
<path id="Vector_15" d="M9.17212 11.7444C8.13224 12.4944 7.20104 11.1038 7.20104 11.1038C7.20104 11.1038 8.04487 10.9146 8.78003 10.8393C9.51519 10.7641 9.49814 11.5096 9.17212 11.7444Z" fill="var(--fill-0, #FFD95A)"/>
<path id="Vector_16" d="M16.2043 17.8151C16.6348 18.0568 17.0546 18.376 17.4253 18.8045H15.2412C14.0734 17.9451 13.0378 17.1198 13.0378 17.1198C13.0378 17.1198 14.685 16.9671 16.2043 17.8151Z" fill="var(--fill-0, #FFD95A)"/>
<path id="Vector_17" d="M26.9669 17.43C27.3611 17.6739 27.5934 18.2644 27.5934 18.2644C27.5934 18.2644 27.6403 18.2416 27.6872 18.0546C27.7362 17.8677 27.636 17.6625 27.636 17.6625C27.636 17.6625 27.7191 17.6876 27.8449 17.7788C27.9471 17.8517 28.0771 17.9725 28.2092 18.1595C28.2455 18.2096 28.2796 18.2643 28.3158 18.3236C28.4159 18.4946 28.4756 18.6565 28.5054 18.8046H26.4939C26.5024 18.6428 26.5344 18.4832 26.5876 18.3282C26.626 18.2165 26.6324 18.0957 26.6196 17.9794C26.5834 17.6124 26.3703 17.2681 26.3703 17.2681C26.3703 17.2681 26.6175 17.2134 26.9669 17.43Z" fill="var(--fill-0, #FFD95A)"/>
<path id="Vector_18" d="M24.3265 17.676C24.7207 17.9199 24.953 18.5104 24.953 18.5104C24.953 18.5104 24.9999 18.4876 25.0468 18.3006C25.0958 18.1137 24.9956 17.9085 24.9956 17.9085C24.9956 17.9085 25.3472 18.0134 25.6754 18.5674C25.7244 18.6494 25.7606 18.7269 25.7905 18.8022H23.8833C23.894 18.7452 23.9089 18.6859 23.9259 18.6312C23.9323 18.6107 23.9366 18.5924 23.9451 18.5719C24.1007 18.1091 23.7277 17.5118 23.7277 17.5118C23.7277 17.5118 23.9771 17.4594 24.3265 17.676Z" fill="var(--fill-0, #FFD95A)"/>
<path id="Vector_19" d="M31.2949 17.4821C31.2949 17.4821 31.3141 17.5323 31.344 17.6166V17.6189C31.3482 17.628 31.3504 17.6372 31.3546 17.6486C31.4356 17.8879 31.5826 18.353 31.6529 18.8044H30.9114C30.9902 18.6813 31.052 18.5422 31.101 18.4031C31.2161 18.0817 31.2651 17.7534 31.2843 17.5893C31.2843 17.5824 31.2864 17.5779 31.2864 17.5733C31.2928 17.5163 31.2949 17.4821 31.2949 17.4821Z" fill="var(--fill-0, #FFD95A)"/>
<path id="Vector_20" d="M28.9492 16.7163C28.9492 16.7163 30.2938 17.9998 30.7029 18.8045H29.2518C29.2347 17.9929 28.9492 16.7163 28.9492 16.7163Z" fill="var(--fill-0, #FFD95A)"/>
<path id="Vector_21" d="M26.0912 18.4332C26.0912 18.4332 26.1488 18.6019 26.2617 18.8048H25.925C26.0081 18.5859 26.0912 18.4332 26.0912 18.4332Z" fill="var(--fill-0, #FFD95A)"/>
<path id="Vector_22" d="M28.1068 17.6557C28.1068 17.6557 28.6481 18.2804 29.0338 18.8047H28.3029C28.2816 18.5859 28.2453 18.3556 28.2091 18.1595C28.158 17.87 28.1068 17.6557 28.1068 17.6557Z" fill="var(--fill-0, #FFD95A)"/>
<path id="Vector_23" d="M20.8498 16.5959C20.9138 16.6369 20.9777 16.6871 21.0459 16.7418C21.2355 16.8968 21.374 17.061 21.4678 17.2228C21.7533 17.7038 21.6873 18.1598 21.6617 18.2874V18.2897C21.6575 18.3125 21.6532 18.3239 21.6532 18.3239C21.5978 18.5086 21.5104 18.6704 21.3996 18.8072H19.4307C19.3731 18.7388 19.322 18.6682 19.2772 18.5929C19.16 18.3969 19.0812 18.1735 19.0428 17.9409C19.0194 17.8178 19.0087 17.6902 19.0087 17.5602C19.0024 16.9424 18.3141 16.4158 18.3141 16.4158C18.3141 16.4158 18.5826 16.2334 19.0855 16.3246C19.6523 16.4272 20.168 17.0131 20.168 17.0131C20.168 17.0131 20.2148 16.9652 20.1935 16.7213C20.1722 16.4774 19.9698 16.2836 19.9698 16.2836C19.9698 16.2836 20.3363 16.2494 20.8498 16.5959Z" fill="var(--fill-0, #FFD95A)"/>
<path id="Vector_24" d="M22.7159 16.6847C22.7351 16.7075 22.863 16.8579 23.0313 17.0813C23.3275 17.4734 23.7494 18.0935 23.9284 18.6338C23.9476 18.6908 23.9647 18.7501 23.9774 18.8048H22.6669C22.6882 18.7638 22.7074 18.725 22.7223 18.6885C22.8033 18.4925 22.8438 18.2691 22.8587 18.0457V18.0434C22.8694 17.8884 22.8672 17.7333 22.8566 17.5852C22.8502 17.4712 22.8374 17.3617 22.8246 17.2614C22.7841 16.9446 22.7245 16.7143 22.7159 16.6847Z" fill="var(--fill-0, #FFD95A)"/>
<path id="Vector_25" d="M20.2082 16.639C20.2338 16.6482 20.6046 16.8055 21.0883 17.038C21.2098 17.095 21.3355 17.1588 21.4655 17.2226C21.751 17.3685 22.0515 17.5304 22.3306 17.6968C22.5203 17.8131 22.6993 17.9294 22.8569 18.0456H22.8591V18.0479C23.0423 18.1824 23.1936 18.3169 23.298 18.4446C23.3897 18.5563 23.4728 18.6748 23.5452 18.8048H21.3674C21.3419 18.7432 21.3142 18.6817 21.2865 18.6178C21.2609 18.5608 21.2332 18.5016 21.2076 18.4446C20.8113 17.5988 20.2338 16.6778 20.2082 16.639Z" fill="var(--fill-0, #FFD95A)"/>
<path id="Vector_26" d="M18.4649 17.9178C18.4649 17.9178 18.8165 18.3509 19.2789 18.5903C19.4878 18.6974 19.7179 18.7681 19.9502 18.7362C20.0013 18.7293 20.0524 18.7179 20.1057 18.702C20.3849 18.6085 20.7301 18.6404 21.039 18.7681C21.0561 18.7749 21.0731 18.7818 21.0902 18.7909C21.1008 18.7955 21.1115 18.8 21.1222 18.8046H18.4308C18.3989 18.3441 18.4649 17.9178 18.4649 17.9178Z" fill="var(--fill-0, #FFD95A)"/>
<path id="Vector_27" d="M20.522 16.0531C20.522 16.0531 21.8112 16.7438 22.4568 17.2271C22.5293 17.2818 22.6017 17.3388 22.6699 17.4026C22.736 17.4596 22.7978 17.5235 22.8574 17.5896C22.9448 17.6876 23.0279 17.7948 23.1004 17.9133L22.8596 18.0478H22.8574L21.5022 18.807H21.0227C21.0291 18.7956 21.0334 18.7819 21.0398 18.7705C21.0867 18.6679 21.1485 18.5562 21.2081 18.4468C21.3424 18.2074 21.4724 17.9749 21.434 17.8426C21.3615 17.601 21.2316 17.3137 21.0909 17.0402C21.01 16.8852 20.9268 16.7347 20.8501 16.6002C20.6711 16.281 20.522 16.0531 20.522 16.0531Z" fill="var(--fill-0, #FFD95A)"/>
<path id="Vector_28" d="M33.411 16.5432C32.9614 15.9688 32.5523 15.9072 32.5523 15.9072C32.5523 15.9072 32.6929 16.1238 32.6673 16.3426C32.6396 16.5615 32.5906 16.5934 32.5906 16.5934C32.5906 16.5934 32.2454 15.9642 31.766 15.7522C31.3398 15.563 31.0691 15.6656 31.0691 15.6656C31.0691 15.6656 31.5763 16.2788 31.4634 16.8259C31.3504 17.3731 31.4463 17.9498 31.8491 18.3556C31.8597 18.3647 31.8704 18.3761 31.881 18.3853C32.4287 18.8959 33.2789 18.7341 33.6518 18.0661C33.6497 18.0684 34.0332 17.3411 33.411 16.5432Z" fill="var(--fill-0, #FFD95A)"/>
<path id="Vector_29" d="M36.2792 16.8896C36.0704 17.1859 35.3927 17.6441 35.1924 17.9656L37.3638 17.3569C37.4043 16.5294 36.6521 15.1182 36.6521 15.1182C36.6521 15.1182 36.716 16.2626 36.2792 16.8896Z" fill="var(--fill-0, #FFD95A)"/>
<path id="Vector_30" d="M36.499 17.5989C36.4692 17.3413 36.3882 17.1019 36.2795 16.8899C35.8619 16.0578 32.2244 13.6458 32.2244 13.6458C32.2244 13.6458 34.5428 16.4248 34.562 17.2752C34.5684 17.5533 34.5812 17.8451 34.5961 18.1323L36.499 17.5989Z" fill="var(--fill-0, #FFD95A)"/>
<path id="Vector_31" d="M30.9137 17.0219C30.9137 17.0219 31.0522 17.3023 31.2866 17.5736C31.2952 17.5827 31.3037 17.5941 31.3122 17.6033C31.325 17.6169 31.3399 17.6329 31.3527 17.6489C31.3996 17.699 31.4486 17.7469 31.5018 17.7925C31.5807 17.8609 31.6681 17.9224 31.7576 17.9703C31.8556 18.0227 31.9579 18.0569 32.0687 18.0683C32.1006 18.0729 32.1347 18.0729 32.1667 18.0729C32.1795 18.0729 32.1944 18.0729 32.2093 18.0706C32.2668 18.066 32.3244 18.066 32.384 18.0752C32.416 18.0797 32.4501 18.0843 32.4821 18.0911C32.5311 18.1002 32.5822 18.1139 32.6312 18.1299C32.7101 18.1549 32.7846 18.1891 32.8592 18.2302C32.8763 18.2393 32.8955 18.2507 32.9125 18.2598C32.9487 18.2826 32.9828 18.3054 33.019 18.3305C33.0936 18.3852 33.1639 18.4468 33.2279 18.5129C33.23 18.5151 33.23 18.5151 33.2321 18.5174L33.2151 18.522H33.213L33.1171 18.5493L32.8997 18.6086L32.823 18.6314L32.725 18.6588L32.6184 18.6884H32.6163L32.5481 18.7089L32.1923 18.8092H30.8903C30.4151 18.2986 30.9137 17.0219 30.9137 17.0219Z" fill="var(--fill-0, #FFD95A)"/>
<path id="Vector_32" d="M35.0035 18.018C34.9034 17.7331 34.7436 17.4846 34.5646 17.2748C34.0851 16.7118 33.0815 15.8227 33.0815 15.8227C33.0815 15.8227 33.4949 16.9283 33.546 17.5963C33.5673 17.8516 32.879 18.3281 32.9067 18.6085L35.0035 18.018Z" fill="var(--fill-0, #FFD95A)"/>
<path id="Vector_33" d="M31.2842 17.5894C31.2927 17.594 31.3034 17.5985 31.3119 17.6031C31.3226 17.6077 31.3332 17.6122 31.3439 17.6168V17.6191C31.378 17.635 31.4121 17.6533 31.4462 17.6761C31.4547 17.6829 31.4653 17.6875 31.4717 17.6943H31.4739C31.5825 17.7672 31.6763 17.863 31.7594 17.9679C31.9618 18.2255 32.0748 18.5104 32.0748 18.5104C32.0748 18.5104 32.1217 18.4876 32.1685 18.3007C32.1813 18.2505 32.1834 18.1981 32.1792 18.148C32.1771 18.1206 32.1728 18.0932 32.1685 18.0682C32.1494 17.9747 32.1174 17.9063 32.1174 17.9063C32.1174 17.9063 32.2303 17.9405 32.388 18.0705C32.4051 18.0841 32.4221 18.1001 32.4392 18.116C32.518 18.1867 32.6032 18.2802 32.6885 18.4033C32.7013 18.4215 32.7162 18.442 32.729 18.4603C32.7524 18.4945 32.7737 18.5287 32.795 18.5652C32.8057 18.5857 32.8185 18.6039 32.827 18.6244C32.8355 18.6358 32.8398 18.6472 32.8462 18.6609C32.8717 18.7088 32.893 18.7544 32.9101 18.8022H31.0029C31.0178 18.7247 31.0392 18.6472 31.0647 18.572C31.0839 18.5173 31.0946 18.458 31.0988 18.401C31.135 17.9724 30.8452 17.5119 30.8452 17.5119C30.8452 17.5119 31.0221 17.4754 31.2842 17.5894Z" fill="var(--fill-0, #FFD95A)"/>
<path id="Vector_34" d="M35.7749 17.7288C35.7749 17.7288 35.7834 17.7516 35.7984 17.7949C35.8538 17.9499 35.9944 18.3648 36.086 18.8048H35.5192C35.6875 18.4173 35.7493 17.975 35.7664 17.804C35.7728 17.7561 35.7749 17.7288 35.7749 17.7288Z" fill="var(--fill-0, #FFD95A)"/>
<path id="Vector_35" d="M33.4264 16.9628C33.4264 16.9628 33.4286 16.9651 33.4328 16.9696C33.4605 16.997 33.5798 17.1132 33.7461 17.2819C33.8249 17.3617 33.9144 17.4552 34.0103 17.5555C34.1786 17.7333 34.3619 17.9385 34.5387 18.1482C34.7241 18.3694 34.8989 18.5973 35.0352 18.8048H33.7162C33.7077 18.6703 33.6928 18.5312 33.6757 18.3899C33.663 18.2896 33.6502 18.1893 33.6353 18.0912C33.6182 17.9795 33.6012 17.8678 33.582 17.7652C33.5649 17.6627 33.5479 17.5669 33.5308 17.4803C33.5266 17.4529 33.5223 17.4278 33.5159 17.4028C33.4669 17.1383 33.4264 16.9628 33.4264 16.9628Z" fill="var(--fill-0, #FFD95A)"/>
<path id="Vector_36" d="M30.5708 18.6792C30.5708 18.6792 30.5879 18.7294 30.6221 18.8069H30.5087C30.5451 18.7271 30.5708 18.6792 30.5708 18.6792Z" fill="var(--fill-0, #FFD95A)"/>
<path id="Vector_37" d="M32.5864 17.9018C32.5864 17.9018 32.5992 17.9155 32.6226 17.9429C32.6695 17.9976 32.7569 18.0979 32.8634 18.2301C32.8741 18.2438 32.8868 18.2598 32.8996 18.2757C32.9273 18.3099 32.955 18.3441 32.9849 18.3806C33.0275 18.433 33.0744 18.4877 33.1212 18.547C33.1255 18.5539 33.1319 18.5584 33.1362 18.5653C33.2001 18.6428 33.264 18.7248 33.3258 18.8069H32.7526C32.7462 18.7659 32.7398 18.7226 32.7334 18.6838C32.7313 18.6747 32.7313 18.6656 32.7292 18.6587C32.7206 18.604 32.7121 18.5493 32.7036 18.4969C32.6993 18.4672 32.6929 18.4376 32.6887 18.408C32.6695 18.3031 32.6503 18.2096 32.6354 18.1298C32.6226 18.066 32.612 18.0113 32.6013 17.9748C32.5907 17.9269 32.5864 17.9018 32.5864 17.9018Z" fill="var(--fill-0, #FFD95A)"/>
</g>
</svg>
