<svg preserveAspectRatio="none" width="100%" height="100%" overflow="visible" style="display: block;" viewBox="0 0 15.9958 15.9991" fill="none" xmlns="http://www.w3.org/2000/svg">
<g id="Vector">
<path d="M14.118 10.9708H9.11044C8.07334 10.9708 7.23261 11.8918 7.23261 13.0278V13.9421C7.23261 15.0781 8.07334 15.9991 9.11044 15.9991H14.118C15.1551 15.9991 15.9958 15.0781 15.9958 13.9421V13.0278C15.9958 11.8918 15.1551 10.9708 14.118 10.9708Z" fill="var(--fill-0, white)" fill-opacity="0.5"/>
<path d="M9.11032 9.59947H14.1179C14.5519 9.59947 14.9691 9.70004 15.3531 9.88289V9.83717C15.3531 9.17892 15.111 8.52982 14.677 8.05441C14.2431 7.57901 13.6672 7.32303 13.0579 7.32303H7.49955C7.02384 7.32303 6.60654 6.96647 6.4897 6.4545L5.29623 1.21593C5.12931 0.50283 4.55345 0 3.87743 0H1.46546C1.00643 0 0.58079 0.228559 0.297029 0.639965C0.0216138 1.04223 -0.0701913 1.5542 0.0549974 2.03875L2.74238 12.3513C3.02614 13.421 3.9275 14.1706 4.9457 14.1706H6.00564C6.00564 14.0975 5.9806 14.0244 5.9806 13.9421V13.0279C5.9806 11.1354 7.38271 9.59947 9.11032 9.59947Z" fill="var(--fill-0, white)" fill-opacity="0.5"/>
</g>
</svg>
