<svg preserveAspectRatio="none" width="100%" height="100%" overflow="visible" style="display: block;" viewBox="0 0 31.4013 27.9707" fill="none" xmlns="http://www.w3.org/2000/svg">
<path id="Vector" d="M21.4978 0.994621C22.6569 0.989275 23.7311 1.60163 24.3162 2.60204C26.2072 5.83615 28.0714 9.02678 29.9626 12.2612C30.5539 13.2725 30.555 14.5234 29.9656 15.5356C28.0494 18.8262 26.16 22.0735 24.2439 25.3638C23.6596 26.367 22.5837 26.9814 21.4226 26.9761C17.5753 26.9582 13.7272 26.9412 9.8767 26.9233C8.72581 26.9179 7.66335 26.3037 7.08471 25.3091C5.20113 22.0712 3.318 18.8304 1.43432 15.5893C0.847239 14.5792 0.847959 13.3312 1.43627 12.3218C3.31256 9.10318 5.1888 5.88345 7.06518 2.66161C7.6444 1.6671 8.70648 1.05365 9.85717 1.04833C13.7373 1.03043 17.6177 1.01252 21.4978 0.994621Z" fill="var(--fill-0, #F2C24F)" stroke="url(#paint0_linear_35581_35716)" stroke-width="1.9884"/>
<defs>
<linearGradient id="paint0_linear_35581_35716" x1="7.05042" y1="0.779696" x2="15.5448" y2="31.913" gradientUnits="userSpaceOnUse">
<stop stop-color="#F9E795"/>
<stop offset="1" stop-color="#FFBF44"/>
</linearGradient>
</defs>
</svg>
