<svg preserveAspectRatio="none" width="100%" height="100%" overflow="visible" style="display: block;" viewBox="0 0 7.00691 6.2191" fill="none" xmlns="http://www.w3.org/2000/svg">
<g id="Group 1321315004">
<path id="Vector" d="M1.75853 6.2191H0.580367C0.332799 6.2191 0.210513 6.2191 0.135942 6.17134C0.0554157 6.1192 0.00619446 6.03263 0.000231282 5.93722C-0.00424339 5.84923 0.0569045 5.74185 0.179191 5.5271L3.08822 0.399534C3.212 0.1818 3.27464 0.0729285 3.35368 0.0326657C3.43869 -0.0105834 3.5401 -0.0105834 3.62511 0.0326657C3.70415 0.0729285 3.76679 0.1818 3.89056 0.399534L4.4886 1.44348C4.62431 1.6806 4.69291 1.79991 4.72274 1.92519C4.75554 2.0609 4.75554 2.20407 4.72274 2.33978C4.69291 2.46505 4.6258 2.58436 4.49009 2.82148L2.96204 5.52263C2.82484 5.76273 2.75624 5.88353 2.6608 5.97446C2.55789 6.0729 2.43411 6.1445 2.29839 6.18477C2.17462 6.2191 2.03592 6.2191 1.75853 6.2191Z" fill="var(--fill-0, white)"/>
<path id="Vector_2" d="M6.42207 6.21898H4.73385C4.48479 6.21898 4.35952 6.21898 4.28644 6.17131C4.20591 6.11908 4.1567 6.03105 4.15073 5.93564C4.14626 5.84765 4.20889 5.74027 4.33417 5.52403L5.17674 4.07742C5.30057 3.86416 5.36321 3.75828 5.44074 3.71801C5.52576 3.67476 5.62567 3.67476 5.71068 3.71801C5.78977 3.75828 5.85086 3.86416 5.97615 4.07593L6.82177 5.52254C6.94697 5.73879 7.01117 5.84616 7.00669 5.93415C7.00222 6.02958 6.95145 6.11762 6.87099 6.16976C6.79639 6.21898 6.67109 6.21898 6.42207 6.21898Z" fill="var(--fill-0, white)"/>
</g>
</svg>
