<svg preserveAspectRatio="none" width="100%" height="100%" overflow="visible" style="display: block;" viewBox="0 0 5 5" fill="none" xmlns="http://www.w3.org/2000/svg">
<path id="Vector" fill-rule="evenodd" clip-rule="evenodd" d="M0.168977 0.168977C0.394279 -0.0563256 0.759567 -0.0563256 0.984869 0.168977L2.50001 1.68412L4.01513 0.168993C4.24043 -0.0563099 4.60572 -0.0563098 4.83102 0.168993C5.05633 0.394295 5.05633 0.759583 4.83102 0.984885L3.3159 2.50001L4.83101 4.01511C5.05631 4.24042 5.05631 4.6057 4.83101 4.83101C4.6057 5.05631 4.24042 5.05631 4.01511 4.83101L2.50001 3.3159L0.984886 4.83102C0.759583 5.05632 0.394296 5.05632 0.168993 4.83102C-0.0563091 4.60572 -0.0563091 4.24043 0.168993 4.01513L1.68412 2.50001L0.168977 0.984869C-0.0563256 0.759566 -0.0563256 0.394279 0.168977 0.168977Z" fill="var(--fill-0, white)"/>
</svg>
