<svg preserveAspectRatio="none" width="100%" height="100%" overflow="visible" style="display: block;" viewBox="0 0 17.01 16.0313" fill="none" xmlns="http://www.w3.org/2000/svg">
<path id="Vector" fill-rule="evenodd" clip-rule="evenodd" d="M10.2213 14.9668C10.2213 14.3789 9.74467 13.9023 9.15676 13.9023H7.85324C7.57091 13.9023 7.30015 14.0144 7.10051 14.2141C6.90088 14.4137 6.78872 14.6845 6.78872 14.9668C6.78872 15.5547 7.26533 16.0313 7.85324 16.0313H9.15676C9.74467 16.0313 10.2213 15.5547 10.2213 14.9668ZM2.23791 12.2219C2.41572 12.2354 2.63084 12.2432 2.84692 12.2306C2.96203 12.8144 3.24801 13.3558 3.67489 13.7828C4.2416 14.3494 5.01021 14.6678 5.81164 14.6678H6.21782C6.19991 14.7658 6.19071 14.8658 6.19071 14.9668C6.19071 15.0689 6.19991 15.1689 6.21755 15.2658H5.81164C4.8516 15.2658 3.93087 14.8844 3.25203 14.2056C2.71047 13.664 2.35821 12.9685 2.23791 12.2219ZM1.93372 11.5855C1.4616 11.5059 1.02226 11.2815 0.679304 10.9385C0.244353 10.5035 0 9.91361 0 9.29849V7.8851C0 7.26998 0.244353 6.68005 0.679304 6.2451C1.11425 5.81014 1.70419 5.56576 2.31931 5.56576H2.47369C2.72047 2.45093 5.32652 0 8.505 0C11.6835 0 14.2895 2.45093 14.5363 5.56576H14.6907C15.3058 5.56576 15.8957 5.81014 16.3307 6.2451C16.7656 6.68005 17.01 7.26998 17.01 7.8851V9.29849C17.01 9.91361 16.7656 10.5035 16.3307 10.9385C15.8957 11.3735 15.3058 11.6178 14.6907 11.6178H14.0063C13.7224 11.6178 13.4923 11.3877 13.4923 11.1039V6.05044C13.4923 3.29602 11.2594 1.06313 8.505 1.06313C5.75058 1.06313 3.51768 3.29602 3.51768 6.05044V11.1039C3.51768 11.3043 3.40296 11.4779 3.23559 11.5627C2.77486 11.7225 2.06034 11.6069 1.93372 11.5855Z" fill="var(--fill-0, white)"/>
</svg>
