<svg preserveAspectRatio="none" width="100%" height="100%" overflow="visible" style="display: block;" viewBox="0 0 25.1999 24.5694" fill="none" xmlns="http://www.w3.org/2000/svg">
<g id="logo">
<path id="Vector" d="M0.0336001 13.5356L4.284 12.8596V12.6231C4.284 11.9471 4.368 11.2712 4.5192 10.646L2.268 11.0008C2.8728 7.04664 5.6784 3.81908 9.3912 2.61931V4.91747C10.0632 4.6302 10.7856 4.44432 11.5248 4.34293V8.61883e-05C5.0736 0.540829 0 5.98205 0 12.6231C0 19.264 1.27673e-07 13.2314 0.0336001 13.5356Z" fill="var(--fill-0, #0C0713)"/>
<path id="Vector_2" d="M25.1663 13.5356L20.9159 12.8596V12.623C20.9159 11.9471 20.8319 11.2712 20.6807 10.646L22.9319 11.0008C22.3271 7.04664 19.5215 3.81908 15.8087 2.61931V4.91747C15.1367 4.6302 14.4143 4.44432 13.6751 4.34293V8.61883e-05C20.1263 0.540829 25.1999 5.99895 25.1999 12.623C25.1999 19.2471 25.1999 13.2314 25.1663 13.5356Z" fill="var(--fill-0, #0C0713)"/>
<path id="Vector_3" d="M8.40006 24.5694L12.6001 22.4233L16.8001 24.5694C20.7649 23.1668 23.8225 19.8041 24.8305 15.6471L22.7137 15.3091C21.9073 18.3846 19.7401 20.9024 16.9009 22.2036L12.6001 19.9899L8.29926 22.2036C5.46006 20.9193 3.30966 18.3846 2.48646 15.3091L0.369658 15.6471C1.37766 19.8041 4.43526 23.1499 8.40006 24.5694Z" fill="var(--fill-0, #0C0713)"/>
<path id="Union" d="M18.5998 14.247H17.4582L17.3039 13.7607H16.0304L15.8986 14.247H14.801L16.1183 10.625H17.2824L18.5998 14.247ZM10.0812 11.415H8.7199V12.1445H9.81756L9.5324 12.9394H8.7199V14.2422H7.59978V10.6201H10.3664L10.0812 11.415ZM15.1086 11.415H13.7472V12.1445H14.8449L14.5597 12.9394H13.7472V14.2422H12.6271V10.6201H15.3937L15.1086 11.415ZM11.8371 14.2207H10.717V10.5976H11.8371V14.2207ZM16.2717 13.0537H17.1506L16.7111 11.5302L16.2717 13.0537Z" fill="var(--fill-0, #0C0713)"/>
<path id="Vector_4" d="M16.3127 20.5484L17.1863 20.0076L17.3207 20.2273L17.0351 20.4132L17.5055 21.1736L17.2199 21.3426L16.7495 20.5822L16.4639 20.768L16.3295 20.5484H16.3127ZM17.3207 19.9231L17.6735 19.7035L18.2615 20.2273L18.0599 19.4669L18.3959 19.2641L19.1351 20.1766L18.8495 20.3456L18.4127 19.7542L18.5975 20.4977L18.3455 20.6498L17.7743 20.1428L18.0935 20.8018L17.8247 20.9539L17.3375 19.8893L17.3207 19.9231Z" fill="var(--fill-0, #0C0713)"/>
</g>
</svg>
