<svg preserveAspectRatio="none" width="100%" height="100%" overflow="visible" style="display: block;" viewBox="0 0 14 14" fill="none" xmlns="http://www.w3.org/2000/svg">
<path id="Union" d="M10.5518 0C10.6954 0.0205488 10.8183 0.0419112 10.9414 0.0830078C12.481 0.453052 13.4664 1.37807 13.877 2.91992C13.9385 3.08431 13.959 3.26919 14 3.4541V10.5674C13.9795 10.6907 13.959 10.8347 13.9385 10.958C13.5484 12.7464 12.0085 14 10.1816 14H3.79785C3.55152 14 3.30493 13.9796 3.05859 13.9385C1.27284 13.5889 2.60744e-05 12.0268 0 10.2178V3.80371C0 3.55703 0.0204591 3.28965 0.0820312 3.04297C0.430992 1.50118 1.37557 0.535258 2.89453 0.103516C3.07928 0.0623996 3.26447 0.041116 3.44922 0H10.5518ZM7 3.18652C4.8652 3.18663 3.18164 4.89333 3.18164 7.01074C3.18168 9.14867 4.88574 10.8339 7 10.834C9.13487 10.834 10.7978 9.12818 10.8184 7.01074C10.7978 4.87271 9.11437 3.18652 7 3.18652ZM6.99219 4.67383C8.28229 4.65782 9.33398 5.71475 9.33398 6.99512C9.33374 8.29128 8.29776 9.34766 7.00781 9.34766C5.71792 9.34745 4.66704 8.30694 4.66699 7.01074C4.66699 5.7144 5.71805 4.67388 6.99219 4.67383ZM10.9004 1.80957C10.2846 1.80963 9.77148 2.32377 9.77148 2.91992C9.77163 3.55705 10.2437 4.05073 10.9004 4.05078C11.5572 4.07134 12.0292 3.57761 12.0293 2.94043C12.0293 2.32369 11.5162 1.80957 10.9004 1.80957ZM10.9219 2.61133C11.0657 2.63209 11.2295 2.77612 11.2295 2.94043C11.2293 3.10464 11.0861 3.24782 10.9219 3.24805C10.7575 3.24805 10.6135 3.10476 10.6133 2.94043C10.6133 2.77597 10.7574 2.63189 10.9219 2.61133Z" fill="var(--fill-0, white)"/>
</svg>
