<svg preserveAspectRatio="none" width="100%" height="100%" overflow="visible" style="display: block;" viewBox="0 0 16 16" fill="none" xmlns="http://www.w3.org/2000/svg">
<g id="Icon ">
<path id="&#194;&#169;" d="M7.98544 14C6.8301 14 5.79612 13.7432 4.88349 13.2296C3.98058 12.716 3.27184 12.0049 2.75728 11.0963C2.25243 10.1778 2 9.14074 2 7.98519C2 6.84938 2.25243 5.82716 2.75728 4.91852C3.27184 4.00988 3.98544 3.29877 4.89806 2.78519C5.81068 2.26173 6.83981 2 7.98544 2C9.15048 2 10.1893 2.25679 11.1019 2.77037C12.0146 3.27407 12.7233 3.98025 13.2282 4.88889C13.7427 5.79753 14 6.82963 14 7.98519C14 9.15062 13.7427 10.1877 13.2282 11.0963C12.7233 12.0049 12.0146 12.716 11.1019 13.2296C10.1893 13.7432 9.15048 14 7.98544 14ZM8 13.1704C8.98058 13.1704 9.85922 12.9481 10.6359 12.5037C11.4126 12.0691 12.0146 11.4568 12.4417 10.6667C12.8786 9.87654 13.0971 8.98272 13.0971 7.98519C13.0971 7.00741 12.8786 6.1284 12.4417 5.34815C12.0049 4.5679 11.3981 3.95556 10.6214 3.51111C9.85437 3.06667 8.98058 2.84445 8 2.84445C7.01942 2.84445 6.14078 3.06667 5.36408 3.51111C4.59709 3.95556 3.99515 4.5679 3.55825 5.34815C3.12136 6.1284 2.90291 7.00741 2.90291 7.98519C2.90291 8.98272 3.1165 9.87654 3.54369 10.6667C3.98058 11.4568 4.58738 12.0691 5.36408 12.5037C6.14078 12.9481 7.01942 13.1704 8 13.1704ZM8.10194 12C7.34466 12 6.6699 11.8321 6.07767 11.4963C5.48544 11.1506 5.02427 10.6765 4.69417 10.0741C4.36408 9.46173 4.19903 8.77037 4.19903 8C4.19903 7.22963 4.36408 6.54321 4.69417 5.94074C5.03398 5.3284 5.5 4.85432 6.09223 4.51852C6.68447 4.17284 7.35922 4 8.1165 4C8.6699 4 9.18932 4.11852 9.67476 4.35556C10.1699 4.58272 10.5874 4.9037 10.9272 5.31852C11.267 5.72346 11.4903 6.17778 11.5971 6.68148L10.767 6.85926C10.6116 6.28642 10.2816 5.81728 9.7767 5.45185C9.27184 5.07654 8.70388 4.88889 8.07281 4.88889C7.51942 4.88889 7.01942 5.02222 6.57282 5.28889C6.13592 5.55556 5.79126 5.92593 5.53883 6.4C5.29612 6.8642 5.17476 7.39753 5.17476 8C5.17476 8.60247 5.30097 9.14074 5.5534 9.61482C5.80582 10.0889 6.15534 10.4642 6.60194 10.7407C7.04854 11.0074 7.5534 11.1407 8.1165 11.1407C8.76699 11.1407 9.34951 10.9383 9.86408 10.5333C10.3883 10.1284 10.7233 9.61975 10.8689 9.00741L11.6117 9.2C11.5049 9.73333 11.2816 10.2123 10.9417 10.637C10.6117 11.0617 10.1942 11.3975 9.68932 11.6444C9.19417 11.8815 8.66505 12 8.10194 12Z" fill="var(--fill-0, white)" fill-opacity="0.5"/>
</g>
</svg>
