<svg preserveAspectRatio="none" width="100%" height="100%" overflow="visible" style="display: block;" viewBox="0 0 7.7618 8.16675" fill="none" xmlns="http://www.w3.org/2000/svg">
<path id="TRON (TRX)" fill-rule="evenodd" clip-rule="evenodd" d="M7.12013 1.94737L7.12011 1.94736C6.84996 1.68505 6.56449 1.40788 6.31256 1.18427L6.28704 1.16641C6.24457 1.13231 6.1967 1.10557 6.1454 1.08729L5.95096 1.05102L5.95095 1.05102L5.95093 1.05101L5.95087 1.051C4.60912 0.800643 0.260446 -0.0107716 0.170989 0.000108369C0.14453 0.00381399 0.119239 0.0134071 0.0969789 0.0281812L0.0727341 0.0473218C0.0428805 0.0776405 0.0202062 0.114268 0.00638019 0.154509L0 0.171097V0.261696V0.275732C0.295251 1.09787 1.06223 2.9339 1.77041 4.62919L1.77043 4.62924L1.77047 4.62932L1.77048 4.62934C2.36917 6.06254 2.92584 7.39512 3.11991 7.92941L3.11998 7.92963C3.14552 8.0088 3.19401 8.1591 3.28452 8.16675H3.30494C3.35343 8.16675 3.56014 7.89368 3.56014 7.89368C3.56014 7.89368 7.25555 3.41223 7.62943 2.93499C7.67782 2.87621 7.72055 2.81298 7.75703 2.74614C7.77597 2.63977 7.73771 2.53126 7.65623 2.46031C7.49703 2.31332 7.31246 2.13411 7.12013 1.94737ZM4.50824 2.98221L6.08542 1.67427L7.01055 2.52666L4.50824 2.98221ZM1.18033 0.671305L3.89574 2.89671L5.57373 1.48159L1.18033 0.671305ZM4.14074 3.47986L6.91995 3.03197L3.74262 6.86009L4.14074 3.47986ZM3.66861 3.31781L0.811559 0.893335L3.25517 6.86264L3.66861 3.31781Z" fill="var(--fill-0, #EA3427)"/>
</svg>
