<svg preserveAspectRatio="none" width="100%" height="100%" overflow="visible" style="display: block;" viewBox="0 0 14.4 12.546" fill="none" xmlns="http://www.w3.org/2000/svg">
<g id="Vector">
<path d="M14.4 6.27302V7.11111C14.3746 7.92381 11.9619 8.60952 8.73651 8.7619V12.546H5.68889V8.7619C2.4381 8.60952 0.0253968 7.92381 0 7.11111V6.27302H0.152381C0.863492 7.03492 3.73333 7.61905 7.1873 7.61905C10.6413 7.61905 13.5111 7.03492 14.2222 6.27302H14.4Z" fill="var(--fill-0, white)"/>
<path d="M14.4 5.40952V6.24762H14.2222C13.6127 5.6127 11.454 5.07936 8.71111 4.95238V6.57778C8.22857 6.60317 7.69524 6.60317 7.1873 6.60317C6.65397 6.60317 6.14603 6.60317 5.66349 6.57778V4.95238C2.92063 5.10476 0.761905 5.6127 0.152381 6.27302H0V5.43492C0.0253968 4.62222 2.43809 3.93651 5.66349 3.78413V2.23492H1.06667V0H13.3079V2.23492H8.73651V3.78413C11.9619 3.93651 14.3746 4.59683 14.4 5.40952Z" fill="var(--fill-0, white)"/>
</g>
</svg>
