<svg preserveAspectRatio="none" width="100%" height="100%" overflow="visible" style="display: block;" viewBox="0 0 16.0002 16.0573" fill="none" xmlns="http://www.w3.org/2000/svg">
<g id="Vector">
<path d="M0.200051 12.9141C-0.0666838 13.181 -0.0666838 13.6135 0.200051 13.8803L1.1662 14.8499C1.43303 15.1166 1.86555 15.1166 2.13235 14.8499L4.54843 12.4358L2.61611 10.5015L0.200051 12.9141Z" fill="var(--fill-0, white)" fill-opacity="0.5"/>
<path d="M3.0992 10.0184L5.03152 11.9508C5.84803 11.1342 7.27677 11.8503 8.97336 12.0273L3.02201 6.07588C3.19964 7.77315 3.91503 9.20259 3.0992 10.0184Z" fill="var(--fill-0, white)" fill-opacity="0.5"/>
<path d="M13.2425 10.4994C15.6442 8.13129 15.6715 4.26456 13.3033 1.86282L13.3012 1.86071C10.9371 -0.571361 7.04904 -0.626451 4.61697 1.73769C4.59395 1.76007 4.57111 1.78262 4.54843 1.80536C3.6277 2.65733 3.07277 3.83278 3.00013 5.08511L9.96276 12.0477C11.2151 11.9751 12.3905 11.4202 13.2425 10.4994Z" fill="var(--fill-0, white)" fill-opacity="0.5"/>
<path d="M13.9504 16.0573C15.0825 16.0573 16.0002 15.1395 16.0002 14.0074C16.0002 12.8753 15.0825 11.9576 13.9504 11.9576C12.8183 11.9576 11.9005 12.8753 11.9005 14.0074C11.9005 15.1395 12.8183 16.0573 13.9504 16.0573Z" fill="var(--fill-0, white)" fill-opacity="0.5"/>
</g>
</svg>
