<svg preserveAspectRatio="none" width="100%" height="100%" overflow="visible" style="display: block;" viewBox="0 0 15.9671 16.8002" fill="none" xmlns="http://www.w3.org/2000/svg">
<path id="TRON (TRX)" fill-rule="evenodd" clip-rule="evenodd" d="M15.7499 5.06121C15.4225 4.75882 15.0428 4.39016 14.6471 4.006C14.0913 3.46639 13.5041 2.89622 12.9858 2.43621L12.9333 2.39947C12.846 2.32932 12.7475 2.27431 12.642 2.23672L12.2419 2.16208C9.48192 1.6471 0.535778 -0.022159 0.351749 0.000222922C0.297319 0.00784591 0.245292 0.0275802 0.199499 0.0579727L0.149625 0.0973476C0.0882113 0.159718 0.041567 0.235066 0.013125 0.317847L0 0.351972V0.538346V0.567221C0.607372 2.25848 2.18515 6.03544 3.64197 9.52287L3.64198 9.52289L3.642 9.52293C4.87365 12.4713 6.01885 15.2128 6.4181 16.3119L6.41825 16.3124C6.47079 16.4752 6.57053 16.7844 6.75673 16.8002H6.79873C6.89848 16.8002 7.32373 16.2384 7.32373 16.2384C7.32373 16.2384 14.9257 7.01945 15.6948 6.0377C15.7944 5.91677 15.8823 5.78669 15.9573 5.6492C15.9963 5.43038 15.9176 5.20717 15.7499 5.06121ZM9.27409 6.13483L12.5186 3.44421L14.4217 5.19771L9.27409 6.13483ZM2.42812 1.38097L8.0141 5.95895L11.466 3.04784L2.42812 1.38097ZM8.5181 7.15858L14.2353 6.2372L7.6991 14.1122L8.5181 7.15858ZM7.54685 6.8252L1.66949 1.83772L6.69635 14.1174L7.54685 6.8252Z" fill="var(--fill-0, #EA3427)"/>
</svg>
