<svg preserveAspectRatio="none" width="100%" height="100%" overflow="visible" style="display: block;" viewBox="0 0 17 13.7524" fill="none" xmlns="http://www.w3.org/2000/svg">
<path id="Vector" d="M17 6.34728C17 5.18045 16.0511 4.23154 14.8843 4.23154C14.4177 4.23154 13.9745 4.38387 13.6127 4.65998C12.4321 3.84013 10.8855 3.35139 9.24051 3.22762L10.1281 1.14573L12.7103 1.74871C12.7928 2.54741 13.4614 3.17367 14.2813 3.17367C15.1561 3.17367 15.8681 2.46172 15.8681 1.58686C15.8681 0.712 15.1561 5.1921e-05 14.2813 5.1921e-05C13.7269 5.1921e-05 13.2393 0.286735 12.9558 0.719405L9.93765 0.0138043C9.68164 -0.0443787 9.43093 0.0857396 9.32937 0.321645L8.10224 3.19906C6.32607 3.26041 4.63348 3.76079 3.35557 4.63247C3.00753 4.37435 2.57592 4.23154 2.11574 4.23154C0.948911 4.23154 0 5.18045 0 6.34728C0 7.12059 0.422091 7.81984 1.06951 8.17846C1.06105 8.27155 1.05787 8.36676 1.05787 8.46303C1.05787 11.3796 4.37959 13.7524 8.46298 13.7524C12.5453 13.7524 15.8681 11.3796 15.8681 8.46303C15.8681 8.38051 15.8649 8.29905 15.8596 8.2176C16.5493 7.86638 17 7.15021 17 6.34728ZM14.2813 1.05792C14.5722 1.05792 14.8102 1.29489 14.8102 1.58686C14.8102 1.87883 14.5722 2.1158 14.2813 2.1158C13.9904 2.1158 13.7523 1.87883 13.7523 1.58686C13.7523 1.29489 13.9904 1.05792 14.2813 1.05792ZM4.76042 7.93409C4.76042 7.3512 5.23541 6.87622 5.8183 6.87622C6.40118 6.87622 6.87617 7.3512 6.87617 7.93409C6.87617 8.51803 6.40118 8.99196 5.8183 8.99196C5.23541 8.99196 4.76042 8.51803 4.76042 7.93409ZM10.9056 11.4431C10.1757 11.9709 9.31879 12.2354 8.46298 12.2354C7.60716 12.2354 6.75028 11.9709 6.02035 11.4431C5.78339 11.2717 5.73049 10.9406 5.90187 10.7047C6.07324 10.4687 6.40436 10.4159 6.64026 10.5862C7.73093 11.3743 9.19502 11.3764 10.2857 10.5862C10.5216 10.4159 10.8516 10.4666 11.0241 10.7047C11.1955 10.9416 11.1415 11.2717 10.9056 11.4431ZM11.1077 8.99196C10.5237 8.99196 10.0498 8.51803 10.0498 7.93409C10.0498 7.3512 10.5237 6.87622 11.1077 6.87622C11.6916 6.87622 12.1655 7.3512 12.1655 7.93409C12.1655 8.51803 11.6916 8.99196 11.1077 8.99196Z" fill="var(--fill-0, white)"/>
</svg>
