<svg preserveAspectRatio="none" width="100%" height="100%" overflow="visible" style="display: block;" viewBox="0 0 32.0568 28.7496" fill="none" xmlns="http://www.w3.org/2000/svg">
<path id="Vector" d="M21.5794 0.194846C23.3138 0.186894 24.9216 1.103 25.7972 2.60012C27.596 5.67578 29.3988 8.76084 31.1976 11.8364C32.0826 13.3499 32.084 15.2228 31.2015 16.7378C29.3766 19.8708 27.5499 23.0081 25.725 26.1411C24.8504 27.6426 23.2409 28.5632 21.5033 28.5552C17.8163 28.5381 14.1287 28.5205 10.4388 28.5034C8.71656 28.4955 7.1263 27.5771 6.26011 26.0884C4.4576 22.9906 2.65538 19.8902 0.852883 16.7896C-0.026203 15.2774 -0.0252546 13.409 0.855813 11.898C2.65062 8.81988 4.44579 5.74155 6.24058 2.66067C7.10739 1.17272 8.69725 0.253569 10.4193 0.245627C14.1393 0.228471 17.8594 0.212001 21.5794 0.194846Z" stroke="url(#paint0_linear_35581_37133)" stroke-width="0.388844"/>
<defs>
<linearGradient id="paint0_linear_35581_37133" x1="16.2999" y1="27.8207" x2="19.7374" y2="1.41335" gradientUnits="userSpaceOnUse">
<stop stop-color="#926A45"/>
<stop offset="1" stop-color="#FFDE9C"/>
</linearGradient>
</defs>
</svg>
