<svg preserveAspectRatio="none" width="100%" height="100%" overflow="visible" style="display: block;" viewBox="0 0 27.9999 11.3426" fill="none" xmlns="http://www.w3.org/2000/svg">
<g id="vs">
<path id="Vector" d="M20.6869 11.3426C19.0452 11.3426 16.8066 11.0228 15.1222 10.5111L15.6553 7.44097C17.3183 8.12323 18.7681 8.4004 20.6443 8.4004C22.9469 8.4004 23.9703 8.20851 24.0769 7.56889C24.3967 5.86324 15.0583 8.16587 15.8685 3.62457C16.2949 1.15138 19.0239 6.20851e-05 22.7764 6.20851e-05C24.0556 6.20851e-05 26.209 0.23459 27.9999 0.59704L27.4669 3.60325C26.0171 3.28344 24.3328 3.00627 22.7337 3.00627C20.4951 3.00627 19.4717 3.26212 19.3651 3.79514C19.1092 5.28758 28.405 3.11288 27.5948 7.76078C27.1471 10.2979 24.4394 11.3426 20.6869 11.3426Z" fill="var(--fill-0, white)"/>
<path id="Vector_2" d="M3.75243 11.0011L0 0.34082H3.94432L6.63072 7.97361L11.9822 0.34082H15.9265L8.42166 11.0011H3.75243Z" fill="var(--fill-0, white)"/>
</g>
</svg>
