<svg preserveAspectRatio="none" width="100%" height="100%" overflow="visible" style="display: block;" viewBox="0 0 29.2401 25.6589" fill="none" xmlns="http://www.w3.org/2000/svg">
<path id="Vector" d="M20.7561 0.165626C21.572 0.161993 22.3285 0.593157 22.7405 1.29746C24.7431 4.72194 26.7593 8.17383 28.7619 11.5982C29.1779 12.31 29.1787 13.1905 28.7639 13.9029C26.7379 17.3816 24.703 20.8783 22.677 24.357C22.2655 25.0635 21.5073 25.4966 20.6897 25.4928C16.6137 25.4739 12.5372 25.455 8.45725 25.4361C7.64704 25.4323 6.89891 24.9998 6.49143 24.2994C4.48606 20.8528 2.48115 17.4023 0.475808 13.9518C0.0624111 13.2404 0.0624369 12.3617 0.476785 11.651C2.47598 8.22161 4.47566 4.79222 6.47483 1.35898C6.88254 0.65882 7.63042 0.226004 8.44065 0.222266C12.5457 0.20333 16.651 0.184562 20.7561 0.165626Z" stroke="url(#paint0_linear_35581_35591)" stroke-opacity="0.4" stroke-width="0.331401"/>
<defs>
<linearGradient id="paint0_linear_35581_35591" x1="4.49755" y1="2.24942" x2="20.3558" y2="26.1449" gradientUnits="userSpaceOnUse">
<stop stop-color="white"/>
<stop offset="1" stop-color="white" stop-opacity="0"/>
</linearGradient>
</defs>
</svg>
