<svg preserveAspectRatio="none" width="100%" height="100%" overflow="visible" style="display: block;" viewBox="0 0 13.3059 14.0001" fill="none" xmlns="http://www.w3.org/2000/svg">
<path id="TRON (TRX)" fill-rule="evenodd" clip-rule="evenodd" d="M12.206 3.33838L12.2059 3.33833C11.7428 2.88866 11.2534 2.41352 10.8215 2.03018L10.7778 1.99955C10.705 1.9411 10.6229 1.89526 10.535 1.86393L10.2016 1.80174C7.90167 1.37259 0.446483 -0.0184667 0.293124 0.000185041C0.247766 0.00653753 0.20441 0.0229828 0.166249 0.0483099L0.124687 0.0811223C0.0735095 0.133097 0.0346392 0.195888 0.0109375 0.264872L0 0.293309V0.448621V0.472684C0.506142 1.88206 1.82095 5.02951 3.03497 7.9357L3.03497 7.93571L3.03498 7.93572L3.03499 7.93575L3.035 7.93578C4.06138 10.3928 5.01571 12.6773 5.34842 13.5933L5.34854 13.5936C5.39233 13.7294 5.47544 13.987 5.63061 14.0001H5.66561C5.74873 14.0001 6.10311 13.532 6.10311 13.532C6.10311 13.532 12.4381 5.84954 13.079 5.03142C13.162 4.93064 13.2352 4.82224 13.2978 4.70767C13.3302 4.52532 13.2646 4.33931 13.125 4.21767C12.8521 3.9657 12.5357 3.6585 12.206 3.33838ZM7.72841 5.11236L10.4322 2.87018L12.0181 4.33142L7.72841 5.11236ZM2.02343 1.15081L6.67841 4.96579L9.55497 2.53987L2.02343 1.15081ZM7.09841 5.96548L11.8628 5.19767L6.41592 11.7601L7.09841 5.96548ZM6.28904 5.68767L1.39124 1.53143L5.58029 11.7645L6.28904 5.68767Z" fill="var(--fill-0, white)"/>
</svg>
