<svg preserveAspectRatio="none" width="100%" height="100%" overflow="visible" style="display: block;" viewBox="0 0 10.0088 10.0023" fill="none" xmlns="http://www.w3.org/2000/svg">
<path id="Union" d="M3.03809 6.66699C3.25894 6.66706 3.33645 6.74231 3.33691 6.95898C3.33843 7.87889 3.33843 8.7991 3.33691 9.71875C3.33689 9.92812 3.26087 9.99885 3.04883 10C2.58836 10.0034 2.12822 10.002 1.66699 10.002H0.302734C0.0595249 10.0019 2.50551e-05 9.94167 0 9.70215V6.96191C0 6.73744 0.0689129 6.66843 0.293945 6.66797C1.2088 6.66696 2.12399 6.66699 3.03809 6.66699ZM9.73633 6.66895C9.93454 6.66903 10.0077 6.7449 10.0088 6.94629V9.70508C10.0088 9.93642 9.947 10.0006 9.7207 10.001H6.95898C6.7465 10.001 6.67421 9.92913 6.67383 9.71777C6.67181 8.7983 6.67181 7.87871 6.67383 6.95898C6.67383 6.74915 6.74963 6.66932 6.95605 6.66895C7.8827 6.66693 8.80969 6.66693 9.73633 6.66895ZM6.37793 3.33496C6.61076 3.33496 6.67496 3.40256 6.67578 3.64355C6.67502 4.0905 6.67383 4.539 6.67383 4.98633V6.36621C6.67374 6.60255 6.60744 6.66699 6.37012 6.66699H3.64648C3.40772 6.66695 3.34025 6.60166 3.33984 6.36816V3.62695C3.3399 3.40446 3.41085 3.33534 3.63574 3.33496H6.37793ZM9.71582 0C9.94494 8.42196e-06 10.0084 0.0642075 10.0088 0.292969V3.0332C10.0087 3.26704 9.94029 3.3336 9.70215 3.33398H6.97852C6.74709 3.33398 6.67323 3.25753 6.67285 3.03027V0.30957C6.67323 0.0652644 6.7422 0 6.99219 0H9.71582ZM3.01758 0C3.27022 0 3.33654 0.0636901 3.33691 0.307617V3.02832C3.33691 3.25937 3.26344 3.33203 3.03125 3.33203H0.307617C0.0696326 3.33348 0 3.26642 0 3.0332V0.292969C3.74959e-05 0.0647331 0.0648565 0.0018933 0.293945 0H3.01758Z" fill="var(--fill-0, white)"/>
</svg>
