<svg preserveAspectRatio="none" width="100%" height="100%" overflow="visible" style="display: block;" viewBox="0 0 26 36" fill="none" xmlns="http://www.w3.org/2000/svg">
<g id="NFL">
<path id="Vector" d="M25.1444 4.08831C24.0222 4.89479 21.8889 6.00371 19.1333 5.32046C14.3666 4.13317 13 0 13 0C13 0 11.6334 4.14436 6.86666 5.32046C4.11113 6.00371 1.9778 4.90598 0.855571 4.08831H0V26.412C0 26.972 0.133366 28.0921 1.04446 29.201C2.16669 30.5787 4.06673 31.4636 6.70001 31.8444C8.79998 32.1469 10.3445 32.8189 11.4333 33.8718C12.2333 34.6559 13 36 13 36C13 36 13.7889 34.6223 14.5667 33.8718C15.6555 32.8077 17.2111 32.1468 19.3 31.8444C21.9333 31.4636 23.8333 30.5675 24.9555 29.201C25.8666 28.0921 26 26.972 26 26.412V4.08831H25.1444Z" fill="var(--fill-0, white)"/>
<path id="Vector_2" d="M25.2222 4.96197C25.2222 4.96197 22.6111 7.0118 18.9444 6.08209C14.6666 5.00676 12.9999 1.76971 12.9999 1.76971C12.9999 1.76971 11.3333 5.00683 7.05549 6.08209C3.38878 7.0118 0.777664 4.96197 0.777664 4.96197V26.412C0.777664 27.14 1.07768 30.2315 6.811 31.0716C9.07769 31.3964 10.7666 32.1356 11.9776 33.3118C12.4109 33.7375 12.7443 34.1631 12.9999 34.5551C13.2554 34.1631 13.5888 33.7263 14.0221 33.3118C15.2332 32.1357 16.9221 31.3964 19.1887 31.0716C24.922 30.2315 25.2221 27.14 25.2221 26.412V4.96197H25.2222Z" fill="var(--fill-0, #013369)"/>
<path id="Vector_3" d="M12.9999 32.3821C12.9999 32.3821 14.6666 30.3211 18.9777 29.6491C23.9222 28.8762 23.7777 26.5352 23.7777 26.4231V15.1773H2.21103V26.4119C2.21103 26.5352 2.06662 28.8762 7.01101 29.6379C11.3333 30.3099 12.9999 32.3821 12.9999 32.3821Z" fill="var(--fill-0, white)"/>
<path id="Vector_4" d="M7.9777 23.3877V18.0448L7.31102 17.6639V16.2751H10.3333V17.6639L9.69996 18.0448V28.9433L8.0777 28.4505L5.73324 21.4835V26.0759L6.47769 26.6471V28.0585L3.23325 27.2296V26.0199L3.97769 25.7287V18.0336L3.22213 17.6639V16.2751H5.67772L7.9777 23.3877ZM13.5444 28.2713L14.1888 29.0554V30.4443L10.9666 29.2346V28.0586L11.6777 27.7673V18.056L10.9666 17.6976V16.2974H16.5555V19.1201H15.3221L14.9444 17.9664H13.5221V21.2259H14.5888L15.011 20.6098H15.8666V23.4885H15.011L14.611 22.906H13.5221V28.2713H13.5444ZM17.0999 28.7642V27.3753L17.8999 26.7144V18.0448L17.2221 17.6864V16.2862H20.4443V17.6864L19.811 18.0448V26.1768L21.1999 25.796L21.4665 23.6678H22.7777V27.2298L17.0999 28.7643L17.0999 28.7642Z" fill="var(--fill-0, #D50A0A)"/>
<path id="Vector_5" d="M2.7777 12.87L1.79995 12.1306H2.98883L3.37773 10.9881L3.76663 12.1306H4.95551L3.97777 12.87L4.33331 14.0237L3.36661 13.3404L2.39991 14.0237L2.7777 12.87ZM7.01107 12.87L6.03333 12.1306H7.22221L7.61111 10.9881L8.00001 12.1306H9.18889L8.21114 12.87L8.56669 14.0237L7.59999 13.3404L6.63329 14.0237L7.01107 12.87ZM2.7777 9.02803L1.79995 8.28872H2.98883L3.37773 7.14622L3.76663 8.28872H4.95551L3.97777 9.02803L4.33331 10.1817L3.36661 9.49848L2.39991 10.1817L2.7777 9.02803ZM7.01107 9.02803L6.03333 8.28872H7.22221L7.61111 7.14622L8.00001 8.28872H9.18889L8.21114 9.02803L8.56669 10.1817L7.59999 9.49848L6.63329 10.1817L7.01107 9.02803ZM23.5778 14.0349L22.6111 13.3517L21.6444 14.0349L21.9999 12.8812L21.0222 12.1419H22.2222L22.6111 10.9994L23 12.1419H24.1889L23.2111 12.8812L23.5778 14.0349ZM19.3555 14.0349L18.3888 13.3517L17.4221 14.0349L17.7777 12.8812L16.7999 12.1419H17.9888L18.3777 10.9994L18.7666 12.1419H19.9555L18.9777 12.8812L19.3555 14.0349ZM23.5778 10.1817L22.6111 9.49848L21.6444 10.1817L21.9999 9.02803L21.0222 8.28872H22.2222L22.6111 7.14622L23 8.28872H24.1889L23.2111 9.02803L23.5778 10.1817ZM19.3555 10.1817L18.3888 9.49848L17.4221 10.1817L17.7777 9.02803L16.7999 8.28872H17.9888L18.3777 7.14622L18.7666 8.28872H19.9555L18.9777 9.02803L19.3555 10.1817ZM15.6888 5.93653C15.7888 5.92534 15.8443 6.04857 15.8999 6.12694C16.3221 7.20227 16.4333 8.51279 16.1111 9.76726C15.6222 11.6827 14.0221 13.4412 10.5888 13.8892C10.5111 13.9004 10.4222 13.878 10.411 13.8332C10.5666 13.1052 10.9555 11.7162 11.7888 10.2489C11.9443 10.3497 12.0999 10.4505 12.2444 10.5625C12.2999 10.4729 12.3666 10.3721 12.4666 10.2041C12.0444 9.8681 11.5555 9.63291 11.0111 9.53207C11.0111 9.53207 10.9111 9.74487 10.8333 9.90168C10.8333 9.90168 11.0444 9.94647 11.3 10.0361C10.5555 11.6267 10.3 13.1052 10.2333 13.7773C10.0221 13.4412 9.85549 12.6572 9.79997 12.2316C9.25553 8.19916 12.1333 5.84697 15.2666 5.80218C15.4778 5.79099 15.5555 5.83577 15.5555 5.83577C15.5555 5.83577 14.8666 6.09342 14.0666 6.70942C14.0666 6.70942 13.8777 6.63105 13.6777 6.575C13.5555 6.65337 13.4222 6.74301 13.2999 6.83265C13.6777 6.9223 14.1555 7.1127 14.6111 7.49351C14.7111 7.40387 14.8111 7.30311 14.9222 7.20227C14.8111 7.11263 14.6333 6.98947 14.4778 6.89983C15.1889 6.20538 15.6889 5.93653 15.6889 5.93653H15.6888ZM12.7333 9.74487C12.811 9.63283 12.8999 9.49841 12.9888 9.36406C12.6333 9.06162 12.1221 8.77037 11.4999 8.64722C11.411 8.78164 11.2555 9.03922 11.2555 9.03922C11.7666 9.14006 12.2888 9.37525 12.7333 9.74487ZM13.2999 8.94958C13.3888 8.82635 13.4777 8.71439 13.5777 8.59116C13.0888 8.18796 12.5333 7.9527 12.0999 7.87432C11.9999 7.98636 11.8999 8.10951 11.8111 8.22155C12.3777 8.33358 12.8888 8.60236 13.2999 8.94958ZM13.9333 8.18789C14.0221 8.07585 14.1222 7.97509 14.2444 7.86305C13.9444 7.61659 13.5111 7.32542 12.8666 7.16861C12.7555 7.25825 12.6222 7.35901 12.5 7.48224C13.0111 7.59428 13.4999 7.82947 13.9333 8.18789Z" fill="var(--fill-0, white)"/>
</g>
</svg>
