<svg preserveAspectRatio="none" width="100%" height="100%" overflow="visible" style="display: block;" viewBox="0 0 62.9603 22.8712" fill="none" xmlns="http://www.w3.org/2000/svg">
<g id="visual-content" opacity="0.9">
<path id="Vector" d="M14.2072 4.98641C17.0968 4.78542 19.1216 5.45219 19.6702 10.1451C19.9923 12.8951 25.9533 11.5935 26.6839 9.69207C27.4145 7.79067 23.687 6.70597 23.687 6.70597C23.687 6.70597 28.5089 5.33096 32.7464 7.79066C34.5833 8.85622 35.9878 12.4868 37.449 11.4818C38.8953 10.4864 36.131 5.96263 36.0594 5.85097C36.1578 5.88287 40.0642 7.27065 40.27 10.2536C40.4787 13.2716 45.3931 15.0613 45.4975 13.6097C45.6018 12.155 43.2997 10.7002 43.2997 10.7002C43.2997 10.7002 48.1723 11.2808 48.5898 15.307C49.0073 19.3331 53.6771 19.4065 53.5728 18.4015C53.4684 17.3966 51.9774 16.4044 51.9774 16.4044C51.9774 16.4044 55.9822 15.6483 59.999 19.432C60.9562 20.3348 62.0148 21.6205 62.9601 22.8711L13.3066 22.8711C11.7112 20.8708 10.8554 16.7968 10.8345 16.682C10.9151 16.7777 14.2191 20.7177 14.5293 18.3983C14.8424 16.0503 11.422 13.7182 8.49366 13.8299C5.56532 13.9415 5.35658 10.2504 5.35658 10.2504C5.35658 10.2504 5.98578 11.2553 7.65869 10.8087C9.32862 10.362 6.3645 8.19902 5.04645 6.87824C2.10916 3.93042 2.79801 0 2.79801 0C2.79801 0 4.24428 5.67232 14.2072 4.98641Z" fill="var(--fill-0, #F04924)"/>
<path id="Vector_2" d="M56.1974 22.1087C57.0323 22.5298 57.5363 22.2746 57.3305 21.6301C57.1307 21.008 56.758 20.9251 56.7341 20.9155C56.7938 20.9187 58.4458 20.9729 59.576 22.0704C59.7877 22.2777 60.0442 22.5457 60.3125 22.8648H50.2781C49.9948 22.4054 49.5147 21.879 48.8377 21.3845C48.7065 21.2888 48.5902 21.2058 48.4829 21.1292C48.4083 21.075 48.3398 21.0271 48.2771 20.9793C47.9789 20.7624 47.7911 20.6252 47.6718 20.539C47.6599 20.5295 47.6479 20.5231 47.639 20.5135H47.636C47.463 20.3891 47.463 20.3891 47.463 20.3891C47.463 20.3891 47.6599 20.3061 47.9909 20.1945C47.9938 20.1913 47.9968 20.1913 48.0028 20.1913C48.3427 20.0764 48.8199 19.9297 49.3685 19.8085C50.4898 19.566 51.8973 19.4352 52.9977 19.9074C55.1715 20.8389 55.3654 21.6875 56.1974 22.1087Z" fill="var(--fill-0, #FFD95A)"/>
<path id="Vector_3" d="M32.7411 11.7593C33.5343 12.0368 36.2867 13.1821 36.6624 15.8779C36.9069 17.6262 38.1475 18.3791 38.5232 18.2738C38.884 18.1749 38.6514 16.9435 38.6365 16.8542C38.6693 16.9275 39.1047 17.9101 39.8323 18.5067C40.2408 18.8417 40.7716 19.6329 41.2189 20.3603C41.6006 20.9792 41.9257 21.5566 42.0628 21.7704C42.0777 21.7927 42.0927 21.8118 42.1105 21.831C42.1583 21.8884 42.209 21.9267 42.2626 21.949C42.3789 22.0001 42.5072 21.9777 42.6264 21.9076C42.6503 21.8948 42.6712 21.8788 42.692 21.8661C42.7487 21.8214 42.8054 21.7672 42.8531 21.7034C42.862 21.6906 42.8739 21.6747 42.8829 21.6619C42.9545 21.563 43.0111 21.445 43.0409 21.3205C43.1751 20.8069 42.5608 19.7445 42.5608 19.7445C42.5608 19.7445 42.9276 19.8977 43.7507 20.5517C43.8848 20.657 44.0101 20.775 44.1294 20.9026C44.1324 20.9026 44.1353 20.9058 44.1383 20.909C44.2516 21.027 44.356 21.1547 44.4574 21.2886C44.4604 21.2918 44.4634 21.2982 44.4663 21.3014C44.4663 21.3046 44.4663 21.3046 44.4663 21.3046C44.6542 21.5534 44.8152 21.8246 44.9643 22.1181C45.0866 22.3574 45.1969 22.6094 45.2953 22.871H36.2151C35.8125 22.5265 35.1028 22.1596 34.4826 21.7161C33.6058 21.0908 32.9021 20.322 33.4866 19.2596C33.5253 19.1894 33.5611 19.1192 33.5939 19.0491C33.6595 18.9183 33.7162 18.7811 33.7669 18.6407C33.9726 18.0856 34.08 17.4858 34.1128 16.8829C34.244 14.5859 33.3226 12.2027 32.7411 11.7593Z" fill="var(--fill-0, #FFD95A)"/>
<path id="Vector_4" d="M32.741 11.7587C32.6068 11.7112 32.5262 11.6891 32.5262 11.6891C32.5889 11.6764 32.6604 11.6986 32.741 11.7587Z" fill="var(--fill-0, #FFD95A)"/>
<path id="Vector_5" d="M48.5925 20.491C48.9146 20.4974 49.2277 20.5421 49.5169 20.6122C50.5487 20.8579 51.3151 21.4002 51.4105 21.4704C51.3479 21.4417 51.0288 21.3141 50.5308 21.5406C49.9762 21.7926 50.1879 22.2329 51.0706 22.4754C51.8608 22.6891 52.4841 22.4116 54.1778 22.8678H42.709C42.7358 22.8199 42.7657 22.7721 42.7955 22.7274C42.8015 22.7178 42.8074 22.7083 42.8134 22.6955C42.873 22.603 42.9386 22.5136 43.0042 22.4307C43.0102 22.4243 43.0132 22.4179 43.0191 22.4147C43.0251 22.4052 43.034 22.3988 43.04 22.3892C43.1146 22.2967 43.1951 22.2074 43.2786 22.1244C43.2875 22.1181 43.2935 22.1085 43.3024 22.1021C43.5142 21.8915 43.7497 21.7097 44.0002 21.5502C44.0748 21.4991 44.1523 21.4545 44.2328 21.4098C44.3104 21.3683 44.3879 21.3269 44.4684 21.2886C44.4714 21.2854 44.4744 21.2822 44.4803 21.2822C44.5966 21.2248 44.7159 21.1705 44.8382 21.1195C45.0916 21.0142 45.3511 20.9249 45.6135 20.8515C45.6403 20.8451 45.6672 20.8356 45.694 20.8292C46.3739 20.6441 47.0598 20.5548 47.6472 20.5165H47.6502C47.6711 20.5133 47.692 20.5133 47.7128 20.5133H47.7158C47.8679 20.5038 48.014 20.4974 48.1512 20.4942C48.3033 20.4878 48.4553 20.4878 48.5925 20.491Z" fill="var(--fill-0, #FFD95A)"/>
<path id="Vector_6" d="M23.1412 17.2084C24.4563 18.2772 25.5865 18.5962 25.8668 18.3091C26.1441 18.0219 25.8101 17.7603 25.8101 17.7603C25.8101 17.7603 26.171 17.6806 27.1163 17.8178C27.8051 17.9199 29.0665 18.6281 29.8866 19.0971C30.1907 19.2693 30.4323 19.4129 30.5605 19.4767C31.0436 19.7256 31.3269 19.0811 31.2076 18.5643C31.0853 18.0475 30.0625 17.4477 30.0625 17.4477C30.0625 17.4477 30.4531 17.3871 31.47 17.5179C31.7861 17.5594 32.0992 17.6487 32.4093 17.7827H32.4123C32.8835 17.9837 33.3397 18.274 33.7781 18.6313C33.9719 18.7876 34.1598 18.9567 34.3447 19.1354C34.4013 19.1896 34.455 19.2502 34.5057 19.3108C35.2721 20.2105 35.6985 21.8184 35.8416 21.6142C35.9907 21.3973 35.8267 20.8964 35.8238 20.8836C35.8357 20.8932 36.0146 21.0878 36.2084 21.426C36.3098 21.5983 36.4142 21.8088 36.5007 22.0481C36.5573 22.2076 36.611 22.3831 36.6468 22.5681C36.6647 22.6606 36.6736 22.7563 36.6766 22.8616H25.2943C25.2495 22.8329 25.2048 22.801 25.1601 22.7659C24.8112 22.5171 24.3997 22.1821 23.8927 21.6493C23.7615 21.5089 23.6213 21.359 23.4752 21.1899C21.9156 19.3906 21.8321 16.1365 21.8321 16.1365C21.8321 16.1365 21.8232 16.1397 23.1412 17.2084Z" fill="var(--fill-0, #FFD95A)"/>
<path id="Vector_7" d="M19.8254 16.0374C20.9765 16.5223 21.8055 16.3852 21.8055 16.3852L21.4834 14.9304C21.4834 14.9304 23.0758 16.4171 24.4982 17.0551C25.9207 17.69 26.535 17.4667 26.5051 16.9754C26.4753 16.5255 26.2696 16.299 26.2338 16.2607C26.3024 16.299 26.8839 16.6404 27.8053 17.4954C28.2019 17.8655 29.2277 18.5865 29.8808 19.1001C30.1611 19.317 30.3698 19.4989 30.4354 19.5978L29.4633 20.4528L29.174 20.708L28.9563 20.8994L28.4852 21.3141L27.5459 22.1404V22.1436L27.021 22.603L26.7437 22.8455L26.7198 22.8646H21.555C21.3313 22.6796 21.0928 22.4946 20.8512 22.3159C20.4695 22.032 20.1564 21.7448 19.9059 21.48C19.3632 20.9154 19.1187 20.4687 19.1187 20.4687C19.1187 20.4687 20.5411 21.1036 20.9854 20.826C21.4297 20.5485 17.1297 18.1494 16.1784 15.8747C15.2272 13.6032 15.4389 12.2857 15.4389 12.2857C15.4389 12.2857 17.577 15.0899 19.8254 16.0374Z" fill="var(--fill-0, #FFD95A)"/>
<path id="Vector_8" d="M50.373 15.5429C50.6448 15.5429 50.8651 15.3072 50.8651 15.0165C50.8651 14.7258 50.6448 14.4901 50.373 14.4901C50.1013 14.4901 49.881 14.7258 49.881 15.0165C49.881 15.3072 50.1013 15.5429 50.373 15.5429Z" fill="var(--fill-0, #EE4B3A)"/>
<path id="Vector_9" d="M21.4475 9.69532C21.7192 9.69532 21.9395 9.45965 21.9395 9.16893C21.9395 8.87821 21.7192 8.64253 21.4475 8.64253C21.1758 8.64253 20.9555 8.87821 20.9555 9.16893C20.9555 9.45965 21.1758 9.69532 21.4475 9.69532Z" fill="var(--fill-0, #EE4B3A)"/>
<path id="Vector_10" d="M24.7663 7.91478C24.1997 7.449 23.6063 7.26077 23.4393 7.49367C23.2723 7.72656 23.5944 8.29124 24.161 8.75702C24.7275 9.2228 25.321 9.41102 25.488 9.17813C25.655 8.94524 25.3329 8.38056 24.7663 7.91478Z" fill="var(--fill-0, #EE4B3A)"/>
<path id="Vector_11" d="M34.2856 6.86109C34.3809 6.73963 33.999 6.22885 33.4326 5.72024C32.8661 5.21163 32.3297 4.8978 32.2344 5.01927C32.1391 5.14074 32.521 5.65151 33.0875 6.16012C33.6539 6.66872 34.1903 6.98256 34.2856 6.86109Z" fill="var(--fill-0, #EE4B3A)"/>
<path id="Vector_12" d="M60.8838 18.1984C60.9889 18.0866 60.5467 17.4289 59.8962 16.7294C59.2458 16.03 58.6333 15.5536 58.5282 15.6655C58.4231 15.7773 58.8652 16.435 59.5157 17.1345C60.1662 17.8339 60.7787 18.3103 60.8838 18.1984Z" fill="var(--fill-0, #EE4B3A)"/>
<path id="Vector_13" d="M34.7865 18.1306C33.3462 14.5447 29.3623 13.7024 29.3623 13.7024C29.3623 13.7024 31.0799 16.1334 32.6902 18.1433C34.2975 20.1564 35.2368 19.2567 34.7865 18.1306Z" fill="var(--fill-0, #FFD95A)"/>
<path id="Vector_14" d="M31.8371 8.89133C30.5995 6.37739 27.4833 7.16538 27.4833 7.16538C27.4833 7.16538 28.8968 8.58825 30.2149 9.69528C31.5299 10.8023 32.2247 9.67933 31.8371 8.89133Z" fill="var(--fill-0, #FFD95A)"/>
<path id="Vector_15" d="M10.0683 12.9845C8.61303 14.0341 7.30989 12.088 7.30989 12.088C7.30989 12.088 8.49077 11.8232 9.51956 11.7179C10.5484 11.6126 10.5245 12.6559 10.0683 12.9845Z" fill="var(--fill-0, #FFD95A)"/>
<path id="Vector_16" d="M19.9089 21.4801C20.5112 21.8182 21.0987 22.2649 21.6175 22.8646H18.561C16.9268 21.6619 15.4776 20.507 15.4776 20.507C15.4776 20.507 17.7827 20.2933 19.9089 21.4801Z" fill="var(--fill-0, #FFD95A)"/>
<path id="Vector_17" d="M34.9711 20.9409C35.5228 21.2823 35.8479 22.1085 35.8479 22.1085C35.8479 22.1085 35.9135 22.0766 35.9791 21.815C36.0477 21.5534 35.9075 21.2663 35.9075 21.2663C35.9075 21.2663 36.0238 21.3014 36.1997 21.429C36.3429 21.5311 36.5248 21.7002 36.7097 21.9618C36.7604 22.032 36.8081 22.1085 36.8588 22.1915C36.9989 22.4307 37.0824 22.6573 37.1242 22.8646H34.3091C34.3211 22.6381 34.3658 22.4148 34.4404 22.1979C34.494 22.0415 34.503 21.8725 34.4851 21.7098C34.4344 21.1961 34.1362 20.7144 34.1362 20.7144C34.1362 20.7144 34.4821 20.6378 34.9711 20.9409Z" fill="var(--fill-0, #FFD95A)"/>
<path id="Vector_18" d="M31.276 21.2856C31.8277 21.627 32.1527 22.4533 32.1527 22.4533C32.1527 22.4533 32.2183 22.4214 32.284 22.1598C32.3525 21.8982 32.2124 21.611 32.2124 21.611C32.2124 21.611 32.7044 21.7578 33.1636 22.533C33.2322 22.6479 33.2829 22.7564 33.3247 22.8616H30.6558C30.6707 22.7819 30.6916 22.6989 30.7154 22.6224C30.7244 22.5936 30.7303 22.5681 30.7423 22.5394C30.9599 21.8918 30.4381 21.0559 30.4381 21.0559C30.4381 21.0559 30.787 20.9826 31.276 21.2856Z" fill="var(--fill-0, #FFD95A)"/>
<path id="Vector_19" d="M41.0274 21.0142C41.0274 21.0142 41.0542 21.0844 41.096 21.2024V21.2056C41.1019 21.2184 41.1049 21.2311 41.1109 21.2471C41.2242 21.5821 41.43 22.2329 41.5284 22.8646H40.4906C40.601 22.6923 40.6874 22.4977 40.756 22.3031C40.9171 21.8532 40.9856 21.3938 41.0125 21.1641C41.0125 21.1546 41.0155 21.1482 41.0155 21.1418C41.0244 21.0621 41.0274 21.0142 41.0274 21.0142Z" fill="var(--fill-0, #FFD95A)"/>
<path id="Vector_20" d="M37.7447 19.9425C37.7447 19.9425 39.6264 21.7387 40.1989 22.8648H38.1682C38.1443 21.7291 37.7447 19.9425 37.7447 19.9425Z" fill="var(--fill-0, #FFD95A)"/>
<path id="Vector_21" d="M33.7454 22.3447C33.7454 22.3447 33.826 22.5807 33.984 22.8647H33.5128C33.6291 22.5584 33.7454 22.3447 33.7454 22.3447Z" fill="var(--fill-0, #FFD95A)"/>
<path id="Vector_22" d="M36.5656 21.2566C36.5656 21.2566 37.3231 22.1307 37.8628 22.8645H36.84C36.8102 22.5582 36.7595 22.236 36.7088 21.9616C36.6372 21.5565 36.5656 21.2566 36.5656 21.2566Z" fill="var(--fill-0, #FFD95A)"/>
<path id="Vector_23" d="M26.4093 19.7731C26.4988 19.8305 26.5882 19.9007 26.6837 19.9772C26.9491 20.1942 27.1429 20.4239 27.2741 20.6504C27.6737 21.3235 27.5812 21.9616 27.5455 22.1403V22.1434C27.5395 22.1753 27.5335 22.1913 27.5335 22.1913C27.456 22.4497 27.3337 22.6762 27.1787 22.8676H24.4233C24.3428 22.7719 24.2712 22.673 24.2086 22.5677C24.0446 22.2934 23.9342 21.9807 23.8806 21.6553C23.8478 21.4831 23.8329 21.3044 23.8329 21.1225C23.8239 20.258 22.8607 19.521 22.8607 19.521C22.8607 19.521 23.2365 19.2658 23.9402 19.3934C24.7334 19.537 25.4551 20.3569 25.4551 20.3569C25.4551 20.3569 25.5207 20.2899 25.4909 19.9485C25.461 19.6072 25.1777 19.336 25.1777 19.336C25.1777 19.336 25.6907 19.2881 26.4093 19.7731Z" fill="var(--fill-0, #FFD95A)"/>
<path id="Vector_24" d="M29.0224 19.8979C29.0492 19.9298 29.2282 20.1404 29.4637 20.453C29.8782 21.0018 30.4687 21.8695 30.7192 22.6256C30.746 22.7054 30.7699 22.7883 30.7878 22.8649H28.9538C28.9836 22.8075 29.0105 22.7532 29.0313 22.7022C29.1447 22.4278 29.2013 22.1152 29.2222 21.8025V21.7993C29.2371 21.5824 29.2341 21.3655 29.2192 21.1581C29.2103 20.9986 29.1924 20.8454 29.1745 20.7051C29.1178 20.2616 29.0343 19.9394 29.0224 19.8979Z" fill="var(--fill-0, #FFD95A)"/>
<path id="Vector_25" d="M25.5122 19.834C25.5479 19.8467 26.0668 20.0669 26.7437 20.3923C26.9137 20.472 27.0896 20.5614 27.2715 20.6507C27.6711 20.8549 28.0916 21.0814 28.4822 21.3142C28.7476 21.477 28.9981 21.6397 29.2188 21.8024H29.2218V21.8056C29.4782 21.9938 29.69 22.182 29.8361 22.3607C29.9643 22.517 30.0806 22.6829 30.182 22.8647H27.1344C27.0986 22.7786 27.0598 22.6925 27.0211 22.6031C26.9853 22.5234 26.9465 22.4404 26.9107 22.3607C26.3561 21.1771 25.5479 19.8882 25.5122 19.834Z" fill="var(--fill-0, #FFD95A)"/>
<path id="Vector_26" d="M23.0726 21.6237C23.0726 21.6237 23.5646 22.2299 24.2117 22.5649C24.504 22.7148 24.826 22.8137 25.1511 22.769C25.2226 22.7595 25.2942 22.7435 25.3688 22.7212C25.7594 22.5904 26.2425 22.635 26.6749 22.8137C26.6987 22.8233 26.7226 22.8328 26.7465 22.8456C26.7614 22.852 26.7763 22.8584 26.7912 22.8647H23.0249C22.9802 22.2203 23.0726 21.6237 23.0726 21.6237Z" fill="var(--fill-0, #FFD95A)"/>
<path id="Vector_27" d="M25.9504 19.014C25.9504 19.014 27.7545 19.9807 28.658 20.657C28.7594 20.7336 28.8608 20.8134 28.9562 20.9027C29.0487 20.9824 29.1352 21.0718 29.2186 21.1643C29.3409 21.3015 29.4572 21.4514 29.5586 21.6173L29.2216 21.8055H29.2186L27.3221 22.8679H26.6511C26.6601 22.852 26.666 22.8328 26.675 22.8169C26.7406 22.6733 26.8271 22.517 26.9106 22.3638C27.0984 22.0289 27.2803 21.7035 27.2267 21.5184C27.1253 21.1802 26.9434 20.7783 26.7466 20.3954C26.6332 20.1785 26.5169 19.9679 26.4096 19.7797C26.1591 19.3331 25.9504 19.014 25.9504 19.014Z" fill="var(--fill-0, #FFD95A)"/>
<path id="Vector_28" d="M43.9886 19.6999C43.3594 18.8959 42.7868 18.8098 42.7868 18.8098C42.7868 18.8098 42.9836 19.1129 42.9479 19.4192C42.9091 19.7254 42.8405 19.7701 42.8405 19.7701C42.8405 19.7701 42.3574 18.8896 41.6865 18.5929C41.0901 18.3281 40.7114 18.4716 40.7114 18.4716C40.7114 18.4716 41.4211 19.3298 41.263 20.0955C41.105 20.8612 41.2392 21.6683 41.8028 22.2362C41.8177 22.2489 41.8326 22.2649 41.8475 22.2776C42.6139 22.9923 43.8037 22.7658 44.3256 21.831C44.3226 21.8342 44.8593 20.8165 43.9886 19.6999Z" fill="var(--fill-0, #FFD95A)"/>
<path id="Vector_29" d="M48.0025 20.1848C47.7103 20.5996 46.762 21.2408 46.4817 21.6906L49.5203 20.8388C49.577 19.6808 48.5243 17.706 48.5243 17.706C48.5243 17.706 48.6138 19.3075 48.0025 20.1848Z" fill="var(--fill-0, #FFD95A)"/>
<path id="Vector_30" d="M48.3095 21.1771C48.2677 20.8166 48.1544 20.4816 48.0023 20.1849C47.4179 19.0205 42.3276 15.6451 42.3276 15.6451C42.3276 15.6451 45.572 19.5341 45.5988 20.7241C45.6078 21.1133 45.6257 21.5216 45.6465 21.9236L48.3095 21.1771Z" fill="var(--fill-0, #FFD95A)"/>
<path id="Vector_31" d="M40.494 20.37C40.494 20.37 40.6878 20.7624 41.0158 21.142C41.0278 21.1548 41.0397 21.1708 41.0516 21.1835C41.0695 21.2027 41.0904 21.225 41.1083 21.2473C41.1739 21.3175 41.2425 21.3845 41.317 21.4483C41.4274 21.544 41.5496 21.6301 41.6749 21.6971C41.812 21.7705 41.9552 21.8184 42.1102 21.8343C42.155 21.8407 42.2027 21.8407 42.2474 21.8407C42.2653 21.8407 42.2862 21.8407 42.3071 21.8375C42.3876 21.8311 42.4681 21.8311 42.5516 21.8439C42.5963 21.8503 42.644 21.8567 42.6888 21.8662C42.7573 21.879 42.8289 21.8981 42.8975 21.9205C43.0078 21.9556 43.1122 22.0034 43.2166 22.0608C43.2404 22.0736 43.2673 22.0896 43.2911 22.1023C43.3418 22.1342 43.3895 22.1661 43.4402 22.2012C43.5446 22.2778 43.643 22.3639 43.7325 22.4564C43.7354 22.4596 43.7354 22.4596 43.7384 22.4628L43.7146 22.4692H43.7116L43.5774 22.5075L43.2732 22.5904L43.1659 22.6223L43.0287 22.6606L42.8796 22.7021H42.8766L42.7812 22.7308L42.2832 22.8712H40.4612C39.7962 22.1565 40.494 20.37 40.494 20.37Z" fill="var(--fill-0, #FFD95A)"/>
<path id="Vector_32" d="M46.2169 21.7643C46.0767 21.3655 45.8531 21.0178 45.6026 20.7243C44.9317 19.9363 43.5271 18.6921 43.5271 18.6921C43.5271 18.6921 44.1056 20.2393 44.1772 21.1741C44.207 21.5314 43.2438 22.1982 43.2826 22.5906L46.2169 21.7643Z" fill="var(--fill-0, #FFD95A)"/>
<path id="Vector_33" d="M41.0129 21.1644C41.0248 21.1708 41.0398 21.1772 41.0517 21.1836C41.0666 21.1899 41.0815 21.1963 41.0964 21.2027V21.2059C41.1441 21.2282 41.1918 21.2538 41.2396 21.2857C41.2515 21.2952 41.2664 21.3016 41.2753 21.3112H41.2783C41.4304 21.4133 41.5616 21.5473 41.6779 21.694C41.9612 22.0545 42.1192 22.4533 42.1192 22.4533C42.1192 22.4533 42.1848 22.4214 42.2505 22.1598C42.2683 22.0896 42.2713 22.0162 42.2654 21.946C42.2624 21.9078 42.2564 21.8695 42.2505 21.8344C42.2236 21.7036 42.1789 21.6079 42.1789 21.6079C42.1789 21.6079 42.3369 21.6557 42.5576 21.8376C42.5815 21.8567 42.6053 21.879 42.6292 21.9014C42.7395 22.0003 42.8588 22.1311 42.9781 22.3034C42.996 22.3289 43.0168 22.3576 43.0347 22.3831C43.0675 22.431 43.0973 22.4788 43.1272 22.5299C43.1421 22.5586 43.16 22.5841 43.1719 22.6128C43.1838 22.6288 43.1898 22.6447 43.1987 22.6639C43.2345 22.7309 43.2643 22.7947 43.2882 22.8617H40.6193C40.6402 22.7532 40.67 22.6447 40.7058 22.5394C40.7326 22.4629 40.7475 22.3799 40.7535 22.3002C40.8042 21.7004 40.3986 21.056 40.3986 21.056C40.3986 21.056 40.6461 21.0049 41.0129 21.1644Z" fill="var(--fill-0, #FFD95A)"/>
<path id="Vector_34" d="M47.2963 21.3591C47.2963 21.3591 47.3082 21.391 47.3291 21.4516C47.4066 21.6685 47.6034 22.2492 47.7317 22.8649H46.9385C47.174 22.3225 47.2605 21.7036 47.2844 21.4644C47.2933 21.3974 47.2963 21.3591 47.2963 21.3591Z" fill="var(--fill-0, #FFD95A)"/>
<path id="Vector_35" d="M44.0096 20.2869C44.0096 20.2869 44.0126 20.2901 44.0186 20.2965C44.0573 20.3348 44.2243 20.4975 44.4569 20.7336C44.5673 20.8452 44.6925 20.976 44.8267 21.1164C45.0623 21.3652 45.3187 21.6524 45.5662 21.9459C45.8257 22.2553 46.0702 22.5744 46.261 22.8647H44.4152C44.4033 22.6764 44.3824 22.4818 44.3585 22.284C44.3406 22.1437 44.3227 22.0033 44.3019 21.8661C44.278 21.7098 44.2542 21.5535 44.2273 21.4099C44.2035 21.2663 44.1796 21.1323 44.1557 21.0111C44.1498 20.9728 44.1438 20.9377 44.1349 20.9026C44.0663 20.5326 44.0096 20.2869 44.0096 20.2869Z" fill="var(--fill-0, #FFD95A)"/>
<path id="Vector_36" d="M40.0144 22.6892C40.0144 22.6892 40.0383 22.7594 40.0862 22.8679H39.9276C39.9784 22.7562 40.0144 22.6892 40.0144 22.6892Z" fill="var(--fill-0, #FFD95A)"/>
<path id="Vector_37" d="M42.8345 21.6015C42.8345 21.6015 42.8524 21.6206 42.8852 21.6589C42.9508 21.7354 43.073 21.8758 43.2221 22.0609C43.237 22.08 43.2549 22.1023 43.2728 22.1247C43.3116 22.1725 43.3504 22.2204 43.3921 22.2714C43.4518 22.3448 43.5174 22.4214 43.583 22.5043C43.5889 22.5139 43.5979 22.5203 43.6038 22.5298C43.6933 22.6383 43.7828 22.7532 43.8692 22.868H43.0671C43.0581 22.8106 43.0492 22.75 43.0402 22.6957C43.0373 22.683 43.0373 22.6702 43.0343 22.6606C43.0223 22.5841 43.0104 22.5075 42.9985 22.4341C42.9925 22.3926 42.9836 22.3512 42.9776 22.3097C42.9508 22.1629 42.9239 22.0321 42.9031 21.9205C42.8852 21.8312 42.8703 21.7546 42.8553 21.7035C42.8404 21.6366 42.8345 21.6015 42.8345 21.6015Z" fill="var(--fill-0, #FFD95A)"/>
</g>
</svg>
