<svg preserveAspectRatio="none" width="100%" height="100%" overflow="visible" style="display: block;" viewBox="0 0 15.9998 16.003" fill="none" xmlns="http://www.w3.org/2000/svg">
<g id="Vector">
<path d="M7.99981 2.38156L7.13009 1.44667C6.01422 2.09453 4.90655 2.93921 3.87273 3.9889C2.69122 5.17801 1.73945 6.50652 1.07485 7.83504L1.86252 8.67152L7.45008 14.1496L8.1475 14.9615C9.50132 14.289 10.8715 13.2967 12.1269 12.0256C13.1279 11.0087 13.9648 9.89343 14.6048 8.76173L13.6284 7.90885L7.99981 2.38976V2.38156ZM10.1331 8.27788C10.01 8.40089 9.85413 8.4583 9.69003 8.4583C9.52593 8.4583 9.37824 8.40089 9.25517 8.28608L8.89415 7.93345L8.59057 8.24508L8.95159 8.59771C9.19773 8.83553 9.19773 9.22097 8.95159 9.46699C8.82851 9.59 8.67262 9.6474 8.50852 9.6474C8.34442 9.6474 8.19673 9.59 8.07366 9.47519L7.71264 9.12256L7.40906 9.43419L7.77007 9.78682C8.01622 10.0246 8.01622 10.4101 7.77007 10.6561C7.647 10.7791 7.49111 10.8365 7.32701 10.8365C7.16291 10.8365 7.01522 10.7791 6.89215 10.6643L6.53113 10.3117L6.18652 10.6643C6.06345 10.7873 5.90755 10.8447 5.74346 10.8447C5.57936 10.8447 5.43167 10.7873 5.30859 10.6725C5.06245 10.4347 5.06245 10.0492 5.30039 9.80322L5.645 9.45059L5.28398 9.09795C5.03783 8.86013 5.03783 8.4747 5.28398 8.22868C5.52192 7.99086 5.91576 7.98266 6.1537 8.22868L6.51472 8.58131L6.8183 8.26968L6.45728 7.91705C6.21114 7.67923 6.21114 7.29379 6.45728 7.04777C6.70343 6.80175 7.08086 6.80175 7.32701 7.04777L7.68802 7.4004L7.99161 7.08878L7.63059 6.73614C7.38444 6.49832 7.38444 6.11289 7.62239 5.86687C7.86033 5.62905 8.25417 5.62085 8.49211 5.86687L8.85313 6.2195L9.19773 5.86687C9.43568 5.62905 9.82951 5.62085 10.0675 5.86687C10.3136 6.10469 10.3136 6.49012 10.0757 6.73614L9.73105 7.08878L10.0921 7.44141C10.3382 7.67923 10.3382 8.06466 10.1003 8.31068L10.1331 8.27788Z" fill="var(--fill-0, white)" fill-opacity="0.5"/>
<path d="M0.984592 9.52439L0.541526 9.05695C0.188714 10.0246 0 10.9759 0 11.8534C0 13.0999 0.418452 14.1578 1.18151 14.8877C1.96098 15.6421 3.01121 16.003 4.21734 16.003C5.07065 16.003 6.00601 15.8144 6.96599 15.4617L6.55574 14.9861L0.984592 9.52439Z" fill="var(--fill-0, white)" fill-opacity="0.5"/>
<path d="M14.8181 1.11044C13.3412 -0.324684 10.8551 -0.324684 8.25417 0.856221L8.87774 1.52868L14.4653 7.00677L15.1791 7.63002C15.7125 6.42452 16.0078 5.23541 15.9996 4.16112C15.9914 2.9146 15.5812 1.85671 14.8181 1.12684V1.11044Z" fill="var(--fill-0, white)" fill-opacity="0.5"/>
</g>
</svg>
