<svg preserveAspectRatio="none" width="100%" height="100%" overflow="visible" style="display: block;" viewBox="0 0 84.3459 8.14754" fill="none" xmlns="http://www.w3.org/2000/svg">
<g id="WEB3 BETTING">
<path d="M2.26923 8.03911L0 0.108427H1.83165L3.14439 5.61886H3.21022L4.6585 0.108427H6.22682L7.67123 5.63048H7.74093L9.05368 0.108427H10.8853L8.6161 8.03911H6.98194L5.47171 2.85396H5.40975L3.90338 8.03911H2.26923Z" fill="var(--fill-0, white)"/>
<path d="M12.0008 8.03911V0.108427H17.3448V1.49088H13.6776V3.38061H17.0698V4.76306H13.6776V6.65666H17.3603V8.03911H12.0008Z" fill="var(--fill-0, white)"/>
<path d="M18.8959 8.03911V0.108427H22.0713C22.6547 0.108427 23.1414 0.194911 23.5312 0.367879C23.921 0.540846 24.214 0.780935 24.4102 1.08815C24.6064 1.39277 24.7045 1.74387 24.7045 2.14144C24.7045 2.45123 24.6426 2.72359 24.5187 2.95852C24.3947 3.19086 24.2244 3.3819 24.0075 3.53163C23.7932 3.67878 23.548 3.78334 23.2718 3.8453V3.92274C23.5738 3.93565 23.8565 4.02085 24.1198 4.17832C24.3857 4.3358 24.6013 4.55653 24.7665 4.8405C24.9317 5.1219 25.0143 5.45751 25.0143 5.84733C25.0143 6.26813 24.9098 6.64375 24.7007 6.9742C24.4941 7.30206 24.1882 7.56151 23.7829 7.75255C23.3776 7.94359 22.8781 8.03911 22.2843 8.03911H18.8959ZM20.5727 6.66828H21.9396C22.4069 6.66828 22.7477 6.57921 22.962 6.40108C23.1762 6.22037 23.2834 5.98028 23.2834 5.68082C23.2834 5.46138 23.2304 5.26776 23.1246 5.09996C23.0188 4.93215 22.8677 4.80049 22.6715 4.70497C22.4779 4.60945 22.2469 4.56169 21.9784 4.56169H20.5727V6.66828ZM20.5727 3.42708H21.8157C22.0455 3.42708 22.2494 3.38706 22.4276 3.30703C22.6083 3.22442 22.7503 3.10825 22.8535 2.95852C22.9594 2.80878 23.0123 2.62936 23.0123 2.42025C23.0123 2.13369 22.9103 1.90264 22.7064 1.72709C22.505 1.55154 22.2185 1.46377 21.8467 1.46377H20.5727V3.42708Z" fill="var(--fill-0, white)"/>
<path d="M29.2084 8.14754C28.6301 8.14754 28.1151 8.04815 27.6633 7.84936C27.2141 7.648 26.8592 7.37177 26.5984 7.02067C26.3403 6.66699 26.2073 6.2591 26.1996 5.79699H27.8879C27.8983 5.99061 27.9615 6.16099 28.0777 6.30815C28.1964 6.45272 28.3539 6.56501 28.5501 6.64504C28.7463 6.72507 28.967 6.76509 29.2123 6.76509C29.4679 6.76509 29.6938 6.71991 29.89 6.62955C30.0862 6.5392 30.2398 6.41399 30.3508 6.25393C30.4618 6.09387 30.5173 5.90929 30.5173 5.70018C30.5173 5.48849 30.4579 5.30132 30.3392 5.13868C30.223 4.97346 30.0552 4.84438 29.8357 4.75144C29.6189 4.6585 29.3607 4.61203 29.0613 4.61203H28.3216V3.38061H29.0613C29.3143 3.38061 29.5376 3.33672 29.7312 3.24895C29.9274 3.16117 30.0797 3.03984 30.1881 2.88494C30.2966 2.72746 30.3508 2.54417 30.3508 2.33506C30.3508 2.13628 30.303 1.96202 30.2075 1.81228C30.1146 1.65997 29.9829 1.54122 29.8125 1.45602C29.6447 1.37083 29.4485 1.32823 29.2239 1.32823C28.9967 1.32823 28.7889 1.36954 28.6004 1.45215C28.412 1.53218 28.261 1.64706 28.1474 1.7968C28.0338 1.94653 27.9731 2.12208 27.9654 2.32344H26.3583C26.3661 1.8665 26.4964 1.46377 26.7494 1.11525C27.0024 0.766736 27.3432 0.494377 27.7718 0.298175C28.2029 0.0993918 28.6895 0 29.2317 0C29.7789 0 30.2578 0.0993918 30.6683 0.298175C31.0788 0.496959 31.3976 0.765445 31.6248 1.10363C31.8546 1.43924 31.9682 1.81616 31.9656 2.23438C31.9682 2.67841 31.83 3.04887 31.5512 3.34576C31.275 3.64264 30.9149 3.8311 30.4708 3.91113V3.97309C31.0543 4.04795 31.4983 4.25061 31.8029 4.58105C32.1101 4.90892 32.2625 5.31939 32.2599 5.81248C32.2625 6.26426 32.1321 6.6657 31.8688 7.0168C31.608 7.36789 31.2479 7.64412 30.7884 7.84549C30.3288 8.04685 29.8022 8.14754 29.2084 8.14754Z" fill="var(--fill-0, white)"/>
<path d="M36.4717 8.03911V0.108427H39.647C40.2305 0.108427 40.7171 0.194911 41.1069 0.367879C41.4967 0.540846 41.7898 0.780935 41.986 1.08815C42.1822 1.39277 42.2803 1.74387 42.2803 2.14144C42.2803 2.45123 42.2183 2.72359 42.0944 2.95852C41.9705 3.19086 41.8001 3.3819 41.5832 3.53163C41.369 3.67878 41.1237 3.78334 40.8475 3.8453V3.92274C41.1495 3.93565 41.4322 4.02085 41.6955 4.17832C41.9614 4.3358 42.177 4.55653 42.3422 4.8405C42.5074 5.1219 42.5901 5.45751 42.5901 5.84733C42.5901 6.26813 42.4855 6.64375 42.2764 6.9742C42.0699 7.30206 41.7639 7.56151 41.3586 7.75255C40.9533 7.94359 40.4538 8.03911 39.86 8.03911H36.4717ZM38.1484 6.66828H39.5154C39.9826 6.66828 40.3234 6.57921 40.5377 6.40108C40.7519 6.22037 40.8591 5.98028 40.8591 5.68082C40.8591 5.46138 40.8062 5.26776 40.7003 5.09996C40.5945 4.93215 40.4434 4.80049 40.2472 4.70497C40.0536 4.60945 39.8226 4.56169 39.5541 4.56169H38.1484V6.66828ZM38.1484 3.42708H39.3914C39.6212 3.42708 39.8252 3.38706 40.0033 3.30703C40.184 3.22442 40.326 3.10825 40.4292 2.95852C40.5351 2.80878 40.588 2.62936 40.588 2.42025C40.588 2.13369 40.486 1.90264 40.2821 1.72709C40.0807 1.55154 39.7942 1.46377 39.4224 1.46377H38.1484V3.42708Z" fill="var(--fill-0, white)"/>
<path d="M43.8992 8.03911V0.108427H49.2431V1.49088H45.5759V3.38061H48.9682V4.76306H45.5759V6.65666H49.2586V8.03911H43.8992Z" fill="var(--fill-0, white)"/>
<path d="M50.4922 1.49088V0.108427H57.0056V1.49088H54.5776V8.03911H52.9202V1.49088H50.4922Z" fill="var(--fill-0, white)"/>
<path d="M57.9943 1.49088V0.108427H64.5077V1.49088H62.0797V8.03911H60.4223V1.49088H57.9943Z" fill="var(--fill-0, white)"/>
<path d="M67.4752 0.108427V8.03911H65.7984V0.108427H67.4752Z" fill="var(--fill-0, white)"/>
<path d="M75.7063 0.108427V8.03911H74.258L70.8077 3.04758H70.7496V8.03911H69.0728V0.108427H70.5443L73.9675 5.09608H74.0373V0.108427H75.7063Z" fill="var(--fill-0, white)"/>
<path d="M82.5684 2.67196C82.5142 2.4835 82.4381 2.31699 82.34 2.17242C82.2419 2.02527 82.1218 1.90135 81.9798 1.80067C81.8404 1.6974 81.6804 1.61866 81.4996 1.56445C81.3215 1.51024 81.124 1.48313 80.9072 1.48313C80.5019 1.48313 80.1456 1.58381 79.8384 1.78518C79.5338 1.98654 79.2963 2.27955 79.1259 2.66421C78.9555 3.04629 78.8703 3.51356 78.8703 4.06602C78.8703 4.61849 78.9542 5.08834 79.122 5.47558C79.2898 5.86282 79.5273 6.15841 79.8345 6.36236C80.1417 6.56372 80.5044 6.66441 80.9227 6.66441C81.3022 6.66441 81.6261 6.59728 81.8946 6.46304C82.1657 6.32622 82.3722 6.13389 82.5142 5.88605C82.6588 5.63822 82.7311 5.34521 82.7311 5.00702L83.0718 5.05736H81.0272V3.79496H84.3459V4.79404C84.3459 5.49107 84.1987 6.09 83.9044 6.59083C83.6101 7.08908 83.2048 7.47374 82.6885 7.74481C82.1722 8.01329 81.581 8.14754 80.9149 8.14754C80.1714 8.14754 79.5183 7.98361 78.9555 7.65574C78.3927 7.3253 77.9538 6.85674 77.6389 6.25006C77.3265 5.6408 77.1703 4.91795 77.1703 4.08151C77.1703 3.43869 77.2632 2.86558 77.4491 2.36217C77.6376 1.85617 77.9009 1.42763 78.2391 1.07653C78.5773 0.72543 78.971 0.458234 79.4202 0.274941C79.8694 0.0916469 80.356 0 80.8801 0C81.3293 0 81.7475 0.0658309 82.1347 0.197493C82.522 0.326573 82.8653 0.509867 83.1648 0.747374C83.4668 0.984881 83.7134 1.26757 83.9044 1.59543C84.0954 1.92071 84.2181 2.27955 84.2723 2.67196H82.5684Z" fill="var(--fill-0, white)"/>
</g>
</svg>
