<svg preserveAspectRatio="none" width="100%" height="100%" overflow="visible" style="display: block;" viewBox="0 0 4.76167 4.23542" fill="none" xmlns="http://www.w3.org/2000/svg">
<g id="Group 1321314921">
<path id="Rectangle 139 Copy" fill-rule="evenodd" clip-rule="evenodd" d="M2.38096 1.88241H3.33335V2.353H2.38096V1.88241Z" fill="var(--fill-0, #FFEDB1)"/>
<g id="Vector">
<path fill-rule="evenodd" clip-rule="evenodd" d="M3.05276 1.88362H1.70936L1.83142 3.33115C1.85204 3.57564 2.05886 3.7637 2.30712 3.7637H2.45501C2.70327 3.7637 2.91008 3.57564 2.9307 3.33115L3.05276 1.88362ZM1.70936 1.41189C1.4301 1.41189 1.21048 1.64777 1.23367 1.9228L1.35573 3.37032C1.39696 3.8593 1.8106 4.23542 2.30712 4.23542H2.45501C2.95153 4.23542 3.36516 3.8593 3.40639 3.37032L3.52846 1.92279C3.55165 1.64777 3.33203 1.41189 3.05276 1.41189H1.70936Z" fill="#A41517"/>
<path fill-rule="evenodd" clip-rule="evenodd" d="M1.42851 2.35277H3.33327V2.82336H2.85708L2.38089 3.76453L1.9047 2.82336H1.42851V2.35277Z" fill="var(--fill-0, #A41517)"/>
<path d="M0 1.41166C0 1.15176 0.213198 0.941069 0.476191 0.941069C0.739183 0.941069 0.952381 1.15176 0.952381 1.41166V3.7646C0.952381 4.0245 0.739183 4.23519 0.476191 4.23519C0.213198 4.23519 0 4.0245 0 3.7646V1.41166Z" fill="var(--fill-0, #A41517)"/>
<path d="M3.80929 1.41166C3.80929 1.15176 4.02248 0.941069 4.28548 0.941069C4.54847 0.941069 4.76167 1.15176 4.76167 1.41166V3.7646C4.76167 4.0245 4.54847 4.23519 4.28548 4.23519C4.02248 4.23519 3.80929 4.0245 3.80929 3.7646V1.41166Z" fill="var(--fill-0, #A41517)"/>
<path d="M1.42851 0.752941C1.42851 0.337103 1.76962 0 2.19041 0H2.57136C2.99215 0 3.33327 0.337103 3.33327 0.752941C3.33327 0.856901 3.24799 0.941176 3.14279 0.941176H1.61898C1.51379 0.941176 1.42851 0.856901 1.42851 0.752941Z" fill="var(--fill-0, #A41517)"/>
</g>
</g>
</svg>
