<svg preserveAspectRatio="none" width="100%" height="100%" overflow="visible" style="display: block;" viewBox="0 0 32.1083 28.6777" fill="none" xmlns="http://www.w3.org/2000/svg">
<path id="Vector" d="M21.8464 0.177217C23.4233 0.170007 24.8844 1.00342 25.6804 2.36472C27.561 5.58092 29.4463 8.80775 31.3269 12.0239C32.1312 13.3996 32.1327 15.1019 31.3308 16.479C29.4242 19.7529 27.5157 23.0321 25.6091 26.3061C24.814 27.6714 23.3501 28.5078 21.7702 28.5005C17.9231 28.4826 14.0756 28.4656 10.2253 28.4477C8.65953 28.4405 7.21392 27.6049 6.42649 26.2514C4.54267 23.0132 2.65892 19.772 0.77512 16.5307C-0.0236777 15.1563 -0.0224552 13.4588 0.77805 12.0854C2.65428 8.86693 4.53075 5.64778 6.40696 2.42624C7.19489 1.07332 8.64013 0.23815 10.2058 0.230928C14.0859 0.213029 17.9663 0.195116 21.8464 0.177217Z" stroke="url(#paint0_linear_35581_37923)" stroke-width="0.353494"/>
<defs>
<linearGradient id="paint0_linear_35581_37923" x1="16.3254" y1="27.7832" x2="19.7633" y2="1.37921" gradientUnits="userSpaceOnUse">
<stop stop-color="#F1B63D"/>
<stop offset="1" stop-color="#FAE49C"/>
</linearGradient>
</defs>
</svg>
