<svg preserveAspectRatio="none" width="100%" height="100%" overflow="visible" style="display: block;" viewBox="0 0 16 12.8" fill="none" xmlns="http://www.w3.org/2000/svg">
<path id="Exclude" d="M12 0C14.2091 0 16 1.79089 16 4.00006V8.79994C16 11.0091 14.2091 12.8 12 12.8H4C1.79086 12.8 0 11.0091 0 8.79994V4.00006C2.09386e-06 1.79089 1.79086 0 4 0H12ZM4 3.00005C2.89543 3.00005 2 3.89549 2 5.00008V8.00012C2 9.10471 2.89543 10.0002 4 10.0002C5.10457 10.0002 6 9.10471 6 8.00012V5.00008C6 3.89549 5.10457 3.00005 4 3.00005Z" fill="var(--fill-0, white)"/>
</svg>
