<svg preserveAspectRatio="none" width="100%" height="100%" overflow="visible" style="display: block;" viewBox="0 0 19.422 18.0377" fill="none" xmlns="http://www.w3.org/2000/svg">
<g id="1inch">
<path id="Vector" d="M11.93 17.2175C10.1421 18.0275 8.33933 17.8357 6.53336 17.2713C6.63109 17.2824 6.72922 17.2954 6.82735 17.3041C6.93349 17.3132 7.04003 17.3203 7.14777 17.3239C8.93611 17.3804 10.4229 16.7657 11.4847 15.3234C12.8396 13.4802 12.4695 10.933 10.5578 9.46335C10.5243 9.44395 10.4896 9.4264 10.4541 9.41078C10.074 9.95468 9.67628 10.4938 9.31781 11.0575C9.22569 11.2026 9.2285 11.4263 9.23771 11.6109C9.26334 12.0852 9.14398 12.4975 8.78391 12.8244C8.43546 13.1406 8.0862 13.4568 7.72813 13.7624C7.49983 13.9581 7.21426 14.0189 6.92227 13.9921C6.58503 13.9612 6.30426 14.0233 6.04552 14.264C5.85648 14.4403 5.58412 14.3719 5.35262 14.332C5.04541 14.2794 4.74662 14.1822 4.44182 14.1126C4.24396 14.0672 4.09537 13.9545 4.02167 13.779C3.83503 13.3387 3.6612 12.8932 3.50099 12.4426C3.46574 12.3426 3.49058 12.2034 3.53183 12.0999C3.62956 11.8564 3.73209 11.6081 3.87268 11.3884C4.14824 10.9634 4.23315 10.4923 4.29363 10.0049C4.37934 9.2997 4.47226 8.59532 4.56518 7.89053C4.59803 7.64151 4.58161 7.39367 4.43782 7.18733C4.20351 6.85095 4.1975 6.4952 4.30805 6.13036C4.35651 5.97027 4.30805 5.90268 4.18108 5.81414C2.85828 4.87258 1.53815 3.92589 0.220689 2.97406C0.142587 2.91793 0.0732961 2.84915 0 2.7863L0.0180236 2.7195C0.111346 2.73096 0.210276 2.72583 0.298391 2.75587C1.35097 3.12387 2.40315 3.49306 3.45653 3.86225C3.56948 3.90178 3.68323 3.93815 3.79658 3.9757L3.84224 3.98163L3.82902 3.9421C3.66881 3.33139 3.63557 2.72266 3.85225 2.11631C3.99342 1.70643 4.22863 1.33428 4.53955 1.0289C4.68053 1.47279 4.81551 1.89851 4.95009 2.32185C5.30736 1.4724 5.81362 0.786985 6.6399 0.371152C7.17198 0.103321 7.76549 -0.0233607 8.36216 0.00354296L7.77619 0.932447C10.8374 -0.483835 13.6066 0.0501859 16.1872 2.00523C15.9469 1.9831 15.7034 1.9582 15.4615 1.93922C15.2195 1.92025 14.9728 1.9076 14.6953 1.88981C18.1866 3.74485 19.6678 6.62604 19.389 10.4365L19.3377 10.4674C19.2452 10.3563 19.1535 10.2448 19.0606 10.1345C18.9677 10.0242 18.8751 9.91634 18.7598 9.78115C18.9468 12.6564 17.6668 14.7909 15.4442 16.5131C15.5268 16.0744 15.602 15.6744 15.6777 15.2743C14.5623 16.7491 13.1428 17.7251 11.2403 18.0377L11.9729 17.2563L11.9753 17.2061L11.93 17.2175ZM13.5854 7.19919L13.6255 7.24149L13.6227 7.23872L13.7028 7.3573L13.7829 7.47589L13.863 7.59447C13.8737 7.64122 13.8895 7.68668 13.9102 7.73005C14.338 8.44497 14.6196 9.23566 14.7393 10.0575C14.7565 10.1673 14.7886 10.3085 14.8663 10.3705C15.2268 10.6591 15.3021 11.0251 15.2268 11.448C15.2068 11.5449 15.196 11.6433 15.1943 11.7421C15.1991 12.0323 15.0722 12.2283 14.799 12.3398C14.6236 12.4117 14.5391 12.5497 14.4714 12.7303C14.3321 13.1124 14.166 13.4845 13.9743 13.8438C13.6271 14.4782 13.1472 15.0127 12.5921 15.4819L12.6298 15.534L13.1104 15.2214C13.1476 15.2118 13.1835 15.1978 13.2173 15.1799C14.7126 14.149 15.6354 12.7505 15.9858 10.9844C16.0138 10.7693 16.0558 10.5555 16.0679 10.3397C16.1916 8.06011 15.3665 6.18926 13.569 4.74847C12.9088 4.21239 12.1361 3.82799 11.3068 3.62311C11.109 3.57449 10.9135 3.5148 10.7132 3.47923C10.2366 3.39503 10.2326 3.40017 9.96466 3.79901C9.95116 3.82183 9.94243 3.84709 9.93899 3.87329C9.93555 3.8995 9.93747 3.92612 9.94463 3.95158C10.0163 4.13934 10.1008 4.32275 10.1809 4.50774C10.3011 4.82001 10.3948 5.14533 10.5478 5.44099C10.7761 5.88133 10.7645 6.29282 10.5478 6.73079C10.4561 6.91499 10.3592 7.0225 10.1505 6.99721C9.95625 6.97349 9.86213 7.05333 9.78442 7.23437C9.464 7.9854 9.64064 7.81148 8.89045 8.03165C8.86631 8.0425 8.84125 8.05123 8.81555 8.05774C8.64653 8.07394 8.56282 8.18146 8.50675 8.32574C8.37137 8.67516 8.23159 9.02261 8.09581 9.37164C8.00009 9.61869 7.90837 9.86693 7.80703 10.1357L7.94121 10.1163C8.09421 10.1235 8.25322 10.1073 8.39821 10.144C8.57203 10.1883 8.64173 10.1235 8.72143 9.98591C8.94212 9.60328 9.18724 9.23488 9.41154 8.85383C9.6118 8.5131 9.87254 8.30044 10.2995 8.38305C10.3193 8.3858 10.3394 8.3858 10.3592 8.38305C11.1342 8.31506 11.7294 7.9771 12.0618 7.26007C12.3021 6.74225 12.3822 6.19637 12.2384 5.64417C12.1543 5.32241 11.9937 5.02002 11.8672 4.70894C11.8559 4.67297 11.8443 4.63739 11.8139 4.54332L12.3478 4.90262C12.4411 5.01093 12.5348 5.11884 12.6282 5.22754C13.0615 5.73192 13.2914 6.32839 13.4352 6.964L13.5049 7.12686L13.545 7.16085L13.5854 7.19919ZM7.21386 0.666425C5.84486 1.15143 5.45555 2.34913 6.2526 3.38831C6.2526 3.31677 6.2546 3.24443 6.2526 3.17289C6.22416 2.20643 6.44164 1.33326 7.22347 0.67354L7.23909 0.641918L7.21386 0.666425ZM7.42093 2.84718C8.0854 2.33331 8.6225 1.70087 9.12516 0.987391L9.3851 1.58229C10.9708 1.00676 12.5797 1.09372 14.1998 1.33405C14.1506 1.28817 14.0931 1.25172 14.0304 1.22653C12.8336 0.712673 11.59 0.486969 10.2859 0.637965C9.39832 0.741133 8.63412 1.09293 8.03854 1.76135C7.75817 2.07757 7.51225 2.42225 7.42093 2.84757C7.41091 2.86101 7.4013 2.87445 7.39249 2.8871C7.39686 2.89126 7.40155 2.8951 7.40651 2.89856L7.42093 2.84718ZM16.3202 7.73914L16.2553 7.71898L16.2922 7.76958C16.3022 7.80777 16.3144 7.84538 16.3286 7.88223C16.6993 8.69927 16.9406 9.56769 17.0439 10.4571C17.2241 11.8816 17.0168 13.3278 16.4432 14.647C16.3847 14.783 16.323 14.9186 16.2449 15.1008C18.2996 13.3102 18.614 9.94045 16.3202 7.73914ZM12.6041 15.2755C13.4677 14.5549 14.0388 13.6466 14.3933 12.5928C14.4365 12.4631 14.5431 12.3113 14.6612 12.2568C14.9504 12.1236 15.0986 11.9362 15.0814 11.6188C15.0806 11.5201 15.0907 11.4217 15.1114 11.3251C15.1643 11.0018 15.0806 10.7429 14.809 10.5282C14.7021 10.4436 14.6212 10.2792 14.6031 10.1413C14.4963 9.3171 14.216 8.52409 13.7805 7.81306C13.7056 7.69013 13.617 7.57589 13.5425 7.46917C13.5025 8.02256 13.4624 8.56488 13.4272 9.10878C13.4172 9.26689 13.3751 9.45426 13.44 9.58312C14.0464 10.7966 14.0648 12.0366 13.6543 13.3031C13.422 14.0189 13.0435 14.6573 12.5761 15.2471L12.5601 15.2838L12.6041 15.2755ZM7.74335 11.1215L7.43775 11.1769C7.7834 11.2425 7.95443 11.3599 8.01771 11.605C8.089 11.8817 7.91517 12.0271 7.72212 12.1726C7.57513 12.2837 7.44175 12.4125 7.30197 12.5335L6.55499 13.324L6.59504 13.375C6.72081 13.375 6.84697 13.3679 6.97194 13.375C7.20024 13.3908 7.37767 13.3165 7.54028 13.1509C7.76738 12.9201 8.02091 12.7125 8.26323 12.4987C8.74386 12.0793 8.79473 11.5631 8.3918 11.0713C8.06257 10.6697 7.66404 10.4389 7.11733 10.6211C7.03823 10.6418 6.95799 10.6579 6.87701 10.6693C7.04523 10.4286 7.2515 10.2954 7.48781 10.197C7.54549 10.1733 7.62559 10.1413 7.64362 10.0938C7.74014 9.84321 7.82025 9.58628 7.90596 9.33172C7.99848 9.10799 8.0886 8.88347 8.18393 8.65975C8.53439 7.84508 8.34213 8.00121 9.18524 7.77116C9.2182 7.76712 9.25012 7.75707 9.27936 7.74151C9.34345 7.69171 9.42796 7.64625 9.4584 7.57866C9.68189 7.08179 9.89657 6.58137 10.1068 6.07897C10.1375 6.00881 10.1427 5.93036 10.1217 5.85683C9.97588 5.47024 9.81727 5.08841 9.66306 4.70459C9.60779 4.56822 9.55212 4.43185 9.48643 4.26978C9.0819 4.5698 8.63732 4.66783 8.18313 4.73661L7.83146 4.70261C9.42035 3.79347 9.60499 2.59894 9.0779 1.40006C8.81355 1.77992 8.56202 2.15939 8.29487 2.527C7.81024 3.19384 7.32039 3.85869 6.82134 4.51565C6.62628 4.77258 6.46648 4.77179 6.24859 4.55517C6.21855 4.52513 6.20373 4.48007 6.15647 4.39706C5.90734 5.0809 5.68465 5.6916 5.46236 6.30231C5.27211 6.82565 5.34901 7.31936 5.61416 7.8012C5.71484 7.97831 5.78955 8.16862 5.83605 8.36645C5.87177 8.51829 5.87231 8.67612 5.83764 8.82819C5.80296 8.98027 5.73397 9.12266 5.63579 9.24476C5.60054 8.86173 5.4135 8.59255 5.1908 8.29807C5.12792 8.80521 5.07065 9.26808 5.01337 9.73095C4.92405 10.4618 4.86277 11.203 4.41539 11.8315C4.16426 12.1844 4.18348 12.5204 4.32527 12.9185C4.48868 13.3762 4.7334 13.643 5.24007 13.7003C5.52044 13.7328 5.73472 13.6889 5.91535 13.4806C6.03952 13.373 6.16087 13.2624 6.28824 13.1584C6.63069 12.8786 6.75686 12.507 6.78009 12.0833C6.78968 11.8873 6.81648 11.6924 6.86019 11.501C6.9395 11.171 7.42533 10.9694 7.74335 11.1215ZM10.4393 2.82741C14.6488 3.14364 17.3283 5.40305 18.9264 9.14317C18.9104 8.93723 18.8968 8.75106 18.8815 8.56488C18.7814 7.35058 18.4201 6.2193 17.7545 5.19078C17.1337 4.23184 16.3606 3.4314 15.2981 2.9377C14.2831 2.46573 13.2173 2.34162 12.1191 2.50605C11.5555 2.59025 10.9988 2.71871 10.4393 2.82741ZM2.60341 4.10851L2.5918 4.14053C3.21368 4.5142 3.8369 4.88774 4.46145 5.26114C4.57696 5.33906 4.70014 5.40528 4.82913 5.45878C4.90923 5.48724 5.07665 5.48961 5.09227 5.45483C5.13793 5.35285 5.16477 5.21173 5.12672 5.1137C5.09308 5.02635 4.97172 4.95124 4.87239 4.91369C4.17748 4.65162 3.47856 4.39983 2.78004 4.14725C2.72226 4.1299 2.66321 4.11695 2.60341 4.10851V4.10851ZM4.35611 2.12856C4.21152 2.67049 4.16105 3.16735 4.34289 3.66185C4.43024 3.89678 4.59308 4.09706 4.80657 4.2321C5.02006 4.36713 5.27246 4.42951 5.52524 4.40971C4.76104 3.84684 4.5027 3.04007 4.35531 2.12856H4.35611ZM7.05324 12.3505C7.25351 12.1924 7.43655 12.0686 7.59315 11.9157C7.66004 11.8504 7.72853 11.6836 7.69489 11.6417C7.6127 11.5484 7.4987 11.4881 7.37447 11.4722C7.30638 11.4642 7.17621 11.567 7.15778 11.6401C7.10211 11.8635 7.08929 12.0967 7.05244 12.3505H7.05324ZM16.2521 15.1277C16.2557 15.1241 16.2617 15.1206 16.2621 15.1166C16.2625 15.1127 16.2565 15.1087 16.2537 15.1044C16.2501 15.1083 16.2437 15.1119 16.2437 15.1154C16.2437 15.119 16.2485 15.1237 16.2513 15.1277H16.2521Z" fill="var(--fill-0, #1D3250)"/>
<path id="Vector_2" d="M9.66137 4.70479C9.81558 5.0886 9.97418 5.47044 10.12 5.85703C10.1411 5.93055 10.1358 6.00901 10.1052 6.07917C9.89488 6.58157 9.6802 7.08199 9.45671 7.57886C9.42627 7.64645 9.34175 7.69191 9.27767 7.74171C9.24843 7.75727 9.21651 7.76732 9.18355 7.77136C8.34244 8.00141 8.53349 7.84528 8.18223 8.65995C8.08691 8.88209 7.99679 9.10661 7.90427 9.33192C7.53418 9.52086 7.15529 9.69637 6.79762 9.90626C6.64797 9.99892 6.52538 10.1285 6.44195 10.2822C6.2525 10.632 6.0975 11.0004 5.93929 11.338L5.50633 10.7846C5.49751 10.7695 5.4891 10.7541 5.48029 10.7387C5.4839 10.7585 5.4879 10.7782 5.49151 10.7976C5.55439 11.1451 5.61968 11.4925 5.67975 11.8408C5.75986 12.2933 5.7162 12.7072 5.28524 12.9918C5.16107 13.0736 5.04092 13.1614 4.89553 13.263L5.91727 13.48C5.73663 13.6883 5.52435 13.7322 5.24198 13.6997C4.73532 13.6424 4.49059 13.3756 4.32718 12.9179C4.18539 12.5198 4.16697 12.1839 4.4173 11.8309C4.86469 11.2024 4.92597 10.4612 5.01528 9.73036C5.07176 9.26749 5.12983 8.80462 5.19272 8.29748C5.41541 8.59196 5.60245 8.86114 5.6377 9.24417C5.73588 9.12207 5.80488 8.97968 5.83955 8.8276C5.87422 8.67553 5.87368 8.5177 5.83796 8.36586C5.79147 8.16803 5.71676 7.97772 5.61607 7.80061C5.35092 7.31877 5.27402 6.82506 5.46427 6.30171C5.68656 5.69101 5.90925 5.0803 6.15838 4.39647C6.20564 4.47869 6.22046 4.52375 6.2505 4.55458C6.46839 4.77317 6.6282 4.77396 6.82325 4.51506C7.32071 3.8585 7.81055 3.19364 8.29518 2.5268C8.56233 2.15919 8.81587 1.78012 9.07621 1.40105C9.6033 2.59993 9.41865 3.79288 7.82977 4.7036L8.18143 4.7376C8.24311 4.75262 8.30399 4.77159 8.36648 4.78266C8.80425 4.85974 9.23241 4.77989 9.66137 4.70479ZM5.17549 11.4186C5.02409 11.6795 4.87149 11.9396 4.7217 12.2016C4.60154 12.4119 4.61716 12.6052 4.75614 12.6973C4.8787 12.7791 5.06014 12.7096 5.21354 12.5214C5.23897 12.4911 5.26187 12.4589 5.28203 12.425C5.41781 12.1827 5.36214 12.019 5.11862 11.9178C5.13664 11.7479 5.15427 11.5811 5.17229 11.4146L5.20633 11.3921L5.19712 11.387C5.18791 11.3984 5.1811 11.4091 5.17389 11.4198L5.17549 11.4186ZM7.95914 5.24632L7.91669 5.22814L6.27694 7.63697L6.19042 7.62669L5.95011 7.15907C5.93341 7.2121 5.92004 7.26609 5.91006 7.32074C5.88242 7.57807 5.86159 7.8346 6.03021 8.06149C6.15998 8.23581 6.36185 8.27139 6.49963 8.16545C6.58929 8.09341 6.68746 8.03235 6.79201 7.98362C7.23992 7.79346 7.65378 7.53318 8.01762 7.21283C8.19866 7.05037 8.26634 6.84601 8.2311 6.60608C8.18464 6.29183 7.97476 6.11989 7.68959 6.01711C7.78331 5.7507 7.87143 5.49851 7.95914 5.24632ZM7.85861 3.88261C8.58476 3.80355 9.08382 3.0711 8.90919 2.35288L7.85861 3.88261Z" fill="var(--fill-0, #FCFCFC)"/>
<path id="Vector_3" d="M11.3065 3.62218C12.1358 3.82706 12.9085 4.21146 13.5686 4.74753C15.3662 6.18714 16.1913 8.05918 16.0675 10.3387C16.0555 10.5546 16.0134 10.7684 15.9854 10.9834C15.9766 10.9336 15.955 10.8823 15.9614 10.834C16.0499 10.1565 15.9506 9.49562 15.7443 8.85369C15.1836 7.11249 13.9744 5.89187 12.46 4.92304C12.4303 4.90367 12.3855 4.90762 12.3478 4.90051L11.8115 4.54001C11.842 4.63409 11.8536 4.66966 11.8648 4.70564C11.9705 5.21673 12.0354 5.72704 11.9073 6.24722C11.6834 7.1528 10.9861 7.85482 10.1085 7.96313C9.68074 8.01609 9.271 8.09396 8.87128 8.2497C8.80587 8.2717 8.74635 8.30802 8.69717 8.35594C8.64799 8.40385 8.61044 8.46213 8.58731 8.5264C8.37503 9.05805 8.15554 9.58732 7.93886 10.1174L7.80468 10.1368C7.90602 9.86797 7.99774 9.61974 8.09346 9.37269C8.22924 9.02366 8.36902 8.67621 8.5044 8.32678C8.56047 8.18251 8.64418 8.07499 8.8132 8.05878C8.8389 8.05228 8.86396 8.04355 8.8881 8.03269C9.63829 7.81252 9.46005 7.98763 9.78207 7.23542C9.85978 7.05438 9.9539 6.97453 10.1482 6.99825C10.3568 7.02355 10.4538 6.91603 10.5455 6.73183C10.7634 6.29386 10.775 5.88238 10.5455 5.44204C10.3925 5.14637 10.2988 4.82106 10.1786 4.50879C10.6212 4.29296 11.0153 4.01904 11.3065 3.62218Z" fill="var(--fill-0, #FBFBFC)"/>
<path id="Vector_4" d="M10.4389 2.82755C10.9996 2.71885 11.5551 2.59038 12.1187 2.50619C13.2177 2.34175 14.2815 2.46666 15.2976 2.93743C16.3602 3.43153 17.1332 4.23197 17.7541 5.19052C18.4197 6.21824 18.781 7.35032 18.8811 8.56462C18.8964 8.75079 18.91 8.93697 18.926 9.14291C17.3275 5.40318 14.6484 3.14258 10.4389 2.82755Z" fill="var(--fill-0, #D52122)"/>
<path id="Vector_5" d="M12.3468 4.90245C12.3845 4.90957 12.4293 4.90562 12.459 4.92498C13.9725 5.89381 15.1825 7.11443 15.7433 8.85563C15.9495 9.49757 16.0489 10.1601 15.9603 10.836C15.9539 10.8842 15.9756 10.9356 15.9844 10.9854C15.6343 12.7515 14.7116 14.1496 13.2163 15.1797C13.1825 15.1979 13.1466 15.2121 13.1094 15.222C13.135 15.1654 13.1667 15.1118 13.2039 15.0619C13.8151 14.4049 14.3006 13.6713 14.5769 12.8179C14.6466 12.6025 14.7431 12.4345 14.953 12.3436C15.2102 12.2325 15.3167 12.0376 15.3175 11.7669C15.3125 11.6027 15.3267 11.4385 15.36 11.2775C15.4453 10.9281 15.2939 10.6905 15.0487 10.4613C14.9382 10.3513 14.8657 10.2096 14.8417 10.0565C14.7312 9.267 14.4648 8.50659 14.0574 7.81842C14.0082 7.73423 13.9277 7.66861 13.8616 7.5943L13.7815 7.47572L13.7014 7.35713L13.6213 7.23855L13.6241 7.24132L13.584 7.19902L13.544 7.15949L13.5103 7.06898C13.4851 7.0334 13.4595 6.99783 13.4338 6.96265C13.29 6.32704 13.0601 5.73056 12.6268 5.22619C12.5355 5.11669 12.4401 5.00878 12.3468 4.90245Z" fill="var(--fill-0, #94A6C2)"/>
<path id="Vector_6" d="M5.91711 13.4798L4.89617 13.2628C5.04156 13.1612 5.16172 13.0735 5.28588 12.9916C5.71685 12.707 5.7585 12.2932 5.6804 11.8406C5.62032 11.4923 5.55503 11.1449 5.49215 10.7974L5.50697 10.7844L5.93994 11.3378C6.09815 11.0002 6.25315 10.6318 6.4426 10.282C6.52602 10.1283 6.64861 9.99875 6.79826 9.90609C7.15593 9.6962 7.53483 9.52069 7.90491 9.33175C7.8192 9.58631 7.7391 9.84324 7.64257 10.0938C7.62455 10.1413 7.54444 10.1729 7.48677 10.197C7.25046 10.2954 7.04619 10.4286 6.87596 10.6694C6.95694 10.6579 7.03718 10.6418 7.11628 10.6211C7.663 10.4373 8.06152 10.6698 8.39075 11.0714C8.79368 11.5631 8.74121 12.0793 8.26218 12.4987C8.01786 12.7126 7.76633 12.9201 7.53923 13.1509C7.37662 13.3166 7.19919 13.3909 6.97089 13.3751C6.84593 13.3664 6.71976 13.3751 6.594 13.3751L6.55394 13.3241L7.30092 12.5335C7.31654 12.541 7.33857 12.5588 7.34658 12.5541C7.56767 12.4224 7.79277 12.2959 8.00585 12.1521C8.17967 12.0335 8.23575 11.8603 8.20851 11.6524C8.17126 11.3698 7.98942 11.22 7.7423 11.1216C7.42428 10.9694 6.93845 11.171 6.86115 11.4999C6.81743 11.6913 6.79063 11.8861 6.78104 12.0821C6.75781 12.5058 6.63164 12.8774 6.2892 13.1573C6.16263 13.2608 6.04127 13.3715 5.91711 13.4798Z" fill="var(--fill-0, #93A5C2)"/>
<path id="Vector_7" d="M12.5744 15.2472C13.0418 14.6575 13.4203 14.0191 13.6526 13.3032C14.0631 12.0383 14.0447 10.7968 13.4383 9.58328C13.3734 9.45402 13.4155 9.26705 13.4255 9.10894C13.4595 8.56504 13.5016 8.02153 13.5408 7.46933C13.6153 7.57566 13.7038 7.69029 13.7787 7.81322C14.2143 8.52424 14.4945 9.31726 14.6014 10.1414C14.6194 10.2794 14.7003 10.4438 14.8073 10.5284C15.0788 10.743 15.1626 11.0027 15.1097 11.3253C15.089 11.4218 15.0789 11.5203 15.0796 11.619C15.0969 11.9352 14.9487 12.1237 14.6595 12.2569C14.5413 12.3115 14.4348 12.4633 14.3915 12.5929C14.0371 13.6467 13.4659 14.5551 12.6024 15.2757C12.5928 15.2658 12.5836 15.2563 12.5744 15.2472Z" fill="var(--fill-0, #92A4C1)"/>
<path id="Vector_8" d="M16.3192 7.73891C18.613 9.94021 18.2986 13.31 16.2455 15.099C16.3256 14.9168 16.3853 14.7828 16.4437 14.6452C17.0173 13.326 17.2247 11.8798 17.0445 10.4553C16.9412 9.56588 16.6999 8.69746 16.3292 7.88042C16.3149 7.84356 16.3028 7.80595 16.2927 7.76777L16.3192 7.73891Z" fill="var(--fill-0, #D42123)"/>
<path id="Vector_9" d="M7.93837 10.1151C8.15505 9.58504 8.37454 9.05576 8.58682 8.52411C8.60994 8.45984 8.6475 8.40157 8.69668 8.35365C8.74585 8.30573 8.80538 8.26942 8.87079 8.24741C9.27131 8.09167 9.68025 8.0138 10.108 7.96084C10.9852 7.85253 11.6829 7.15052 11.9068 6.24493C12.0349 5.72514 11.97 5.21484 11.8643 4.70335C11.9909 5.01443 12.1515 5.31682 12.2356 5.63858C12.3802 6.19197 12.2993 6.73666 12.059 7.25447C11.7265 7.97151 11.1313 8.30947 10.3563 8.37746C10.3365 8.38021 10.3165 8.38021 10.2967 8.37746C9.8697 8.29485 9.60936 8.50751 9.40869 8.84824C9.1844 9.22889 8.93928 9.59927 8.71859 9.98031C8.63848 10.1187 8.56919 10.1835 8.39537 10.1384C8.25038 10.106 8.09017 10.1222 7.93837 10.1151Z" fill="var(--fill-0, #93A5C2)"/>
<path id="Vector_10" d="M7.41817 2.84736C7.50949 2.42204 7.75381 2.07775 8.03578 1.76114C8.63136 1.09272 9.39756 0.740922 10.2831 0.637754C11.5872 0.485968 12.8309 0.712857 14.0276 1.22672C14.0906 1.25273 14.148 1.29013 14.1971 1.337C12.5769 1.09667 10.968 1.00971 9.38234 1.58524L9.1224 0.987971C8.62014 1.69947 8.08103 2.33192 7.41817 2.84776V2.84736Z" fill="var(--fill-0, #D32123)"/>
<path id="Vector_11" d="M13.864 7.59416C13.9301 7.66848 14.0106 7.73409 14.0599 7.81829C14.4668 8.50642 14.7328 9.26668 14.8429 10.056C14.867 10.2091 14.9394 10.3507 15.05 10.4607C15.2951 10.69 15.4465 10.9275 15.3612 11.277C15.328 11.4379 15.3137 11.6021 15.3187 11.7663C15.3187 12.0371 15.2114 12.232 14.9543 12.343C14.7444 12.4336 14.6479 12.6015 14.5782 12.8174C14.3018 13.6708 13.8172 14.4044 13.2052 15.0614C13.1679 15.1112 13.1362 15.1649 13.1106 15.2215L12.63 15.5341L12.5924 15.4819C13.1475 15.0127 13.6273 14.4783 13.9746 13.8439C14.1678 13.4842 14.3354 13.1116 14.476 12.7288C14.5437 12.5482 14.6282 12.4102 14.8037 12.3383C15.0768 12.2268 15.2042 12.0308 15.199 11.7406C15.2006 11.6418 15.2115 11.5434 15.2314 11.4465C15.3051 11.0236 15.2294 10.656 14.871 10.369C14.7932 10.307 14.7612 10.1658 14.744 10.056C14.6237 9.23402 14.3413 8.44332 13.9129 7.72856C13.8917 7.68563 13.8754 7.64057 13.864 7.59416V7.59416Z" fill="var(--fill-0, #E9EBEF)"/>
<path id="Vector_12" d="M7.22258 0.672741C6.44076 1.33246 6.22327 2.20563 6.25171 3.17209C6.25371 3.24363 6.25171 3.31597 6.25171 3.38751C5.45587 2.34833 5.84518 1.15063 7.21297 0.665626L7.22258 0.672741Z" fill="var(--fill-0, #D12123)"/>
<path id="Vector_13" d="M2.60308 4.10825C2.66309 4.116 2.72241 4.12829 2.78051 4.14501C3.47903 4.39759 4.17794 4.64938 4.87285 4.91145C4.97218 4.95098 5.09354 5.02411 5.12719 5.11146C5.16524 5.20949 5.1384 5.35061 5.09274 5.45259C5.07712 5.48737 4.9109 5.485 4.82959 5.45654C4.70061 5.40304 4.57742 5.33682 4.46191 5.2589C3.83683 4.88787 3.21308 4.51499 2.59066 4.14026L2.60308 4.10825Z" fill="var(--fill-0, #F6F7F8)"/>
<path id="Vector_14" d="M11.3062 3.62212C11.013 4.0174 10.6209 4.2941 10.1803 4.50676C10.1002 4.32177 10.0157 4.13836 9.94399 3.9506C9.93683 3.92514 9.93491 3.89852 9.93835 3.87231C9.94179 3.8461 9.95052 3.82084 9.96402 3.79802C10.2336 3.39761 10.236 3.39405 10.7126 3.47824C10.9129 3.51382 11.1083 3.5735 11.3062 3.62212Z" fill="var(--fill-0, #93A4C1)"/>
<path id="Vector_15" d="M4.3576 2.12826C4.50499 3.03977 4.76333 3.84653 5.52673 4.40941C5.27395 4.42921 5.02155 4.36683 4.80806 4.23179C4.59457 4.09676 4.43172 3.89648 4.34438 3.66154C4.16254 3.16705 4.21301 2.67018 4.3576 2.12826Z" fill="var(--fill-0, #D02124)"/>
<path id="Vector_16" d="M7.05314 12.3505C7.08799 12.0959 7.10281 11.8635 7.15888 11.6413C7.1773 11.5682 7.30748 11.4654 7.37556 11.4733C7.4998 11.4893 7.6138 11.5496 7.69599 11.6429C7.72963 11.6848 7.66114 11.8516 7.59425 11.9169C7.43644 12.0686 7.253 12.1935 7.05314 12.3505Z" fill="var(--fill-0, #F4F5F6)"/>
<path id="Vector_17" d="M9.66039 4.70494C9.23143 4.77886 8.80327 4.85871 8.3655 4.78163C8.30301 4.77056 8.24213 4.75159 8.18045 4.73657C8.63465 4.66779 9.07923 4.56976 9.48376 4.26974C9.54944 4.43339 9.60512 4.56976 9.66039 4.70494Z" fill="var(--fill-0, #91A3BF)"/>
<path id="Vector_18" d="M7.74388 11.1215C7.991 11.2199 8.17284 11.3697 8.21009 11.6523C8.23732 11.8603 8.18125 12.035 8.00742 12.152C7.79434 12.2959 7.56925 12.4223 7.34816 12.554C7.34015 12.5587 7.31812 12.5409 7.3025 12.5334C7.44228 12.4125 7.57565 12.2836 7.72265 12.1725C7.9157 12.0271 8.08953 11.8804 8.01824 11.6049C7.95495 11.3598 7.78393 11.2424 7.43827 11.1768L7.74388 11.1215Z" fill="var(--fill-0, #EEF0F3)"/>
<path id="Vector_19" d="M13.4343 6.96177C13.4599 6.99695 13.4856 7.03252 13.5108 7.0681C13.5088 7.08707 13.5064 7.10763 13.504 7.12463L13.4343 6.96177Z" fill="var(--fill-0, #E5E8ED)"/>
<path id="Vector_20" d="M13.7017 7.35619L13.7818 7.47477L13.7017 7.35619Z" fill="var(--fill-0, #E9EBEF)"/>
<path id="Vector_21" d="M13.7813 7.47502L13.8614 7.5936L13.7813 7.47502Z" fill="var(--fill-0, #E9EBEF)"/>
<path id="Vector_22" d="M13.6185 7.23672L13.6987 7.35531L13.6185 7.23672Z" fill="var(--fill-0, #E9EBEF)"/>
<path id="Vector_23" d="M16.2931 7.76928C16.2806 7.75228 16.2682 7.73568 16.2562 7.71868L16.3211 7.73884L16.2931 7.76928Z" fill="var(--fill-0, #D42123)"/>
<path id="Vector_24" d="M7.42132 2.84693L7.4069 2.89911C7.40194 2.89564 7.39726 2.89181 7.39288 2.88764C7.40169 2.87381 7.41131 2.86037 7.42132 2.84812V2.84693Z" fill="var(--fill-0, #D32123)"/>
<path id="Vector_25" d="M13.5067 7.1248C13.5091 7.10582 13.5115 7.08725 13.5135 7.06827L13.5471 7.15879L13.5067 7.1248Z" fill="var(--fill-0, #E9EBEF)"/>
<path id="Vector_26" d="M13.5825 7.19753L13.6226 7.23983L13.5825 7.19753Z" fill="var(--fill-0, #E9EBEF)"/>
<path id="Vector_27" d="M13.5465 7.15771L13.5865 7.19724L13.5465 7.15771Z" fill="var(--fill-0, #E9EBEF)"/>
<path id="Vector_28" d="M3.83006 3.94043L3.84328 3.97996L3.79762 3.97403L3.83006 3.94043Z" fill="var(--fill-0, #FEFEFE)"/>
<path id="Vector_29" d="M7.21211 0.666114L7.23574 0.641607L7.22012 0.673229L7.21211 0.666114Z" fill="var(--fill-0, #D12123)"/>
<path id="Vector_30" d="M16.2504 15.1275C16.2476 15.1236 16.2416 15.1192 16.242 15.1153C16.2424 15.1113 16.2484 15.1082 16.252 15.1042C16.2548 15.1086 16.2608 15.1125 16.2604 15.1165C16.26 15.1204 16.254 15.124 16.2504 15.1275Z" fill="var(--fill-0, #D42123)"/>
<path id="Vector_31" d="M12.6039 15.2754L12.5598 15.2841L12.5758 15.2474C12.5854 15.2565 12.5947 15.266 12.6039 15.2754Z" fill="var(--fill-0, #92A4C1)"/>
<path id="Vector_32" d="M11.9312 17.2174L11.9765 17.204L11.9741 17.2542L11.9312 17.2174Z" fill="var(--fill-0, #FEFEFE)"/>
<path id="Vector_33" d="M7.95943 5.24616C7.87171 5.49834 7.7836 5.75053 7.69067 6.01695C7.97585 6.11972 8.18572 6.29364 8.23218 6.60591C8.26743 6.84585 8.19974 7.05021 8.0187 7.21267C7.65486 7.53301 7.241 7.79329 6.7931 7.98346C6.68855 8.03219 6.59037 8.09324 6.50071 8.16529C6.36293 8.27122 6.16107 8.23565 6.0313 8.06133C5.86388 7.83642 5.88471 7.5779 5.91114 7.32058C5.92112 7.26593 5.9345 7.21194 5.95119 7.15891L6.19151 7.62652L6.27802 7.6368L7.91777 5.22797L7.95943 5.24616ZM6.73742 7.68542C7.09931 7.56076 7.4246 7.35022 7.68467 7.07234C7.93459 6.80395 7.87091 6.52212 7.51965 6.36519C7.25984 6.80474 6.9991 7.24482 6.73742 7.68542Z" fill="var(--fill-0, #223752)"/>
<path id="Vector_34" d="M7.85904 3.88269L8.90962 2.35296C9.08424 3.07118 8.58519 3.80363 7.85904 3.88269Z" fill="var(--fill-0, #233855)"/>
<path id="Vector_35" d="M5.17043 11.4157L5.11716 11.9193C5.36068 12.0205 5.41635 12.1841 5.28058 12.4264C5.26042 12.4604 5.23751 12.4926 5.21209 12.5229C5.05869 12.711 4.87725 12.7806 4.75469 12.6988C4.61571 12.6067 4.60049 12.4134 4.72024 12.2031C4.87004 11.941 5.02264 11.6809 5.17404 11.4201L5.17043 11.4157Z" fill="var(--fill-0, #223754)"/>
<path id="Vector_36" d="M5.49617 10.7967L5.48495 10.7378C5.49376 10.7532 5.50217 10.7686 5.51099 10.7837L5.49617 10.7967Z" fill="var(--fill-0, #93A5C2)"/>
<path id="Vector_37" d="M5.17789 11.4198C5.1851 11.4092 5.19191 11.3985 5.19952 11.3882L5.20873 11.3934L5.17428 11.4155L5.17789 11.4198Z" fill="var(--fill-0, #223754)"/>
<path id="Vector_38" d="M6.73868 7.68539C7.00036 7.24505 7.2611 6.80484 7.52091 6.36477C7.87217 6.52288 7.93585 6.80353 7.68592 7.07192C7.4259 7.34994 7.10061 7.56062 6.73868 7.68539V7.68539Z" fill="var(--fill-0, #F7D324)"/>
</g>
</svg>
