<svg preserveAspectRatio="none" width="100%" height="100%" overflow="visible" style="display: block;" viewBox="0 0 7.04168 7.58334" fill="none" xmlns="http://www.w3.org/2000/svg">
<g id="Vector">
<path d="M3.55336 0C3.60865 0.0333537 3.66394 0.0697396 3.72086 0.100061C4.33069 0.430567 4.94052 0.759556 5.55035 1.08855C5.57312 1.10067 5.59589 1.11432 5.63004 1.13403C5.60239 1.1507 5.58125 1.16586 5.56011 1.17799C5.36822 1.28109 5.17632 1.38266 4.98606 1.48879C4.94215 1.51305 4.91288 1.51153 4.87059 1.48727C4.44453 1.25531 4.01521 1.02487 3.58751 0.79291C3.54035 0.767136 3.50457 0.767136 3.45741 0.79291C3.03134 1.02487 2.60202 1.25531 2.17433 1.48727C2.13205 1.51002 2.10115 1.51305 2.05887 1.48879C1.86697 1.38115 1.67183 1.27805 1.47668 1.17345C1.45879 1.16435 1.44091 1.15222 1.41326 1.13554C1.45229 1.11432 1.48319 1.09613 1.51409 1.07793C2.15156 0.733782 2.79066 0.389632 3.42814 0.0439663C3.45091 0.0318377 3.4688 0.0151608 3.48994 0C3.50945 0 3.53222 0 3.55336 0Z" fill="white"/>
<path d="M3.48831 7.58031C3.35008 7.50299 3.21348 7.42416 3.07525 7.34835C3.00369 7.30893 2.92889 7.27255 2.85896 7.2301C2.83782 7.21797 2.81505 7.18916 2.81505 7.16794C2.8118 6.93143 2.81343 6.69492 2.81343 6.4478C2.84107 6.45993 2.86221 6.46903 2.88173 6.47964C3.0785 6.58425 3.27527 6.68886 3.47042 6.79802C3.50782 6.81924 3.53384 6.81924 3.57124 6.79802C3.76151 6.69341 3.9534 6.59031 4.1453 6.48722C4.16806 6.47509 4.19246 6.46296 4.22823 6.44477C4.22823 6.49177 4.22823 6.52815 4.22823 6.56454C4.22823 6.75405 4.22498 6.94356 4.22986 7.13155C4.23149 7.19068 4.20872 7.221 4.15505 7.24981C3.97292 7.3438 3.79403 7.44235 3.61515 7.53938C3.59238 7.55151 3.57287 7.56818 3.55335 7.58334C3.53221 7.58031 3.50945 7.58031 3.48831 7.58031Z" fill="white"/>
<path d="M5.63328 3.03071C5.63328 3.13684 5.63003 3.24297 5.63491 3.34909C5.63653 3.39912 5.61702 3.4249 5.57149 3.44915C5.14867 3.67505 4.72911 3.90246 4.30792 4.12836C4.24937 4.16019 4.2266 4.19355 4.22823 4.25874C4.23148 4.71053 4.22986 5.16384 4.23148 5.61563C4.23148 5.67021 4.21522 5.70205 4.16318 5.72934C3.96966 5.8294 3.77777 5.93249 3.5875 6.03862C3.53872 6.06591 3.50294 6.06288 3.45578 6.0371C3.26551 5.93098 3.07362 5.82788 2.8801 5.72782C2.83131 5.70205 2.81342 5.67324 2.81342 5.62018C2.81505 5.16232 2.81342 4.70598 2.81668 4.24813C2.81668 4.19355 2.79879 4.16323 2.74837 4.13442C2.32393 3.90853 1.90112 3.67808 1.47667 3.45067C1.42951 3.4249 1.40837 3.39912 1.40837 3.34606C1.41162 3.13684 1.41162 2.9261 1.40837 2.71689C1.40837 2.6714 1.41976 2.64411 1.46529 2.62137C1.66531 2.51676 1.86371 2.40912 2.06211 2.29996C2.10277 2.27722 2.13204 2.28025 2.17107 2.30148C2.59063 2.53041 3.01345 2.75479 3.43301 2.98523C3.49969 3.02162 3.54847 3.0201 3.61515 2.98372C4.03146 2.75479 4.45265 2.53192 4.86896 2.30451C4.91124 2.28177 4.94214 2.27874 4.98605 2.303C5.18282 2.41215 5.38284 2.5198 5.58287 2.62441C5.62515 2.64563 5.63653 2.67292 5.63653 2.71537C5.63166 2.81846 5.63328 2.92459 5.63328 3.03071Z" fill="white"/>
<path d="M0.00180994 3.40665C0.192077 3.50822 0.364456 3.61283 0.548218 3.69622C0.675063 3.75535 0.718971 3.82812 0.715719 3.96305C0.704335 4.38755 0.712466 4.81205 0.71084 5.23504C0.71084 5.28659 0.727102 5.31539 0.777515 5.34116C1.20358 5.56858 1.62803 5.80054 2.05572 6.02795C2.10451 6.05372 2.12402 6.08101 2.1224 6.13407C2.11914 6.33874 2.12077 6.54342 2.12077 6.74809C2.12077 6.76931 2.12077 6.79205 2.12077 6.82541C2.08499 6.80721 2.05897 6.7966 2.03458 6.78296C1.37759 6.42819 0.720597 6.07495 0.0652324 5.71867C0.0375867 5.70351 0.00831481 5.66864 0.00668859 5.64286C0.000183727 4.90302 0.00180994 4.16317 0.00180994 3.40665Z" fill="white"/>
<path d="M4.92246 6.82846C4.92246 6.57528 4.92084 6.33574 4.92572 6.09619C4.92572 6.07345 4.96312 6.04465 4.99076 6.031C5.41358 5.80207 5.8364 5.57315 6.26084 5.34725C6.31613 5.31845 6.33239 5.28661 6.33239 5.229C6.32914 4.77266 6.33239 4.3148 6.32914 3.85846C6.32914 3.80995 6.34378 3.78266 6.39094 3.75688C6.58934 3.65379 6.78448 3.54615 6.98125 3.44002C6.99752 3.43093 7.01378 3.42486 7.0398 3.41273C7.0398 3.44609 7.0398 3.47035 7.0398 3.4946C7.0398 4.2011 7.0398 4.9091 7.04142 5.6156C7.04142 5.67018 7.02516 5.7005 6.97312 5.72779C6.31938 6.078 5.66727 6.42973 5.01516 6.78146C4.98914 6.79511 4.96312 6.80724 4.92246 6.82846Z" fill="white"/>
<path d="M1.41643 1.89507C1.20015 2.01181 0.998497 2.12248 0.793593 2.22861C0.731797 2.26045 0.705778 2.2938 0.707404 2.36354C0.713909 2.58337 0.70903 2.8032 0.70903 3.03213C0.683011 3.02 0.660244 3.01242 0.640729 3.00181C0.447209 2.89568 0.255316 2.78956 0.0585438 2.68646C0.0162622 2.66372 0 2.63947 0 2.59247C0.00325243 2.38022 0.00325243 2.16796 0 1.95571C0 1.91023 0.0146359 1.88294 0.0585438 1.8602C0.258568 1.75559 0.45534 1.64492 0.655365 1.54031C0.678132 1.52818 0.720414 1.5206 0.741554 1.53273C0.96272 1.64795 1.18226 1.76772 1.41643 1.89507Z" fill="white"/>
<path d="M5.62674 1.89501C5.79099 1.80557 5.94385 1.72218 6.09671 1.64031C6.1764 1.59786 6.25608 1.52661 6.33739 1.52661C6.41383 1.52509 6.49351 1.59786 6.56994 1.64031C6.70492 1.71308 6.83989 1.7904 6.97812 1.85863C7.03016 1.8844 7.04317 1.91624 7.04154 1.96627C7.03829 2.17397 7.03829 2.38016 7.04154 2.58786C7.04154 2.63638 7.02854 2.66518 6.98137 2.68944C6.76671 2.80163 6.55693 2.91685 6.33089 3.03814C6.33089 2.83498 6.32113 2.64396 6.33414 2.45445C6.3439 2.32103 6.29999 2.24523 6.16989 2.1861C5.98613 2.1012 5.81375 1.99659 5.62674 1.89501Z" fill="white"/>
<path d="M1.41644 4.1708C1.59208 4.2648 1.75958 4.36941 1.93846 4.44824C2.08482 4.51192 2.13361 4.59682 2.1206 4.7454C2.10433 4.92884 2.11734 5.1138 2.11734 5.30635C2.09458 5.29877 2.07831 5.29573 2.06368 5.28815C1.86203 5.18051 1.66038 5.07287 1.46198 4.96068C1.43759 4.94703 1.41157 4.91368 1.40994 4.88791C1.40669 4.65746 1.40831 4.42853 1.40831 4.19809C1.40831 4.19203 1.41157 4.18596 1.41644 4.1708Z" fill="white"/>
<path d="M4.92267 5.30177C4.92267 5.0592 4.92267 4.82269 4.92429 4.58618C4.92429 4.56951 4.93568 4.54373 4.95031 4.53615C5.16985 4.4179 5.39102 4.30116 5.61056 4.18442C5.61381 4.1829 5.62032 4.18594 5.63333 4.18745C5.63333 4.35725 5.61706 4.53009 5.63821 4.69837C5.65935 4.8803 5.59267 4.98339 5.41541 5.05617C5.25279 5.12136 5.1048 5.21839 4.95031 5.30026C4.94544 5.30177 4.93893 5.30026 4.92267 5.30177Z" fill="white"/>
<path d="M4.22971 1.89498C4.09799 1.96623 3.97602 2.03142 3.85568 2.09662C3.75974 2.14816 3.66541 2.20122 3.56784 2.25126C3.5467 2.26187 3.50767 2.26793 3.48978 2.25884C3.27024 2.14361 3.05396 2.02536 2.83767 1.90862C2.83442 1.90711 2.83279 1.90104 2.82629 1.89043C2.99541 1.79795 3.17267 1.7176 3.33204 1.61147C3.46864 1.52202 3.57597 1.52202 3.71095 1.61147C3.87032 1.71456 4.04758 1.79643 4.22971 1.89498Z" fill="white"/>
</g>
</svg>
