<svg preserveAspectRatio="none" width="100%" height="100%" overflow="visible" style="display: block;" viewBox="0 0 14.1889 15.7816" fill="none" xmlns="http://www.w3.org/2000/svg">
<g id="bolt">
<g id="bolt_2" filter="url(#filter0_d_35581_37485)">
<path d="M5.08262 9.77143C4.9187 10.2163 5.43035 10.6042 5.81443 10.3263L11.1304 6.4792C11.4247 6.26615 11.3848 5.81593 11.0575 5.65803L8.33932 4.34662C8.11668 4.23921 8.01203 3.98028 8.09749 3.74834L9.10646 1.01018C9.27039 0.565321 8.75873 0.177411 8.37466 0.455359L3.05874 4.30241C2.76434 4.51546 2.80428 4.96568 3.13157 5.12358L5.84977 6.43499C6.0724 6.5424 6.17706 6.80133 6.09159 7.03327L5.08262 9.77143Z" fill="var(--fill-0, white)"/>
</g>
<g id="bolt (Stroke)" opacity="0.3" filter="url(#filter1_d_35581_37485)">
<path fill-rule="evenodd" clip-rule="evenodd" d="M11.3413 6.77082L6.0254 10.6179C5.35328 11.1043 4.45788 10.4254 4.74475 9.64694L5.75372 6.90878C5.77508 6.8508 5.74892 6.78606 5.69326 6.75921L2.97506 5.4478C2.4023 5.17147 2.33241 4.38358 2.8476 4.01075L8.16352 0.163699C8.83565 -0.322709 9.73105 0.35613 9.44418 1.13463L8.43521 3.87279C8.41385 3.93078 8.44001 3.99551 8.49567 4.02236L11.2139 5.33377C11.7866 5.61011 11.8565 6.39799 11.3413 6.77082ZM5.81435 10.3262C5.43027 10.6042 4.91862 10.2163 5.08254 9.77141L6.09151 7.03325C6.17698 6.80131 6.07232 6.54239 5.84969 6.43497L3.13149 5.12356C2.8042 4.96566 2.76426 4.51544 3.05866 4.30239L8.37458 0.455341C8.75865 0.177393 9.27031 0.565303 9.10639 1.01016L8.09742 3.74832C8.01195 3.98026 8.11661 4.23919 8.33924 4.3466L11.0574 5.65801C11.3847 5.81592 11.4247 6.26614 11.1303 6.47918L5.81435 10.3262Z" fill="url(#paint0_linear_35581_37485)" fill-opacity="0.3" shape-rendering="crispEdges"/>
</g>
</g>
<defs>
<filter id="filter0_d_35581_37485" x="0.360107" y="0.361816" width="13.4689" height="15.058" filterUnits="userSpaceOnUse" color-interpolation-filters="sRGB">
<feFlood flood-opacity="0" result="BackgroundImageFix"/>
<feColorMatrix in="SourceAlpha" type="matrix" values="0 0 0 0 0 0 0 0 0 0 0 0 0 0 0 0 0 0 127 0" result="hardAlpha"/>
<feOffset dy="2.5"/>
<feGaussianBlur stdDeviation="1.25"/>
<feComposite in2="hardAlpha" operator="out"/>
<feColorMatrix type="matrix" values="0 0 0 0 0 0 0 0 0 0 0 0 0 0 0 0 0 0 0.25 0"/>
<feBlend mode="normal" in2="BackgroundImageFix" result="effect1_dropShadow_35581_37485"/>
<feBlend mode="normal" in="SourceGraphic" in2="effect1_dropShadow_35581_37485" result="shape"/>
</filter>
<filter id="filter1_d_35581_37485" x="4.69735e-09" y="0" width="14.1889" height="15.7816" filterUnits="userSpaceOnUse" color-interpolation-filters="sRGB">
<feFlood flood-opacity="0" result="BackgroundImageFix"/>
<feColorMatrix in="SourceAlpha" type="matrix" values="0 0 0 0 0 0 0 0 0 0 0 0 0 0 0 0 0 0 127 0" result="hardAlpha"/>
<feOffset dy="2.5"/>
<feGaussianBlur stdDeviation="1.25"/>
<feComposite in2="hardAlpha" operator="out"/>
<feColorMatrix type="matrix" values="0 0 0 0 0 0 0 0 0 0 0 0 0 0 0 0 0 0 0.25 0"/>
<feBlend mode="normal" in2="BackgroundImageFix" result="effect1_dropShadow_35581_37485"/>
<feBlend mode="normal" in="SourceGraphic" in2="effect1_dropShadow_35581_37485" result="shape"/>
</filter>
<linearGradient id="paint0_linear_35581_37485" x1="7.96741" y1="0.354657" x2="4.85945" y2="9.98162" gradientUnits="userSpaceOnUse">
<stop stop-color="white"/>
<stop offset="1" stop-color="white" stop-opacity="0.3"/>
</linearGradient>
</defs>
</svg>
