<svg preserveAspectRatio="none" width="100%" height="100%" overflow="visible" style="display: block;" viewBox="0 0 20 12" fill="none" xmlns="http://www.w3.org/2000/svg">
<path id="WalletConnect" d="M4.09442 2.34459C7.35599 -0.78153 12.644 -0.78153 15.9056 2.34459L16.2981 2.72082C16.4612 2.87713 16.4612 3.13055 16.2981 3.28686L14.9554 4.57388C14.8738 4.65203 14.7416 4.65203 14.6601 4.57388L14.1199 4.05614C11.8445 1.87528 8.15547 1.87528 5.88012 4.05614L5.30164 4.6106C5.2201 4.68875 5.0879 4.68875 5.00636 4.6106L3.66357 3.32358C3.50049 3.16727 3.50049 2.91385 3.66357 2.75754L4.09442 2.34459ZM18.6826 5.00629L19.8777 6.15174C20.0408 6.30805 20.0408 6.56147 19.8777 6.71777L14.489 11.8828C14.3259 12.0391 14.0615 12.0391 13.8984 11.8828C13.8984 11.8828 13.8984 11.8828 13.8984 11.8828L10.0739 8.21702C10.0331 8.17795 9.96699 8.17795 9.92622 8.21702C9.92622 8.21702 9.92622 8.21702 9.92622 8.21702L6.10172 11.8828C5.93865 12.0391 5.67424 12.0391 5.51116 11.8828C5.51116 11.8828 5.51116 11.8828 5.51116 11.8828L0.122309 6.71771C-0.0407696 6.5614 -0.0407696 6.30798 0.122309 6.15167L1.31739 5.00622C1.48047 4.84991 1.74487 4.84991 1.90795 5.00622L5.73258 8.67202C5.77335 8.7111 5.83945 8.7111 5.88022 8.67202C5.88022 8.67202 5.88022 8.67202 5.88022 8.67202L9.70466 5.00622C9.86773 4.84991 10.1321 4.8499 10.2952 5.00621C10.2952 5.00621 10.2952 5.00621 10.2952 5.00621L14.1198 8.67202C14.1606 8.71109 14.2267 8.71109 14.2675 8.67202L18.0921 5.00629C18.2551 4.84998 18.5195 4.84998 18.6826 5.00629Z" fill="var(--fill-0, #3B99FC)"/>
</svg>
