<svg preserveAspectRatio="none" width="100%" height="100%" overflow="visible" style="display: block;" viewBox="0 0 31.2791 27.9719" fill="none" xmlns="http://www.w3.org/2000/svg">
<path id="Vector" d="M21.1965 1.09409C22.4712 1.08823 23.6525 1.76151 24.2961 2.86167C26.1037 5.95246 27.8886 9.00685 29.6965 12.098C30.3471 13.2105 30.3481 14.5869 29.6994 15.7005C27.8664 18.8474 26.0557 21.9572 24.2228 25.1039C23.5801 26.2074 22.3975 26.8841 21.1203 26.8783C17.4333 26.8612 13.7457 26.8436 10.0558 26.8265C8.78995 26.8206 7.6211 26.1461 6.98455 25.0521C5.18211 21.9544 3.37985 18.854 1.57732 15.7533C0.931291 14.6419 0.932704 13.2691 1.58025 12.1585C3.37512 9.08033 5.17005 6.00145 6.96502 2.92026C7.60223 1.82644 8.77065 1.15071 10.0363 1.14487C13.7565 1.12771 17.4763 1.11124 21.1965 1.09409Z" fill="var(--fill-0, #C29A75)" stroke="url(#paint0_linear_35581_35481)" stroke-width="2.18725"/>
<defs>
<linearGradient id="paint0_linear_35581_35481" x1="10.3144" y1="0.852625" x2="16.5819" y2="29.6953" gradientUnits="userSpaceOnUse">
<stop stop-color="#FFD9A8"/>
<stop offset="1" stop-color="#BD8E60"/>
</linearGradient>
</defs>
</svg>
