<svg preserveAspectRatio="none" width="100%" height="100%" overflow="visible" style="display: block;" viewBox="0 0 20 20" fill="none" xmlns="http://www.w3.org/2000/svg">
<g id="icon">
<path id="Subtract" d="M6.57221 4.5C7.27419 4.50005 7.95916 4.71713 8.53217 5.12207L8.93353 5.40625C9.24536 5.6266 9.61793 5.74511 9.99994 5.74512C10.3819 5.74512 10.7545 5.6266 11.0663 5.40625L11.4677 5.12207C12.0407 4.71712 12.7257 4.50005 13.4277 4.5H13.9179C14.2413 4.5 14.5682 4.52 14.873 4.62793C16.779 5.30312 18.0898 7.77148 17.9951 13.3691C17.9759 14.4971 17.7115 15.7438 16.6923 16.2305C16.3749 16.382 16.0028 16.4833 15.579 16.4834C15.0702 16.4834 14.6653 16.3379 14.3535 16.1338C14.0266 15.9198 13.7388 15.6412 13.4511 15.3633C13.0955 15.0197 12.7393 14.6762 12.3105 14.4541C11.8435 14.2124 11.3248 14.0859 10.7988 14.0859H9.20111C8.67508 14.0859 8.15641 14.2124 7.68939 14.4541C7.26056 14.6762 6.90437 15.0197 6.54877 15.3633C6.26104 15.6412 5.9733 15.9198 5.64643 16.1338C5.33456 16.3379 4.92965 16.4834 4.42084 16.4834C3.99704 16.4833 3.62501 16.382 3.30756 16.2305C2.28841 15.7438 2.02393 14.4971 2.00482 13.3691C1.91005 7.77148 3.22089 5.30312 5.12689 4.62793C5.43164 4.52 5.75863 4.5 6.08197 4.5H6.57221ZM6.40912 7.89844C6.07784 7.89854 5.80951 8.16721 5.80951 8.49805V9.09668H5.20893C4.87773 9.09689 4.60932 9.36552 4.60932 9.69629C4.60954 10.0269 4.87787 10.2947 5.20893 10.2949H5.80951V10.8945C5.8097 11.2252 6.07796 11.4931 6.40912 11.4932C6.74038 11.4932 7.00952 11.2253 7.00971 10.8945V10.2949H7.60932C7.94055 10.2949 8.20871 10.027 8.20893 9.69629C8.20893 9.36539 7.94069 9.09668 7.60932 9.09668H7.00971V8.49805C7.00971 8.16715 6.74049 7.89844 6.40912 7.89844ZM13.8369 8.17969C12.9908 8.17969 12.3046 8.86586 12.3046 9.71191C12.3048 10.5578 12.9909 11.2432 13.8369 11.2432C14.6827 11.243 15.3679 10.5577 15.3681 9.71191C15.3681 8.86596 14.6828 8.17986 13.8369 8.17969Z" fill="var(--fill-0, white)"/>
</g>
</svg>
