<svg preserveAspectRatio="none" width="100%" height="100%" overflow="visible" style="display: block;" viewBox="0 0 15.9981 15.998" fill="none" xmlns="http://www.w3.org/2000/svg">
<g id="Vector">
<path d="M15.9883 7.44958H14.9777C12.0529 7.37567 10.1221 9.07551 9.60449 9.59285C7.54228 11.654 7.44369 14.2161 7.46012 14.9469V15.9734C7.64087 15.9898 7.82162 15.998 8.00237 15.998C10.0564 15.998 12.1022 15.2179 13.6632 13.6577C15.3639 11.9578 16.128 9.67497 15.9801 7.44958H15.9883Z" fill="var(--fill-0, white)" fill-opacity="0.5"/>
<path d="M6.41669 6.39851C6.93429 5.88117 8.635 3.9514 8.56106 1.04444V0.017964C6.33453 -0.129848 4.05048 0.633847 2.34977 2.33368C0.838031 3.84465 0 5.85653 0 7.99159C0 8.17225 0.016432 8.35291 0.024648 8.53357H1.03521C1.78287 8.54999 4.34626 8.45145 6.40847 6.3903H6.41669V6.39851Z" fill="var(--fill-0, white)" fill-opacity="0.5"/>
<path d="M8.73349 8.71419C9.34148 8.10652 11.5598 6.13569 14.9941 6.2096H15.8075C15.487 4.78896 14.7805 3.43402 13.6713 2.32543C12.5621 1.21684 11.2065 0.51063 9.78514 0.190371V1.01976C9.8673 4.40301 7.88725 6.65304 7.27926 7.26071C4.87198 9.66676 1.88136 9.77351 1.01868 9.7653H0.197082C0.525722 11.227 1.25694 12.5655 2.34146 13.6495C3.45061 14.7581 4.80625 15.4643 6.22762 15.7845V14.9551C6.20297 14.1093 6.32621 11.1202 8.73349 8.71419Z" fill="var(--fill-0, white)" fill-opacity="0.5"/>
</g>
</svg>
