<svg preserveAspectRatio="none" width="100%" height="100%" overflow="visible" style="display: block;" viewBox="0 0 14.0308 14" fill="none" xmlns="http://www.w3.org/2000/svg">
<g id="Vector">
<path d="M3.26601 4.49841H0.449301C0.324291 4.49841 0.222997 4.59975 0.222997 4.72471V13.7736C0.222997 13.8986 0.324291 13.9999 0.449301 13.9999H3.26601C3.39102 13.9999 3.49232 13.8986 3.49232 13.7736V4.72471C3.49232 4.59975 3.39102 4.49841 3.26601 4.49841Z" fill="white"/>
<path d="M1.85868 0C0.833793 0 0 0.832888 0 1.85664C0 2.88085 0.833793 3.71405 1.85868 3.71405C2.88275 3.71405 3.71586 2.8808 3.71586 1.85664C3.71591 0.832888 2.88275 0 1.85868 0Z" fill="white"/>
<path d="M10.4305 4.27354C9.29923 4.27354 8.46295 4.75987 7.95572 5.31246V4.72474C7.95572 4.59978 7.85442 4.49844 7.72941 4.49844H5.03192C4.90691 4.49844 4.80561 4.59978 4.80561 4.72474V13.7736C4.80561 13.8987 4.90691 14 5.03192 14H7.84247C7.96748 14 8.06878 13.8987 8.06878 13.7736V9.29654C8.06878 7.78786 8.47857 7.2001 9.53025 7.2001C10.6756 7.2001 10.7666 8.14234 10.7666 9.37416V13.7737C10.7666 13.8987 10.8679 14 10.9929 14H13.8045C13.9295 14 14.0308 13.8987 14.0308 13.7737V8.81021C14.0308 6.56686 13.6031 4.27354 10.4305 4.27354Z" fill="white"/>
</g>
</svg>
