<svg preserveAspectRatio="none" width="100%" height="100%" overflow="visible" style="display: block;" viewBox="0 0 11.2 11.658" fill="none" xmlns="http://www.w3.org/2000/svg">
<g id="Vector">
<path d="M10.0386 6.47332C10.0386 6.47332 7.20196 6.47332 6.25646 6.47332C6.0261 6.47332 6.06059 6.71322 6.06059 6.71322V11.5246C6.06059 11.5246 6.05872 11.6579 6.19729 11.6579C7.15761 11.6579 10.0386 11.6579 10.0386 11.6579C10.3386 11.6579 10.584 11.4125 10.584 11.1125V7.01873C10.5841 6.71875 10.3386 6.47332 10.0386 6.47332Z" fill="var(--fill-0, white)"/>
<path d="M5.13937 3.25267C5.13937 3.25267 5.13937 3.06785 4.95673 3.06785C3.86309 3.06785 0.54545 3.06785 0.54545 3.06785C0.245464 3.06785 0 3.31331 0 3.61326V5.31585C0 5.61584 0.245464 5.86126 0.54545 5.86126C0.54545 5.86126 3.87795 5.86126 4.97168 5.86126C5.13937 5.86126 5.13937 5.71582 5.13937 5.71582V3.25267Z" fill="var(--fill-0, white)"/>
<path d="M10.6546 3.06785C10.6546 3.06785 7.33556 3.06785 6.2292 3.06785C6.06067 3.06785 6.06067 3.22843 6.06067 3.22843V5.71919C6.06067 5.71919 6.06067 5.86126 6.26556 5.86126C7.36278 5.86126 10.6546 5.86126 10.6546 5.86126C10.9545 5.86126 11.2 5.61584 11.2 5.31585V3.61326C11.2 3.31331 10.9545 3.06785 10.6546 3.06785Z" fill="var(--fill-0, white)"/>
<path d="M3.28418 2.66406C3.03462 2.66406 2.80668 2.64427 2.6068 2.60521C2.0991 2.50602 1.75016 2.31298 1.54002 2.0151C1.35174 1.74813 1.29412 1.41902 1.36871 1.03686C1.49937 0.368216 1.94841 0 2.63303 0C2.77791 0 2.93703 0.0167299 3.10599 0.0497525C3.53581 0.13372 4.08555 0.380178 4.57659 0.709013C5.40971 1.26698 5.45092 1.61386 5.40943 1.82626C5.34843 2.13836 5.05671 2.36138 4.51758 2.50809C4.15334 2.6072 3.70378 2.66406 3.28418 2.66406ZM2.63307 0.874206C2.36793 0.874206 2.27681 0.948278 2.22678 1.20447C2.18585 1.41393 2.23747 1.48709 2.2544 1.51113C2.32529 1.61167 2.50996 1.69552 2.77442 1.74714C2.91712 1.77504 3.09344 1.78978 3.28414 1.78978C3.7035 1.78978 4.07295 1.72624 4.3181 1.65673C4.33594 1.65169 4.36364 1.63059 4.33395 1.6129C4.01346 1.35182 3.42712 1.0032 2.93838 0.907705C2.82453 0.885531 2.72176 0.874206 2.63307 0.874206Z" fill="var(--fill-0, white)"/>
<path d="M7.92846 2.66402C7.50886 2.66402 7.05926 2.60716 6.69502 2.50805C6.15585 2.36138 5.86417 2.13832 5.80317 1.82626C5.76172 1.61386 5.80285 1.26698 6.63604 0.709013C7.12701 0.380178 7.67676 0.13372 8.10665 0.0497525C8.27561 0.0167299 8.43473 0 8.57949 0C9.26427 0 9.71327 0.368256 9.84381 1.03689C9.91848 1.41902 9.8609 1.74813 9.67258 2.0151C9.46244 2.31302 9.11354 2.50602 8.60572 2.60521C8.40592 2.6442 8.17798 2.66402 7.92846 2.66402ZM6.88564 1.60746C6.85723 1.62395 6.87098 1.64998 6.88572 1.65423C7.13075 1.72469 7.50409 1.78978 7.92838 1.78978C8.11916 1.78978 8.2954 1.77504 8.43814 1.74714C8.70256 1.69548 8.88731 1.61167 8.95816 1.51113C8.97517 1.48709 9.02683 1.41393 8.98578 1.20447C8.93579 0.948278 8.84463 0.874206 8.57945 0.874206C8.4908 0.874206 8.38811 0.885491 8.27418 0.907745C7.7854 1.0032 7.20613 1.34634 6.88564 1.60746Z" fill="var(--fill-0, white)"/>
<path d="M4.94742 6.47332C3.98726 6.47332 1.16139 6.47332 1.16139 6.47332C0.8614 6.47332 0.615935 6.71875 0.615935 7.01873V11.1126C0.615935 11.4126 0.8614 11.658 1.16139 11.658C1.16139 11.658 4.0464 11.658 5.01109 11.658C5.1394 11.658 5.1394 11.5201 5.1394 11.5201V6.65866C5.1394 6.65866 5.13936 6.47332 4.94742 6.47332Z" fill="var(--fill-0, white)"/>
</g>
</svg>
