<svg preserveAspectRatio="none" width="100%" height="100%" overflow="visible" style="display: block;" viewBox="0 0 22.9648 18.7998" fill="none" xmlns="http://www.w3.org/2000/svg">
<g id="number">
<path id="4" d="M14.2175 17.8L14.7215 14.992H1.18555L1.64155 12.328L14.9615 1H21.3215L19.4735 11.512H21.7775L21.1775 14.992H18.8495L18.3455 17.8H14.2175ZM7.28155 11.512H15.3455L16.7855 3.4L7.28155 11.512Z" fill="url(#paint0_linear_35581_36014)"/>
<path id="4 (Stroke)" d="M22.5127 0L20.6641 10.5117H22.9648L22.0195 15.9922H19.6865L19.1816 18.7998H13.0215L13.5264 15.9922H0L0.716797 11.8008L0.993164 11.5664L14.5938 0H22.5127ZM14.9609 1L1.6416 12.3281L1.18555 14.9922H14.7217L14.2178 17.7998H18.3457L18.8496 14.9922H21.1777L21.7773 11.5117H19.4736L21.3213 1H14.9609ZM15.3457 11.5117H7.28125L16.7852 3.39941L15.3457 11.5117ZM9.99316 10.5117H14.5068L15.3125 5.9707L9.99316 10.5117Z" fill="url(#paint1_linear_35581_36014)" fill-opacity="0.1"/>
</g>
<defs>
<linearGradient id="paint0_linear_35581_36014" x1="11.9015" y1="2.925" x2="11.9015" y2="14.4" gradientUnits="userSpaceOnUse">
<stop stop-color="white"/>
<stop offset="0.395833" stop-color="white"/>
<stop offset="0.46875" stop-color="#9DEDFF"/>
<stop offset="0.723958" stop-color="#C3F4FF"/>
<stop offset="1" stop-color="white"/>
</linearGradient>
<linearGradient id="paint1_linear_35581_36014" x1="13.6641" y1="0.618415" x2="9.69048" y2="18.2595" gradientUnits="userSpaceOnUse">
<stop stop-color="white"/>
<stop offset="1" stop-color="white" stop-opacity="0.3"/>
</linearGradient>
</defs>
</svg>
