<svg preserveAspectRatio="none" width="100%" height="100%" overflow="visible" style="display: block;" viewBox="0 0 8.00016 6.57321" fill="none" xmlns="http://www.w3.org/2000/svg">
<g id="Oval 43" filter="url(#filter0_d_35581_42851)">
<path d="M3.42878 0.571429C3.42878 0.88702 3.17294 1.14286 2.85735 1.14286C2.54176 1.14286 2.28592 0.88702 2.28592 0.571429C2.28592 0.255837 2.54176 0 2.85735 0C3.17294 0 3.42878 0.255837 3.42878 0.571429Z" fill="url(#paint0_linear_35581_42851)"/>
<path d="M1.14288 0.571567C1.14288 0.887159 0.887041 1.143 0.57145 1.143C0.255858 1.143 2.09328e-05 0.887159 2.09328e-05 0.571567C2.09328e-05 0.255976 0.255858 0.000138863 0.57145 0.000138863C0.887041 0.000138863 1.14288 0.255976 1.14288 0.571567Z" fill="url(#paint1_linear_35581_42851)"/>
<path d="M5.14281 1.14286C5.4584 1.14286 5.71423 0.88702 5.71423 0.571429C5.71423 0.255837 5.4584 0 5.14281 0C4.82721 0 4.57138 0.255837 4.57138 0.571429C4.57138 0.88702 4.82721 1.14286 5.14281 1.14286Z" fill="url(#paint2_linear_35581_42851)"/>
<path d="M8.00016 0.571429C8.00016 0.88702 7.74432 1.14286 7.42873 1.14286C7.11314 1.14286 6.8573 0.88702 6.8573 0.571429C6.8573 0.255837 7.11314 0 7.42873 0C7.74432 0 8.00016 0.255837 8.00016 0.571429Z" fill="url(#paint3_linear_35581_42851)"/>
<path d="M1.71439 2.28558C2.02998 2.28558 2.28582 2.02975 2.28582 1.71416C2.28582 1.39856 2.02998 1.14273 1.71439 1.14273C1.3988 1.14273 1.14296 1.39856 1.14296 1.71416C1.14296 2.02975 1.3988 2.28558 1.71439 2.28558Z" fill="url(#paint4_linear_35581_42851)"/>
<path d="M4.57127 1.71416C4.57127 2.02975 4.31544 2.28558 3.99984 2.28558C3.68425 2.28558 3.42842 2.02975 3.42842 1.71416C3.42842 1.39856 3.68425 1.14273 3.99984 1.14273C4.31544 1.14273 4.57127 1.39856 4.57127 1.71416Z" fill="url(#paint5_linear_35581_42851)"/>
<path d="M6.286 2.28558C6.60159 2.28558 6.85743 2.02975 6.85743 1.71416C6.85743 1.39856 6.60159 1.14273 6.286 1.14273C5.97041 1.14273 5.71458 1.39856 5.71458 1.71416C5.71458 2.02975 5.97041 2.28558 6.286 2.28558Z" fill="url(#paint6_linear_35581_42851)"/>
<path d="M8.00016 2.85712C8.00016 3.17271 7.74432 3.42855 7.42873 3.42855C7.11314 3.42855 6.8573 3.17271 6.8573 2.85712C6.8573 2.54153 7.11314 2.28569 7.42873 2.28569C7.74432 2.28569 8.00016 2.54153 8.00016 2.85712Z" fill="url(#paint7_linear_35581_42851)"/>
<path d="M5.14281 3.42855C5.4584 3.42855 5.71423 3.17271 5.71423 2.85712C5.71423 2.54153 5.4584 2.28569 5.14281 2.28569C4.82721 2.28569 4.57138 2.54153 4.57138 2.85712C4.57138 3.17271 4.82721 3.42855 5.14281 3.42855Z" fill="url(#paint8_linear_35581_42851)"/>
<path d="M3.42878 2.85712C3.42878 3.17271 3.17294 3.42855 2.85735 3.42855C2.54176 3.42855 2.28592 3.17271 2.28592 2.85712C2.28592 2.54153 2.54176 2.28569 2.85735 2.28569C3.17294 2.28569 3.42878 2.54153 3.42878 2.85712Z" fill="url(#paint9_linear_35581_42851)"/>
<path d="M0.571429 3.42855C0.88702 3.42855 1.14286 3.17271 1.14286 2.85712C1.14286 2.54153 0.88702 2.28569 0.571429 2.28569C0.255837 2.28569 0 2.54153 0 2.85712C0 3.17271 0.255837 3.42855 0.571429 3.42855Z" fill="url(#paint10_linear_35581_42851)"/>
<path d="M2.28582 3.99984C2.28582 4.31544 2.02998 4.57127 1.71439 4.57127C1.3988 4.57127 1.14296 4.31544 1.14296 3.99984C1.14296 3.68425 1.3988 3.42842 1.71439 3.42842C2.02998 3.42842 2.28582 3.68425 2.28582 3.99984Z" fill="url(#paint11_linear_35581_42851)"/>
<path d="M3.99984 4.57127C4.31544 4.57127 4.57127 4.31544 4.57127 3.99984C4.57127 3.68425 4.31544 3.42842 3.99984 3.42842C3.68425 3.42842 3.42842 3.68425 3.42842 3.99984C3.42842 4.31544 3.68425 4.57127 3.99984 4.57127Z" fill="url(#paint12_linear_35581_42851)"/>
<path d="M6.85743 3.99984C6.85743 4.31544 6.60159 4.57127 6.286 4.57127C5.97041 4.57127 5.71458 4.31544 5.71458 3.99984C5.71458 3.68425 5.97041 3.42842 6.286 3.42842C6.60159 3.42842 6.85743 3.68425 6.85743 3.99984Z" fill="url(#paint13_linear_35581_42851)"/>
<path d="M7.42873 5.714C7.74432 5.714 8.00016 5.45816 8.00016 5.14257C8.00016 4.82698 7.74432 4.57114 7.42873 4.57114C7.11314 4.57114 6.8573 4.82698 6.8573 5.14257C6.8573 5.45816 7.11314 5.714 7.42873 5.714Z" fill="url(#paint14_linear_35581_42851)"/>
<path d="M5.71423 5.14257C5.71423 5.45816 5.4584 5.714 5.14281 5.714C4.82721 5.714 4.57138 5.45816 4.57138 5.14257C4.57138 4.82698 4.82721 4.57114 5.14281 4.57114C5.4584 4.57114 5.71423 4.82698 5.71423 5.14257Z" fill="url(#paint15_linear_35581_42851)"/>
<path d="M2.85735 5.714C3.17294 5.714 3.42878 5.45816 3.42878 5.14257C3.42878 4.82698 3.17294 4.57114 2.85735 4.57114C2.54176 4.57114 2.28592 4.82698 2.28592 5.14257C2.28592 5.45816 2.54176 5.714 2.85735 5.714Z" fill="url(#paint16_linear_35581_42851)"/>
<path d="M1.14286 5.14257C1.14286 5.45816 0.88702 5.714 0.571429 5.714C0.255837 5.714 0 5.45816 0 5.14257C0 4.82698 0.255837 4.57114 0.571429 4.57114C0.88702 4.57114 1.14286 4.82698 1.14286 5.14257Z" fill="url(#paint17_linear_35581_42851)"/>
</g>
<defs>
<filter id="filter0_d_35581_42851" x="0" y="0" width="8.00016" height="6.57321" filterUnits="userSpaceOnUse" color-interpolation-filters="sRGB">
<feFlood flood-opacity="0" result="BackgroundImageFix"/>
<feColorMatrix in="SourceAlpha" type="matrix" values="0 0 0 0 0 0 0 0 0 0 0 0 0 0 0 0 0 0 127 0" result="hardAlpha"/>
<feOffset dy="0.859215"/>
<feColorMatrix type="matrix" values="0 0 0 0 0 0 0 0 0 0 0 0 0 0 0 0 0 0 0.06 0"/>
<feBlend mode="normal" in2="BackgroundImageFix" result="effect1_dropShadow_35581_42851"/>
<feBlend mode="normal" in="SourceGraphic" in2="effect1_dropShadow_35581_42851" result="shape"/>
</filter>
<linearGradient id="paint0_linear_35581_42851" x1="0" y1="0" x2="0" y2="5.714" gradientUnits="userSpaceOnUse">
<stop stop-color="white"/>
<stop offset="1" stop-color="#F0F0F0"/>
</linearGradient>
<linearGradient id="paint1_linear_35581_42851" x1="0" y1="0" x2="0" y2="5.714" gradientUnits="userSpaceOnUse">
<stop stop-color="white"/>
<stop offset="1" stop-color="#F0F0F0"/>
</linearGradient>
<linearGradient id="paint2_linear_35581_42851" x1="0" y1="0" x2="0" y2="5.714" gradientUnits="userSpaceOnUse">
<stop stop-color="white"/>
<stop offset="1" stop-color="#F0F0F0"/>
</linearGradient>
<linearGradient id="paint3_linear_35581_42851" x1="0" y1="0" x2="0" y2="5.714" gradientUnits="userSpaceOnUse">
<stop stop-color="white"/>
<stop offset="1" stop-color="#F0F0F0"/>
</linearGradient>
<linearGradient id="paint4_linear_35581_42851" x1="0" y1="0" x2="0" y2="5.714" gradientUnits="userSpaceOnUse">
<stop stop-color="white"/>
<stop offset="1" stop-color="#F0F0F0"/>
</linearGradient>
<linearGradient id="paint5_linear_35581_42851" x1="0" y1="0" x2="0" y2="5.714" gradientUnits="userSpaceOnUse">
<stop stop-color="white"/>
<stop offset="1" stop-color="#F0F0F0"/>
</linearGradient>
<linearGradient id="paint6_linear_35581_42851" x1="0" y1="0" x2="0" y2="5.714" gradientUnits="userSpaceOnUse">
<stop stop-color="white"/>
<stop offset="1" stop-color="#F0F0F0"/>
</linearGradient>
<linearGradient id="paint7_linear_35581_42851" x1="0" y1="0" x2="0" y2="5.714" gradientUnits="userSpaceOnUse">
<stop stop-color="white"/>
<stop offset="1" stop-color="#F0F0F0"/>
</linearGradient>
<linearGradient id="paint8_linear_35581_42851" x1="0" y1="0" x2="0" y2="5.714" gradientUnits="userSpaceOnUse">
<stop stop-color="white"/>
<stop offset="1" stop-color="#F0F0F0"/>
</linearGradient>
<linearGradient id="paint9_linear_35581_42851" x1="0" y1="0" x2="0" y2="5.714" gradientUnits="userSpaceOnUse">
<stop stop-color="white"/>
<stop offset="1" stop-color="#F0F0F0"/>
</linearGradient>
<linearGradient id="paint10_linear_35581_42851" x1="0" y1="0" x2="0" y2="5.714" gradientUnits="userSpaceOnUse">
<stop stop-color="white"/>
<stop offset="1" stop-color="#F0F0F0"/>
</linearGradient>
<linearGradient id="paint11_linear_35581_42851" x1="0" y1="0" x2="0" y2="5.714" gradientUnits="userSpaceOnUse">
<stop stop-color="white"/>
<stop offset="1" stop-color="#F0F0F0"/>
</linearGradient>
<linearGradient id="paint12_linear_35581_42851" x1="0" y1="0" x2="0" y2="5.714" gradientUnits="userSpaceOnUse">
<stop stop-color="white"/>
<stop offset="1" stop-color="#F0F0F0"/>
</linearGradient>
<linearGradient id="paint13_linear_35581_42851" x1="0" y1="0" x2="0" y2="5.714" gradientUnits="userSpaceOnUse">
<stop stop-color="white"/>
<stop offset="1" stop-color="#F0F0F0"/>
</linearGradient>
<linearGradient id="paint14_linear_35581_42851" x1="0" y1="0" x2="0" y2="5.714" gradientUnits="userSpaceOnUse">
<stop stop-color="white"/>
<stop offset="1" stop-color="#F0F0F0"/>
</linearGradient>
<linearGradient id="paint15_linear_35581_42851" x1="0" y1="0" x2="0" y2="5.714" gradientUnits="userSpaceOnUse">
<stop stop-color="white"/>
<stop offset="1" stop-color="#F0F0F0"/>
</linearGradient>
<linearGradient id="paint16_linear_35581_42851" x1="0" y1="0" x2="0" y2="5.714" gradientUnits="userSpaceOnUse">
<stop stop-color="white"/>
<stop offset="1" stop-color="#F0F0F0"/>
</linearGradient>
<linearGradient id="paint17_linear_35581_42851" x1="0" y1="0" x2="0" y2="5.714" gradientUnits="userSpaceOnUse">
<stop stop-color="white"/>
<stop offset="1" stop-color="#F0F0F0"/>
</linearGradient>
</defs>
</svg>
