<svg preserveAspectRatio="none" width="100%" height="100%" overflow="visible" style="display: block;" viewBox="0 0 18 13.7567" fill="none" xmlns="http://www.w3.org/2000/svg">
<path id="Union" d="M7.47168 7.51941C7.8608 7.51941 8.1012 7.94403 7.90039 8.27722L4.73828 13.5155C4.53239 13.8561 4.02966 13.8309 3.8584 13.4716L3.30664 12.3124C3.21982 12.1302 3.03163 12.0182 2.83008 12.0282L1.55273 12.0917C1.1539 12.1116 0.893957 11.6787 1.09863 11.3358L2.05273 9.73816C2.10749 9.64658 2.18968 9.57435 2.28809 9.53308L7.00195 7.5575C7.06311 7.53189 7.129 7.51941 7.19531 7.51941H7.47168ZM10.7842 7.51941C10.8509 7.51941 10.917 7.53256 10.9785 7.55847L15.6221 9.5155C15.7202 9.55688 15.8028 9.62912 15.8574 9.72058L16.8223 11.3358C17.0269 11.6787 16.766 12.1116 16.3672 12.0917L15.0908 12.0282C14.8893 12.0181 14.7011 12.1302 14.6143 12.3124L14.0645 13.4647C13.8925 13.8255 13.3879 13.8491 13.1836 13.5057L10.0732 8.27429C9.8755 7.94106 10.1163 7.51941 10.5039 7.51941H10.7842ZM0 1.67273C0 0.51823 1.14609 -0.289781 2.2334 0.0985115C4.64951 1.19838 5.65196 1.65488 6.06445 1.84265C6.24278 1.92383 6.34766 2.09691 6.34766 2.29285V3.31238C6.34749 3.58833 6.12362 3.81229 5.84766 3.81238H4.72852C4.45246 3.81248 4.22852 4.0363 4.22852 4.31238V4.37097C4.22852 4.64705 4.45246 4.87087 4.72852 4.87097H5.84766C6.12358 4.87106 6.34742 5.09508 6.34766 5.37097V6.36609C6.34766 6.5652 6.22949 6.74573 6.04688 6.82507L2.2334 8.48035C1.14595 8.86878 0.000255005 8.06099 0 6.90711V1.67273ZM15.7666 0.0985115C16.8539 -0.289784 18 0.518244 18 1.67273V6.90711C17.9998 7.82213 17.2589 8.57787 16.3281 8.578C15.7058 8.578 15.7435 8.42112 11.9521 6.82019C11.7667 6.74187 11.6436 6.55962 11.6436 6.35828V5.37097C11.6438 5.09516 11.8677 4.87115 12.1436 4.87097H13.2627C13.5388 4.87088 13.7627 4.64706 13.7627 4.37097V4.31238C13.7627 4.03629 13.5388 3.81247 13.2627 3.81238H12.1436C11.8677 3.8122 11.6437 3.58829 11.6436 3.31238V2.30261C11.6436 2.10687 11.7585 1.92886 11.9365 1.84753L15.7666 0.0985115ZM10.0859 2.22351C10.3619 2.22369 10.585 2.4465 10.585 2.72253V5.96082C10.585 6.23696 10.3611 6.46082 10.085 6.46082H7.91699C7.64071 6.46057 7.41653 6.23612 7.41699 5.95984L7.42578 2.72253C7.4265 2.44691 7.65015 2.22351 7.92578 2.22351H10.0859Z" fill="var(--fill-0, white)" fill-opacity="0.5"/>
</svg>
