<svg preserveAspectRatio="none" width="100%" height="100%" overflow="visible" style="display: block;" viewBox="0 0 14 14" fill="none" xmlns="http://www.w3.org/2000/svg">
<path id="Vector" fill-rule="evenodd" clip-rule="evenodd" d="M11.9497 2.05026C10.6831 0.783692 8.93294 0 6.99995 0C5.06696 0 3.31692 0.783593 2.05026 2.05036C0.783493 3.31703 0 5.06706 0 7.00005C0 8.93284 0.783592 10.6832 2.05026 11.9497C3.31692 13.2164 5.06716 14 6.99995 14C8.93294 14 10.683 13.2164 11.9496 11.9497C13.0163 10.8832 13.7337 9.47177 13.9359 7.89913L14 7.83097C13.9854 7.81718 13.9682 7.8013 13.953 7.78702C13.9819 7.52837 14 7.26644 14 7.00005C14 5.06706 13.2163 3.31683 11.9497 2.05026V2.05026ZM1.49119 8.75356C2.56369 9.13236 3.73244 9.07869 4.91269 8.79354C6.29375 8.45999 7.67887 7.82134 8.92976 7.23112C10.0627 6.69646 11.0179 6.78654 11.7795 7.09579C12.1419 7.24293 12.463 7.44125 12.743 7.64683C12.689 8.13059 12.5718 8.59422 12.406 9.03444C11.955 8.80862 11.4231 8.622 10.8516 8.54085C10.0419 8.42596 9.1525 8.51793 8.30591 8.99584C7.2847 9.57238 5.84758 10.1676 4.40044 10.2991C3.60038 10.3717 2.79823 10.2994 2.06574 10.0015C1.82852 9.61236 1.63187 9.19596 1.49119 8.75356V8.75356ZM12.0335 6.46876C11.1208 6.098 9.98134 5.98757 8.64135 6.61986C7.41923 7.1966 6.06754 7.82006 4.75384 8.13744C3.5343 8.43201 2.34046 8.45889 1.30189 7.9405C1.25159 7.63373 1.21865 7.32101 1.21865 7.00005C1.21865 6.82682 1.22966 6.65627 1.24464 6.48692C4.51315 7.57043 6.16417 6.69328 7.64325 5.89947C9.00775 5.16707 10.2186 4.52515 12.6818 5.95294C12.7354 6.24543 12.766 6.54555 12.7738 6.85163C12.5477 6.71064 12.3026 6.57799 12.0335 6.46876V6.46876ZM12.4383 5.05387C10.038 3.85437 8.75574 4.53527 7.32319 5.30418C5.94937 6.04154 4.41473 6.85807 1.34276 5.80898C1.44694 5.31182 1.61888 4.84046 1.84181 4.39925C4.79542 4.72517 6.1979 4.30371 7.41526 3.93632C8.59799 3.57935 9.59797 3.27823 11.8589 3.87431C12.0952 4.24111 12.2889 4.63657 12.4383 5.05387V5.05387ZM11.1918 3.02623C9.32156 2.65666 8.34758 2.94854 7.22219 3.28815C6.10683 3.62479 4.82557 4.00795 2.21317 3.75803C2.41933 3.45424 2.65318 3.17068 2.91193 2.91203C3.11314 2.71073 3.3333 2.52946 3.56238 2.35951C6.6536 3.10629 8.32516 2.30464 9.43477 1.76184C10.0518 2.04917 10.6126 2.4366 11.0881 2.91193C11.1245 2.94835 11.1564 2.98882 11.1918 3.02623V3.02623ZM8.54333 1.43345C7.63363 1.82693 6.36062 2.18598 4.39915 1.84181C5.18165 1.44644 6.06337 1.21875 6.99995 1.21875C7.53531 1.21865 8.05132 1.29722 8.54333 1.43345V1.43345ZM5.1505 12.4737C7.07605 11.5881 8.45413 11.784 9.70919 12.1059C8.90079 12.5357 7.97939 12.7813 6.99995 12.7813C6.35238 12.7813 5.7319 12.6701 5.1505 12.4737V12.4737ZM11.088 11.0881C10.8978 11.2783 10.6902 11.4501 10.4751 11.6125C10.4646 11.6095 10.4542 11.6069 10.4437 11.604C8.799 11.1508 7.05472 10.671 4.33228 12.1259C3.80695 11.8519 3.32705 11.5031 2.91193 11.0881C2.85211 11.0282 2.79843 10.9627 2.74128 10.9003C3.30432 11.0072 3.88443 11.0234 4.46136 10.971C6.01714 10.8297 7.55069 10.1962 8.63659 9.58309C9.33575 9.18852 10.0787 9.11361 10.759 9.21024C11.2692 9.28267 11.7397 9.45094 12.1336 9.65184C11.8585 10.1833 11.5071 10.6689 11.088 11.0881V11.0881Z" fill="var(--fill-0, #FF5B04)"/>
</svg>
