<svg preserveAspectRatio="none" width="100%" height="100%" overflow="visible" style="display: block;" viewBox="0 0 16 16" fill="none" xmlns="http://www.w3.org/2000/svg">
<g id="Vector">
<path d="M0 7.68614C0.0533178 7.28048 0.0984329 6.87073 0.159954 6.46508C0.188663 6.2684 0.23788 6.07582 0.295299 5.88733C0.311704 5.83407 0.373225 5.7808 0.426543 5.75212C1.09917 5.39154 1.82101 5.18666 2.56336 5.03096C3.31801 4.87525 4.07676 4.74004 4.82732 4.58023C5.86086 4.35897 6.78367 3.88776 7.64496 3.28542C7.72288 3.23216 7.79671 3.17479 7.88694 3.11333C8.21505 3.37967 8.53906 3.646 8.87127 3.92054C8.50625 4.19097 8.14943 4.44502 7.80081 4.70726C6.36123 5.80129 5.02418 7.00595 3.85119 8.37861C3.01041 9.35791 2.26806 10.4028 1.77179 11.6033C1.66926 11.8492 1.59543 12.1032 1.5052 12.3532C1.4847 12.4106 1.46829 12.4679 1.43958 12.5622C1.30834 12.3532 1.1935 12.1811 1.08686 11.9967C0.590598 11.1485 0.270691 10.2348 0.110737 9.26777C0.0697233 9.02192 0.0574192 8.77197 0.0287096 8.52203C0.0205069 8.45237 0.0123041 8.37861 0.00410137 8.30896C0 8.10408 0 7.89511 0 7.68614Z" fill="var(--fill-0, white)" fill-opacity="0.5"/>
<path d="M7.75576 15.9959C8.61705 13.9349 9.03539 11.7509 9.57267 9.59975C9.74903 8.90727 9.95 8.21889 10.1797 7.53871C10.3273 7.10027 10.5816 6.71921 10.9835 6.41599C11.0779 6.59628 11.1763 6.76428 11.2624 6.94047C11.8981 8.2107 12.3042 9.55468 12.5749 10.9437C12.7758 11.9599 12.8907 12.9884 12.9481 14.025C12.9604 14.2176 12.9071 14.3283 12.7471 14.4471C11.7177 15.1969 10.5775 15.6763 9.32659 15.8894C9.01488 15.9427 8.69908 15.9632 8.38327 16C8.1741 15.9959 7.96493 15.9959 7.75576 15.9959Z" fill="var(--fill-0, white)" fill-opacity="0.5"/>
<path d="M9.4987 4.47782C9.85552 4.89167 10.2082 5.30142 10.5774 5.72756C9.98267 6.1496 9.63405 6.71505 9.39617 7.34607C9.24852 7.73943 9.11728 8.14098 9.01474 8.55073C8.62921 10.0668 8.27239 11.5911 7.88276 13.1071C7.64899 14.0168 7.36599 14.9141 6.97636 15.7787C6.92304 15.8975 6.86152 15.9221 6.73848 15.9016C4.95028 15.5943 3.42867 14.7871 2.17776 13.4718C2.13674 13.4309 2.11623 13.3448 2.12444 13.2833C2.23928 12.3983 2.6002 11.6075 3.05135 10.8535C3.83471 9.53413 4.84775 8.40322 5.95102 7.35017C7.01327 6.33399 8.15756 5.41205 9.36746 4.57616C9.39617 4.54338 9.43308 4.51879 9.4987 4.47782Z" fill="var(--fill-0, white)" fill-opacity="0.5"/>
<path d="M11.7175 6.0718C12.5787 5.76858 13.3744 5.76039 14.1209 6.35043C14.7443 6.84622 15.2692 7.43626 15.786 8.0345C15.9501 8.22298 16.0198 8.40327 15.9952 8.66141C15.8188 10.5381 15.0888 12.1566 13.7927 13.5251C13.7804 13.5374 13.7599 13.5497 13.7312 13.5743C13.518 10.9437 13.0012 8.40737 11.7175 6.0718Z" fill="var(--fill-0, white)" fill-opacity="0.5"/>
<path d="M7.18961 2.61759C6.53339 3.08471 5.85666 3.47397 5.09381 3.67884C4.4622 3.84684 3.81418 3.96157 3.17026 4.08859C2.3664 4.2484 1.57073 4.41639 0.803773 4.70732C0.783266 4.71551 0.758658 4.71961 0.701238 4.69502C0.922712 4.31396 1.11958 3.9206 1.36566 3.55592C2.0752 2.49467 2.9898 1.65058 4.10538 1.02776C4.1587 0.99908 4.24893 0.98269 4.30224 1.00728C5.31118 1.43751 6.2627 1.98248 7.18961 2.61759Z" fill="var(--fill-0, white)" fill-opacity="0.5"/>
<path d="M15.9461 6.95685C15.577 6.60446 15.2325 6.24388 14.8551 5.92018C14.3794 5.50633 13.8503 5.17853 13.2064 5.08019C12.7306 5.00644 12.2713 5.10478 11.816 5.20722C11.6643 5.24 11.5166 5.30146 11.3649 5.33424C11.3197 5.34243 11.2418 5.32194 11.2131 5.28507C10.8727 4.87122 10.5364 4.45328 10.1919 4.02714C10.36 3.9247 10.5487 3.81407 10.7373 3.69524C11.693 3.097 12.7552 2.82247 13.8585 2.68316C13.9487 2.67086 13.9979 2.69955 14.0554 2.76511C14.9577 3.80997 15.5483 5.01053 15.8395 6.35861C15.8846 6.55529 15.9133 6.75607 15.9461 6.95685Z" fill="var(--fill-0, white)" fill-opacity="0.5"/>
<path d="M13.2271 1.96618C11.8655 2.13008 10.6925 2.73241 9.57279 3.46996C9.22417 3.17494 8.87966 2.88811 8.55975 2.61768C8.85505 2.2571 9.18726 1.9211 9.42924 1.52774C9.67942 1.12209 9.6015 0.630391 9.6015 0.159179C10.9714 0.446004 12.1731 1.03604 13.2271 1.96618Z" fill="var(--fill-0, white)" fill-opacity="0.5"/>
<path d="M5.23301 0.495069C6.36089 0.0812217 7.53798 -0.0785807 8.7766 0.0361493C8.793 0.421314 8.85042 0.806479 8.71507 1.17525C8.66586 1.30637 8.55512 1.41701 8.45259 1.51944C8.26392 1.72022 8.06296 1.90871 7.8948 2.0767C6.9925 1.53993 6.1107 1.01955 5.23301 0.495069Z" fill="var(--fill-0, white)" fill-opacity="0.5"/>
</g>
</svg>
