<svg preserveAspectRatio="none" width="100%" height="100%" overflow="visible" style="display: block;" viewBox="0 0 8.33333 7.41176" fill="none" xmlns="http://www.w3.org/2000/svg">
<g id="Vector">
<path fill-rule="evenodd" clip-rule="evenodd" d="M7.18862 4.18062L6.47592 5.09782L6.52447 3.91001L5.48244 3.47396L6.5617 3.15591L6.63039 1.96922L7.24886 2.96047L8.33333 2.66311L7.63631 3.59378L8.23787 4.59669L7.18862 4.18062Z" fill="white"/>
<path d="M6.2475 5.98081C5.60866 6.85163 4.61159 7.41176 3.49126 7.41176C1.56309 7.41176 0 5.75258 0 3.70588C0 1.65918 1.56309 0 3.49126 0C4.61127 0 5.60809 0.559808 6.24694 1.4302C5.75397 1.04989 5.13417 0.823366 4.46096 0.823366C2.85415 0.823366 1.55157 2.11384 1.55157 3.70572C1.55157 5.2976 2.85415 6.58807 4.46096 6.58807C5.13442 6.58807 5.75443 6.36138 6.2475 5.98081Z" fill="var(--fill-0, white)"/>
</g>
</svg>
