<svg preserveAspectRatio="none" width="100%" height="100%" overflow="visible" style="display: block;" viewBox="0 0 16.0068 16.0146" fill="none" xmlns="http://www.w3.org/2000/svg">
<g id="Vector">
<path d="M5.41991 4.62186C7.16325 5.34626 8.04314 6.68803 8.42963 7.46181C8.81612 7.60998 9.45754 7.79931 10.2387 7.78285C10.2223 7.74169 10.2059 7.6923 10.2059 7.64291C10.1483 6.86912 9.88515 5.35449 8.73389 3.96333C7.47573 2.44869 5.88864 1.93009 5.05809 1.75722L3.53678 1.33741C3.10917 1.62552 2.70623 1.95479 2.32796 2.32521C1.62076 3.03314 1.08625 3.83985 0.699757 4.69595L0.930009 4.6054C1.44807 4.39138 3.3312 3.74107 5.41991 4.6054V4.62186Z" fill="var(--fill-0, white)" fill-opacity="0.5"/>
<path d="M15.5839 5.4368L15.403 5.75784C15.1727 6.24351 14.2024 7.98041 12.0561 8.72126C11.39 8.95175 10.7486 9.03407 10.173 9.03407C9.30129 9.03407 8.56942 8.83651 8.0678 8.64718C7.77177 8.91882 7.34416 9.40449 7.01523 10.096C7.67309 10.6063 8.6681 11.199 10.0085 11.4048C11.9163 11.7011 13.4294 11.0591 14.1777 10.631L15.9128 9.23163C16.1102 7.96394 15.995 6.6551 15.5839 5.42857V5.4368Z" fill="var(--fill-0, white)" fill-opacity="0.5"/>
<path d="M5.36235 11.4048C5.56793 9.57736 6.55472 8.38376 7.19614 7.78285C6.97411 7.38772 6.59584 6.86089 6.01199 6.39992C5.12387 6.90205 4.38378 7.56882 3.81638 8.40022C2.78847 9.92309 2.67334 11.4954 2.70623 12.3021L3.01049 14.3024C4.12064 15.1914 5.41991 15.7347 6.76031 15.9405L6.59584 15.7182C6.25046 15.2902 5.10743 13.6521 5.36235 11.4048Z" fill="var(--fill-0, white)" fill-opacity="0.5"/>
<path d="M14.8356 11.6847C14.1119 12.1045 12.7386 12.7136 10.9788 12.7136C10.6088 12.7136 10.2223 12.689 9.81936 12.6231C8.46252 12.4173 7.3935 11.874 6.62051 11.3472C6.61229 11.413 6.59584 11.4707 6.58762 11.5365C6.38203 13.3063 7.29482 14.5987 7.57441 14.9527L8.36384 16.0146C10.2963 15.924 12.2041 15.1585 13.6679 13.685C14.3668 12.9853 14.9096 12.1786 15.2961 11.3225L14.9178 11.6271C14.9178 11.6271 14.8684 11.6682 14.8356 11.6847Z" fill="var(--fill-0, white)" fill-opacity="0.5"/>
<path d="M9.68779 3.18954C11.0611 4.84412 11.3736 6.64687 11.4393 7.56882V7.61821C11.5134 7.59352 11.5874 7.58528 11.6696 7.56059C13.3636 6.97614 14.1284 5.60967 14.3257 5.19808L14.9671 4.03741C14.6217 3.4365 14.2024 2.86028 13.6843 2.34168C11.39 0.0450258 8.03491 -0.564121 5.17321 0.522466L5.36235 0.571856C6.31625 0.769418 8.2076 1.3868 9.69601 3.18954H9.68779Z" fill="var(--fill-0, white)" fill-opacity="0.5"/>
<path d="M2.79669 7.70053C3.32298 6.92675 4.00551 6.25174 4.78672 5.70845C3.20785 5.11577 1.80167 5.59321 1.39873 5.76607L0.198137 6.23528C-0.303482 8.44961 0.148797 10.8368 1.53853 12.7383L1.48919 12.4091C1.44807 11.3801 1.57965 9.51151 2.80491 7.70053H2.79669Z" fill="var(--fill-0, white)" fill-opacity="0.5"/>
</g>
</svg>
