<svg preserveAspectRatio="none" width="100%" height="100%" overflow="visible" style="display: block;" viewBox="0 0 15.9994 12.2687" fill="none" xmlns="http://www.w3.org/2000/svg">
<path id="Vector" d="M15.958 4.34467L13.4912 11.9005C13.4664 11.9767 13.4247 12.0463 13.3694 12.1041C13.314 12.162 13.2463 12.2066 13.1713 12.2348C13.0963 12.2629 13.0159 12.2737 12.9361 12.2665C12.8564 12.2593 12.7792 12.2343 12.7105 12.1932C12.6951 12.1839 10.9904 11.2018 7.99815 11.2018C5.00596 11.2018 3.30118 12.1839 3.28451 12.1939C3.21577 12.2346 3.13878 12.2593 3.0592 12.2662C2.97963 12.2732 2.89951 12.2622 2.82477 12.234C2.75002 12.2059 2.68255 12.1613 2.62734 12.1035C2.57213 12.0458 2.53059 11.9764 2.50579 11.9005L0.0402918 4.34267C-0.0093846 4.19138 -0.0132126 4.02877 0.0292892 3.87531C0.071791 3.72185 0.158724 3.58438 0.279155 3.48019C0.399586 3.37601 0.548135 3.30977 0.706118 3.28979C0.864102 3.26982 1.02446 3.29701 1.16703 3.36794L4.51326 5.03472L7.30811 0.390412C7.37995 0.271288 7.48136 0.172748 7.60249 0.104346C7.72362 0.0359435 7.86038 0 7.99949 0C8.1386 0 8.27535 0.0359435 8.39649 0.104346C8.51762 0.172748 8.61902 0.271288 8.69087 0.390412L11.4857 5.03472L14.8333 3.36794C14.976 3.29691 15.1366 3.26975 15.2947 3.28992C15.4529 3.31008 15.6015 3.37666 15.7219 3.48123C15.8422 3.58581 15.9289 3.7237 15.9709 3.8775C16.0129 4.03129 16.0084 4.19409 15.958 4.34534V4.34467Z" fill="var(--fill-0, white)" fill-opacity="0.5"/>
</svg>
