<svg preserveAspectRatio="none" width="100%" height="100%" overflow="visible" style="display: block;" viewBox="0 0 8.45001 9.10001" fill="none" xmlns="http://www.w3.org/2000/svg">
<g id="Vector">
<path d="M4.26403 0C4.33038 0.0400245 4.39673 0.0836876 4.46503 0.120073C5.19683 0.51668 5.92863 0.911467 6.66042 1.30625C6.68774 1.32081 6.71506 1.33718 6.75605 1.36083C6.72287 1.38085 6.6975 1.39904 6.67213 1.41359C6.44186 1.5373 6.21159 1.6592 5.98327 1.78655C5.93058 1.81566 5.89545 1.81384 5.84471 1.78473C5.33343 1.50638 4.81825 1.22984 4.30501 0.951491C4.24842 0.920563 4.20549 0.920563 4.1489 0.951491C3.63761 1.22984 3.12243 1.50638 2.60919 1.78473C2.55846 1.81202 2.52138 1.81566 2.47064 1.78655C2.24037 1.65738 2.00619 1.53367 1.77202 1.40813C1.75055 1.39722 1.72909 1.38266 1.69591 1.36265C1.74275 1.33718 1.77982 1.31535 1.8169 1.29352C2.58187 0.880539 3.3488 0.467559 4.11377 0.0527596C4.14109 0.0382052 4.16256 0.018193 4.18793 0C4.21134 0 4.23866 0 4.26403 0Z" fill="white"/>
<path d="M4.18597 9.09637C4.02009 9.00359 3.85617 8.90899 3.6903 8.81802C3.60443 8.77072 3.51467 8.72706 3.43075 8.67612C3.40538 8.66156 3.37806 8.627 3.37806 8.60153C3.37416 8.31772 3.37611 8.03391 3.37611 7.73736C3.40929 7.75192 3.43466 7.76283 3.45807 7.77557C3.6942 7.9011 3.93033 8.02663 4.1645 8.15762C4.20938 8.18309 4.24061 8.18309 4.28549 8.15762C4.51381 8.03209 4.74408 7.90838 4.97436 7.78466C5.00168 7.77011 5.03095 7.75556 5.07388 7.73373C5.07388 7.79012 5.07388 7.83379 5.07388 7.87745C5.07388 8.10486 5.06998 8.33227 5.07583 8.55786C5.07778 8.62882 5.05046 8.6652 4.98607 8.69977C4.7675 8.81257 4.55284 8.93082 4.33818 9.04725C4.31086 9.06181 4.28744 9.08182 4.26403 9.10001C4.23866 9.09637 4.21134 9.09637 4.18597 9.09637Z" fill="white"/>
<path d="M6.75994 3.63686C6.75994 3.76421 6.75604 3.89156 6.76189 4.01891C6.76384 4.07895 6.74042 4.10987 6.68578 4.13898C6.1784 4.41006 5.67493 4.68295 5.1695 4.95403C5.09925 4.99223 5.07193 5.03226 5.07388 5.11049C5.07778 5.65264 5.07583 6.19661 5.07778 6.73876C5.07778 6.80425 5.05827 6.84246 4.99582 6.87521C4.7636 6.99528 4.53332 7.11899 4.305 7.24634C4.24646 7.27909 4.20353 7.27545 4.14693 7.24452C3.91861 7.11717 3.68834 6.99346 3.45612 6.87339C3.39757 6.84246 3.37611 6.80789 3.37611 6.74422C3.37806 6.19479 3.37611 5.64718 3.38001 5.09775C3.38001 5.03226 3.35854 4.99587 3.29805 4.96131C2.78872 4.69023 2.28134 4.4137 1.77201 4.1408C1.71542 4.10987 1.69005 4.07895 1.69005 4.01527C1.69395 3.76421 1.69395 3.51133 1.69005 3.26026C1.69005 3.20568 1.70371 3.17294 1.75835 3.14565C1.99838 3.02012 2.23646 2.89095 2.47453 2.75996C2.52332 2.73267 2.55845 2.73631 2.60528 2.76178C3.10876 3.03649 3.61614 3.30575 4.11961 3.58228C4.19962 3.62594 4.25817 3.62412 4.33818 3.58046C4.83775 3.30575 5.34318 3.03831 5.84275 2.76541C5.89349 2.73813 5.93057 2.73449 5.98326 2.7636C6.21938 2.89458 6.45941 3.02375 6.69944 3.14929C6.75018 3.17476 6.76384 3.2075 6.76384 3.25844C6.75799 3.38216 6.75994 3.50951 6.75994 3.63686Z" fill="white"/>
<path d="M0.00217193 4.08798C0.230493 4.20987 0.437347 4.3354 0.657862 4.43546C0.810076 4.50642 0.862765 4.59374 0.858862 4.75566C0.845202 5.26506 0.85496 5.77446 0.853008 6.28205C0.853008 6.3439 0.872523 6.37847 0.933018 6.4094C1.4443 6.68229 1.95363 6.96064 2.46686 7.23354C2.52541 7.26447 2.54883 7.29721 2.54687 7.36089C2.54297 7.60649 2.54492 7.8521 2.54492 8.0977C2.54492 8.12317 2.54492 8.15046 2.54492 8.19049C2.50199 8.16866 2.47077 8.15592 2.4415 8.13955C1.65311 7.71383 0.864717 7.28994 0.0782788 6.8624C0.045104 6.84421 0.00997777 6.80237 0.00802631 6.77144C0.000220472 5.88362 0.00217193 4.99581 0.00217193 4.08798Z" fill="white"/>
<path d="M5.90696 8.19415C5.90696 7.89033 5.905 7.60288 5.91086 7.31543C5.91086 7.28814 5.95574 7.25358 5.98892 7.2372C6.4963 6.96249 7.00368 6.68778 7.51301 6.4167C7.57936 6.38214 7.59887 6.34393 7.59887 6.2748C7.59497 5.72719 7.59887 5.17776 7.59497 4.63015C7.59497 4.57194 7.61253 4.53919 7.66912 4.50826C7.9072 4.38455 8.14138 4.25538 8.3775 4.12803C8.39702 4.11711 8.41653 4.10984 8.44776 4.09528C8.44776 4.13531 8.44776 4.16441 8.44776 4.19352C8.44776 5.04131 8.44776 5.89093 8.44971 6.73872C8.44971 6.80421 8.43019 6.8406 8.36775 6.87335C7.58326 7.2936 6.80072 7.71568 6.01819 8.13776C5.98697 8.15413 5.95574 8.16868 5.90696 8.19415Z" fill="white"/>
<path d="M1.69972 2.27408C1.44018 2.41417 1.1982 2.54698 0.952312 2.67433C0.878157 2.71254 0.846933 2.75256 0.848885 2.83625C0.856691 3.10004 0.850836 3.36384 0.850836 3.63856C0.819613 3.624 0.792292 3.61491 0.768875 3.60217C0.536651 3.47482 0.306379 3.34747 0.0702525 3.22376C0.0195146 3.19647 0 3.16736 0 3.11096C0.00390292 2.85626 0.00390292 2.60156 0 2.34686C0 2.29228 0.0175631 2.25953 0.0702525 2.23224C0.310282 2.10671 0.546409 1.9739 0.786438 1.84837C0.813759 1.83382 0.864496 1.82472 0.889865 1.83927C1.15526 1.97754 1.41871 2.12126 1.69972 2.27408Z" fill="white"/>
<path d="M6.75209 2.27402C6.94918 2.16668 7.13262 2.06662 7.31606 1.96838C7.41168 1.91744 7.5073 1.83193 7.60487 1.83193C7.69659 1.83011 7.79221 1.91744 7.88393 1.96838C8.0459 2.0557 8.20787 2.14849 8.37375 2.23035C8.43619 2.26128 8.45181 2.29949 8.44985 2.35952C8.44595 2.60877 8.44595 2.85619 8.44985 3.10543C8.44985 3.16365 8.43424 3.19822 8.37765 3.22733C8.12006 3.36196 7.86832 3.50022 7.59707 3.64577C7.59707 3.40198 7.58536 3.17275 7.60097 2.94534C7.61268 2.78524 7.55999 2.69427 7.40387 2.62332C7.18336 2.52144 6.9765 2.39591 6.75209 2.27402Z" fill="white"/>
<path d="M1.69973 5.00496C1.91049 5.11776 2.11149 5.24329 2.32615 5.33789C2.50178 5.4143 2.56033 5.51618 2.54472 5.69448C2.5252 5.91461 2.54081 6.13656 2.54081 6.36762C2.51349 6.35852 2.49398 6.35488 2.47641 6.34578C2.23443 6.21661 1.99245 6.08744 1.75437 5.95282C1.7251 5.93644 1.69388 5.89642 1.69193 5.86549C1.68802 5.58896 1.68998 5.31424 1.68998 5.03771C1.68998 5.03043 1.69388 5.02315 1.69973 5.00496Z" fill="white"/>
<path d="M5.9072 6.36213C5.9072 6.07104 5.9072 5.78723 5.90915 5.50342C5.90915 5.48341 5.92281 5.45248 5.94038 5.44338C6.20382 5.30148 6.46922 5.16139 6.73267 5.02131C6.73657 5.01949 6.74438 5.02312 6.75999 5.02494C6.75999 5.22871 6.74048 5.4361 6.76585 5.63805C6.79122 5.85636 6.71121 5.98007 6.4985 6.0674C6.30335 6.14563 6.12577 6.26206 5.94038 6.36031C5.93452 6.36213 5.92672 6.36031 5.9072 6.36213Z" fill="white"/>
<path d="M5.07565 2.27397C4.91759 2.35948 4.77123 2.43771 4.62682 2.51594C4.51168 2.5778 4.3985 2.64147 4.28141 2.70151C4.25604 2.71424 4.20921 2.72152 4.18774 2.7106C3.92429 2.57234 3.66475 2.43043 3.4052 2.29035C3.4013 2.28853 3.39935 2.28125 3.39154 2.26851C3.5945 2.15754 3.80721 2.06112 3.99845 1.93376C4.16237 1.82643 4.29117 1.82643 4.45314 1.93376C4.64438 2.05748 4.85709 2.15572 5.07565 2.27397Z" fill="white"/>
</g>
</svg>
