<svg preserveAspectRatio="none" width="100%" height="100%" overflow="visible" style="display: block;" viewBox="0 0 12 14.3999" fill="none" xmlns="http://www.w3.org/2000/svg">
<g id="Vector">
<path fill-rule="evenodd" clip-rule="evenodd" d="M8.7148 4.81451C9.64092 5.50646 10.7751 5.91363 12 5.91363V3.97354C11.3163 3.82133 10.7109 3.4477 10.2558 2.92805C9.4768 2.41982 8.91547 1.58133 8.75093 0.599913H7.03363V10.4441C7.02974 11.5917 6.1389 12.5209 5.04037 12.5209C4.39301 12.5209 3.8179 12.1983 3.4537 11.6986C2.80329 11.3554 2.35728 10.6508 2.35728 9.83707C2.35728 8.68619 3.24956 7.75318 4.35046 7.75318C4.56137 7.75318 4.76466 7.78752 4.95535 7.85079V5.88956C2.5912 5.94062 0.689817 7.96026 0.689817 10.4442C0.689817 11.6841 1.16332 12.8081 1.93175 13.6294C2.62504 14.1161 3.45962 14.3999 4.35748 14.3999C6.76393 14.3999 8.7148 12.3603 8.7148 9.84424V4.81451Z" fill="white"/>
<path fill-rule="evenodd" clip-rule="evenodd" d="M12 3.97354L12 3.44902C11.3834 3.45 10.7789 3.26946 10.2558 2.92805C10.7189 3.45812 11.3287 3.82358 12 3.97354ZM8.75093 0.599913C8.73521 0.506131 8.72317 0.411802 8.71481 0.316991V0H6.34365V9.84424C6.33984 10.9918 5.44909 11.921 4.35047 11.921C4.02789 11.921 3.7234 11.8409 3.4537 11.6986C3.8179 12.1983 4.39301 12.5209 5.04037 12.5209C6.1389 12.5209 7.02974 11.5917 7.03363 10.4441V0.599913H8.75093ZM4.95535 5.88956L4.95544 5.33115C4.75731 5.30281 4.55756 5.28865 4.35758 5.28876C1.95088 5.28876 0 7.3284 0 9.84424C0 11.4216 0.766634 12.8117 1.93175 13.6294C1.16332 12.8081 0.689817 11.6841 0.689817 10.4442C0.689817 7.96026 2.5912 5.94062 4.95535 5.88956Z" fill="white"/>
</g>
</svg>
