<svg preserveAspectRatio="none" width="100%" height="100%" overflow="visible" style="display: block;" viewBox="0 0 16.2076 16.3253" fill="none" xmlns="http://www.w3.org/2000/svg">
<path id="Vector" fill-rule="evenodd" clip-rule="evenodd" d="M3.09178 9.7498C3.25071 9.84905 3.35311 9.94683 3.5067 10.0708L4.75221 11.2258C5.01209 11.4733 5.67718 12.145 5.93293 12.4427C6.10739 12.6458 6.18334 12.6674 6.3117 12.8676C6.26463 12.8853 5.68276 13.0187 5.34427 13.1345C4.64059 13.3771 3.99782 13.7654 3.38441 13.5572C3.29245 13.5261 2.87485 13.1272 2.68316 12.9923C2.56984 12.9125 2.46186 12.837 2.33156 12.746C1.95813 12.4849 1.85112 12.6647 2.34709 11.5085C2.47691 11.2062 2.58659 10.9339 2.71106 10.6376C2.81904 10.379 2.96754 9.96042 3.09275 9.74883L3.09178 9.7498ZM12.0406 2.77127C12.2968 2.86032 12.918 3.21507 13.0702 3.40604C13.1985 3.56691 13.1614 3.58171 13.1138 3.8132L12.8612 5.79005C12.5113 5.80266 12.6125 5.76117 12.3956 5.61558C12.0316 5.37148 10.7837 4.44942 10.3828 4.12621L9.61219 3.50698C9.66897 3.45384 9.59253 3.48271 9.72089 3.44802L10.8613 3.19105C11.4556 3.04207 11.5478 3.003 12.0401 2.77127H12.0406ZM1.81254 3.16921C2.07387 3.02241 2.21315 3.13379 2.65404 2.81446C2.77221 2.72881 3.04398 2.7373 3.20922 2.76011C3.38028 2.78438 3.7741 3.11195 3.95487 3.22284C4.05921 3.28714 4.52946 3.64602 4.60614 3.77025L4.83835 4.14514C5.15816 4.16091 5.10211 4.14223 5.50563 4.43777L9.36954 6.98824C10.2004 7.56574 11.1697 8.15561 12.0054 8.73724L14.3868 10.2953C14.3181 10.443 14.2375 10.9531 14.1926 11.1569C13.9864 12.0933 13.727 12.4898 13.307 13.3893C12.7035 13.4135 12.2272 13.4084 11.6376 13.399C11.4466 13.3958 11.4937 13.4359 11.3893 13.3347C11.044 13.0001 10.4161 12.2658 10.0669 11.9273C9.94559 11.8104 9.83785 11.7007 9.71847 11.5733C8.75322 10.5447 9.21012 10.8546 9.02134 10.5986L7.07895 8.76247C6.63297 8.32886 6.23139 7.86201 5.77036 7.3738C5.65195 7.24836 5.5925 7.12994 5.46899 7.01614L5.43478 6.98533C5.41651 6.96854 5.39948 6.95046 5.38382 6.93121L4.81967 6.2899C4.76074 6.23732 4.70628 6.17994 4.65685 6.11835L4.14948 5.59471C4.03786 5.47776 3.95075 5.35668 3.84447 5.23074L3.35917 4.71633C3.28638 4.64354 3.2347 4.62121 3.1636 4.54648C2.93381 4.30747 2.7397 4.07647 2.50675 3.83771C2.32016 3.64577 1.86617 3.27574 1.81254 3.16921ZM4.14195 0.30064L0.155504 0.382412C-0.0594815 1.17587 0.155504 0.774287 0.155504 1.60268V3.10249C0.122989 3.53561 0.00991557 3.75763 0.00991557 4.33562C0.00991557 4.52974 -0.0332756 4.97791 0.0606288 5.13077C0.226599 5.40108 0.222474 5.63014 0.292357 6.02105C0.354474 6.36803 0.422173 6.33163 0.265666 6.59345L0.192871 7.2566L0.532577 7.58976L0.535004 8.17211C0.332394 8.35798 0.559269 8.22574 0.130511 8.53487L0.167636 10.2948L0.589842 10.6013L0.501519 12.1011C0.0560185 12.4204 0.151621 12.8074 0.165938 13.2049L0.220291 14.7008L0.123232 15.4673C1.12124 15.7184 0.902371 15.6405 2.04281 15.6405C3.05077 15.6405 2.92071 15.6507 3.91678 15.5297L3.9425 15.6995C4.09706 15.6896 4.25648 15.6811 4.40862 15.6663C4.83253 15.625 4.66316 15.5762 4.80923 15.5233C4.91478 15.485 6.05061 15.7488 6.23527 15.7886C6.33718 15.6745 6.28525 15.7206 6.42745 15.6287C6.50412 15.791 6.83267 16.1625 6.96661 16.3253L7.37911 15.9392L8.0988 16.2185L8.30966 16.0412C8.39167 16.1382 8.4419 16.2595 8.5887 16.2797C8.80223 16.3076 8.83717 15.9538 9.30864 15.9448L12.0423 15.8536C12.0775 15.8196 12.0984 15.7997 12.136 15.7628L12.2757 15.649C12.4553 15.7573 12.5317 15.8614 12.7782 15.8451C13.5322 15.7951 13.1376 16.0276 14.1106 15.9754C14.2783 15.9664 14.2368 15.9252 14.3846 15.873L14.7 15.8245C14.6313 15.6403 14.5874 15.6663 14.4508 15.5287L16.1823 15.8788C16.1581 13.8406 16.1637 11.3535 16.1894 9.25626L15.724 9.2912C15.7407 9.15508 15.9424 9.20627 15.9596 8.93257C15.9797 8.58752 15.9761 7.40656 15.9259 7.15421C15.9001 7.02512 15.5716 6.64902 15.484 6.53206C15.5883 6.24792 15.5988 6.26685 15.7922 6.03536C15.7759 5.88298 15.7402 5.84124 15.6747 5.66872L16.1823 5.50251C16.1879 5.21133 16.2207 4.03935 16.2018 3.66907L15.995 1.66941L16.1523 1.16932L16.1581 0.655147C15.7213 0.403037 15.7779 0.375132 15.4736 0.377074C15.2004 0.379015 14.8325 0.364456 14.5704 0.304279C14.2344 0.22736 14.3246 0.172765 13.9561 0.551052L13.7889 0.187081C13.2626 0.148015 11.5754 0 11.1741 0C10.6612 0 10.7354 0.0383382 10.5622 0.620934L9.82499 0.697368L9.72793 0.378772L9.0609 0.37125L9.13151 0.29336C9.26205 0.169853 9.21619 0.218382 9.31834 0H6.63515C6.54634 0.164029 6.38426 0.28875 6.19305 0.352324C5.92614 0.44089 6.05814 0.297971 5.88925 0.449382C5.76284 0.562699 5.741 0.555662 5.54178 0.55178C5.2773 0.546441 5.00602 0.537949 4.74105 0.527515C4.61973 0.522419 4.48506 0.534552 4.36786 0.50689C4.18733 0.464427 4.23974 0.417596 4.14123 0.300882L4.14195 0.30064Z" fill="var(--fill-0, white)" fill-opacity="0.5"/>
</svg>
