<svg preserveAspectRatio="none" width="100%" height="100%" overflow="visible" style="display: block;" viewBox="0 0 17 9.65463" fill="none" xmlns="http://www.w3.org/2000/svg">
<g id="Vector">
<path d="M9.58882 4.82732C9.58882 7.49338 7.44223 9.65463 4.79441 9.65463C2.1466 9.65463 0 7.49338 0 4.82732C0 2.16126 2.1466 0 4.79441 0C7.44223 0 9.58882 2.16126 9.58882 4.82732Z" fill="white"/>
<path d="M14.8485 4.82737C14.8485 7.33705 13.7752 9.37141 12.4512 9.37141C11.1272 9.37141 10.0539 7.33689 10.0539 4.82737C10.0539 2.31785 11.1274 0.28332 12.4514 0.28332C13.7752 0.28332 14.8485 2.31768 14.8485 4.82737Z" fill="white"/>
<path d="M17 4.82737C17 7.07594 16.6226 8.89871 16.1569 8.89871C15.6912 8.89871 15.3137 7.07594 15.3137 4.82737C15.3137 2.57879 15.6912 0.756025 16.1569 0.756025C16.6226 0.756025 17 2.57879 17 4.82737Z" fill="white"/>
</g>
</svg>
