<svg preserveAspectRatio="none" width="100%" height="100%" overflow="visible" style="display: block;" viewBox="0 0 19.2745 40.0271" fill="none" xmlns="http://www.w3.org/2000/svg">
<g id="Group">
<path id="Vector" d="M19.1064 40.0256C16.8528 39.708 14.8133 38.7103 13.0217 37.3496C13.0104 37.361 12.988 37.3722 12.9767 37.3836C11.095 38.1206 8.95409 37.5536 7.54559 36.1477C7.37657 35.9776 7.51169 35.7282 7.72591 35.7055C9.01043 35.5807 10.5766 35.7282 11.8161 36.3519C10.8244 35.4559 9.923 34.4696 9.12311 33.4263C8.61605 32.7687 8.13143 32.0884 7.65827 31.3967H7.64697C5.52865 31.9636 3.43277 30.6483 2.76799 28.5847C2.72295 28.4372 2.82433 28.3012 2.95945 28.2559C3.73691 27.995 4.67225 28.5733 5.33703 28.9588C5.83279 29.2423 6.29481 29.5599 6.73423 29.9226C5.65247 28.0744 4.75103 26.1129 4.13129 24.0831C4.09755 24.1058 4.05251 24.1172 3.99617 24.1058C1.96793 23.5502 0.43545 21.77 0.00733253 19.729C-0.0377062 19.5363 0.131314 19.3548 0.334071 19.4002C1.21291 19.6269 1.85525 20.1825 2.41865 20.897C2.89197 21.4979 3.39903 22.1896 3.80455 22.8813C3.71447 22.5184 3.63553 22.1442 3.55675 21.7813C3.45521 21.2485 3.38773 20.7269 3.34253 20.1939C3.33139 20.1713 3.33139 20.1486 3.33139 20.1258V20.1146C3.20741 18.6292 3.29749 17.1324 3.55675 15.6583C3.54545 15.6583 3.53415 15.6471 3.51155 15.6471C2.00167 14.6945 1.24681 10.6352 2.99335 9.5694C3.09473 9.50134 3.21871 9.53545 3.30879 9.61473C3.77081 10.0004 3.65813 11.0548 3.71447 11.5877C3.80455 12.3928 3.87219 13.2092 3.91723 14.0143C4.42429 12.0979 5.22435 10.2384 6.21587 8.4922C4.62721 6.34918 4.79623 3.31041 6.30611 1.16739C6.43009 0.985933 6.74553 0.985933 6.80187 1.23529C7.34267 3.29904 6.99349 5.54408 6.72293 7.64178C7.64697 6.15635 8.70613 4.76173 9.87797 3.49187C10.3737 2.68677 10.7006 1.76829 11.3991 1.08795C12.0302 0.475681 12.7963 0.135513 13.664 0.0334959C13.6865 0.0334959 13.7091 0.0334959 13.7317 0.0448683C13.9344 -0.0798934 14.2612 0.0674458 14.1598 0.339547C13.8105 1.18997 13.45 2.08571 12.785 2.74347C12.0076 3.50307 10.8921 3.89994 9.93431 4.37624H9.923C8.41313 6.13377 7.06097 8.05002 6.00181 10.091C7.15121 9.16117 8.44703 8.48083 9.85553 8.0047C10.0696 7.93663 10.2499 8.19736 10.1372 8.37882C9.16815 9.93232 7.32023 11.6557 5.38207 11.7465C5.32573 11.7465 5.28069 11.7238 5.23565 11.6899C4.32291 13.8555 3.75951 16.1346 3.72577 18.5044C4.25527 17.0078 5.15671 15.6811 6.30611 14.5699C6.50887 14.3771 6.76813 14.5811 6.73423 14.8193C6.47513 16.6676 5.55109 18.9126 3.89479 19.9218C3.84959 19.9445 3.81585 19.9557 3.78211 19.9557C3.82715 20.5794 3.91723 21.2144 4.04121 21.8494C4.34551 23.346 4.80737 24.8201 5.39337 26.2488C5.05533 24.5366 5.06663 22.8018 6.10319 21.2825C6.21587 21.1124 6.49757 21.1237 6.55391 21.3391C7.06097 23.1987 7.24129 25.7046 6.11449 27.3714C6.08075 27.4167 6.04685 27.4394 6.01311 27.4508C6.02441 27.4847 6.02441 27.5189 6.03571 27.5528C6.04685 27.5868 6.03571 27.6209 6.02441 27.6435C6.91455 29.4918 8.01875 31.238 9.22449 32.848C9.41594 33.0975 9.60757 33.347 9.81032 33.585C9.25823 32.4966 8.99913 31.2607 9.01043 30.0246C9.01043 29.8433 9.20189 29.7412 9.3596 29.8206C10.047 30.1947 10.385 31.1359 10.6554 31.8502C11.0161 32.8368 11.1625 33.8685 11.1513 34.9231C11.1513 34.9684 11.14 35.0138 11.1174 35.0479C12.3119 36.261 13.6414 37.3043 15.1063 38.132C14.2499 37.1909 13.7317 35.955 13.5851 34.685C13.5514 34.4468 13.8781 34.3675 14.0245 34.5035C15.1176 35.524 16.3232 37.1568 16.3684 38.7217L16.3795 38.7329C16.4021 38.7556 16.4134 38.7784 16.4247 38.8009C17.2922 39.1978 18.205 39.5154 19.1628 39.7647C19.3544 39.8101 19.2754 40.0482 19.1064 40.0256ZM11.3767 1.98369C11.4555 1.91562 11.5344 1.84772 11.6132 1.76829C11.6471 1.70022 11.6695 1.64352 11.7034 1.58683C11.5908 1.71159 11.4781 1.84772 11.3767 1.98369Z" fill="url(#paint0_linear_35581_37429)"/>
</g>
<defs>
<linearGradient id="paint0_linear_35581_37429" x1="9.63723" y1="-8.87176e-08" x2="-5.94702" y2="32.5704" gradientUnits="userSpaceOnUse">
<stop offset="0.228652" stop-color="#FFD962"/>
<stop offset="0.701112" stop-color="#FFA73F"/>
</linearGradient>
</defs>
</svg>
