<svg preserveAspectRatio="none" width="100%" height="100%" overflow="visible" style="display: block;" viewBox="0 0 13.0191 13" fill="none" xmlns="http://www.w3.org/2000/svg">
<path id="Union" fill-rule="evenodd" clip-rule="evenodd" d="M13.0191 3.20705V9.81204C13.0095 9.8693 13 9.93133 12.9905 9.99336C12.9809 10.0554 12.9714 10.1175 12.9618 10.1747C12.5991 11.8355 11.1674 13 9.46843 13H3.53157C3.3025 13 3.07342 12.9809 2.84435 12.9427C1.18355 12.6182 0 11.1674 0 9.48752V3.53157C0 3.3025 0.0190896 3.05433 0.0763583 2.82526C0.400881 1.39354 1.279 0.496329 2.69163 0.0954479C2.77753 0.0763583 2.86344 0.0620411 2.94934 0.0477239C3.03524 0.0334068 3.12115 0.0190896 3.20705 0H9.81204C9.94567 0.0190896 10.0602 0.0381792 10.1747 0.0763583C11.6065 0.419971 12.5228 1.279 12.9046 2.71072C12.9439 2.81552 12.9652 2.92932 12.987 3.04594C12.997 3.09925 13.0071 3.15315 13.0191 3.20705ZM10.0602 6.50954C10.0411 4.52423 8.47577 2.95888 6.50954 2.95888C4.52423 2.95888 2.95888 4.54332 2.95888 6.50954C2.95888 8.49486 4.54332 10.0602 6.50954 10.0602C8.49486 10.0602 10.0411 8.47577 10.0602 6.50954ZM11.1865 2.72981C11.1865 2.15712 10.7093 1.67988 10.1366 1.67988C9.56388 1.67988 9.08664 2.15712 9.08664 2.71072C9.08664 3.3025 9.5257 3.76065 10.1366 3.76065C10.7474 3.77974 11.1865 3.32159 11.1865 2.72981ZM8.67939 6.49477C8.67939 7.69854 7.71666 8.67939 6.51695 8.67939C5.31724 8.67939 4.3397 7.7134 4.3397 6.50963C4.3397 5.30585 5.31724 4.33986 6.50214 4.33986C7.70185 4.325 8.67939 5.30585 8.67939 6.49477ZM10.1557 3.01617C10.3084 3.01617 10.442 2.88254 10.442 2.72983C10.442 2.57711 10.2893 2.44348 10.1557 2.42439C10.003 2.44348 9.86934 2.57711 9.86934 2.72983C9.86934 2.88254 10.003 3.01617 10.1557 3.01617Z" fill="var(--fill-0, white)"/>
</svg>
