<svg preserveAspectRatio="none" width="100%" height="100%" overflow="visible" style="display: block;" viewBox="0 0 13.6219 18" fill="none" xmlns="http://www.w3.org/2000/svg">
<path id="Vector" d="M2.79437 1.81972C3.29014 1.95493 3.78592 2.04507 4.28169 2.18028C4.77746 2.31549 5.27324 2.40563 5.76901 2.54084C5.90423 2.58591 5.9493 2.54084 5.99437 2.40563C6.17465 1.63944 6.35493 0.91831 6.53521 0.152113C6.58028 0.0169015 6.62535 -0.028169 6.76056 0.0169014C7.21127 0.152113 7.6169 0.242253 8.0676 0.332394C8.20282 0.377464 8.20282 0.422535 8.15775 0.512676C7.97746 1.2338 7.79718 2 7.6169 2.72113C7.6169 2.7662 7.6169 2.81127 7.57183 2.90141C7.93239 2.99155 8.33803 3.08169 8.69859 3.17183C8.74366 3.17183 8.78873 3.08169 8.8338 3.03662C8.96901 2.4507 9.10423 1.90986 9.28451 1.32394C9.32958 1.14366 9.37465 0.96338 9.41972 0.783098C9.41972 0.692957 9.46479 0.647887 9.55493 0.692958C10.0056 0.828169 10.4563 0.91831 10.9521 1.05352C10.9972 1.05352 10.9972 1.09859 11.0423 1.09859C10.907 1.68451 10.7718 2.22535 10.6366 2.7662C10.5915 2.99155 10.5465 3.2169 10.4563 3.44225C10.4113 3.57746 10.4563 3.62253 10.5915 3.6676C11.0873 3.89296 11.5831 4.11831 12.0789 4.34366C12.5296 4.61408 12.9352 4.97465 13.2507 5.42535C13.6563 6.10141 13.7014 6.82253 13.5211 7.54366C13.3859 8.03944 13.2056 8.49014 12.8451 8.8507C12.5746 9.12113 12.2141 9.30141 11.8535 9.43662C11.8085 9.43662 11.7634 9.48169 11.6732 9.48169C11.8535 9.6169 12.0338 9.70704 12.2141 9.84225C12.7549 10.2479 13.1155 10.7437 13.2958 11.3746C13.3859 11.8704 13.3408 12.4113 13.2056 12.907C13.0254 13.538 12.8 14.0789 12.3944 14.5746C11.8986 15.1606 11.2676 15.4761 10.5465 15.5662C9.6 15.7014 8.69859 15.6113 7.79718 15.4761C7.66197 15.431 7.57183 15.4761 7.52676 15.6113C7.34648 16.3324 7.1662 17.0986 6.98592 17.8197C6.94084 18 6.94084 18.0451 6.71549 17.9549C6.30986 17.8648 5.85915 17.7296 5.45352 17.6394C5.31831 17.5944 5.31831 17.5493 5.36338 17.4592C5.54366 16.693 5.72394 15.9268 5.9493 15.2056C5.9493 15.1155 5.99437 15.0704 5.90423 15.0254C5.54366 14.9352 5.1831 14.8451 4.77746 14.7549C4.68732 15.1606 4.55211 15.5662 4.46197 15.9718C4.37183 16.3775 4.23662 16.7831 4.14648 17.1887C4.10141 17.2789 4.10141 17.3239 3.9662 17.2789C3.51549 17.1437 3.06479 17.0535 2.61408 16.9634C2.47887 16.9183 2.47887 16.8732 2.52394 16.7831C2.70423 16.0169 2.88451 15.2507 3.10986 14.5296C3.10986 14.4845 3.15493 14.4394 3.15493 14.3493C2.11831 14.0789 1.08169 13.8084 0 13.538C0.0901408 13.3577 0.135211 13.2225 0.225352 13.0423C0.405634 12.6366 0.585916 12.231 0.721127 11.8704C0.766197 11.7352 0.811268 11.7352 0.946479 11.7352C1.26197 11.8254 1.62254 11.9155 1.93803 11.9606C2.29859 12.0507 2.56901 11.8704 2.61408 11.5549C3.2 9.25634 3.78592 6.95775 4.32676 4.61408C4.4169 4.25352 4.19155 3.84789 3.78592 3.71268C3.38028 3.57746 2.97465 3.48732 2.61408 3.39718C2.52394 3.39718 2.47887 3.35211 2.52394 3.26197C2.65916 2.7662 2.79437 2.22535 2.92958 1.72958L2.79437 1.81972ZM5.09296 12.9521C5.13803 12.9521 5.1831 12.9972 5.1831 12.9972C5.90422 13.1775 6.67042 13.4028 7.43662 13.4479C7.97746 13.493 8.47324 13.493 8.96901 13.3127C9.82535 13.0423 10.1859 11.9155 9.69014 11.1944C9.46479 10.8338 9.10422 10.6084 8.74366 10.3831C7.93239 9.93239 6.98592 9.75211 6.08451 9.57183C5.9493 9.52676 5.9493 9.57183 5.90423 9.70704C5.81408 10.1577 5.67887 10.5634 5.58873 11.0141C5.40845 11.6451 5.27324 12.2761 5.09296 12.9521ZM8.87887 8.35493C8.96901 8.35493 9.19437 8.30986 9.37465 8.26479C10.231 8.08451 10.6817 7.09296 10.231 6.32676C10.0056 5.92113 9.6 5.6507 9.19437 5.47042C8.56338 5.2 7.93239 5.06479 7.25634 4.88451C7.12113 4.83944 7.07606 4.88451 7.03099 5.01972C6.80563 5.9662 6.58028 6.86761 6.30986 7.81408C6.26479 7.90423 6.30986 7.9493 6.4 7.99437C6.58028 8.03944 6.71549 8.08451 6.89578 8.12958C7.57183 8.21972 8.15775 8.35493 8.87887 8.35493Z" fill="var(--fill-0, white)"/>
</svg>
