<svg preserveAspectRatio="none" width="100%" height="100%" overflow="visible" style="display: block;" viewBox="0 0 19.2104 18.1052" fill="none" xmlns="http://www.w3.org/2000/svg">
<path id="Vector" fill-rule="evenodd" clip-rule="evenodd" d="M11.5435 16.9029C11.5435 16.239 11.0053 15.7007 10.3413 15.7007H8.86914C8.5503 15.7007 8.2445 15.8274 8.01904 16.0528C7.79358 16.2783 7.66692 16.5841 7.66692 16.9029C7.66692 17.5669 8.20518 18.1052 8.86914 18.1052H10.3413C11.0053 18.1052 11.5435 17.5669 11.5435 16.9029V16.9029ZM2.52741 13.8029C2.72822 13.8182 2.97116 13.827 3.2152 13.8128C3.34521 14.4721 3.66818 15.0836 4.15028 15.5657C4.7903 16.2057 5.65834 16.5652 6.56344 16.5652H7.02217C7.00194 16.6759 6.99155 16.7889 6.99155 16.9029C6.99155 17.0182 7.00194 17.1311 7.02187 17.2406H6.56344C5.47921 17.2406 4.43937 16.8099 3.67272 16.0433C3.0611 15.4316 2.66327 14.6461 2.52741 13.8029V13.8029ZM2.18387 13.0843C1.65067 12.9944 1.1545 12.7409 0.767179 12.3535C0.275962 11.8623 0 11.196 0 10.5014V8.90513C0 8.21044 0.275962 7.54419 0.767179 7.05297C1.2584 6.56175 1.92465 6.28575 2.61934 6.28575H2.79369C3.07239 2.76799 6.01557 0 9.60522 0C13.1949 0 16.138 2.76799 16.4167 6.28575H16.5911C17.2858 6.28575 17.952 6.56175 18.4433 7.05297C18.9345 7.54419 19.2104 8.21044 19.2104 8.90513V10.5014C19.2104 11.196 18.9345 11.8623 18.4433 12.3535C17.952 12.8448 17.2858 13.1207 16.5911 13.1207H15.8181C15.4976 13.1207 15.2377 12.8608 15.2377 12.5403V6.83314C15.2377 3.7224 12.716 1.20065 9.60522 1.20065C6.49448 1.20065 3.97273 3.7224 3.97273 6.83314V12.5403C3.97273 12.7666 3.84318 12.9627 3.65415 13.0584C3.13382 13.239 2.32686 13.1084 2.18387 13.0843V13.0843Z" fill="var(--fill-0, #060409)"/>
</svg>
