<svg preserveAspectRatio="none" width="100%" height="100%" overflow="visible" style="display: block;" viewBox="0 0 17.4432 20" fill="none" xmlns="http://www.w3.org/2000/svg">
<g id="Vector">
<path d="M8.78315 0C8.77675 0.0650693 8.84202 0.0568605 8.87045 0.0710757C9.25666 0.26328 9.64667 0.447677 10.0345 0.636678C10.5382 0.882139 11.0406 1.1304 11.5439 1.37627C11.8909 1.54585 12.2388 1.71362 12.6088 1.89302C12.4447 1.9759 12.3007 2.05018 12.1551 2.12186C11.6606 2.36592 11.1657 2.60878 10.671 2.85244C10.3554 3.0078 10.0399 3.16337 9.72516 3.32014C9.68912 3.33815 9.66409 3.32454 9.63306 3.30932C9.34956 3.16917 9.06405 3.03283 8.78175 2.89048C8.69506 2.84683 8.63139 2.90309 8.56873 2.93192C8.30985 3.05145 8.05518 3.18019 7.80191 3.31093C7.75246 3.33635 7.71942 3.33095 7.67417 3.30832C7.16563 3.05325 6.65469 2.80298 6.14454 2.55132C5.73971 2.3517 5.33588 2.14929 4.92745 1.95668C4.90162 1.94447 4.8802 1.92325 4.84336 1.89642C5.06239 1.7877 5.26981 1.68459 5.47743 1.58188C5.80098 1.42171 6.12452 1.26134 6.44847 1.10237C7.11418 0.775426 7.78049 0.450079 8.44539 0.121529C8.51947 0.0848904 8.60356 0.063868 8.66303 0C8.70307 0 8.74311 0 8.78315 0Z" fill="white"/>
<path d="M0.00260382 14.291C0.00260382 13.8411 0.00440574 13.3911 0.000801902 12.9412C0.000201262 12.8719 0.0224249 12.8357 0.0830895 12.8062C0.603644 12.5532 1.1232 12.2979 1.64255 12.0426C2.02376 11.8552 2.40436 11.6666 2.78497 11.4784C3.41304 11.1679 4.0389 10.8528 4.66977 10.5482C5.08942 10.3456 5.50626 10.1376 5.92371 9.93037C6.44707 9.6707 6.97443 9.41923 7.49859 9.16136C7.93385 8.94733 8.36631 8.72749 8.80137 8.51327C9.37819 8.22936 9.957 7.94947 10.5338 7.66596C10.9146 7.47876 11.2928 7.28616 11.6736 7.09916C12.166 6.8575 12.6601 6.61945 13.1528 6.37859C13.561 6.17898 13.9687 5.97797 14.3753 5.77495C14.4029 5.76113 14.456 5.76414 14.4508 5.71128C14.4466 5.66723 14.4039 5.67344 14.3753 5.65943C13.9783 5.46402 13.5823 5.26641 13.1854 5.0708C12.7149 4.83875 12.2438 4.60851 11.7737 4.37586C11.7343 4.35644 11.672 4.34943 11.6646 4.30438C11.6546 4.24352 11.7271 4.24272 11.7633 4.2247C12.3536 3.92878 12.9454 3.63607 13.5374 3.34396C13.8443 3.1924 14.1523 3.04324 14.4594 2.89228C14.5199 2.86265 14.5789 2.85985 14.6394 2.89008C15.0414 3.09109 15.4398 3.30011 15.8469 3.49072C16.3478 3.72537 16.8383 3.98104 17.3395 4.21529C17.4117 4.24912 17.4436 4.29838 17.4432 4.38567C17.4394 5.26561 17.44 6.14554 17.4426 7.02548C17.4428 7.10477 17.4228 7.15162 17.3475 7.18805C16.8784 7.4153 16.4117 7.64754 15.9442 7.87779C15.4811 8.10583 15.0176 8.33347 14.5545 8.56132C14.0023 8.83301 13.4503 9.1051 12.8983 9.37699C12.4038 9.62064 11.9099 9.8653 11.415 10.108C10.8033 10.4079 10.1897 10.7044 9.5788 11.0061C8.9199 11.3315 8.2644 11.664 7.6049 11.9882C6.93559 12.3171 6.26207 12.6377 5.59236 12.966C5.18672 13.1648 4.7855 13.373 4.38067 13.5735C3.92959 13.7965 3.4763 14.0151 3.02442 14.2366C3.0026 14.2474 2.96416 14.245 2.96396 14.278C2.96356 14.3118 2.99679 14.3231 3.02402 14.3365C3.72757 14.6834 4.43072 15.0308 5.13427 15.3778C5.33008 15.4743 5.52649 15.57 5.7231 15.6649C5.74792 15.6769 5.77535 15.6871 5.77775 15.7165C5.78096 15.754 5.74272 15.7502 5.72129 15.761C5.30625 15.9672 4.89061 16.1724 4.47517 16.378C4.09636 16.5656 3.71776 16.7534 3.33916 16.9412C3.22083 16.9999 3.10351 17.0604 2.98398 17.1162C2.93092 17.1411 2.87406 17.1389 2.8198 17.112C2.13527 16.7721 1.45295 16.4273 0.764615 16.0951C0.52516 15.9796 0.291712 15.8513 0.0456497 15.7498C-0.0128126 15.7255 0.00340467 15.6807 0.00320446 15.6411C0.00220339 15.191 0.00260382 14.7411 0.00260382 14.291Z" fill="white"/>
<path d="M0.00260382 10.9593C0.00260382 10.905 0.00260382 10.8618 0.00260382 10.8185C0.00260382 8.67564 0.00340467 6.53276 1.04904e-06 4.38987C-0.000199164 4.29677 0.0282311 4.25133 0.109518 4.21229C0.498131 4.02529 0.883742 3.83208 1.27055 3.64188C1.64996 3.45528 2.02976 3.26948 2.40937 3.08308C2.54091 3.01861 2.67205 2.95354 2.80319 2.88828C2.86465 2.85764 2.92472 2.85364 2.98818 2.88547C3.30332 3.04344 3.61825 3.20141 3.93459 3.35697C4.62993 3.69894 5.32647 4.0387 6.02161 4.38086C6.51274 4.62272 7.00166 4.86918 7.49338 5.10984C8.09082 5.40215 8.68945 5.69146 9.28369 5.98978C9.3878 6.04203 9.49311 6.09469 9.60082 6.14114C9.62385 6.15115 9.65728 6.16877 9.66009 6.18679C9.66489 6.21882 9.62765 6.23224 9.60183 6.24505C9.45807 6.31653 9.31372 6.3866 9.16977 6.45728C8.84482 6.61705 8.51987 6.77722 8.19473 6.93699C7.73744 7.16163 7.27995 7.38586 6.82247 7.6105C6.78643 7.62812 6.75499 7.62051 6.71896 7.6029C6.36097 7.42511 6.00179 7.25012 5.64341 7.07333C5.05839 6.78462 4.47376 6.49472 3.88854 6.20661C3.59583 6.06246 3.30172 5.92131 3.0082 5.77855C2.91791 5.73471 2.9137 5.73671 2.9135 5.84242C2.9131 6.48891 2.9133 7.1354 2.9133 7.78209C2.9133 8.32867 2.9113 8.87525 2.91531 9.42183C2.91591 9.50792 2.88587 9.54897 2.81059 9.58581C2.22877 9.87011 1.64996 10.1606 1.06854 10.4461C0.719968 10.6171 0.367993 10.7835 0.00260382 10.9593Z" fill="white"/>
<path d="M7.74825 13.8163C7.84836 13.7258 7.96849 13.6856 8.078 13.6301C8.52027 13.4065 8.96295 13.1832 9.41142 12.9724C9.80704 12.7862 10.1945 12.5842 10.5893 12.3964C10.6349 12.3748 10.6764 12.3712 10.7222 12.394C11.0832 12.5728 11.4446 12.7504 11.8058 12.9288C12.2753 13.1608 12.7446 13.3931 13.2139 13.6255C13.6107 13.8221 14.0071 14.0191 14.4039 14.2153C14.497 14.2614 14.5107 14.2536 14.5109 14.1491C14.5121 13.7524 14.5115 13.3558 14.5115 12.959C14.5115 12.1756 14.5133 11.3923 14.5095 10.6091C14.5091 10.5056 14.5423 10.4565 14.6388 10.4111C15.0126 10.2351 15.3794 10.0445 15.7496 9.8609C16.2711 9.60242 16.7933 9.34495 17.3154 9.08788C17.4051 9.04383 17.4069 9.04623 17.4069 9.16496C17.4071 10.345 17.3847 11.5255 17.4139 12.7047C17.4376 13.6571 17.4171 14.609 17.4364 15.5608C17.439 15.6861 17.3957 15.7474 17.2824 15.8004C16.8752 15.991 16.4741 16.1944 16.0707 16.3931C15.6593 16.5957 15.2476 16.7983 14.8362 17.0009C14.8102 17.0137 14.7809 17.0231 14.7591 17.0411C14.5473 17.2173 14.3631 17.0816 14.1765 16.9897C13.7376 16.7733 13.2996 16.5554 12.8615 16.3374C12.3069 16.0615 11.7537 15.7828 11.1981 15.5093C10.5378 15.1842 9.87472 14.8646 9.21421 14.5401C8.78315 14.3285 8.3545 14.112 7.92444 13.8982C7.86898 13.871 7.81212 13.8461 7.74825 13.8163Z" fill="white"/>
<path d="M12.5714 18.1059C12.0741 18.3523 11.5873 18.5938 11.1002 18.8349C10.6299 19.0675 10.1614 19.3044 9.68812 19.5308C9.37739 19.6794 9.07006 19.8339 8.76153 19.9869C8.72729 20.0039 8.69586 20.0049 8.65882 19.9867C8.01554 19.6693 7.37125 19.3544 6.72797 19.0373C6.1031 18.7291 5.47904 18.4192 4.84696 18.1061C4.94206 18.016 5.05959 17.9797 5.1651 17.9269C5.66884 17.675 6.17798 17.434 6.67951 17.1771C7.01427 17.0057 7.35623 16.8481 7.69399 16.6822C7.73203 16.6635 7.75906 16.6685 7.7949 16.6864C8.077 16.8261 8.3609 16.9621 8.6426 17.1024C8.68925 17.1256 8.7307 17.1302 8.77495 17.1084C9.05624 16.9695 9.33814 16.8311 9.61764 16.6886C9.66249 16.6657 9.69372 16.6669 9.73677 16.6884C10.2457 16.9422 10.7549 17.1955 11.2652 17.4466C11.6754 17.6482 12.0873 17.8462 12.4979 18.0472C12.5225 18.0594 12.5424 18.0825 12.5714 18.1059Z" fill="white"/>
</g>
</svg>
