<svg preserveAspectRatio="none" width="100%" height="100%" overflow="visible" style="display: block;" viewBox="0 0 17 17" fill="none" xmlns="http://www.w3.org/2000/svg">
<path id="-games_90651 (Traced)" fill-rule="evenodd" clip-rule="evenodd" d="M5.95794 2.35363V4.29293C5.95794 4.55821 6.06335 4.81262 6.25097 5.00017L7.22897 5.9778L7.79302 6.54165C8.18352 6.93199 8.81648 6.93199 9.20697 6.54165L9.77103 5.9778L10.749 5.00017C10.9366 4.81262 11.0421 4.55821 11.0421 4.29293V2.35363V1C11.0421 0.447716 10.5943 0 10.0421 0H8.5H6.95794C6.40566 0 5.95794 0.447715 5.95794 1V2.35363ZM0 8.5V10.0421C0 10.5943 0.447715 11.0421 1 11.0421H2.35363H4.29293C4.55821 11.0421 4.81262 10.9366 5.00017 10.749L5.9778 9.77103L6.54165 9.20697C6.93199 8.81648 6.93199 8.18352 6.54164 7.79303L5.9778 7.22897L5.00017 6.25097C4.81262 6.06335 4.55821 5.95794 4.29293 5.95794H2.35363H1C0.447715 5.95794 0 6.40566 0 6.95794V8.5ZM11.0222 7.22897L10.4584 7.79303C10.068 8.18352 10.068 8.81648 10.4584 9.20697L11.0222 9.77103L11.9998 10.749C12.1874 10.9366 12.4418 11.0421 12.7071 11.0421H14.6464H16C16.5523 11.0421 17 10.5943 17 10.0421V8.5V6.95794C17 6.40566 16.5523 5.95794 16 5.95794H14.6464H12.7071C12.4418 5.95794 12.1874 6.06335 11.9998 6.25097L11.0222 7.22897ZM7.2188 11.0324L6.2507 12.0008C6.06325 12.1884 5.95794 12.4427 5.95794 12.7078V14.6469V16C5.95794 16.5523 6.40566 17 6.95794 17H8.5H10.0421C10.5943 17 11.0421 16.5523 11.0421 16V14.6464V12.7071C11.0421 12.4418 10.9366 12.1874 10.749 11.9998L9.78072 11.0319C8.2821 9.53382 8.71687 9.53374 7.2188 11.0324Z" fill="var(--fill-0, white)"/>
</svg>
