<svg preserveAspectRatio="none" width="100%" height="100%" overflow="visible" style="display: block;" viewBox="0 0 51.3401 12.857" fill="none" xmlns="http://www.w3.org/2000/svg">
<g id="Group 1321315002">
<path id="Vector" d="M36.7329 4.07703C36.4795 4.16439 36.3237 4.24159 35.7488 4.24159C34.7741 4.24159 34.1992 3.55689 34.1992 2.51804C34.1992 1.56937 34.5888 0.881836 35.5828 0.881836C36.3525 0.881836 36.8594 1.26905 36.8594 1.8305H36.0408C36.0408 1.54718 35.97 1.12384 35.5438 1.12384C35.0764 1.12384 34.9689 1.6369 34.9689 2.29492C34.9689 3.31134 35.4364 3.87304 36.0701 3.87304C36.2845 3.87304 36.5671 3.83431 36.7326 3.77859V4.07845L36.7329 4.07703ZM37.181 2.56667C37.181 1.41449 37.6683 0.882072 38.6817 0.882072C39.6851 0.882072 40.1823 1.56677 40.1823 2.56667C40.1823 3.68958 39.7149 4.24159 38.6817 4.24159C37.5611 4.24159 37.181 3.52525 37.181 2.56667ZM38.6817 3.99982C39.3664 3.99982 39.4223 3.24476 39.4223 2.55959C39.4223 1.92069 39.3638 1.10755 38.6817 1.10755C37.9899 1.10755 37.941 1.94973 37.941 2.55959C37.941 3.14041 37.9899 3.99982 38.6817 3.99982ZM40.6012 3.98991C40.7377 3.87374 41.3515 3.36069 41.3515 2.9638C41.3515 2.79923 41.2247 2.69275 41.0592 2.69275C40.8642 2.69275 40.7863 2.83796 40.757 2.9154H40.6401C40.6791 2.79924 40.7865 2.55723 41.1076 2.55723C41.4193 2.55723 41.6341 2.68307 41.6341 3.00252C41.6341 3.41877 40.9617 3.8761 40.8253 3.99959H41.3418C41.5661 3.99959 41.585 3.90515 41.5952 3.76726H41.6731V4.16392H40.6012V3.98967V3.98991ZM32.1015 7.36619C32.1015 6.88218 31.9843 6.76602 31.5459 6.75634V6.62081L32.7932 6.39817V7.27883H32.8027C32.9099 7.03683 33.2706 6.39817 33.9624 6.39817C34.5959 6.39817 34.8006 6.84346 34.8006 7.36619V9.68001H34.1088V7.88893C34.1088 7.34683 34.1088 6.86282 33.6413 6.86282C33.1833 6.86282 32.7838 7.50172 32.7838 7.99541V9.68001H32.092V7.36619H32.1019H32.1015ZM38.1065 9.56597C37.97 9.61437 37.6095 9.75013 37.1319 9.75013C36.0694 9.75013 35.4265 9.11124 35.4265 7.95905C35.4265 6.86518 35.953 6.39061 36.8903 6.39061C38.0794 6.39061 38.1771 7.24247 38.1771 7.70713H36.1986C36.1986 8.39183 36.4812 9.37237 37.4655 9.37237C37.7578 9.37237 38.0014 9.30461 38.1183 9.2562V9.56597H38.1089H38.1065ZM37.4827 7.43632C37.4827 7.28143 37.4733 6.63285 36.8689 6.63285C36.3523 6.63285 36.2061 7.17495 36.2061 7.43632H37.4827V7.43632ZM40.9428 8.89827H40.9334C40.8165 9.19812 40.5339 9.75013 39.8615 9.75013C38.9359 9.75013 38.9359 8.84987 38.9359 8.34626V7.36879C38.9359 6.88478 38.8288 6.76861 38.4 6.75893V6.62341L39.6277 6.40076V8.47258C39.6277 9.10179 39.8638 9.28572 40.193 9.28572C40.6416 9.28572 40.9532 8.69546 40.9532 8.12409V7.36903C40.9532 6.88501 40.8363 6.76885 40.4173 6.75917V6.62365L41.645 6.401V9.68284H40.9532V8.89898H40.9438L40.9428 8.89827ZM44.2263 9.70173C44.0705 9.73077 43.9147 9.75981 43.7588 9.75981C43.0961 9.75981 42.7063 9.65357 42.7063 8.86923V6.74902H42.1633V6.46829H42.7063V5.92619L43.3981 5.31634V6.47797H44.3042V6.76129H43.3981V8.76534C43.3981 9.24936 43.437 9.46232 43.9633 9.46232C44.0486 9.46287 44.1337 9.45312 44.2167 9.43328V9.70433H44.2261L44.2263 9.70173ZM45.133 7.36855C45.133 6.88454 45.0258 6.76838 44.5899 6.7587V6.62317L45.8373 6.40053V7.31047H45.8467C45.9442 6.99102 46.1584 6.40053 46.7139 6.40053C46.8407 6.40053 46.9675 6.40997 47.0846 6.43925V7.09751C46.9774 7.05879 46.8485 7.01015 46.7338 7.01015C46.0321 7.01015 45.8271 7.55224 45.8271 8.03626V9.6819H45.1353V7.36808L45.133 7.36855ZM49.1675 9.27556C49.0407 9.42077 48.8067 9.75958 48.2708 9.75958C47.7278 9.75958 47.3453 9.37237 47.3453 8.9658C47.3453 7.99777 48.7288 7.92033 49.168 7.90333V7.55484C49.168 7.11923 49.168 6.63522 48.7293 6.63522C48.2713 6.63522 48.2422 7.03187 48.2422 7.34187H47.4159C47.4938 6.8869 47.7181 6.40289 48.7215 6.40289C49.7061 6.40289 49.8619 6.90626 49.8619 7.5938V9.68497H49.1701V9.27793L49.1675 9.27556ZM49.1675 8.15265C48.9139 8.1621 48.105 8.19138 48.105 8.84963C48.105 9.16908 48.2609 9.39173 48.5239 9.39173C48.9236 9.39173 49.1673 9.02388 49.1673 8.55923V8.15265H49.1675ZM50.6484 5.79067C50.6484 5.29485 50.5315 5.18082 50.1218 5.16145V5.02806L51.3401 4.85381V9.6845H50.6484V5.79067V5.79067Z" fill="var(--fill-0, #45AB21)"/>
<path id="Vector_2" d="M39.9585 11.4823C39.9099 11.308 39.8806 11.2693 39.6955 11.2596V11.2015H40.163L40.4163 12.179H40.4258L40.7573 11.2015H40.8838L41.2545 12.1889H41.264L41.4783 11.2015H41.6247L41.3225 12.518H41.1081L40.7866 11.6178H40.7766L40.465 12.518H40.2525L39.9602 11.4823H39.9585ZM42.8917 12.4696C42.8333 12.489 42.6872 12.5471 42.4922 12.5471C42.0537 12.5471 41.7905 12.2857 41.7905 11.8114C41.7905 11.3661 42.0048 11.1725 42.385 11.1725C42.8723 11.1725 42.9115 11.521 42.9115 11.7146H42.1026C42.1026 11.9979 42.2195 12.3993 42.6192 12.3993C42.7091 12.3992 42.7982 12.3828 42.8822 12.3509V12.467H42.8917V12.4696ZM42.6383 11.589C42.6383 11.5212 42.6289 11.2598 42.385 11.2598C42.1706 11.2598 42.112 11.4825 42.112 11.589H42.6385H42.6383ZM43.1747 10.9109C43.1747 10.7173 43.1259 10.6689 42.9622 10.6592V10.6011L43.4692 10.5334V11.3755H43.4786C43.5083 11.3084 43.5579 11.252 43.6206 11.2139C43.6833 11.1759 43.7562 11.1579 43.8295 11.1626C44.2386 11.1626 44.3361 11.5304 44.3361 11.8789C44.3361 12.2274 44.1898 12.5372 43.8198 12.5372C43.6248 12.5372 43.5176 12.4113 43.4491 12.3436L43.2543 12.4984H43.1764V10.9109H43.1747ZM43.4571 11.8884C43.4571 12.0336 43.4767 12.3917 43.7204 12.3917C43.9933 12.3917 44.0127 12.0626 44.0127 11.84C44.0127 11.6463 43.9834 11.3172 43.7397 11.3172C43.4961 11.3172 43.4571 11.6076 43.4571 11.7722V11.8884V11.8884ZM45.3476 11.4242C45.3087 11.3951 45.1722 11.2887 45.0067 11.2887C44.9188 11.2887 44.8117 11.3177 44.8117 11.4435C44.8117 11.7146 45.4354 11.7146 45.4354 12.1502C45.4354 12.4335 45.1993 12.5374 44.9188 12.5374C44.7434 12.5374 44.6166 12.4987 44.5583 12.489V12.2664C44.6362 12.3244 44.7727 12.4116 44.9361 12.4116C45.1115 12.4116 45.1797 12.3242 45.1797 12.218C45.1797 11.9346 44.556 11.9275 44.556 11.5333C44.556 11.3302 44.6924 11.1555 45.0336 11.1555C45.18 11.1555 45.3063 11.1942 45.3552 11.2039V11.4265H45.3452L45.3476 11.4242ZM45.8033 11.5696C45.8033 11.376 45.7544 11.3276 45.5889 11.3179V11.2598L46.0956 11.1725V12.5183H45.8033V11.5673V11.5696ZM45.774 10.7662C45.774 10.6717 45.8519 10.5919 45.9494 10.5919C46.0469 10.5919 46.1345 10.6693 46.1345 10.7662C46.1345 10.863 46.0467 10.9404 45.9494 10.9404C45.8522 10.9404 45.774 10.863 45.774 10.7662ZM47.1994 12.518C47.135 12.5296 47.0698 12.5361 47.0044 12.5374C46.7314 12.5374 46.5756 12.4987 46.5756 12.1696V11.296H46.3513V11.1798H46.5756V10.9572L46.8582 10.7055V11.1777H47.2284V11.2938H46.8582V12.1167C46.8582 12.3103 46.8676 12.4 47.0943 12.4C47.1233 12.4 47.1651 12.4 47.2015 12.3905V12.5164L47.1994 12.518ZM48.4562 12.4696C48.3976 12.489 48.2515 12.5471 48.0567 12.5471C47.618 12.5471 47.355 12.2857 47.355 11.8114C47.355 11.3661 47.5693 11.1725 47.9495 11.1725C48.4366 11.1725 48.4755 11.521 48.4755 11.7146H47.6669C47.6669 11.9979 47.7837 12.3993 48.1832 12.3993C48.2731 12.3992 48.3622 12.3828 48.4462 12.3509V12.467H48.4562V12.4696ZM48.1929 11.589C48.1929 11.5212 48.1835 11.2598 47.9396 11.2598C47.7252 11.2598 47.6669 11.4825 47.6669 11.589H48.1929ZM49.733 11.1824L51.1071 11.86L49.733 12.5376V11.1824V11.1824Z" fill="var(--fill-0, #485C5C)"/>
<path id="Vector_3" opacity="0.25" d="M20.1182 12.3343C20.1182 12.6247 21.9211 12.857 24.1428 12.857C26.3645 12.857 28.1674 12.6247 28.1674 12.3343C28.1674 12.0438 26.3648 11.8115 24.1428 11.8115C21.9234 11.821 20.1182 12.0535 20.1182 12.3343V12.3343Z" fill="url(#paint0_radial_35581_36261)"/>
<path id="Vector_4" d="M19.885 8.53903C19.885 10.03 21.0934 11.2306 22.5941 11.2306C23.9878 11.2306 25.1279 10.1851 25.2838 8.84904C25.6053 9.58474 26.3462 10.1004 27.2033 10.1004C28.3531 10.1004 29.2888 9.17108 29.2888 8.02857C29.2888 7.08959 28.6553 6.28613 27.7881 6.03421C28.2034 5.57149 28.4325 4.97134 28.4313 4.3496C28.4313 2.94573 27.2814 1.80346 25.8683 1.80346C25.722 1.80346 25.5661 1.8129 25.4297 1.84218C25.186 0.786795 24.2409 0.00292969 23.1104 0.00292969C21.8048 0.00292969 20.7423 1.05831 20.7423 2.36515C20.7423 2.82012 20.8691 3.23873 21.0931 3.59454C20.4014 3.7787 19.8848 4.398 19.8848 5.14338C19.8848 5.76292 20.2356 6.29557 20.7522 6.56662C20.4788 6.81784 20.2605 7.12311 20.1112 7.46308C19.9619 7.80304 19.8848 8.17031 19.8848 8.54163L19.885 8.53903Z" fill="var(--fill-0, #69A82F)"/>
<path id="Vector_5" d="M20.6254 6.69043C20.1674 7.17444 19.8848 7.82302 19.8848 8.53959C19.8848 10.0304 21.0931 11.2312 22.5938 11.2312C23.088 11.2316 23.5728 11.0964 23.9955 10.8403C24.4182 10.5842 24.7625 10.2171 24.991 9.7789C24.494 10.292 23.8022 10.6211 23.0226 10.6211C21.5316 10.6211 20.3232 9.42073 20.3232 7.93942C20.3215 7.50485 20.4252 7.07635 20.6254 6.69067V6.69043Z" fill="var(--fill-0, #94C122)"/>
<path id="Vector_6" d="M20.6254 6.69043C20.1674 7.17444 19.8848 7.82302 19.8848 8.53959C19.8848 10.0304 21.0931 11.2312 22.5938 11.2312C23.088 11.2316 23.5728 11.0964 23.9955 10.8403C24.4182 10.5842 24.7625 10.2171 24.991 9.7789C24.494 10.292 23.8022 10.6211 23.0226 10.6211C21.5316 10.6211 20.3232 9.42073 20.3232 7.93942C20.3215 7.50485 20.4252 7.07635 20.6254 6.69067V6.69043Z" fill="url(#paint1_linear_35581_36261)"/>
<path id="Vector_7" d="M20.9562 1.37507C21.3949 0.871695 22.038 0.542566 22.7688 0.542566C23.305 0.541716 23.8257 0.721952 24.2467 1.05406C24.6676 1.38618 24.9641 1.85071 25.088 2.37237C25.2344 2.34333 25.3808 2.33365 25.5267 2.33365C26.9398 2.33365 28.0896 3.47592 28.0896 4.87979C28.0898 5.25479 28.0065 5.62512 27.8459 5.96398C28.2162 5.51869 28.4405 4.95724 28.4405 4.33723C28.4405 2.93335 27.2906 1.79108 25.8775 1.79108C25.7312 1.79108 25.5753 1.80053 25.4389 1.8298C25.1855 0.784337 24.2404 0 23.1099 0C22.1549 0 21.3363 0.561455 20.9562 1.3746V1.37507ZM24.9322 9.3908C24.8932 9.70056 24.8153 9.98106 24.6788 10.2526C24.8347 10.0684 24.9615 9.86536 25.0566 9.64272C25.0077 9.55536 24.9688 9.47815 24.9298 9.39103L24.9322 9.3908Z" fill="url(#paint2_linear_35581_36261)"/>
<g id="Group">
<path id="Vector_8" d="M27.1649 4.83129L25.7714 5.83804C25.3327 6.2158 24.9039 6.68022 24.7285 7.31912L25.2645 7.42536C25.3037 6.94135 25.7324 6.5735 26.0932 6.15749C26.4634 5.73155 26.7557 5.22818 27.1651 4.83105L27.1649 4.83129Z" fill="var(--fill-0, #277833)"/>
<path id="Vector_9" d="M23.3835 3.04004C24.3579 4.30792 24.3869 6.11883 24.5723 7.60959C24.7281 8.95539 24.5817 10.3687 24.0753 11.5209C23.8316 12.0049 23.2177 12.4016 23.1592 12.5276L25.235 12.5182C25.8394 10.7852 25.732 9.0621 25.3035 7.46463C24.8549 5.89619 24.8355 3.71057 23.384 3.04004H23.3835Z" fill="var(--fill-0, #277833)"/>
<path id="Vector_10" d="M22.1553 7.03832C22.7011 7.20289 23.2957 7.18353 23.8411 7.39649C24.377 7.60946 24.8934 8.07411 25.2638 8.62588L24.7963 8.89693C24.6013 8.45164 24.1629 8.08379 23.6852 7.80306C23.2078 7.51265 22.6936 7.29969 22.1553 7.03809V7.03832Z" fill="var(--fill-0, #277833)"/>
</g>
<path id="Vector_11" d="M12.5135 6.41984C12.5135 2.96433 9.71226 0.163086 6.25675 0.163086C2.80124 0.163086 0 2.96433 0 6.41984C0 9.87534 2.80124 12.6766 6.25675 12.6766C9.71226 12.6766 12.5135 9.87534 12.5135 6.41984Z" fill="var(--fill-0, #004343)"/>
<path id="Vector_12" fill-rule="evenodd" clip-rule="evenodd" d="M5.96782 8.99424L14.1741 0.787973L13.4322 0.0458984L5.96734 7.51079L3.1034 4.64685L2.36133 5.38893L5.96782 8.99424Z" fill="var(--fill-0, #45AB21)"/>
</g>
<defs>
<radialGradient id="paint0_radial_35581_36261" cx="0" cy="0" r="1" gradientUnits="userSpaceOnUse" gradientTransform="translate(24.1435 12.3388) rotate(180) scale(4.0209 0.521211)">
<stop offset="0.292" stop-color="#000505"/>
<stop offset="1" stop-color="#004343"/>
</radialGradient>
<linearGradient id="paint1_linear_35581_36261" x1="19.8848" y1="8.96246" x2="24.9936" y2="8.96246" gradientUnits="userSpaceOnUse">
<stop offset="0.067" stop-color="#69A82F"/>
<stop offset="0.365" stop-color="#DAE49B"/>
<stop offset="0.697" stop-color="#69A82F"/>
</linearGradient>
<linearGradient id="paint2_linear_35581_36261" x1="20.9576" y1="5.12511" x2="28.4346" y2="5.12511" gradientUnits="userSpaceOnUse">
<stop offset="0.062" stop-color="#69A82F"/>
<stop offset="0.182" stop-color="#9DBF55"/>
<stop offset="0.293" stop-color="#C0D37B"/>
<stop offset="0.38" stop-color="#D3E092"/>
<stop offset="0.433" stop-color="#DAE49B"/>
<stop offset="0.565" stop-color="#C7D883"/>
<stop offset="0.846" stop-color="#90B84A"/>
<stop offset="1" stop-color="#69A82F"/>
</linearGradient>
</defs>
</svg>
