<svg preserveAspectRatio="none" width="100%" height="100%" overflow="visible" style="display: block;" viewBox="0 0 31.2791 27.9719" fill="none" xmlns="http://www.w3.org/2000/svg">
<path id="Vector" d="M30.6406 11.5456C31.4904 12.9986 31.492 14.7966 30.6448 16.2512C28.8187 19.3863 26.9945 22.5196 25.1683 25.6547C24.3287 27.0962 22.7833 27.9796 21.1151 27.9719C17.428 27.9548 13.7405 27.9377 10.0505 27.9206C8.39717 27.9129 6.87125 27.0309 6.03972 25.6018C4.23718 22.5039 2.43463 19.4037 0.632088 16.3029C-0.211832 14.8512 -0.210602 13.058 0.635225 11.6074C2.43012 8.5292 4.22501 5.45048 6.01991 2.36941C6.85207 0.940956 8.37774 0.0591435 10.0309 0.0515195C13.7511 0.0343629 17.4712 0.0172064 21.1914 4.98383e-05C22.8564 -0.00762916 24.3995 0.872545 25.2401 2.30987C27.0403 5.38781 28.8404 8.46762 30.6406 11.5456Z" fill="var(--fill-0, #85888C)"/>
</svg>
