<svg preserveAspectRatio="none" width="100%" height="100%" overflow="visible" style="display: block;" viewBox="0 0 16.0087 15.0876" fill="none" xmlns="http://www.w3.org/2000/svg">
<path id="Vector" fill-rule="evenodd" clip-rule="evenodd" d="M9.6196 14.0858C9.6196 13.5325 9.17105 13.0839 8.61774 13.0839H7.39095C7.12525 13.0839 6.87042 13.1895 6.68254 13.3774C6.49465 13.5652 6.3891 13.8201 6.3891 14.0858C6.3891 14.6391 6.83765 15.0876 7.39095 15.0876H8.61774C9.17105 15.0876 9.6196 14.6391 9.6196 14.0858V14.0858ZM2.10618 11.5024C2.27352 11.5152 2.47597 11.5225 2.67933 11.5106C2.78767 12.0601 3.05682 12.5696 3.45857 12.9714C3.99192 13.5047 4.71528 13.8044 5.46953 13.8044H5.8518C5.83495 13.8966 5.82629 13.9908 5.82629 14.0858C5.82629 14.1819 5.83495 14.2759 5.85155 14.3672H5.46953C4.56601 14.3672 3.69948 14.0083 3.0606 13.3694C2.55092 12.8597 2.21939 12.2051 2.10618 11.5024V11.5024ZM1.8199 10.9035C1.37556 10.8286 0.962085 10.6174 0.639316 10.2946C0.229969 9.88525 0 9.33004 0 8.75113V7.42094C0 6.84203 0.229969 6.28682 0.639316 5.87747C1.04866 5.46813 1.60387 5.23813 2.18278 5.23813H2.32808C2.56033 2.30666 5.01297 0 8.00435 0C10.9957 0 13.4484 2.30666 13.6806 5.23813H13.8259C14.4048 5.23813 14.96 5.46813 15.3694 5.87747C15.7787 6.28682 16.0087 6.84203 16.0087 7.42094V8.75113C16.0087 9.33004 15.7787 9.88525 15.3694 10.2946C14.96 10.704 14.4048 10.9339 13.8259 10.9339H13.1818C12.9146 10.9339 12.6981 10.7174 12.6981 10.4502V5.69428C12.6981 3.102 10.5966 1.00054 8.00435 1.00054C5.41207 1.00054 3.31061 3.102 3.31061 5.69428V10.4502C3.31061 10.6388 3.20265 10.8023 3.04512 10.882C2.61151 11.0325 1.93905 10.9237 1.8199 10.9035V10.9035Z" fill="var(--fill-0, white)"/>
</svg>
