<svg preserveAspectRatio="none" width="100%" height="100%" overflow="visible" style="display: block;" viewBox="0 0 4.16667 5" fill="none" xmlns="http://www.w3.org/2000/svg">
<path id="Vector" d="M3.04695 1.20925C3.79343 1.7573 4.16667 2.03133 4.16667 2.5C4.16667 2.96868 3.79343 3.2427 3.04695 3.79075C2.84088 3.94204 2.6365 4.08448 2.44869 4.20318C2.28392 4.30731 2.09732 4.41502 1.90412 4.52076C1.1594 4.92834 0.787034 5.13213 0.453066 4.9065C0.119098 4.68087 0.0887464 4.20853 0.0280428 3.26384C0.0108758 2.99669 2.62131e-09 2.73479 0 2.5C-2.62131e-09 2.26521 0.0108757 2.00331 0.0280428 1.73616C0.0887465 0.791472 0.119098 0.31913 0.453066 0.0934994C0.787034 -0.132132 1.1594 0.0716604 1.90412 0.479244C2.09732 0.584979 2.28392 0.692693 2.44869 0.796824C2.6365 0.915519 2.84088 1.05796 3.04695 1.20925Z" fill="var(--fill-0, #F22F2F)"/>
</svg>
