<svg preserveAspectRatio="none" width="100%" height="100%" overflow="visible" style="display: block;" viewBox="0 0 15.8333 15.8331" fill="none" xmlns="http://www.w3.org/2000/svg">
<g id="Vector">
<path d="M0.858341 11.3574C0.858341 11.3824 0.841675 11.4158 0.841675 11.4408C1.60834 12.9741 2.85834 14.2324 4.39167 14.9908C4.41667 14.9908 4.45001 14.9741 4.47501 14.9741C4.19167 14.0074 3.97501 13.0158 3.81667 12.0241C2.81667 11.8574 1.82501 11.6408 0.858341 11.3574Z" fill="var(--fill-0, white)"/>
<path d="M15.0583 4.52487C14.275 2.8832 12.95 1.5582 11.3167 0.783203C11.6167 1.77487 11.8666 2.79154 12.0333 3.8082C13.05 3.97487 14.0667 4.21654 15.0583 4.52487Z" fill="var(--fill-0, white)"/>
<path d="M0.774902 4.52461C1.7749 4.22461 2.79157 3.97461 3.80824 3.80794C3.9749 2.81628 4.18324 1.83294 4.46657 0.866276C4.44157 0.866276 4.40824 0.849609 4.38324 0.849609C2.81657 1.62461 1.54157 2.93294 0.774902 4.52461Z" fill="var(--fill-0, white)"/>
<path d="M10.6832 3.63333C10.4832 2.55 10.2332 1.46667 9.8749 0.416667C9.85824 0.358333 9.85824 0.308333 9.8499 0.241667C9.23324 0.0916666 8.58324 0 7.91657 0C7.24157 0 6.5999 0.0916666 5.9749 0.25C5.96657 0.308333 5.9749 0.358333 5.95824 0.425C5.60824 1.475 5.3499 2.55 5.1499 3.63333C6.99157 3.43333 8.84157 3.43333 10.6832 3.63333Z" fill="var(--fill-0, white)"/>
<path d="M3.63333 5.14844C2.54167 5.34844 1.475 5.60677 0.416667 5.95677C0.358333 5.97344 0.308333 5.97344 0.25 5.98177C0.0916666 6.59844 0 7.24844 0 7.9151C0 8.5901 0.0916666 9.23177 0.25 9.85677C0.308333 9.8651 0.358333 9.85677 0.425 9.87344C1.475 10.2234 2.55 10.4818 3.64167 10.6818C3.43333 8.8401 3.43333 6.9901 3.63333 5.14844Z" fill="var(--fill-0, white)"/>
<path d="M15.5833 5.98177C15.525 5.98177 15.475 5.97344 15.4083 5.95677C14.3583 5.60677 13.275 5.34844 12.1917 5.14844C12.4 6.9901 12.4 8.8401 12.1917 10.6734C13.275 10.4734 14.3583 10.2234 15.4083 9.8651C15.4666 9.84844 15.5167 9.85677 15.5833 9.84844C15.7333 9.22344 15.8333 8.58177 15.8333 7.90677C15.8333 7.24844 15.7417 6.60677 15.5833 5.98177Z" fill="var(--fill-0, white)"/>
<path d="M5.1499 12.1997C5.3499 13.2914 5.5999 14.3664 5.95824 15.4164C5.9749 15.4747 5.96657 15.5247 5.9749 15.5914C6.5999 15.7414 7.24157 15.8331 7.91657 15.8331C8.58324 15.8331 9.23324 15.7414 9.8499 15.5831C9.85824 15.5247 9.85824 15.4747 9.8749 15.4081C10.2249 14.3581 10.4832 13.2831 10.6832 12.1914C9.76657 12.2914 8.84157 12.3664 7.91657 12.3664C6.99157 12.3664 6.06657 12.2997 5.1499 12.1997Z" fill="var(--fill-0, white)"/>
<path d="M4.95825 4.95703C4.70825 6.9237 4.70825 8.90703 4.95825 10.882C6.92492 11.132 8.90825 11.132 10.8833 10.882C11.1333 8.91537 11.1333 6.93203 10.8833 4.95703C8.90825 4.70703 6.92492 4.70703 4.95825 4.95703Z" fill="var(--fill-0, white)"/>
</g>
</svg>
