<svg preserveAspectRatio="none" width="100%" height="100%" overflow="visible" style="display: block;" viewBox="0 0 19.9 18.4381" fill="none" xmlns="http://www.w3.org/2000/svg">
<g id="metamask">
<path id="Vector" d="M18.8575 0.0874877L11.1693 5.79489L12.6035 2.43275L18.8575 0.0874877Z" fill="var(--fill-0, #E17726)"/>
<path id="Vector_2" d="M11.1696 5.88881C11.1545 5.89471 11.1377 5.89471 11.1226 5.88881C11.1139 5.87682 11.1093 5.86243 11.1093 5.84767C11.1093 5.8329 11.1139 5.81851 11.1226 5.80652L12.5626 2.43851C12.5534 2.4283 12.5474 2.41563 12.5454 2.40205C12.5433 2.38848 12.5452 2.37459 12.5509 2.36209L18.8108 0.0109512C18.8272 0.00479826 18.8454 0.00500302 18.8617 0.0115254C18.878 0.0180478 18.8913 0.0304187 18.899 0.0462183C18.9105 0.0591502 18.9169 0.0758914 18.9169 0.0932412C18.9169 0.110591 18.9105 0.127332 18.899 0.140264L11.1696 5.85354C11.1736 5.86495 11.1736 5.8774 11.1696 5.88881V5.88881ZM12.6626 2.50316L11.3106 5.57728L18.3993 0.334233L12.6626 2.50316Z" fill="var(--fill-0, #E17726)"/>
<path id="Vector_3" d="M1.05282 0.0874877L8.69404 5.84779L7.33625 2.43275L1.05282 0.0874877Z" fill="var(--fill-0, #E27625)"/>
<path id="Vector_4" d="M8.70678 5.92421C8.69166 5.93011 8.67488 5.93011 8.65976 5.92421L1.00679 0.146272C0.995221 0.133341 0.988827 0.116599 0.988827 0.0992496C0.988827 0.0818997 0.995221 0.0651585 1.00679 0.0522267C1.01283 0.0389003 1.02286 0.0277811 1.0355 0.0204093C1.04813 0.0130374 1.06275 0.00977775 1.07732 0.0110817L7.36075 2.36223C7.38123 2.36922 7.39812 2.38401 7.40777 2.40337L8.77144 5.82428C8.78099 5.83587 8.78622 5.85041 8.78622 5.86543C8.78622 5.88044 8.78099 5.89499 8.77144 5.90657C8.7633 5.91514 8.75297 5.92131 8.74157 5.92442C8.73017 5.92753 8.71814 5.92746 8.70678 5.92421ZM1.50053 0.328486L8.55396 5.61856L7.27846 2.48566L1.50053 0.328486Z" fill="var(--fill-0, #E27625)"/>
<path id="Vector_5" d="M16.078 13.3303L14.0266 16.469L18.4233 17.6799L19.687 13.4008L16.078 13.3303Z" fill="var(--fill-0, #E27625)"/>
<path id="Vector_6" d="M18.4229 17.7505L14.0262 16.5397C14.0145 16.5363 14.0036 16.5303 13.9945 16.5221C13.9853 16.514 13.9781 16.5039 13.9733 16.4926C13.969 16.4824 13.9667 16.4714 13.9667 16.4603C13.9667 16.4492 13.969 16.4382 13.9733 16.428L16.0306 13.2892C16.0365 13.2774 16.0458 13.2678 16.0574 13.2615C16.0689 13.2552 16.0821 13.2525 16.0952 13.2539L19.6983 13.3245C19.71 13.3238 19.7216 13.326 19.7321 13.3309C19.7427 13.3358 19.7519 13.3433 19.7589 13.3526C19.7658 13.3619 19.7704 13.3728 19.7722 13.3843C19.7739 13.3958 19.7728 13.4076 19.7689 13.4185L18.5051 17.6976C18.5038 17.7068 18.5006 17.7156 18.4956 17.7234C18.4905 17.7312 18.4839 17.7379 18.4761 17.7429C18.4683 17.7479 18.4595 17.7512 18.4503 17.7525C18.4411 17.7538 18.4318 17.7531 18.4229 17.7505V17.7505ZM14.1438 16.4221L18.3758 17.5977L19.5867 13.4832L16.1187 13.4185L14.1438 16.4221Z" fill="var(--fill-0, #E27625)"/>
<path id="Vector_7" d="M0.237351 13.4008L1.48933 17.6799L5.8801 16.469L3.8346 13.3303L0.237351 13.4008Z" fill="var(--fill-0, #E27625)"/>
<path id="Vector_8" d="M1.48941 17.7504C1.47315 17.7521 1.45682 17.7477 1.44373 17.7378C1.43064 17.728 1.42176 17.7136 1.41888 17.6975L0.166896 13.4184C0.161221 13.4086 0.158234 13.3974 0.158234 13.3861C0.158234 13.3747 0.161221 13.3636 0.166896 13.3538C0.173573 13.3445 0.182413 13.3369 0.192654 13.3318C0.202894 13.3267 0.214228 13.3241 0.225675 13.3244L3.81705 13.2538C3.82891 13.2547 3.84041 13.2584 3.85061 13.2645C3.86082 13.2706 3.86945 13.2791 3.87583 13.2891L5.92132 16.4279C5.92699 16.4377 5.92998 16.4489 5.92998 16.4602C5.92998 16.4716 5.92699 16.4827 5.92132 16.4925C5.91848 16.5039 5.9126 16.5143 5.90432 16.5226C5.89604 16.5308 5.88566 16.5367 5.8743 16.5396L1.50705 17.7504H1.48941ZM0.313843 13.4713L1.5188 17.5858L5.74498 16.4103L3.79354 13.4067L0.313843 13.4713Z" fill="var(--fill-0, #E27625)"/>
<path id="Vector_9" d="M5.6445 8.02858L4.42191 9.87423L8.77152 10.0682L8.63045 5.36591L5.6445 8.02858Z" fill="var(--fill-0, #E27625)"/>
<path id="Vector_10" d="M8.7719 10.1446L4.41641 9.94476C4.40382 9.94379 4.39173 9.93946 4.38139 9.93222C4.37105 9.92498 4.36285 9.9151 4.35763 9.90362C4.35196 9.89272 4.349 9.88063 4.349 9.86835C4.349 9.85607 4.35196 9.84397 4.35763 9.83308L5.58022 7.98743L8.56617 5.34239C8.57779 5.33569 8.59097 5.33216 8.60438 5.33216C8.61779 5.33216 8.63097 5.33569 8.64258 5.34239C8.65604 5.34715 8.66774 5.35587 8.67614 5.36742C8.68454 5.37896 8.68923 5.39278 8.68961 5.40705L8.83655 10.1093C8.84197 10.1266 8.84197 10.145 8.83655 10.1622C8.82519 10.1655 8.81316 10.1656 8.80176 10.1625C8.79036 10.1593 8.78003 10.1532 8.7719 10.1446V10.1446ZM4.5516 9.80369L8.6661 9.99178L8.53091 5.54224L5.69778 8.0756L4.5516 9.80369Z" fill="var(--fill-0, #E27625)"/>
<path id="Vector_11" d="M14.2728 8.02847L11.2398 5.33054L11.1693 10.0681L15.5189 9.87412L14.2728 8.02847Z" fill="var(--fill-0, #E27625)"/>
<path id="Vector_12" d="M11.1702 10.1443C11.1532 10.1512 11.1342 10.1512 11.1173 10.1443C11.111 10.1273 11.111 10.1085 11.1173 10.0914L11.1702 5.33036C11.1706 5.31609 11.1752 5.30227 11.1836 5.29073C11.192 5.27919 11.2037 5.27046 11.2172 5.26571C11.2288 5.259 11.242 5.25547 11.2554 5.25547C11.2688 5.25547 11.282 5.259 11.2936 5.26571L14.3266 7.96364L15.5492 9.80929C15.5548 9.82018 15.5578 9.83228 15.5578 9.84456C15.5578 9.85684 15.5548 9.86893 15.5492 9.87983C15.5422 9.89111 15.5328 9.90067 15.5216 9.90779C15.5104 9.91491 15.4977 9.91942 15.4845 9.92097L11.1349 10.1208L11.1702 10.1443ZM11.3406 5.49494L11.2172 10.0033L15.3611 9.81517L14.2149 8.08708L11.3406 5.49494Z" fill="var(--fill-0, #E27625)"/>
<path id="Vector_13" d="M5.87922 16.4687L8.5125 15.1933L6.24365 13.4299L5.87922 16.4687Z" fill="var(--fill-0, #E27625)"/>
<path id="Vector_14" d="M5.88008 16.5394C5.87367 16.5425 5.86664 16.5441 5.85951 16.5441C5.85238 16.5441 5.84535 16.5425 5.83894 16.5394C5.82763 16.5315 5.81847 16.5209 5.81231 16.5086C5.80614 16.4963 5.80317 16.4826 5.80367 16.4688L6.17398 13.43C6.17495 13.4174 6.17928 13.4053 6.18652 13.395C6.19375 13.3846 6.20363 13.3764 6.21512 13.3712C6.22651 13.3639 6.23978 13.36 6.25333 13.36C6.26688 13.36 6.28014 13.3639 6.29153 13.3712L8.56038 15.1346C8.5667 15.1442 8.57007 15.1554 8.57007 15.1669C8.57007 15.1784 8.5667 15.1896 8.56038 15.1992C8.55941 15.2118 8.55508 15.2239 8.54784 15.2342C8.54061 15.2446 8.53073 15.2528 8.51924 15.258L5.88596 16.5276L5.88008 16.5394ZM6.30329 13.5652L5.96825 16.3454L8.37229 15.1698L6.30329 13.5652Z" fill="var(--fill-0, #E27625)"/>
<path id="Vector_15" d="M11.399 15.1933L14.0265 16.4687L13.6679 13.4299L11.399 15.1933Z" fill="var(--fill-0, #E27625)"/>
<path id="Vector_16" d="M14.0268 16.5396H13.9974L11.37 15.2934C11.3585 15.2882 11.3486 15.28 11.3414 15.2697C11.3341 15.2593 11.3298 15.2472 11.3288 15.2347C11.3225 15.2251 11.3191 15.2138 11.3191 15.2023C11.3191 15.1908 11.3225 15.1796 11.3288 15.17L13.5977 13.4067C13.6093 13.3999 13.6225 13.3964 13.6359 13.3964C13.6493 13.3964 13.6625 13.3999 13.6741 13.4067C13.6856 13.4119 13.6954 13.4201 13.7027 13.4304C13.7099 13.4408 13.7143 13.4528 13.7152 13.4654L14.109 16.469C14.1123 16.4824 14.1112 16.4964 14.1059 16.5091C14.1006 16.5218 14.0914 16.5324 14.0797 16.5396C14.0719 16.5449 14.0626 16.5477 14.0532 16.5477C14.0438 16.5477 14.0346 16.5449 14.0268 16.5396V16.5396ZM11.5404 15.1818L13.9386 16.3573L13.6094 13.5771L11.5404 15.1818Z" fill="var(--fill-0, #E27625)"/>
<path id="Vector_17" d="M14.0265 16.4689L11.399 15.1934L11.6107 16.9039V17.6269L14.0265 16.4689Z" fill="var(--fill-0, #D5BFB2)"/>
<path id="Vector_18" d="M11.5927 17.6976C11.5863 17.7007 11.5793 17.7023 11.5722 17.7023C11.565 17.7023 11.558 17.7007 11.5516 17.6976C11.5398 17.6917 11.5302 17.6823 11.5239 17.6708C11.5176 17.6592 11.5149 17.646 11.5163 17.6329V16.91L11.3047 15.2171C11.3015 15.2038 11.3026 15.1898 11.3079 15.1771C11.3132 15.1644 11.3224 15.1537 11.3341 15.1466C11.3455 15.1393 11.3588 15.1354 11.3723 15.1354C11.3859 15.1354 11.3991 15.1393 11.4105 15.1466L14.0321 16.4221C14.0446 16.4276 14.0554 16.4366 14.0629 16.4481C14.0704 16.4596 14.0744 16.473 14.0744 16.4868C14.0744 16.5005 14.0704 16.5139 14.0629 16.5254C14.0554 16.5369 14.0446 16.5459 14.0321 16.5514L11.5986 17.727L11.5927 17.6976ZM11.4869 15.3465L11.6868 16.9158V17.533L13.8557 16.4691L11.4869 15.3465Z" fill="var(--fill-0, #D5BFB2)"/>
<path id="Vector_19" d="M5.87922 16.4691L8.32441 17.6447V16.9217L8.53014 15.2112L5.87922 16.4691Z" fill="var(--fill-0, #D5BFB2)"/>
<path id="Vector_20" d="M8.32534 17.6975H8.29007L5.84488 16.522C5.8323 16.5165 5.82159 16.5074 5.81407 16.4959C5.80654 16.4845 5.80254 16.471 5.80254 16.4573C5.80254 16.4436 5.80654 16.4301 5.81407 16.4187C5.82159 16.4072 5.8323 16.3981 5.84488 16.3926L8.48404 15.1171C8.49422 15.1095 8.50659 15.1054 8.51931 15.1054C8.53203 15.1054 8.5444 15.1095 8.55458 15.1171C8.56141 15.1276 8.56504 15.1399 8.56504 15.1524C8.56504 15.1649 8.56141 15.1772 8.55458 15.1877L8.34885 16.8923V17.6035C8.35025 17.6166 8.34763 17.6298 8.34132 17.6413C8.33502 17.6529 8.32534 17.6622 8.31358 17.6681C8.31739 17.672 8.32038 17.6766 8.3224 17.6817C8.32442 17.6867 8.32542 17.6921 8.32534 17.6975V17.6975ZM6.05061 16.4691L8.23129 17.5094V16.9217L8.42526 15.3405L6.05061 16.4691Z" fill="var(--fill-0, #D5BFB2)"/>
<path id="Vector_21" d="M8.36622 12.3545L6.17965 11.7138C6.1651 11.7095 6.15233 11.7006 6.14325 11.6884C6.13417 11.6762 6.12927 11.6614 6.12927 11.6462C6.12927 11.631 6.13417 11.6163 6.14325 11.6041C6.15233 11.5919 6.1651 11.583 6.17965 11.5786L7.71965 10.8674C7.72813 10.8635 7.73731 10.8613 7.74665 10.8609C7.75599 10.8606 7.7653 10.8621 7.77405 10.8654C7.7828 10.8687 7.79081 10.8737 7.79762 10.8801C7.80442 10.8865 7.80989 10.8942 7.8137 10.9027L8.46026 12.2546C8.46697 12.2662 8.4705 12.2794 8.4705 12.2928C8.4705 12.3062 8.46697 12.3194 8.46026 12.331C8.44909 12.3444 8.43397 12.3539 8.41707 12.3581C8.40017 12.3623 8.38236 12.3611 8.36622 12.3545ZM6.39126 11.6198L8.23103 12.1606L7.69026 11.0261L6.39126 11.6198Z" fill="var(--fill-0, #161616)"/>
<path id="Vector_22" d="M11.5458 12.3547C11.5345 12.3541 11.5235 12.3512 11.5134 12.3461C11.5033 12.341 11.4943 12.334 11.4871 12.3253C11.4803 12.3137 11.4768 12.3005 11.4768 12.2871C11.4768 12.2737 11.4803 12.2605 11.4871 12.2489L12.1336 10.897C12.1424 10.8807 12.1567 10.8682 12.174 10.8617C12.1913 10.8552 12.2104 10.8552 12.2277 10.8617L13.7794 11.5729C13.7927 11.579 13.8039 11.589 13.8112 11.6016C13.8186 11.6143 13.8219 11.6289 13.8206 11.6435C13.8198 11.6585 13.8142 11.6728 13.8047 11.6845C13.7952 11.6961 13.7822 11.7044 13.7677 11.7081L11.5635 12.3547H11.5458ZM12.2218 11.0263L11.681 12.1607L13.5208 11.6493L12.2218 11.0263Z" fill="var(--fill-0, #161616)"/>
<path id="Vector_23" d="M5.87983 16.469L6.26189 13.3303L3.83434 13.4008L5.87983 16.469Z" fill="var(--fill-0, #CC6228)"/>
<path id="Vector_24" d="M5.87931 16.5396C5.85475 16.5386 5.83154 16.528 5.81466 16.5102L3.76916 13.4419C3.76182 13.4305 3.75792 13.4173 3.75792 13.4037C3.75792 13.3902 3.76182 13.3769 3.76916 13.3655C3.77438 13.354 3.78259 13.3442 3.79293 13.3369C3.80327 13.3297 3.81536 13.3253 3.82794 13.3244L6.2555 13.2538C6.2555 13.2538 6.30252 13.2538 6.31427 13.2538C6.31841 13.262 6.32056 13.2711 6.32056 13.2803C6.32056 13.2895 6.31841 13.2985 6.31427 13.3067L5.94985 16.469C5.9501 16.4843 5.94493 16.4992 5.93524 16.511C5.92556 16.5229 5.91199 16.5309 5.89695 16.5337L5.87931 16.5396ZM3.96901 13.4654L5.82641 16.2633L6.17908 13.4067L3.96901 13.4654Z" fill="var(--fill-0, #CC6228)"/>
<path id="Vector_25" d="M13.65 13.3303L14.0261 16.469L16.0775 13.4008L13.65 13.3303Z" fill="var(--fill-0, #CC6228)"/>
<path id="Vector_26" d="M14.0262 16.5395C14.0116 16.5358 13.9987 16.5275 13.9891 16.5159C13.9796 16.5043 13.9741 16.4899 13.9733 16.4749L13.5971 13.3361C13.593 13.3279 13.5908 13.3188 13.5908 13.3097C13.5908 13.3005 13.593 13.2914 13.5971 13.2832C13.6063 13.279 13.6164 13.2768 13.6265 13.2768C13.6367 13.2768 13.6467 13.279 13.6559 13.2832L16.0834 13.3537C16.0966 13.3553 16.1093 13.3598 16.1205 13.3669C16.1317 13.374 16.1411 13.3836 16.1481 13.3949C16.1538 13.4068 16.1568 13.4199 16.1568 13.4331C16.1568 13.4463 16.1538 13.4594 16.1481 13.4713L14.1085 16.5102C14.1001 16.5236 14.0874 16.5338 14.0724 16.5391C14.0575 16.5445 14.0412 16.5446 14.0262 16.5395V16.5395ZM13.7323 13.4066L14.0732 16.2633L15.9483 13.4654L13.7323 13.4066Z" fill="var(--fill-0, #CC6228)"/>
<path id="Vector_27" d="M15.4905 9.87395L11.1409 10.0679L11.5465 12.3015L12.1872 10.9555L13.7389 11.6608L15.4905 9.87395Z" fill="var(--fill-0, #CC6228)"/>
<path id="Vector_28" d="M11.5456 12.3545C11.5298 12.3534 11.5148 12.347 11.5031 12.3363C11.4914 12.3257 11.4836 12.3114 11.481 12.2957L11.0813 10.068C11.0766 10.0589 11.0742 10.0488 11.0742 10.0386C11.0742 10.0284 11.0766 10.0183 11.0813 10.0092C11.0874 10.0007 11.0953 9.99365 11.1044 9.98857C11.1136 9.98348 11.1237 9.9805 11.1342 9.97983L15.4897 9.77999C15.5044 9.78127 15.5186 9.78625 15.531 9.79446C15.5433 9.80268 15.5533 9.81388 15.5602 9.82701C15.5683 9.83809 15.5727 9.85148 15.5727 9.86521C15.5727 9.87895 15.5683 9.89234 15.5602 9.90342L13.7968 11.6962C13.7843 11.7062 13.7688 11.7116 13.7528 11.7116C13.7367 11.7116 13.7212 11.7062 13.7087 11.6962L12.2275 11.0202L11.6397 12.3016C11.6378 12.3117 11.6337 12.3212 11.6277 12.3296C11.6217 12.3379 11.6139 12.3449 11.605 12.3499C11.596 12.355 11.586 12.358 11.5758 12.3588C11.5655 12.3596 11.5552 12.3581 11.5456 12.3545ZM11.2282 10.115L11.575 12.043L12.1217 10.8674C12.1304 10.8511 12.1448 10.8386 12.1621 10.8321C12.1794 10.8257 12.1984 10.8256 12.2157 10.8321L13.7204 11.5198L15.2839 9.95632L11.2282 10.115Z" fill="var(--fill-0, #CC6228)"/>
<path id="Vector_29" d="M6.18526 11.6608L7.72526 10.9555L8.36595 12.3015L8.77152 10.0679L4.42191 9.87395L6.18526 11.6608Z" fill="var(--fill-0, #CC6228)"/>
<path id="Vector_30" d="M8.36598 12.3546C8.35191 12.3534 8.33843 12.3485 8.32701 12.3402C8.3156 12.3319 8.30671 12.3206 8.30132 12.3075L7.71354 11.0262L6.2382 11.7021C6.22661 11.7117 6.21207 11.7169 6.19705 11.7169C6.18204 11.7169 6.16749 11.7117 6.15591 11.7021L4.39255 9.90936C4.38443 9.89828 4.38005 9.8849 4.38005 9.87116C4.38005 9.85742 4.38443 9.84403 4.39255 9.83295C4.3998 9.82014 4.40997 9.80921 4.42222 9.80104C4.43447 9.79287 4.44847 9.7877 4.46308 9.78593L8.81858 9.98577C8.81931 9.99163 8.81931 9.99755 8.81858 10.0034C8.82322 10.0125 8.82564 10.0226 8.82564 10.0328C8.82564 10.043 8.82322 10.0531 8.81858 10.0622L8.41888 12.2899C8.41628 12.3055 8.40848 12.3198 8.39675 12.3305C8.38502 12.3412 8.37004 12.3476 8.35423 12.3487L8.36598 12.3546ZM7.72529 10.8557C7.73889 10.8556 7.75223 10.8594 7.7637 10.8667C7.77517 10.874 7.78429 10.8845 7.78995 10.8968L8.33659 12.0724L8.68339 10.1445L4.60415 9.96226L6.19705 11.5787L7.69591 10.891L7.72529 10.8557Z" fill="var(--fill-0, #CC6228)"/>
<path id="Vector_31" d="M4.42191 9.87395L6.24404 13.4007L6.18526 11.6373L4.42191 9.87395Z" fill="var(--fill-0, #E27525)"/>
<path id="Vector_32" d="M6.24451 13.5302C6.23091 13.5303 6.21758 13.5264 6.20611 13.5191C6.19464 13.5118 6.18552 13.5014 6.17985 13.489L4.35772 9.93291C4.34656 9.92094 4.34036 9.90519 4.34036 9.88883C4.34036 9.87247 4.34656 9.85671 4.35772 9.84475C4.36427 9.83817 4.37206 9.83295 4.38063 9.82939C4.38921 9.82583 4.3984 9.824 4.40768 9.824C4.41696 9.824 4.42616 9.82583 4.43473 9.82939C4.4433 9.83295 4.45109 9.83817 4.45764 9.84475L6.221 11.6081C6.22606 11.6254 6.22606 11.6437 6.221 11.661L6.28566 13.4244C6.28514 13.4417 6.27918 13.4584 6.26863 13.4721C6.25808 13.4858 6.24347 13.4958 6.22688 13.5008L6.24451 13.5302ZM4.70451 10.268L6.16222 13.1011L6.1152 11.6904L4.70451 10.268Z" fill="var(--fill-0, #E27525)"/>
<path id="Vector_33" d="M13.7383 11.6608L13.6678 13.4242L15.4899 9.89745L13.7383 11.6608Z" fill="var(--fill-0, #E27525)"/>
<path id="Vector_34" d="M13.668 13.5301C13.6514 13.5252 13.6368 13.5151 13.6262 13.5014C13.6157 13.4877 13.6097 13.471 13.6092 13.4537L13.6797 11.6903C13.6752 11.673 13.6752 11.6548 13.6797 11.6374L15.4431 9.87409C15.4578 9.86398 15.4752 9.85856 15.4931 9.85856C15.5109 9.85856 15.5283 9.86398 15.543 9.87409C15.5526 9.88788 15.5578 9.9043 15.5578 9.92111C15.5578 9.93792 15.5526 9.95433 15.543 9.96813L13.715 13.5242C13.7006 13.5321 13.6838 13.5342 13.668 13.5301V13.5301ZM13.809 11.7197L13.7561 13.1304L15.208 10.2973L13.809 11.7197Z" fill="var(--fill-0, #E27525)"/>
<path id="Vector_35" d="M8.77171 10.0681L8.36614 12.3017L8.87752 14.935L8.99507 11.4612L8.77171 10.0681Z" fill="var(--fill-0, #E27525)"/>
<path id="Vector_36" d="M8.87784 15.0112C8.86101 15.0114 8.84464 15.0056 8.8317 14.9948C8.81877 14.984 8.81011 14.969 8.80731 14.9524L8.29594 12.3132L8.70151 10.0796C8.70431 10.063 8.71297 10.048 8.7259 10.0372C8.73884 10.0264 8.7552 10.0206 8.77204 10.0209C8.78934 10.0214 8.80604 10.0273 8.81976 10.0379C8.83347 10.0484 8.84352 10.063 8.84845 10.0796L9.06593 11.4727L8.95425 14.9641C8.9529 14.9824 8.94503 14.9995 8.93209 15.0125C8.91914 15.0254 8.90198 15.0333 8.88372 15.0347L8.87784 15.0112ZM8.44288 12.3015L8.81906 14.2823L8.90723 11.4609L8.75441 10.5087L8.44288 12.3015Z" fill="var(--fill-0, #E27525)"/>
<path id="Vector_37" d="M11.17 10.0681L10.9584 11.4553L11.0642 14.935L11.5755 12.3017L11.17 10.0681Z" fill="var(--fill-0, #E27525)"/>
<path id="Vector_38" d="M11.0345 15.0111C11.0163 15.0098 10.9991 15.0019 10.9862 14.989C10.9732 14.976 10.9654 14.9588 10.964 14.9406L10.8582 11.4609L11.0757 10.0561C11.0776 10.046 11.0817 10.0364 11.0877 10.0281C11.0937 10.0197 11.1014 10.0128 11.1104 10.0078C11.1193 10.0027 11.1293 9.9997 11.1395 9.99891C11.1498 9.99812 11.1601 9.99958 11.1697 10.0032V10.0032C11.1866 10.003 11.2029 10.0088 11.2159 10.0195C11.2288 10.0303 11.2374 10.0454 11.2403 10.062L11.6458 12.2956L11.1345 14.9347C11.1368 14.9475 11.1356 14.9607 11.1309 14.9729C11.1262 14.985 11.1183 14.9957 11.1079 15.0036C11.0976 15.0115 11.0853 15.0164 11.0723 15.0177C11.0593 15.0191 11.0463 15.0168 11.0345 15.0111ZM11.1697 10.5146L11.0228 11.4668L11.1109 14.2764L11.493 12.3014L11.1697 10.5146Z" fill="var(--fill-0, #E27525)"/>
<path id="Vector_39" d="M11.5462 12.3015L11.0348 14.9347L11.3992 15.1934L13.6681 13.43L13.7386 11.6666L11.5462 12.3015Z" fill="var(--fill-0, #F5841F)"/>
<path id="Vector_40" d="M11.3994 15.2935H11.3582L10.9879 15.0349C10.9763 15.0263 10.9673 15.0145 10.9621 15.001C10.9569 14.9874 10.9557 14.9727 10.9585 14.9585L11.4758 12.3252C11.4765 12.3117 11.4814 12.2988 11.4898 12.2883C11.4983 12.2777 11.5098 12.2701 11.5228 12.2664L13.7152 11.6257C13.7254 11.6214 13.7364 11.6191 13.7476 11.6191C13.7587 11.6191 13.7697 11.6214 13.7799 11.6257C13.7875 11.6466 13.7875 11.6695 13.7799 11.6904L13.7094 13.4537C13.7132 13.4631 13.7152 13.473 13.7152 13.4831C13.7152 13.4932 13.7132 13.5032 13.7094 13.5125L11.4405 15.2759C11.4293 15.2865 11.4147 15.2927 11.3994 15.2935V15.2935ZM11.1172 14.9291L11.3994 15.1289L13.5977 13.4185L13.6565 11.7844L11.611 12.3722L11.1172 14.9291Z" fill="var(--fill-0, #F5841F)"/>
<path id="Vector_41" d="M6.18543 11.6607L6.24421 13.4241L8.51306 15.1874L8.87749 14.9288L8.36612 12.2955L6.18543 11.6607Z" fill="var(--fill-0, #F5841F)"/>
<path id="Vector_42" d="M8.51283 15.2934C8.49754 15.2984 8.48109 15.2984 8.4658 15.2934L6.19695 13.5301C6.1914 13.5109 6.1914 13.4905 6.19695 13.4713L6.1323 11.7079C6.12466 11.6871 6.12466 11.6642 6.1323 11.6433C6.14252 11.6389 6.15351 11.6367 6.16463 11.6367C6.17574 11.6367 6.18673 11.6389 6.19695 11.6433L8.38351 12.284C8.39685 12.288 8.40884 12.2956 8.41816 12.306C8.42748 12.3163 8.4338 12.3291 8.43642 12.3428L8.94779 14.976C8.95064 14.9902 8.9494 15.005 8.94419 15.0185C8.93899 15.032 8.93004 15.0438 8.9184 15.0524L8.54809 15.3111L8.51283 15.2934ZM6.31451 13.4184L8.51283 15.1289L8.80084 14.929L8.3071 12.3545L6.26161 11.7667L6.31451 13.4184Z" fill="var(--fill-0, #F5841F)"/>
<path id="Vector_43" d="M11.5925 17.6446V16.9216L11.3985 16.7511H8.4596L8.27151 16.9216V17.6446L5.87922 16.469L6.73151 17.1685L8.49487 18.3441H11.4691L13.2324 17.1685L14.0259 16.469L11.5925 17.6446Z" fill="var(--fill-0, #C0AC9D)"/>
<path id="Vector_44" d="M11.4407 18.4381H8.46647H8.42533L6.69136 17.2625L5.83319 16.5572C5.82162 16.5442 5.81523 16.5275 5.81523 16.5101C5.81523 16.4928 5.82162 16.4761 5.83319 16.4631C5.8436 16.4487 5.85838 16.4381 5.87533 16.4328C5.89228 16.4275 5.91049 16.4278 5.92724 16.4337L8.27838 17.5446V16.9569C8.27898 16.9456 8.2819 16.9345 8.28695 16.9244C8.29201 16.9143 8.2991 16.9053 8.30777 16.8981L8.49586 16.7335C8.51098 16.7276 8.52776 16.7276 8.54288 16.7335H11.4818C11.4969 16.7276 11.5137 16.7276 11.5288 16.7335L11.7287 16.8981C11.7354 16.9171 11.7354 16.9378 11.7287 16.9569V17.5446L14.0798 16.4337C14.0966 16.4287 14.1146 16.4288 14.1313 16.4341C14.1481 16.4393 14.1629 16.4494 14.1739 16.4631C14.1854 16.4761 14.1918 16.4928 14.1918 16.5101C14.1918 16.5275 14.1854 16.5442 14.1739 16.5572L13.3275 17.2625L11.5641 18.4381H11.4407ZM8.50174 18.2911H11.4407L13.1629 17.1156L13.5508 16.7923L11.6464 17.6975C11.6362 17.7051 11.6238 17.7092 11.6111 17.7092C11.5984 17.7092 11.586 17.7051 11.5759 17.6975C11.5641 17.6916 11.5544 17.6822 11.5481 17.6707C11.5418 17.6591 11.5392 17.6459 11.5406 17.6328V16.9451L11.3878 16.8217H8.52525L8.38418 16.9451V17.6328C8.38558 17.6459 8.38296 17.6591 8.37665 17.6707C8.37035 17.6822 8.36067 17.6916 8.34891 17.6975C8.33874 17.7051 8.32637 17.7092 8.31365 17.7092C8.30093 17.7092 8.28855 17.7051 8.27838 17.6975L6.37983 16.7982L6.76777 17.1156L8.50174 18.2911Z" fill="var(--fill-0, #C0AC9D)"/>
<g id="Vector_45">
<path d="M8.36612 12.3017L6.18543 11.661L7.72543 10.9557L8.36612 12.3017Z" fill="#161616"/>
<path d="M11.5457 12.3017L12.1864 10.9557L13.7381 11.661L11.5457 12.3017Z" fill="#161616"/>
<path d="M11.3987 15.1936L11.0343 14.935H8.87709L8.51266 15.1936L8.30693 16.904L8.49503 16.7336H11.434L11.6279 16.904L11.3987 15.1936Z" fill="#161616"/>
</g>
<path id="Vector_46" d="M8.30751 16.9743H8.27225C8.26003 16.9659 8.25031 16.9544 8.24411 16.941C8.2379 16.9275 8.23544 16.9126 8.23698 16.8979L8.4427 15.1933C8.44292 15.1828 8.4457 15.1725 8.45083 15.1632C8.45595 15.154 8.46325 15.1462 8.47209 15.1404L8.83652 14.8818H8.87767H11.0348H11.076L11.4404 15.1404C11.4493 15.1462 11.4566 15.154 11.4617 15.1632C11.4668 15.1725 11.4696 15.1828 11.4698 15.1933L11.6873 16.8979C11.6876 16.9131 11.684 16.9281 11.6768 16.9415C11.6695 16.9549 11.659 16.9662 11.6461 16.9743C11.6341 16.9829 11.6198 16.9876 11.605 16.9876C11.5902 16.9876 11.5758 16.9829 11.5638 16.9743L11.3875 16.8274H8.52499L8.35454 16.9743C8.33942 16.9802 8.32263 16.9802 8.30751 16.9743V16.9743ZM8.4956 16.6628H11.4345C11.4497 16.6569 11.4664 16.6569 11.4816 16.6628L11.5345 16.7039L11.3464 15.2169L11.029 14.9935H8.90118L8.58377 15.2169L8.40156 16.7039L8.44858 16.6628C8.4637 16.6569 8.48049 16.6569 8.4956 16.6628V16.6628Z" fill="var(--fill-0, #161616)"/>
<path id="Vector_47" d="M19.1872 6.17121L19.8396 3.01481L18.858 0.0758766L11.399 5.60694L14.2733 8.02862L18.3232 9.20419L19.2166 8.15793L18.811 7.88167L19.3988 7.29389L18.9286 6.92358L19.5164 6.45335L19.1872 6.17121Z" fill="var(--fill-0, #763E1A)"/>
<path id="Vector_48" d="M18.3227 9.28041L14.267 8.10484L11.3516 5.66553C11.3443 5.6466 11.3443 5.62567 11.3516 5.60675C11.3513 5.5953 11.3539 5.58397 11.359 5.57373C11.3641 5.56349 11.3716 5.55465 11.3809 5.54797L18.8106 0.0110274C18.8198 0.00387806 18.8312 0 18.8429 0C18.8546 0 18.866 0.00387806 18.8752 0.0110274C18.8866 0.0138713 18.8969 0.019748 18.9052 0.0280301C18.9135 0.0363121 18.9194 0.0466882 18.9222 0.0580503L19.898 2.99698C19.9007 3.00857 19.9007 3.02065 19.898 3.03225L19.2573 6.14163L19.6276 6.42377C19.6373 6.4302 19.6452 6.43894 19.6507 6.4492C19.6562 6.45945 19.6591 6.47091 19.6591 6.48255C19.6591 6.49419 19.6562 6.50565 19.6507 6.5159C19.6452 6.52616 19.6373 6.53489 19.6276 6.54133L19.0809 6.95278L19.4806 7.2643C19.4895 7.27006 19.4968 7.27788 19.5019 7.2871C19.507 7.29632 19.5098 7.30666 19.51 7.31721C19.5156 7.33641 19.5156 7.35678 19.51 7.37598L18.9575 7.8756L19.2749 8.10484C19.2812 8.12191 19.2812 8.14067 19.2749 8.15774C19.2807 8.17489 19.2807 8.19349 19.2749 8.21064L18.3815 9.2569C18.3739 9.26479 18.3648 9.27097 18.3546 9.27503C18.3445 9.27908 18.3336 9.28092 18.3227 9.28041V9.28041ZM14.3081 7.96377L18.2992 9.13934L19.1103 8.19301L18.8106 7.94614C18.8019 7.93888 18.7948 7.92992 18.7897 7.91981C18.7847 7.90969 18.7818 7.89865 18.7812 7.88736C18.776 7.87842 18.7733 7.86829 18.7733 7.85797C18.7733 7.84765 18.776 7.83751 18.7812 7.82858L19.3337 7.32308L18.9281 7.01156C18.9188 7.00488 18.9113 6.99604 18.9062 6.9858C18.901 6.97556 18.8985 6.96423 18.8987 6.95278C18.8993 6.94149 18.9022 6.93044 18.9073 6.92033C18.9124 6.91021 18.9194 6.90125 18.9281 6.894L19.4748 6.48255L19.1456 6.2298C19.1389 6.21819 19.1354 6.20501 19.1354 6.1916C19.1354 6.17818 19.1389 6.16501 19.1456 6.15339L19.7922 3.02049L18.8106 0.204997L11.5161 5.61263L14.3081 7.96377Z" fill="var(--fill-0, #763E1A)"/>
<path id="Vector_49" d="M0.0772268 3.01385L0.729669 6.17026L0.312341 6.47591L0.935394 6.94614L0.465165 7.31644L1.08234 7.90423L0.694402 8.18637L1.58784 9.20912L5.64356 8.03354L8.51195 5.61187L1.05295 0.0866776L0.0772268 3.01385Z" fill="var(--fill-0, #763E1A)"/>
<path id="Vector_50" d="M1.58908 9.28105C1.57977 9.28493 1.56978 9.28693 1.55969 9.28693C1.54961 9.28693 1.53962 9.28493 1.53031 9.28105L0.636871 8.24067C0.631049 8.22352 0.631049 8.20492 0.636871 8.18777C0.641612 8.16777 0.651782 8.14946 0.66626 8.13487L0.983665 7.90563L0.413512 7.37663C0.407961 7.35743 0.407961 7.33705 0.413512 7.31785C0.409783 7.30953 0.407855 7.30052 0.407855 7.2914C0.407855 7.28228 0.409783 7.27327 0.413512 7.26495L0.813207 6.95342L0.260688 6.54197C0.250989 6.53554 0.243032 6.5268 0.237528 6.51655C0.232024 6.50629 0.229143 6.49483 0.229143 6.48319C0.229143 6.47155 0.232024 6.46009 0.237528 6.44984C0.243032 6.43958 0.250989 6.43085 0.260688 6.42441L0.642749 6.14228L0.00206248 3.03289C-0.000687492 3.0213 -0.000687492 3.00922 0.00206248 2.99762L0.977787 0.0586943C0.981079 0.0465622 0.987836 0.0356529 0.997231 0.0273014C1.00663 0.0189498 1.01825 0.0135183 1.03069 0.0116714C1.03995 0.00452202 1.05132 0.000643965 1.06302 0.000643965C1.07471 0.000643965 1.08608 0.00452202 1.09534 0.0116714L8.55434 5.54861C8.56439 5.55499 8.57282 5.56362 8.57894 5.57383C8.58506 5.58403 8.58872 5.59553 8.58961 5.60739C8.59589 5.62648 8.59589 5.64708 8.58961 5.66617L5.69183 8.08785L1.63611 9.26342L1.58908 9.28105ZM0.801451 8.18189L1.6126 9.12823L5.60954 7.95266L8.39564 5.60151L1.08947 0.205641L0.149009 3.02113L0.801451 6.15403C0.808791 6.16542 0.812695 6.17869 0.812695 6.19224C0.812695 6.20579 0.808791 6.21905 0.801451 6.23044L0.437024 6.47731L0.983665 6.88876C0.992339 6.89602 0.999425 6.90498 1.00448 6.91509C1.00954 6.92521 1.01246 6.93625 1.01305 6.94754C1.01329 6.95899 1.01074 6.97032 1.00562 6.98056C1.0005 6.99081 0.992966 6.99965 0.983665 7.00632L0.589848 7.32373L1.14237 7.82922C1.14753 7.83816 1.15024 7.84829 1.15024 7.85861C1.15024 7.86893 1.14753 7.87906 1.14237 7.888C1.14177 7.89929 1.13885 7.91034 1.13379 7.92045C1.12874 7.93056 1.12165 7.93953 1.11298 7.94678L0.801451 8.18189Z" fill="var(--fill-0, #763E1A)"/>
<path id="Vector_51" d="M18.323 9.21012L14.2732 8.03455L15.4899 9.8802L13.6678 13.4069H16.0777H19.6867L18.323 9.21012Z" fill="var(--fill-0, #F5841F)"/>
<path id="Vector_52" d="M13.6679 13.53C13.6551 13.5296 13.6426 13.5262 13.6314 13.52C13.6202 13.5139 13.6105 13.5053 13.6032 13.4948C13.5976 13.4839 13.5946 13.4718 13.5946 13.4595C13.5946 13.4472 13.5976 13.4351 13.6032 13.4242L15.4077 9.89752L14.2322 8.09302C14.2236 8.08103 14.2189 8.06664 14.2189 8.05187C14.2189 8.03711 14.2236 8.02272 14.2322 8.01073C14.2412 7.998 14.254 7.98837 14.2687 7.98311C14.2834 7.97786 14.2994 7.97724 14.3145 7.98134L18.3702 9.15691C18.3815 9.15975 18.3919 9.16563 18.4002 9.17391C18.4085 9.18219 18.4144 9.19257 18.4172 9.20393L19.7809 13.3948C19.7848 13.4058 19.7859 13.4176 19.7841 13.4291C19.7824 13.4406 19.7778 13.4515 19.7708 13.4608C19.7638 13.4701 19.7547 13.4775 19.7441 13.4824C19.7336 13.4873 19.7219 13.4896 19.7103 13.4889H16.0778L13.6679 13.5183V13.53ZM14.4438 8.18706L15.5547 9.86225C15.5603 9.87314 15.5633 9.88524 15.5633 9.89752C15.5633 9.9098 15.5603 9.92189 15.5547 9.93279L13.7913 13.3831L16.0778 13.3537H19.6045L18.2938 9.29798L14.4438 8.18706Z" fill="var(--fill-0, #F5841F)"/>
<path id="Vector_53" d="M5.64498 8.02861L1.58926 9.20418L0.237351 13.401H3.8346H6.24452L4.42239 9.87426L5.64498 8.02861Z" fill="var(--fill-0, #F5841F)"/>
<path id="Vector_54" d="M6.24392 13.5301L3.834 13.5007H0.236746C0.227525 13.505 0.2175 13.5072 0.207356 13.5072C0.197213 13.5072 0.187188 13.505 0.177967 13.5007C0.172292 13.4909 0.169305 13.4798 0.169305 13.4684C0.169305 13.4571 0.172292 13.4459 0.177967 13.4361L1.52987 9.24518C1.53272 9.23382 1.5386 9.22344 1.54688 9.21516C1.55516 9.20688 1.56554 9.201 1.5769 9.19816L5.63262 8.02258C5.64764 8.01752 5.66393 8.01767 5.67886 8.023C5.69379 8.02833 5.70649 8.03854 5.71491 8.05197C5.72352 8.06396 5.72815 8.07836 5.72815 8.09312C5.72815 8.10788 5.72352 8.12227 5.71491 8.13426L4.53934 9.93877L6.34384 13.4655C6.34951 13.4764 6.35247 13.4885 6.35247 13.5007C6.35247 13.513 6.34951 13.5251 6.34384 13.536C6.33735 13.5431 6.32938 13.5486 6.3205 13.5522C6.31162 13.5558 6.30205 13.5573 6.29249 13.5568C6.28292 13.5562 6.27361 13.5535 6.26521 13.5489C6.25681 13.5443 6.24954 13.5379 6.24392 13.5301V13.5301ZM0.366059 13.3538H3.834L6.12636 13.3832L4.363 9.93289C4.35734 9.922 4.35438 9.9099 4.35438 9.89762C4.35438 9.88534 4.35734 9.87325 4.363 9.86235L5.46804 8.15777L1.64743 9.26869L0.366059 13.3538Z" fill="var(--fill-0, #F5841F)"/>
<path id="Vector_55" d="M11.17 10.0682L11.4286 5.60696L12.6042 2.43291H7.33762L8.51319 5.60696L8.77182 10.0682L8.87174 11.4731V14.9351H11.0289V11.4731L11.17 10.0682Z" fill="var(--fill-0, #F5841F)"/>
<path id="Vector_56" d="M11.0341 15.0113H8.87696C8.86718 15.0113 8.8575 15.0093 8.84853 15.0054C8.83957 15.0015 8.83151 14.9958 8.82488 14.9886C8.81825 14.9814 8.81318 14.973 8.81 14.9637C8.80683 14.9545 8.80561 14.9446 8.80642 14.9349V11.4728L8.7065 10.0739L8.44787 5.62438L7.2723 2.45621C7.26883 2.43522 7.27362 2.4137 7.28568 2.39616C7.29773 2.37862 7.31611 2.36644 7.33696 2.36217H12.5741C12.5856 2.36353 12.5966 2.36728 12.6065 2.37318C12.6164 2.37909 12.625 2.387 12.6316 2.39643C12.6383 2.40585 12.6429 2.41656 12.6451 2.42787C12.6474 2.43919 12.6472 2.45084 12.6447 2.46209L11.4691 5.63026L11.2105 10.0798L11.1105 11.4846V14.9408C11.1106 14.9506 11.1086 14.9602 11.1047 14.9692C11.1008 14.9782 11.095 14.9862 11.0878 14.9929C11.0807 14.9995 11.0722 15.0046 11.0629 15.0077C11.0537 15.0109 11.0439 15.0121 11.0341 15.0113V15.0113ZM8.95337 14.8644H10.9577V11.4728L11.0518 10.068L11.3163 5.60087L12.4566 2.52087H7.44276L8.58306 5.58323L8.84169 10.0504L8.94161 11.4493L8.95337 14.8644Z" fill="var(--fill-0, #F5841F)"/>
</g>
</svg>
