<svg preserveAspectRatio="none" width="100%" height="100%" overflow="visible" style="display: block;" viewBox="0 0 42.9676 47.7866" fill="none" xmlns="http://www.w3.org/2000/svg">
<g id="Round">
<g id="Ellipse 19" opacity="0.5" filter="url(#filter0_f_35581_36058)">
<circle cx="21.7249" cy="4.97985" r="1.44835" fill="url(#paint0_radial_35581_36058)"/>
</g>
<path id="Ellipse 14 (Stroke)" fill-rule="evenodd" clip-rule="evenodd" d="M21.4838 47.3038C33.0823 47.3038 42.4848 37.9013 42.4848 26.3028C42.4848 14.7043 33.0823 5.30179 21.4838 5.30179C9.88525 5.30179 0.482782 14.7043 0.482782 26.3028C0.482782 37.9013 9.88525 47.3038 21.4838 47.3038ZM21.4838 47.7866C33.349 47.7866 42.9676 38.168 42.9676 26.3028C42.9676 14.4376 33.349 4.81901 21.4838 4.81901C9.61862 4.81901 0 14.4376 0 26.3028C0 38.168 9.61862 47.7866 21.4838 47.7866Z" fill="url(#paint1_linear_35581_36058)"/>
<g id="Star 31" filter="url(#filter1_f_35581_36058)">
<path d="M21.7249 2.56588L21.9319 4.85429L23.9778 5.08588L21.9319 5.31747L21.7249 7.60588L21.5178 5.31747L19.4719 5.08588L21.5178 4.85429L21.7249 2.56588Z" fill="var(--fill-0, #EABE56)"/>
</g>
</g>
<defs>
<filter id="filter0_f_35581_36058" x="16.7451" y="0" width="9.9597" height="9.9597" filterUnits="userSpaceOnUse" color-interpolation-filters="sRGB">
<feFlood flood-opacity="0" result="BackgroundImageFix"/>
<feBlend mode="normal" in="SourceGraphic" in2="BackgroundImageFix" result="shape"/>
<feGaussianBlur stdDeviation="1.76575" result="effect1_foregroundBlur_35581_36058"/>
</filter>
<filter id="filter1_f_35581_36058" x="19.3622" y="2.45616" width="4.72541" height="5.25945" filterUnits="userSpaceOnUse" color-interpolation-filters="sRGB">
<feFlood flood-opacity="0" result="BackgroundImageFix"/>
<feBlend mode="normal" in="SourceGraphic" in2="BackgroundImageFix" result="shape"/>
<feGaussianBlur stdDeviation="0.0548616" result="effect1_foregroundBlur_35581_36058"/>
</filter>
<radialGradient id="paint0_radial_35581_36058" cx="0" cy="0" r="1" gradientUnits="userSpaceOnUse" gradientTransform="translate(21.7249 4.97985) rotate(90) scale(2.31735)">
<stop stop-color="#E7ECFF"/>
<stop offset="0.979167" stop-color="#ABC3FF" stop-opacity="0.8825"/>
<stop offset="1" stop-color="#AACCFF" stop-opacity="0.88"/>
</radialGradient>
<linearGradient id="paint1_linear_35581_36058" x1="21.5643" y1="5.0604" x2="21.5643" y2="39.4988" gradientUnits="userSpaceOnUse">
<stop stop-color="#FAE490"/>
<stop offset="0.0722622" stop-color="#FAE490" stop-opacity="0.33"/>
<stop offset="1" stop-color="#FAE490" stop-opacity="0"/>
</linearGradient>
</defs>
</svg>
