<svg preserveAspectRatio="none" width="100%" height="100%" overflow="visible" style="display: block;" viewBox="0 0 16 12.9434" fill="none" xmlns="http://www.w3.org/2000/svg">
<path id="Vector" d="M16 5.97391C16 4.87572 15.1069 3.98262 14.0087 3.98262C13.5696 3.98262 13.1525 4.126 12.8119 4.38586C11.7008 3.61424 10.2452 3.15425 8.69695 3.03776L9.5323 1.07833L11.9627 1.64585C12.0403 2.39756 12.6696 2.98698 13.4412 2.98698C14.2646 2.98698 14.9347 2.31691 14.9347 1.49351C14.9347 0.670117 14.2646 4.88676e-05 13.4412 4.88676e-05C12.9195 4.88676e-05 12.4605 0.269868 12.1937 0.677087L9.35308 0.0129923C9.11214 -0.0417682 8.87617 0.080696 8.78059 0.302725L7.62564 3.01088C5.95395 3.06862 4.36092 3.53956 3.15818 4.35997C2.83062 4.11704 2.42439 3.98262 1.99129 3.98262C0.893093 3.98262 0 4.87572 0 5.97391C0 6.70173 0.397262 7.35985 1.0066 7.69737C0.998631 7.78499 0.995644 7.8746 0.995644 7.9652C0.995644 10.7102 4.12197 12.9434 7.96515 12.9434C11.8073 12.9434 14.9347 10.7102 14.9347 7.9652C14.9347 7.88754 14.9317 7.81087 14.9267 7.73421C15.5759 7.40366 16 6.72961 16 5.97391ZM13.4412 0.995693C13.715 0.995693 13.939 1.21872 13.939 1.49351C13.939 1.76831 13.715 1.99134 13.4412 1.99134C13.1674 1.99134 12.9434 1.76831 12.9434 1.49351C12.9434 1.21872 13.1674 0.995693 13.4412 0.995693ZM4.4804 7.46738C4.4804 6.91878 4.92744 6.47173 5.47604 6.47173C6.02464 6.47173 6.47169 6.91878 6.47169 7.46738C6.47169 8.01697 6.02464 8.46302 5.47604 8.46302C4.92744 8.46302 4.4804 8.01697 4.4804 7.46738ZM10.2641 10.7699C9.5771 11.2668 8.77063 11.5157 7.96515 11.5157C7.15968 11.5157 6.35321 11.2668 5.66621 10.7699C5.44319 10.6086 5.3934 10.297 5.5547 10.075C5.71599 9.85294 6.02763 9.80316 6.24966 9.96346C7.27617 10.7052 8.65414 10.7072 9.68065 9.96346C9.90268 9.80316 10.2133 9.85095 10.3756 10.075C10.5369 10.298 10.4861 10.6086 10.2641 10.7699ZM10.4543 8.46302C9.90467 8.46302 9.45862 8.01697 9.45862 7.46738C9.45862 6.91878 9.90467 6.47173 10.4543 6.47173C11.0039 6.47173 11.4499 6.91878 11.4499 7.46738C11.4499 8.01697 11.0039 8.46302 10.4543 8.46302Z" fill="var(--fill-0, white)"/>
</svg>
