<svg preserveAspectRatio="none" width="100%" height="100%" overflow="visible" style="display: block;" viewBox="0 0 5.71709 4.83671" fill="none" xmlns="http://www.w3.org/2000/svg">
<g id="Group 1321314919">
<path id="Oval 5" opacity="0.75" d="M1.14562 2.2854C1.14562 1.96905 0.889164 1.71259 0.57281 1.71259C0.256456 1.71259 0 1.96905 0 2.2854H0.57281H1.14562ZM1.42557 4.75926C1.6992 4.91803 2.04973 4.82492 2.2085 4.55129C2.36727 4.27766 2.27415 3.92713 2.00053 3.76836L1.71305 4.26381L1.42557 4.75926ZM3.77981 3.7299C3.5133 3.90035 3.43543 4.25457 3.60588 4.52108C3.77633 4.78759 4.13055 4.86546 4.39706 4.69501L4.08843 4.21245L3.77981 3.7299ZM5.71709 2.28549C5.71709 1.96913 5.46063 1.71268 5.14428 1.71268C4.82792 1.71268 4.57147 1.96913 4.57147 2.28549H5.14428H5.71709ZM0.57281 2.2854H0C0 3.34282 0.574458 4.26541 1.42557 4.75926L1.71305 4.26381L2.00053 3.76836C1.48812 3.47105 1.14562 2.91789 1.14562 2.2854H0.57281ZM4.08843 4.21245L4.39706 4.69501C5.18963 4.18811 5.71709 3.29858 5.71709 2.28549H5.14428H4.57147C4.57147 2.89159 4.2571 3.42464 3.77981 3.7299L4.08843 4.21245Z" fill="var(--stroke-0, white)"/>
<path id="Oval 5_2" fill-rule="evenodd" clip-rule="evenodd" d="M2.85863 3.42857C3.48982 3.42857 4.00149 2.66106 4.00149 1.71429C4.00149 0.767512 3.48982 0 2.85863 0C2.22745 0 1.71578 0.767512 1.71578 1.71429C1.71578 2.66106 2.22745 3.42857 2.85863 3.42857Z" fill="var(--fill-0, white)" fill-opacity="0.5"/>
</g>
</svg>
