<svg preserveAspectRatio="none" width="100%" height="100%" overflow="visible" style="display: block;" viewBox="0 0 16.6667 16.6667" fill="none" xmlns="http://www.w3.org/2000/svg">
<path id="Subtract" fill-rule="evenodd" clip-rule="evenodd" d="M8.33333 16.6667C12.9357 16.6667 16.6667 12.9357 16.6667 8.33333C16.6667 3.73096 12.9357 0 8.33333 0C3.73096 0 0 3.73096 0 8.33333C0 12.9357 3.73096 16.6667 8.33333 16.6667ZM8.95833 3.33333C8.95833 2.98816 8.67851 2.70833 8.33333 2.70833C7.98816 2.70833 7.70833 2.98816 7.70833 3.33333V3.59728C6.34964 3.84056 5.20833 4.86134 5.20833 6.25C5.20833 7.84763 6.71898 8.95833 8.33333 8.95833C9.4804 8.95833 10.2083 9.71311 10.2083 10.4167C10.2083 11.1202 9.4804 11.875 8.33333 11.875C7.18626 11.875 6.45833 11.1202 6.45833 10.4167C6.45833 10.0715 6.17851 9.79167 5.83333 9.79167C5.48816 9.79167 5.20833 10.0715 5.20833 10.4167C5.20833 11.8053 6.34964 12.8261 7.70833 13.0694V13.3333C7.70833 13.6785 7.98816 13.9583 8.33333 13.9583C8.67851 13.9583 8.95833 13.6785 8.95833 13.3333V13.0694C10.317 12.8261 11.4583 11.8053 11.4583 10.4167C11.4583 8.81904 9.94769 7.70833 8.33333 7.70833C7.18626 7.70833 6.45833 6.95356 6.45833 6.25C6.45833 5.54644 7.18626 4.79167 8.33333 4.79167C9.4804 4.79167 10.2083 5.54644 10.2083 6.25C10.2083 6.59518 10.4882 6.875 10.8333 6.875C11.1785 6.875 11.4583 6.59518 11.4583 6.25C11.4583 4.86134 10.317 3.84056 8.95833 3.59728V3.33333Z" fill="var(--fill-0, white)" fill-opacity="0.5"/>
</svg>
