<svg preserveAspectRatio="none" width="100%" height="100%" overflow="visible" style="display: block;" viewBox="0 0 5.625 5.625" fill="none" xmlns="http://www.w3.org/2000/svg">
<path id="Vector" d="M5.0625 2.25H3.375V0.5625C3.375 0.255 3.12 0 2.8125 0C2.505 0 2.25 0.255 2.25 0.5625V2.25H0.5625C0.255 2.25 0 2.505 0 2.8125C0 3.12 0.255 3.375 0.5625 3.375H2.25V5.0625C2.25 5.37 2.505 5.625 2.8125 5.625C3.12 5.625 3.375 5.37 3.375 5.0625V3.375H5.0625C5.37 3.375 5.625 3.12 5.625 2.8125C5.625 2.505 5.37 2.25 5.0625 2.25Z" fill="var(--fill-0, white)" fill-opacity="0.5"/>
</svg>
