<svg preserveAspectRatio="none" width="100%" height="100%" overflow="visible" style="display: block;" viewBox="0 0 16 9.08671" fill="none" xmlns="http://www.w3.org/2000/svg">
<g id="Vector">
<path d="M9.02478 4.54336C9.02478 7.05259 7.00445 9.08671 4.51239 9.08671C2.02033 9.08671 0 7.05259 0 4.54336C0 2.03412 2.02033 0 4.51239 0C7.00445 0 9.02478 2.03412 9.02478 4.54336Z" fill="white"/>
<path d="M13.975 4.5434C13.975 6.90546 12.9649 8.82015 11.7188 8.82015C10.4727 8.82015 9.46251 6.90531 9.46251 4.5434C9.46251 2.1815 10.4728 0.266654 11.7189 0.266654C12.9649 0.266654 13.975 2.18135 13.975 4.5434Z" fill="white"/>
<path d="M16 4.5434C16 6.6597 15.6448 8.37525 15.2065 8.37525C14.7682 8.37525 14.4129 6.6597 14.4129 4.5434C14.4129 2.4271 14.7682 0.711553 15.2065 0.711553C15.6448 0.711553 16 2.4271 16 4.5434Z" fill="white"/>
</g>
</svg>
