<svg preserveAspectRatio="none" width="100%" height="100%" overflow="visible" style="display: block;" viewBox="0 0 16 16" fill="none" xmlns="http://www.w3.org/2000/svg">
<path id="Vector" d="M7.6435 4.9785L6.76402 2.62912C6.7581 2.60627 6.7581 2.58229 6.76402 2.55944H3.44599L1.84694 5.10792C1.82915 5.13882 1.80537 5.16589 1.77698 5.18756L2.83635 8.44284H2.99626L5.99448 8.74149H6.06444L7.8134 5.21742C7.73604 5.15462 7.67731 5.07203 7.6435 4.9785V4.9785ZM3.52594 1.992H6.86396C6.92224 1.92517 6.99368 1.87096 7.07384 1.83272L9.42244 0.658035V0.13042C8.37344 -0.0620307 7.29621 -0.0413055 6.25545 0.191351C5.21469 0.424008 4.23188 0.863795 3.36604 1.4843L3.52594 1.992ZM1.33724 4.82918L2.99626 2.22097C3.00152 2.21189 3.00429 2.20159 3.00429 2.1911C3.00429 2.18062 3.00152 2.17032 2.99626 2.16124L2.89632 1.84268L2.79638 1.92232L2.64647 2.06169L2.37663 2.31056L2.23671 2.44993C2.13677 2.54948 2.04682 2.65899 1.95688 2.75854L1.86693 2.86804C1.74518 3.00385 1.63172 3.14679 1.52713 3.29611L1.44718 3.40561C1.36723 3.52507 1.28727 3.64453 1.21732 3.76399L1.11737 3.92327C1.04976 4.02845 0.989653 4.13822 0.937481 4.25179L0.837541 4.43098L0.677636 4.76945C0.647653 4.82918 0.617671 4.87895 0.597683 4.9785L1.32725 4.83913L1.33724 4.82918ZM8.13321 11.947H11.811L13.3901 9.10983L11.6811 5.71517H11.6111L8.35308 5.41652L6.56414 9.11978L8.09323 11.8574L8.13321 11.947ZM12.5506 1.85263L12.9903 1.74313C12.1072 1.04349 11.0854 0.537981 9.9921 0.259835V0.58835H10.0821L12.5506 1.85263ZM7.29371 2.43002L8.18318 4.78936C8.18931 4.80124 8.19778 4.81177 8.20808 4.82032C8.21838 4.82887 8.23031 4.83527 8.24314 4.83913L11.6611 5.14774C11.6793 5.14831 11.6971 5.14271 11.7116 5.13185C11.7261 5.12099 11.7365 5.10553 11.7411 5.08801L12.3307 2.43998C12.3389 2.42829 12.3433 2.4144 12.3433 2.40016C12.3433 2.38592 12.3389 2.37202 12.3307 2.36034L9.8322 1.12592H9.76224L7.33368 2.34043C7.33368 2.34043 7.33368 2.34043 7.33368 2.43002H7.29371ZM13.9897 9.32884C13.9897 9.32884 13.9897 9.32884 13.9298 9.32884L12.3207 12.2257V12.2755L12.8704 14.2068H12.9204L13.0503 14.0973L13.2302 13.9579L13.3501 13.8484L13.52 13.6891L13.6399 13.5796L13.7998 13.4104L13.9098 13.2909C13.9681 13.2394 14.0216 13.1828 14.0697 13.1217L14.1696 13.0022L14.3195 12.823L14.4095 12.6936L14.5594 12.5045L14.6393 12.385L14.7793 12.166L14.8492 12.0565C14.9084 11.9671 14.9618 11.874 15.0091 11.7778V11.718L15.189 11.3796C15.1874 11.3464 15.1874 11.3132 15.189 11.28L15.3089 11.0212L15.3689 10.8818C15.3689 10.8121 15.4189 10.7424 15.4489 10.6628L15.5088 10.5135C15.5088 10.4438 15.5088 10.3741 15.5788 10.2945C15.6487 10.2148 15.5788 10.185 15.5788 10.1352L15.6388 9.92614V9.7569L15.6887 9.54785V9.36866V9.26911H13.9897V9.32884ZM2.26669 8.9605C2.27814 8.87973 2.3053 8.80195 2.34664 8.73154L1.22731 5.44639L0.357826 5.61562C0.0322749 6.66278 -0.0727387 7.76561 0.0493598 8.85507C0.171458 9.94452 0.51804 10.9971 1.0674 11.947V11.947L1.99685 11.6484L2.26669 8.9605ZM13.8998 2.59926C13.7898 2.4798 13.6799 2.37029 13.56 2.26079L13.48 2.18115L12.9004 2.37029C12.9103 2.43296 12.9103 2.49678 12.9004 2.55944L12.3107 5.20747C12.2906 5.29367 12.2532 5.37494 12.2008 5.44639L13.8698 8.77136H15.9885C16.0038 8.50279 16.0038 8.23357 15.9885 7.965C15.9881 5.97961 15.2432 4.06597 13.8998 2.59926V2.59926ZM11.7211 12.5543H8.06325C8.02695 12.6214 7.97566 12.6793 7.91334 12.7235L5.51476 14.5154L5.42482 14.5751V15.5706L5.67467 15.6602C6.78798 15.995 7.9612 16.0838 9.11251 15.9204C10.2638 15.7571 11.3655 15.3455 12.3407 14.7145V14.6349L11.7211 12.5543ZM7.59353 12.1361L5.99448 9.34875C5.98536 9.34351 5.97502 9.34075 5.9645 9.34075C5.95397 9.34075 5.94363 9.34351 5.93451 9.34875L2.91631 8.9605C2.89849 8.96261 2.8819 8.97063 2.86921 8.98327C2.85652 8.99591 2.84847 9.01244 2.84635 9.03019L2.54653 11.718C2.54097 11.7376 2.54097 11.7582 2.54653 11.7778L5.06503 13.9778C5.07982 13.9877 5.09721 13.9929 5.115 13.9929C5.13279 13.9929 5.15018 13.9877 5.16497 13.9778L7.56355 12.1859C7.57257 12.1727 7.57739 12.1571 7.57739 12.1411C7.57739 12.1251 7.57257 12.1095 7.56355 12.0963L7.59353 12.1361ZM2.18674 12.2457V12.1959L1.45717 12.4746C2.31309 13.7198 3.50978 14.6941 4.90513 15.2819V14.5353C4.84884 14.5175 4.79751 14.4868 4.75521 14.4457L2.18674 12.2457Z" fill="var(--fill-0, white)"/>
</svg>
