<svg preserveAspectRatio="none" width="100%" height="100%" overflow="visible" style="display: block;" viewBox="0 0 12.0118 10.6609" fill="none" xmlns="http://www.w3.org/2000/svg">
<g id="Group 1321315004">
<path id="Vector" d="M3.01462 10.6609H0.994912C0.570509 10.6609 0.360876 10.6609 0.233039 10.5791C0.0949945 10.4897 0.0106152 10.3413 0.000392601 10.1777C-0.00727826 10.0269 0.0975466 9.84278 0.30718 9.47464L5.29409 0.684523C5.50629 0.311265 5.61366 0.124628 5.74917 0.0556059C5.89489 -0.0185353 6.06873 -0.0185353 6.21446 0.0556059C6.34997 0.124628 6.45735 0.311265 6.66953 0.684523L7.69474 2.47415C7.92738 2.88064 8.04498 3.08517 8.09612 3.29993C8.15236 3.53257 8.15236 3.77801 8.09612 4.01065C8.04498 4.22541 7.92993 4.42994 7.69729 4.83643L5.07778 9.46697C4.84258 9.87858 4.72498 10.0857 4.56136 10.2415C4.38495 10.4103 4.17276 10.533 3.9401 10.6021C3.72791 10.6609 3.49015 10.6609 3.01462 10.6609Z" fill="var(--fill-0, #E84142)"/>
<path id="Vector_2" d="M11.0093 10.6607H8.11516C7.68821 10.6607 7.47345 10.6607 7.34818 10.579C7.21012 10.4895 7.12576 10.3385 7.11554 10.175C7.10787 10.0241 7.21524 9.84008 7.43 9.46937L8.8744 6.98948C9.08668 6.62389 9.19408 6.44237 9.32699 6.37333C9.47273 6.29919 9.64399 6.29919 9.78974 6.37333C9.92531 6.44237 10.03 6.62389 10.2448 6.98693L11.6945 9.46682C11.9091 9.83753 12.0191 10.0216 12.0115 10.1724C12.0038 10.336 11.9168 10.4869 11.7788 10.5763C11.6509 10.6607 11.4362 10.6607 11.0093 10.6607Z" fill="var(--fill-0, #E84142)"/>
</g>
</svg>
