<svg preserveAspectRatio="none" width="100%" height="100%" overflow="visible" style="display: block;" viewBox="0 0 96 11.2802" fill="none" xmlns="http://www.w3.org/2000/svg">
<g id="Dexsport logo_White">
<path d="M45.9271 1.83046C46.0239 1.67582 45.9904 1.47225 45.8427 1.3652C44.5866 0.455068 42.9919 0 41.0586 0C39.9648 0 39.0312 0.160356 38.2578 0.481068C37.4954 0.790722 36.9098 1.22755 36.501 1.79157C36.1033 2.35558 35.9044 3.01359 35.9044 3.76561C35.9044 4.4955 36.0701 5.0761 36.4016 5.50741C36.7331 5.92765 37.1639 6.24836 37.6943 6.46954C38.2246 6.69073 38.7826 6.86767 39.3682 7.00038L41.0255 7.36533C41.357 7.44274 41.5835 7.52015 41.705 7.59757C41.8376 7.67498 41.9039 7.7911 41.9039 7.94593C41.9039 8.08969 41.8265 8.21134 41.6718 8.31088C41.5282 8.39935 41.2575 8.44358 40.8598 8.44358C40.4399 8.44358 39.9869 8.38276 39.5008 8.26111C39.0146 8.13946 38.545 7.9791 38.092 7.78004C37.7379 7.61577 37.4243 7.43797 37.1511 7.24666C37.0325 7.16353 36.8657 7.19348 36.7911 7.3177L35.5672 9.35499C35.4753 9.50802 35.5087 9.70634 35.653 9.81135C36.0296 10.0853 36.4615 10.3261 36.9485 10.5337C37.5451 10.777 38.1915 10.965 38.8876 11.0978C39.5836 11.2194 40.2797 11.2802 40.9758 11.2802C41.9039 11.2802 42.7325 11.142 43.4617 10.8655C44.202 10.589 44.7876 10.1688 45.2185 9.60478C45.6494 9.02971 45.8649 8.29982 45.8649 7.41509C45.8649 6.53037 45.5776 5.83918 45.003 5.34152C44.4396 4.84386 43.5999 4.46786 42.4839 4.2135L40.9758 3.86514C40.6664 3.78772 40.4068 3.71584 40.1968 3.64949C39.998 3.58313 39.8985 3.4836 39.8985 3.35089C39.8985 3.19606 39.9814 3.07442 40.1471 2.98594C40.3239 2.88641 40.6277 2.83665 41.0586 2.83665C41.7216 2.83665 42.3348 2.94724 42.8983 3.16842C43.3961 3.36008 43.8733 3.60573 44.3296 3.90535C44.4446 3.98085 44.6003 3.94967 44.6733 3.83307L45.9271 1.83046Z" fill="white"/>
<path d="M12.9281 11.1143C12.7293 11.1143 12.5681 10.9532 12.5681 10.7543V0.525893C12.5681 0.327066 12.7293 0.165886 12.9281 0.165886H21.2902C21.489 0.165886 21.6502 0.327066 21.6502 0.525893V2.64252C21.6502 2.84135 21.489 3.00253 21.2902 3.00253H16.4297V4.3628H20.2792C20.4781 4.3628 20.6392 4.52398 20.6392 4.7228V6.62378C20.6392 6.82261 20.4781 6.98379 20.2792 6.98379H16.4297V8.2777H21.4891C21.6879 8.2777 21.8491 8.43888 21.8491 8.63771V10.7543C21.8491 10.9532 21.6879 11.1143 21.4891 11.1143H12.9281Z" fill="white"/>
<path d="M34.631 10.9267C34.6854 11.0063 34.6283 11.1143 34.5319 11.1143H30.2493C30.159 11.1143 30.0763 11.0636 30.0354 10.9831L28.6603 8.2777L27.3991 10.976C27.3596 11.0604 27.2748 11.1143 27.1817 11.1143H23.1996C23.1038 11.1143 23.0466 11.0076 23.0997 10.9279L26.6052 5.6567L23.2257 0.350352C23.1749 0.270465 23.2322 0.165886 23.3269 0.165886H27.513C27.6062 0.165886 27.6911 0.219931 27.7305 0.304472L28.942 2.903L30.1698 0.303394C30.2094 0.219439 30.2939 0.165886 30.3868 0.165886H34.224C34.319 0.165886 34.3763 0.271122 34.3248 0.350974L30.9639 5.55717L34.631 10.9267Z" fill="white"/>
<path fill-rule="evenodd" clip-rule="evenodd" d="M53.6449 0.165886C55.1254 0.165886 56.2579 0.497657 57.0424 1.1612C57.8379 1.82474 58.2357 2.78135 58.2357 4.03102C58.2357 5.26964 57.8379 6.22624 57.0424 6.90085C56.2579 7.56439 55.1254 7.89616 53.6449 7.89616H51.7058V10.7543C51.7058 10.9532 51.5447 11.1143 51.3458 11.1143H48.2043C48.0055 11.1143 47.8443 10.9532 47.8443 10.7543V0.525893C47.8443 0.327066 48.0055 0.165886 48.2043 0.165886H53.6449ZM53.0151 5.15905C53.435 5.15905 53.7664 5.07057 54.0095 4.89363C54.2526 4.70563 54.3741 4.41809 54.3741 4.03102C54.3741 3.64396 54.2526 3.36195 54.0095 3.18501C53.7664 2.997 53.435 2.903 53.0151 2.903H51.7058V5.15905H53.0151Z" fill="white"/>
<path fill-rule="evenodd" clip-rule="evenodd" d="M69.672 1.47638C68.6997 0.492128 67.3407 0 65.595 0C64.446 0 63.4516 0.221181 62.6119 0.663542C61.7832 1.1059 61.1424 1.74733 60.6894 2.58782C60.2474 3.42831 60.0265 4.44574 60.0265 5.64011C60.0265 6.83449 60.2474 7.85193 60.6894 8.69241C61.1424 9.5329 61.7832 10.1743 62.6119 10.6167C63.4516 11.059 64.446 11.2802 65.595 11.2802C67.3407 11.2802 68.6997 10.7881 69.672 9.80385C70.6554 8.81959 71.147 7.43168 71.147 5.64011C71.147 3.84855 70.6554 2.46064 69.672 1.47638ZM64.352 3.56654C64.6172 3.12418 65.0315 2.903 65.595 2.903C66.1585 2.903 66.5673 3.12418 66.8214 3.56654C67.0756 3.99785 67.2026 4.68904 67.2026 5.64011C67.2026 6.59119 67.0756 7.28791 66.8214 7.73028C66.5673 8.16158 66.1585 8.37723 65.595 8.37723C65.0315 8.37723 64.6172 8.16158 64.352 7.73028C64.0979 7.28791 63.9709 6.59119 63.9709 5.64011C63.9709 4.68904 64.0979 3.99785 64.352 3.56654Z" fill="white"/>
<path fill-rule="evenodd" clip-rule="evenodd" d="M79.2101 0.165886C80.6354 0.165886 81.7292 0.486598 82.4916 1.12802C83.254 1.75839 83.6351 2.59888 83.6351 3.64949C83.6351 5.29728 82.9501 6.3866 81.5801 6.91743L83.8967 10.5612C84.049 10.8009 83.8769 11.1143 83.5929 11.1143H80.2713C80.1384 11.1143 80.0163 11.0411 79.9537 10.9239L78.1163 7.48145H77.0556V10.7543C77.0556 10.9532 76.8944 11.1143 76.6956 11.1143H73.6369C73.4381 11.1143 73.2769 10.9532 73.2769 10.7543V0.525893C73.2769 0.327066 73.4381 0.165886 73.6369 0.165886H79.2101ZM78.5472 4.9434C78.956 4.9434 79.2598 4.87151 79.4587 4.72774C79.6687 4.57292 79.7736 4.3075 79.7736 3.93149C79.7736 3.56654 79.6687 3.30666 79.4587 3.15183C79.2598 2.997 78.956 2.91959 78.5472 2.91959H77.0556V4.9434H78.5472Z" fill="white"/>
<path d="M95.64 3.00253C95.8388 3.00253 96 2.84135 96 2.64252V0.525893C96 0.327066 95.8388 0.165886 95.64 0.165886H85.6538C85.4549 0.165886 85.2938 0.327066 85.2938 0.525893V2.64252C85.2938 2.84135 85.4549 3.00253 85.6538 3.00253H88.7244V10.7543C88.7244 10.9532 88.8856 11.1143 89.0844 11.1143H92.2259C92.4248 11.1143 92.5859 10.9532 92.5859 10.7543V3.00253H95.64Z" fill="white"/>
<path fill-rule="evenodd" clip-rule="evenodd" d="M5.3697 0.165858C7.08225 0.165858 8.37496 0.641397 9.24781 1.59248C10.1207 2.54355 10.5571 3.89276 10.5571 5.64009C10.5571 7.37636 10.1207 8.72556 9.24781 9.6877C8.37496 10.6388 7.08225 11.1143 5.3697 11.1143H0.36C0.161178 11.1143 0 10.953 0 10.754V0.526193C0 0.327185 0.161178 0.165858 0.36 0.165858H5.3697ZM3.59955 8.30066C3.51759 8.52329 3.77342 8.71743 3.96545 8.57833L7.27009 6.18458C7.41729 6.07796 7.39732 5.85264 7.23368 5.77362L5.53222 4.95197C5.4209 4.89822 5.36857 4.76863 5.41131 4.65255L6.06795 2.86888C6.14991 2.64625 5.89409 2.45211 5.70205 2.59121L2.39741 4.98496C2.25021 5.09158 2.27018 5.3169 2.43383 5.39593L4.13529 6.21757C4.2466 6.27132 4.29893 6.40091 4.2562 6.51699L3.59955 8.30066Z" fill="white"/>
</g>
</svg>
