<svg preserveAspectRatio="none" width="100%" height="100%" overflow="visible" style="display: block;" viewBox="0 0 29.25 25.7271" fill="none" xmlns="http://www.w3.org/2000/svg">
<path id="Vector" d="M20.6415 0.182581C21.539 0.178527 22.3709 0.652974 22.8241 1.4277C24.7865 4.78252 26.7612 8.16182 28.7235 11.5166C29.1816 12.2998 29.1822 13.2687 28.7255 14.0527C26.7396 17.4616 24.7465 20.8869 22.7606 24.2959C22.308 25.0729 21.4743 25.5491 20.5751 25.5449C16.5784 25.5263 12.5814 25.5078 8.58094 25.4892C7.68967 25.4851 6.86714 25.0096 6.41883 24.2392C4.45363 20.8624 2.48849 17.4821 0.523319 14.1015C0.0684774 13.3191 0.0685603 12.3522 0.524296 11.5703C2.48323 8.21079 4.44234 4.85047 6.40125 1.48727C6.84974 0.71733 7.67231 0.24243 8.56336 0.238245C12.5891 0.219679 16.6157 0.201147 20.6415 0.182581Z" stroke="url(#paint0_linear_35581_35471)" stroke-opacity="0.4" stroke-width="0.364541"/>
<defs>
<linearGradient id="paint0_linear_35581_35471" x1="4.49887" y1="2.28224" x2="20.3575" y2="26.1842" gradientUnits="userSpaceOnUse">
<stop stop-color="white"/>
<stop offset="1" stop-color="white" stop-opacity="0"/>
</linearGradient>
</defs>
</svg>
