<svg preserveAspectRatio="none" width="100%" height="100%" overflow="visible" style="display: block;" viewBox="0 0 13.9545 16" fill="none" xmlns="http://www.w3.org/2000/svg">
<g id="Vector">
<path d="M7.02652 0C7.0214 0.0520554 7.07361 0.0454884 7.09636 0.0568606C7.40533 0.210624 7.71734 0.358141 8.02759 0.509342C8.43058 0.705712 8.83245 0.904323 9.23511 1.10101C9.51269 1.23668 9.79107 1.3709 10.0871 1.51441C9.95572 1.58072 9.84056 1.64015 9.72412 1.69749C9.32849 1.89274 8.93255 2.08702 8.53677 2.28195C8.28434 2.40624 8.03191 2.5307 7.78013 2.65611C7.75129 2.67052 7.73127 2.65963 7.70645 2.64746C7.47965 2.53534 7.25124 2.42626 7.0254 2.31238C6.95605 2.27747 6.90511 2.32247 6.85498 2.34554C6.64788 2.44116 6.44414 2.54415 6.24153 2.64874C6.20196 2.66908 6.17554 2.66476 6.13934 2.64666C5.7325 2.4426 5.32375 2.24239 4.91564 2.04105C4.59177 1.88136 4.26871 1.71943 3.94196 1.56535C3.9213 1.55558 3.90416 1.5386 3.87469 1.51714C4.04991 1.43016 4.21585 1.34768 4.38195 1.26551C4.64078 1.13737 4.89962 1.00907 5.15877 0.881899C5.69134 0.620341 6.22439 0.360063 6.75632 0.0972235C6.81558 0.0679123 6.88285 0.0510944 6.93042 0C6.96245 0 6.99449 0 7.02652 0Z" fill="white" fill-opacity="0.5"/>
<path d="M0.00208306 11.4328C0.00208306 11.0729 0.00352459 10.7128 0.000641521 10.3529C0.00016101 10.2975 0.0179399 10.2685 0.0664716 10.245C0.482915 10.0425 0.898558 9.83832 1.31404 9.6341C1.619 9.48418 1.92349 9.3333 2.22797 9.18274C2.73043 8.93431 3.23112 8.68221 3.73582 8.43859C4.07154 8.27649 4.40501 8.11008 4.73897 7.9443C5.15765 7.73656 5.57954 7.53538 5.99887 7.32908C6.34708 7.15786 6.69305 6.982 7.0411 6.81061C7.50255 6.58349 7.9656 6.35957 8.42705 6.13277C8.7317 5.98301 9.03426 5.82893 9.33891 5.67933C9.73276 5.486 10.1281 5.29556 10.5222 5.10287C10.8488 4.94318 11.1749 4.78237 11.5002 4.61996C11.5224 4.60891 11.5648 4.61131 11.5606 4.56903C11.5573 4.53379 11.5232 4.53875 11.5002 4.52754C11.1826 4.37122 10.8658 4.21313 10.5484 4.05664C10.172 3.871 9.79507 3.68681 9.41899 3.50069C9.38744 3.48515 9.33762 3.47955 9.3317 3.44351C9.32369 3.39482 9.38167 3.39417 9.41066 3.37976C9.88284 3.14303 10.3563 2.90886 10.8299 2.67517C11.0755 2.55392 11.3218 2.43459 11.5675 2.31382C11.6159 2.29012 11.6631 2.28788 11.7115 2.31206C12.0331 2.47287 12.3519 2.64009 12.6775 2.79257C13.0782 2.98029 13.4707 3.18483 13.8716 3.37223C13.9294 3.3993 13.9549 3.4387 13.9545 3.50854C13.9515 4.21249 13.952 4.91644 13.9541 5.62039C13.9542 5.68381 13.9382 5.72129 13.878 5.75044C13.5027 5.93224 13.1293 6.11804 12.7553 6.30223C12.3849 6.48467 12.0141 6.66678 11.6436 6.84905C11.2018 7.0664 10.7603 7.28408 10.3187 7.50159C9.92305 7.69652 9.52791 7.89224 9.13197 8.08637C8.64264 8.32631 8.15172 8.56352 7.66304 8.8049C7.13592 9.06517 6.61152 9.33122 6.08392 9.59053C5.54847 9.85369 5.00966 10.1101 4.47388 10.3728C4.14938 10.5319 3.8284 10.6984 3.50453 10.8588C3.14367 11.0372 2.78104 11.2121 2.41954 11.3892C2.40208 11.3979 2.37133 11.396 2.37117 11.4224C2.37085 11.4495 2.39743 11.4584 2.41922 11.4692C2.98206 11.7467 3.54458 12.0246 4.10741 12.3022C4.26406 12.3794 4.42119 12.456 4.57848 12.5319C4.59834 12.5415 4.62028 12.5497 4.6222 12.5732C4.62477 12.6032 4.59417 12.6001 4.57703 12.6088C4.245 12.7738 3.91249 12.9379 3.58013 13.1024C3.27709 13.2525 2.97421 13.4028 2.67133 13.553C2.57666 13.5999 2.4828 13.6483 2.38718 13.693C2.34474 13.7128 2.29925 13.7111 2.25584 13.6896C1.70822 13.4176 1.16236 13.1418 0.611692 12.8761C0.420128 12.7837 0.233369 12.681 0.0365197 12.5998C-0.0102501 12.5804 0.00272374 12.5446 0.00256357 12.5128C0.00176272 12.1528 0.00208306 11.7929 0.00208306 11.4328Z" fill="white" fill-opacity="0.5"/>
<path d="M0.00208306 8.76742C0.00208306 8.72401 0.00208306 8.68941 0.00208306 8.65482C0.00208306 6.94051 0.00272374 5.22621 8.39229e-07 3.5119C-0.000159331 3.43742 0.0225849 3.40106 0.0876141 3.36983C0.398505 3.22023 0.706994 3.06566 1.01644 2.9135C1.31997 2.76422 1.62381 2.61559 1.92749 2.46647C2.03273 2.41489 2.13764 2.36284 2.24255 2.31062C2.29172 2.28611 2.33977 2.28291 2.39055 2.30838C2.64265 2.43475 2.8946 2.56113 3.14767 2.68558C3.70394 2.95915 4.26118 3.23096 4.81729 3.50469C5.21019 3.69818 5.60133 3.89535 5.9947 4.08787C6.47265 4.32172 6.95156 4.55317 7.42695 4.79182C7.51024 4.83363 7.59449 4.87575 7.68066 4.91291C7.69908 4.92092 7.72583 4.93502 7.72807 4.94943C7.73191 4.97506 7.70212 4.98579 7.68146 4.99604C7.56646 5.05322 7.45097 5.10928 7.33581 5.16582C7.07586 5.29364 6.8159 5.42177 6.55578 5.54959C6.18995 5.7293 5.82396 5.90869 5.45797 6.0884C5.42914 6.1025 5.404 6.09641 5.37516 6.08232C5.08878 5.94009 4.80143 5.8001 4.51473 5.65867C4.04671 5.4277 3.57901 5.19577 3.11083 4.96529C2.87666 4.84996 2.64137 4.73704 2.40656 4.62284C2.33433 4.58777 2.33096 4.58937 2.3308 4.67394C2.33048 5.19113 2.33064 5.70832 2.33064 6.22567C2.33064 6.66294 2.32904 7.1002 2.33224 7.53747C2.33272 7.60634 2.3087 7.63917 2.24848 7.66865C1.78302 7.89609 1.31997 8.1285 0.854831 8.3569C0.575974 8.49369 0.294394 8.62679 0.00208306 8.76742Z" fill="white" fill-opacity="0.5"/>
<path d="M6.1986 11.0531C6.27869 10.9807 6.37479 10.9485 6.4624 10.9041C6.81622 10.7252 7.17036 10.5466 7.52914 10.3779C7.84564 10.229 8.15557 10.0674 8.47142 9.91712C8.50794 9.89982 8.5411 9.89694 8.57777 9.9152C8.86656 10.0582 9.15567 10.2003 9.44462 10.343C9.82022 10.5287 10.1957 10.7144 10.5711 10.9004C10.8886 11.0577 11.2057 11.2153 11.5232 11.3723C11.5976 11.4091 11.6085 11.4029 11.6087 11.3193C11.6096 11.002 11.6092 10.6847 11.6092 10.3672C11.6092 9.74045 11.6106 9.11387 11.6076 8.48728C11.6072 8.40447 11.6338 8.36523 11.711 8.32887C12.0101 8.18808 12.3035 8.0356 12.5997 7.88872C13.0169 7.68194 13.4346 7.47596 13.8524 7.2703C13.9241 7.23506 13.9255 7.23699 13.9255 7.33197C13.9257 8.27601 13.9078 9.22038 13.9312 10.1638C13.9501 10.9257 13.9337 11.6872 13.9491 12.4486C13.9512 12.5489 13.9166 12.5979 13.8259 12.6403C13.5001 12.7928 13.1793 12.9556 12.8566 13.1144C12.5274 13.2765 12.1981 13.4386 11.869 13.6007C11.8481 13.611 11.8248 13.6185 11.8073 13.6329C11.6378 13.7739 11.4905 13.6653 11.3412 13.5918C10.9901 13.4186 10.6397 13.2443 10.2892 13.0699C9.84552 12.8492 9.40297 12.6262 8.9585 12.4075C8.43026 12.1473 7.89977 11.8917 7.37137 11.6321C7.02652 11.4628 6.6836 11.2896 6.33955 11.1186C6.29518 11.0968 6.2497 11.0769 6.1986 11.0531Z" fill="white" fill-opacity="0.5"/>
<path d="M10.0571 14.4847C9.65925 14.6819 9.26987 14.875 8.88018 15.0679C8.50394 15.254 8.12914 15.4435 7.75049 15.6246C7.50191 15.7435 7.25605 15.8671 7.00922 15.9895C6.98184 16.0031 6.95669 16.0039 6.92706 15.9893C6.41243 15.7355 5.897 15.4835 5.38237 15.2298C4.88248 14.9833 4.38323 14.7354 3.87757 14.4849C3.95365 14.4128 4.04767 14.3838 4.13208 14.3415C4.53507 14.14 4.94238 13.9472 5.34361 13.7417C5.61142 13.6046 5.88499 13.4785 6.1552 13.3457C6.18563 13.3308 6.20725 13.3348 6.23592 13.3491C6.4616 13.4609 6.68872 13.5697 6.91408 13.6819C6.9514 13.7005 6.98456 13.7042 7.01996 13.6867C7.245 13.5756 7.47052 13.4649 7.69411 13.3509C7.72999 13.3326 7.75498 13.3336 7.78942 13.3507C8.19657 13.5538 8.60388 13.7564 9.01216 13.9573C9.34035 14.1186 9.66982 14.277 9.99833 14.4378C10.018 14.4475 10.0339 14.466 10.0571 14.4847Z" fill="white" fill-opacity="0.5"/>
</g>
</svg>
