<svg preserveAspectRatio="none" width="100%" height="100%" overflow="visible" style="display: block;" viewBox="0 0 15.9999 16.4781" fill="none" xmlns="http://www.w3.org/2000/svg">
<g id="Vector">
<path d="M6.40485 12.0485C6.40485 12.0485 6.40234 12.0509 6.40096 12.0521L6.55518 12.9303L7.43323 13.0842C7.43454 13.0831 7.43563 13.0819 7.43694 13.0804L7.26931 12.2161L6.40485 12.0485Z" fill="var(--fill-0, white)" fill-opacity="0.5"/>
<path d="M14.181 5.30435C10.773 1.89655 8.81701 3.64757 8.50134 4.83627C8.35045 5.40435 8.36491 5.64047 8.36491 5.64047C7.85263 5.38824 6.5451 5.0337 5.42227 9.15422L3.00731 12.1274C3.54854 13.0615 4.16935 13.8783 4.88816 14.5973C5.60705 15.3159 6.4241 15.9369 7.35795 16.4781L10.331 14.0632C11.2958 13.6149 12.8642 13.4374 13.8668 12.4344C15.9225 10.3786 17.2657 8.389 14.181 5.30435ZM9.36404 12.6204C9.16136 12.823 8.83292 12.823 8.63032 12.6204C8.58238 12.5725 8.54605 12.5173 8.52093 12.4585L7.88709 12.3357L8.00981 12.9694C8.06857 12.995 8.12381 13.0312 8.17171 13.0791C8.37438 13.2817 8.37438 13.6102 8.17171 13.8128C7.96906 14.0155 7.64066 14.0155 7.43802 13.8128C7.39233 13.7672 7.35762 13.7149 7.33252 13.6592L6.66254 13.5419L6.78006 14.2118C6.83568 14.2367 6.88799 14.2714 6.93365 14.3173C7.13625 14.5198 7.13625 14.8483 6.93361 15.051C6.73097 15.2536 6.40253 15.2535 6.19992 15.051C5.99728 14.8483 5.99728 14.5198 6.19992 14.3173C6.20161 14.3154 6.20356 14.3141 6.20528 14.3123L6.05114 13.4343L5.17301 13.28C5.1714 13.2818 5.1699 13.2837 5.16821 13.2855C4.96553 13.4881 4.63714 13.4881 4.43446 13.2854C4.23185 13.0828 4.23181 12.7543 4.43446 12.5518C4.63714 12.3491 4.96553 12.3491 5.16821 12.5518C5.2139 12.5973 5.24869 12.6497 5.27367 12.7052L5.94384 12.8229L5.8261 12.1529C5.77056 12.1279 5.71832 12.0929 5.67263 12.0473C5.47006 11.8447 5.46995 11.5163 5.67263 11.3136C5.87527 11.111 6.20371 11.111 6.40631 11.3136C6.45436 11.3616 6.49057 11.4166 6.51581 11.4756L7.14969 11.5983L7.02678 10.9646C6.96802 10.9392 6.9129 10.9029 6.86485 10.8549C6.66228 10.6522 6.66232 10.3238 6.86485 10.1212C7.06745 9.9185 7.39593 9.91857 7.59853 10.1212C7.80076 10.3234 7.8011 10.6509 7.59981 10.8536L7.76732 11.7179L8.6317 11.8856C8.83446 11.6841 9.16192 11.6848 9.36404 11.8867C9.56661 12.0893 9.56664 12.4177 9.36404 12.6204Z" fill="var(--fill-0, white)" fill-opacity="0.5"/>
<path d="M4.06198 9.99658L3.84218 9.71338L2.99529 9.95437C2.9948 9.95624 2.99405 9.95774 2.99357 9.95962L3.52038 10.6633L4.06198 9.99658Z" fill="var(--fill-0, white)" fill-opacity="0.5"/>
<path d="M2.11941 10.9622C2.18083 10.9823 2.23539 11.0131 2.28299 11.0516L2.93372 10.8536L2.52608 10.3091C2.46526 10.3118 2.4029 10.3045 2.34149 10.2843C2.06919 10.195 1.92077 9.90209 2.00998 9.62972C2.09922 9.35734 2.39223 9.20889 2.66457 9.29821C2.72894 9.3193 2.78636 9.35229 2.83538 9.39318L3.45626 9.21631L3.06038 8.7065C2.9966 8.71055 2.93091 8.70324 2.8665 8.68205C2.5942 8.59284 2.44582 8.29983 2.53503 8.02746C2.62427 7.75516 2.91728 7.60686 3.18958 7.69595C3.46109 7.78478 3.60943 8.07678 3.52146 8.34859L4.06149 9.04426L4.90824 8.80297C4.93468 8.72347 4.97879 8.65504 5.03441 8.59954C5.51182 7.03297 6.015 6.17788 6.015 6.17788C6.015 6.17788 5.49568 4.79028 3.91375 5.40817C5.78685 4.52071 4.42625 3.1011 4.42625 3.1011C4.42625 3.1011 6.03702 4.3274 7.59321 4.9964C7.66995 4.98494 7.74751 4.97858 7.826 4.97858C7.85941 4.97858 7.89266 4.97963 7.92592 4.9818C7.9445 4.89694 7.96697 4.80368 7.99408 4.70148C8.21107 3.88459 8.95287 3.01301 10.1103 2.82681C9.7255 1.96344 8.80596 1.05382 6.88537 0.42458C2.73984 -0.933657 1.57174 1.16381 0.666423 3.92616C0.224962 5.27402 0.774953 6.75337 0.81113 7.81661L0 11.5599C0.904792 12.1485 1.82756 12.5968 2.79366 12.9133C2.82628 12.9241 2.85905 12.9342 2.89178 12.9446C2.77602 12.7648 2.66322 12.5802 2.55319 12.3903L2.37182 12.0773L2.84938 11.4893L2.45275 11.6099C2.45196 11.6121 2.45166 11.6145 2.45088 11.6167C2.36164 11.8891 2.06863 12.0374 1.79625 11.9481C1.52399 11.8589 1.37558 11.566 1.46482 11.2937C1.55399 11.0212 1.84711 10.8728 2.11941 10.9622Z" fill="var(--fill-0, white)" fill-opacity="0.5"/>
</g>
</svg>
