<svg preserveAspectRatio="none" width="100%" height="100%" overflow="visible" style="display: block;" viewBox="0 0 16.0003 15.999" fill="none" xmlns="http://www.w3.org/2000/svg">
<g id="Group 1321316550">
<path id="Vector" d="M13.7756 10.4023L13.3103 12.4508C13.2278 12.8177 13.0447 13.1544 12.7816 13.423C12.5184 13.6917 12.1856 13.8817 11.8205 13.9718C10.6877 14.2552 9.36581 14.4052 8.00016 14.4052C6.6345 14.4052 5.3126 14.2552 4.17977 13.9718C3.81467 13.8817 3.48188 13.6917 3.21875 13.423C2.95561 13.1544 2.77254 12.8177 2.69005 12.4508L2.22473 10.4023C0.787203 10.9989 0 11.8149 0 12.7177C0 13.6787 0.89158 14.5409 2.51067 15.1456C3.98445 15.6959 5.93387 15.999 8.00016 15.999C10.0664 15.999 12.0159 15.6959 13.4896 15.1456C15.1087 14.5409 16.0003 13.6787 16.0003 12.7177C16.0003 11.8149 15.2131 10.9989 13.7756 10.4023Z" fill="var(--fill-0, white)" fill-opacity="0.5"/>
<path id="Vector_2" d="M3.21674 5.52564C2.72111 5.34782 2.2986 5.1475 1.94141 4.92188L3.60519 12.2433C3.6497 12.4407 3.74829 12.6218 3.88992 12.7664C4.03154 12.9109 4.21062 13.0132 4.40708 13.0617C5.46741 13.3267 6.70994 13.468 8.0009 13.468C9.29186 13.468 10.5322 13.3277 11.5947 13.0617C11.7915 13.0133 11.9708 12.9109 12.1126 12.7662C12.2545 12.6214 12.3531 12.44 12.3975 12.2423L14.0604 4.92188C13.7032 5.1475 13.2807 5.34782 12.7851 5.52564C11.4853 5.99221 9.78656 6.24909 8.0009 6.24909C6.21524 6.24909 4.51646 5.99221 3.21674 5.52564Z" fill="var(--fill-0, white)" fill-opacity="0.5"/>
<path id="Vector_3" d="M3.53288 4.64447C4.73322 5.07541 6.31981 5.3126 8.00016 5.3126C9.6805 5.3126 11.2671 5.07541 12.469 4.64447C14.1993 4.02258 14.5628 3.21881 14.5628 2.6563C14.5628 2.09379 14.1993 1.29003 12.469 0.668138C11.2671 0.237192 9.6805 0 8.00016 0C6.31981 0 4.73322 0.237192 3.53288 0.668138C1.80097 1.29003 1.43753 2.09379 1.43753 2.6563C1.43753 3.21881 1.80097 4.02258 3.53288 4.64447Z" fill="var(--fill-0, white)" fill-opacity="0.5"/>
</g>
</svg>
