<svg preserveAspectRatio="none" width="100%" height="100%" overflow="visible" style="display: block;" viewBox="0 0 17.6453 18" fill="none" xmlns="http://www.w3.org/2000/svg">
<g id="Ellipse 6214">
<mask id="path-1-inside-1_35581_35904" fill="white">
<path d="M-1.28445e-08 11.5019C0.465133 13.1092 1.36909 14.5549 2.61038 15.6769C3.85167 16.7988 5.38113 17.5525 7.02705 17.8533C8.67296 18.1542 10.3701 17.9902 11.9281 17.3799C13.486 16.7696 14.8429 15.7371 15.8465 14.3983C16.8501 13.0596 17.4606 11.4675 17.6095 9.80099C17.7584 8.13445 17.4398 6.45939 16.6895 4.96389C15.9391 3.46839 14.7868 2.21167 13.3617 1.33484C11.9367 0.457998 10.2955 -0.00423781 8.6223 2.92782e-05L8.62617 1.51766C10.0172 1.51411 11.3817 1.8984 12.5664 2.62738C13.7511 3.35636 14.7092 4.40117 15.333 5.64448C15.9568 6.8878 16.2217 8.2804 16.0979 9.66592C15.9741 11.0514 15.4665 12.375 14.6322 13.488C13.7978 14.6011 12.6697 15.4595 11.3745 15.9669C10.0793 16.4742 8.66829 16.6105 7.29992 16.3604C5.93155 16.1103 4.65999 15.4837 3.62802 14.551C2.59604 13.6182 1.84451 12.4163 1.45782 11.08L-1.28445e-08 11.5019Z"/>
</mask>
<path d="M-1.28445e-08 11.5019C0.465133 13.1092 1.36909 14.5549 2.61038 15.6769C3.85167 16.7988 5.38113 17.5525 7.02705 17.8533C8.67296 18.1542 10.3701 17.9902 11.9281 17.3799C13.486 16.7696 14.8429 15.7371 15.8465 14.3983C16.8501 13.0596 17.4606 11.4675 17.6095 9.80099C17.7584 8.13445 17.4398 6.45939 16.6895 4.96389C15.9391 3.46839 14.7868 2.21167 13.3617 1.33484C11.9367 0.457998 10.2955 -0.00423781 8.6223 2.92782e-05L8.62617 1.51766C10.0172 1.51411 11.3817 1.8984 12.5664 2.62738C13.7511 3.35636 14.7092 4.40117 15.333 5.64448C15.9568 6.8878 16.2217 8.2804 16.0979 9.66592C15.9741 11.0514 15.4665 12.375 14.6322 13.488C13.7978 14.6011 12.6697 15.4595 11.3745 15.9669C10.0793 16.4742 8.66829 16.6105 7.29992 16.3604C5.93155 16.1103 4.65999 15.4837 3.62802 14.551C2.59604 13.6182 1.84451 12.4163 1.45782 11.08L-1.28445e-08 11.5019Z" stroke="var(--stroke-0, white)" stroke-width="3" mask="url(#path-1-inside-1_35581_35904)"/>
</g>
</svg>
