<svg preserveAspectRatio="none" width="100%" height="100%" overflow="visible" style="display: block;" viewBox="0 0 251.917 95.7382" fill="none" xmlns="http://www.w3.org/2000/svg">
<path id="Vector 451" d="M225.58 36.6425L251.917 15.6494L109.164 0L0 67.9413C11.7052 71.122 35.7264 77.1782 38.1693 75.9568C40.6121 74.7354 44.0219 74.43 45.4214 74.43C56.3633 76.3385 78.476 80.2318 79.3921 80.5371C80.3081 80.8425 81.8094 82.1911 82.4456 82.8273C100.003 86.6442 135.806 94.5071 138.554 95.4231C141.303 96.3392 144.025 95.0415 145.043 94.2781C160.311 83.209 190.923 60.8418 191.228 59.9257C191.533 59.0097 192.119 57.7628 192.373 57.2539C200.389 51.6557 216.801 40.0777 218.328 38.5509C219.855 37.0242 223.799 36.6425 225.58 36.6425Z" fill="var(--fill-0, #D9D9D9)"/>
</svg>
