<svg preserveAspectRatio="none" width="100%" height="100%" overflow="visible" style="display: block;" viewBox="0 0 16 14.2222" fill="none" xmlns="http://www.w3.org/2000/svg">
<path id="Vector" d="M15.501 2.00699C14.8309 0.652014 12.9006 -0.456604 10.6553 0.188858C9.58235 0.494215 8.64624 1.14906 7.99989 2.04641C7.35354 1.14906 6.41743 0.494215 5.3445 0.188858C3.09417 -0.446749 1.16888 0.652014 0.498786 2.00699C-0.441352 3.90396 -0.0512946 6.03743 1.65896 8.34829C2.99915 10.1566 4.91444 11.9895 7.69484 14.118C7.78271 14.1856 7.89095 14.2222 8.00239 14.2222C8.11382 14.2222 8.22207 14.1856 8.30994 14.118C11.0853 11.9944 13.0056 10.1763 14.3458 8.34829C16.0511 6.03743 16.4411 3.90396 15.501 2.00699V2.00699Z" fill="var(--fill-0, white)" fill-opacity="0.5"/>
</svg>
