<svg preserveAspectRatio="none" width="100%" height="100%" overflow="visible" style="display: block;" viewBox="0 0 22.5685 19.1602" fill="none" xmlns="http://www.w3.org/2000/svg">
<g id="number">
<path id="2" d="M1.21045 18.16L1.66645 15.784C2.91445 9.352 16.3784 9.568 16.8585 6.76C17.1465 5.128 15.6825 4.552 12.1305 4.552C9.70645 4.552 5.26645 5.248 4.01845 5.752L4.66645 2.104C6.34645 1.48 10.4985 1 13.4025 1C19.2824 1 22.1624 2.008 21.4664 5.92C20.2424 12.88 8.72245 11.704 6.34645 14.656H19.3785L18.7545 18.16H1.21045Z" fill="url(#paint0_linear_35581_37327)"/>
<path id="2 (Stroke)" d="M15.874 6.58008C15.9174 6.32907 15.8762 6.23165 15.8594 6.2002C15.8413 6.16659 15.7768 6.06954 15.5244 5.95605C14.9649 5.70451 13.9062 5.55178 12.1309 5.55176C10.9911 5.55176 9.33084 5.71839 7.7832 5.95215C6.20337 6.19078 4.8925 6.4778 4.39258 6.67969L2.71777 7.35547L3.78223 1.36621L4.31836 1.16699C5.27596 0.811313 6.83384 0.524225 8.45312 0.325195C10.0974 0.123112 11.9029 6.47364e-06 13.4023 0C16.3329 0 18.7616 0.23928 20.377 1.11426C21.2256 1.57404 21.8854 2.22712 22.252 3.12207C22.6108 3.9982 22.6458 5.0015 22.4512 6.0957C21.7228 10.23 17.9218 11.8135 14.6113 12.7529C13.7577 12.9952 12.8978 13.2044 12.0879 13.4014C11.7328 13.4877 11.3885 13.5728 11.0557 13.6562H20.5723L19.5918 19.1602H0L0.68457 15.5957V15.5938C1.06757 13.6198 2.3839 12.2254 3.95898 11.2139C5.52456 10.2085 7.44895 9.51272 9.25684 8.95703C11.1403 8.37811 12.7886 7.97777 14.126 7.50684C14.7776 7.27737 15.2549 7.06299 15.5674 6.85645C15.8127 6.69427 15.8661 6.59649 15.874 6.58008ZM13.4023 1C10.4983 1.00001 6.34599 1.4805 4.66602 2.10449L4.01855 5.75195C5.26676 5.24796 9.70696 4.55176 12.1309 4.55176L12.7725 4.55859C15.8585 4.62789 17.1281 5.2301 16.8584 6.75977C16.3784 9.56777 2.91402 9.35218 1.66602 15.7842L1.21094 18.1602H18.7549L19.3789 14.6562H6.34668C8.72277 11.7043 20.2428 12.8799 21.4668 5.91992C22.1191 2.25266 19.6284 1.13777 14.4697 1.0127L13.4023 1Z" fill="url(#paint1_linear_35581_37327)" fill-opacity="0.1"/>
</g>
<defs>
<linearGradient id="paint0_linear_35581_37327" x1="11.5225" y1="3.285" x2="11.5225" y2="14.76" gradientUnits="userSpaceOnUse">
<stop stop-color="white"/>
<stop offset="0.395833" stop-color="white"/>
<stop offset="0.46875" stop-color="#9DEDFF"/>
<stop offset="0.723958" stop-color="#C3F4FF"/>
<stop offset="1" stop-color="white"/>
</linearGradient>
<linearGradient id="paint1_linear_35581_37327" x1="13.4283" y1="0.630268" x2="9.24367" y2="18.5441" gradientUnits="userSpaceOnUse">
<stop stop-color="white"/>
<stop offset="1" stop-color="white" stop-opacity="0.3"/>
</linearGradient>
</defs>
</svg>
