<svg preserveAspectRatio="none" width="100%" height="100%" overflow="visible" style="display: block;" viewBox="0 0 16 16" fill="none" xmlns="http://www.w3.org/2000/svg">
<path id="Vector" d="M13.9096 9.56045C13.783 9.64641 13.6352 9.69714 13.4818 9.70729C13.3284 9.71745 13.175 9.68664 13.0379 9.61813C12.716 9.43891 12.5425 9.01867 12.5425 8.44599V6.69087C12.5425 5.84833 12.2038 5.24887 11.6373 5.08613C10.6799 4.81009 9.96499 5.96575 9.68905 6.40041L7.99582 9.10107V5.80507C7.97701 5.04493 7.72616 4.58967 7.25163 4.45371C6.93807 4.36307 6.46773 4.40015 6.00993 5.08819L2.2242 11.0766C1.72049 10.1269 1.45931 9.07055 1.46329 7.99897C1.46329 4.38985 4.38986 1.45436 7.99582 1.45436C11.6018 1.45436 14.5388 4.38985 14.5388 7.99897V8.01751C14.5388 8.01751 14.5388 8.02987 14.5388 8.03605C14.5743 8.73439 14.3444 9.29059 13.9117 9.56045H13.9096ZM16 8.00103V7.96601C15.9707 3.56792 12.392 0 7.99582 0C3.59969 0 0 3.58852 0 7.99897C0 12.4094 3.58714 16 7.99582 16C10.0178 15.9999 11.9629 15.2361 13.4309 13.8658C13.5734 13.7335 13.6572 13.5513 13.6643 13.3585C13.6713 13.1657 13.601 12.9779 13.4685 12.8358C13.4051 12.7667 13.3285 12.7107 13.243 12.6709C13.1576 12.6311 13.065 12.6083 12.9705 12.6039C12.8761 12.5995 12.7818 12.6136 12.6929 12.6452C12.604 12.6769 12.5223 12.7256 12.4526 12.7885C11.8206 13.3793 11.0739 13.8381 10.2575 14.1374C9.44104 14.4368 8.57163 14.5705 7.70145 14.5305C6.83128 14.4904 5.97828 14.2775 5.19368 13.9046C4.40907 13.5316 3.70904 13.0062 3.13562 12.36L6.54298 6.96279V9.45333C6.54298 10.6502 7.01333 11.0375 7.40841 11.1508C7.8035 11.2641 8.40763 11.1858 9.04102 10.1723L10.9224 7.17085C10.9809 7.07403 11.0374 6.99163 11.0875 6.91953V8.44599C11.0875 9.56457 11.5432 10.4586 12.3418 10.8994C12.7049 11.0926 13.114 11.1859 13.5264 11.1696C13.9387 11.1533 14.3389 11.028 14.6851 10.8067C15.5631 10.2444 16.0418 9.22673 15.9916 8.00103H16Z" fill="var(--fill-0, white)" fill-opacity="0.5"/>
</svg>
