<svg preserveAspectRatio="none" width="100%" height="100%" overflow="visible" style="display: block;" viewBox="0 0 91.3351 21.7338" fill="none" xmlns="http://www.w3.org/2000/svg">
<g id="Group 1321315415">
<path id="Vector" d="M19.9332 5.70109C19.7137 12.7235 16.838 17.9164 10.8587 21.276C9.76546 21.8906 10.1415 21.8838 9.03534 21.2707C4.47682 18.7354 1.55026 14.9587 0.427345 9.84402C-0.0528183 7.65517 -0.152346 5.44277 0.251842 3.22582C0.282232 3.05867 0.486606 2.82315 0.631718 2.80491C0.776831 2.78668 1.03287 2.95686 1.1134 3.11489C2.34825 5.48836 3.56841 7.86891 4.77389 10.2566C4.89849 10.5027 5.03524 10.5985 5.31863 10.5977C8.49338 10.5871 11.6686 10.5871 14.8444 10.5977C15.1194 10.5977 15.2395 10.5004 15.3512 10.2657C16.4839 7.88462 17.6304 5.50963 18.77 3.13161C18.8772 2.909 19.02 2.7335 19.2882 2.78136C19.5564 2.82923 19.646 3.00929 19.6681 3.27216C19.7585 4.16487 19.8626 5.05378 19.9332 5.70109ZM9.96224 20.3537L14.7016 11.4965H5.41816L9.96224 20.3537ZM8.89858 20.166L0.950055 4.68226C0.165231 10.4966 3.81888 17.6117 8.89478 20.166H8.89858ZM19.0056 4.90487C16.3895 9.96988 13.7777 15.0248 11.1702 20.0695C13.1312 19.2406 15.9954 16.1864 17.3364 13.4422C18.6584 10.7367 19.1613 7.87246 19.0056 4.90487Z" fill="var(--fill-0, white)"/>
<path id="Vector_2" d="M56.7786 11.8631L59.3086 14.8702C58.8899 14.8702 58.564 14.8907 58.2449 14.8596C58.1317 14.8482 58.0109 14.7281 57.9273 14.6317C57.2223 13.805 56.5188 12.9769 55.8304 12.1366C55.7606 12.043 55.6683 11.9685 55.5621 11.9201C55.4558 11.8716 55.3391 11.8507 55.2226 11.8593C54.2349 11.8745 53.2518 11.8654 52.2079 11.8654V14.8505H51.3281V6.83811C51.4596 6.83128 51.5933 6.81836 51.7278 6.81836C53.7381 6.81836 55.7484 6.81836 57.7587 6.81836C58.8801 6.81836 59.364 7.31296 59.3648 8.44575C59.3648 9.10293 59.3701 9.75936 59.3648 10.4158C59.3564 11.3169 58.8178 11.8532 57.9213 11.8593C57.5733 11.8654 57.2238 11.8631 56.7786 11.8631ZM55.3176 10.956C56.1647 10.956 57.0111 10.956 57.8574 10.956C58.3072 10.956 58.4478 10.8192 58.4516 10.371C58.4566 9.68972 58.4566 9.00822 58.4516 8.32647C58.4478 7.87062 58.3087 7.72626 57.8673 7.72474C56.1746 7.72069 54.4816 7.72069 52.7884 7.72474C52.3386 7.72474 52.1958 7.8691 52.1904 8.31583C52.1828 8.99708 52.1828 9.67857 52.1904 10.3603C52.195 10.8268 52.3348 10.9552 52.8165 10.9567C53.6499 10.9575 54.4841 10.956 55.3176 10.956Z" fill="var(--fill-0, white)"/>
<path id="Vector_3" d="M44.7768 11.2956H39.6325V13.9676H45.9894C46.0281 14.0277 46.0517 14.0436 46.0539 14.0694C46.1223 14.871 46.1223 14.871 45.32 14.871H38.7383V6.80469H45.5244C46.0744 6.80469 46.0745 6.80469 46.0669 7.35627C46.0669 7.45503 46.0562 7.55304 46.0486 7.69208H39.6416V10.3748H44.7768V11.2956Z" fill="var(--fill-0, white)"/>
<path id="Vector_4" d="M33.4573 13.9793V14.8546C33.3403 14.8614 33.2202 14.8751 33.1002 14.8751C31.0509 14.8751 29.0013 14.8751 26.9515 14.8751C25.9509 14.8751 25.4381 14.3562 25.4373 13.3556C25.4373 11.675 25.4373 9.99468 25.4373 8.31462C25.4373 7.33682 25.9562 6.81487 26.934 6.81335C28.997 6.8098 31.0592 6.8098 33.1207 6.81335C33.2202 6.81335 33.3198 6.82398 33.4474 6.83082V7.70985H33.0113C31.0248 7.70985 29.0383 7.70985 27.0518 7.70985C26.4501 7.70985 26.3407 7.81926 26.3407 8.4111C26.3407 10.0415 26.3407 11.6715 26.3407 13.3009C26.3407 13.8631 26.46 13.9846 27.0343 13.9846C29.0213 13.9846 31.0078 13.9846 32.9938 13.9846L33.4573 13.9793Z" fill="var(--fill-0, white)"/>
<path id="Vector_5" d="M91.3351 14.8717C90.9225 14.8717 90.6194 14.8953 90.3238 14.8603C90.1962 14.8459 90.0579 14.7319 89.9683 14.6256C89.09 13.5969 88.2208 12.5583 87.3471 11.5281C87.2643 11.4301 87.1351 11.31 87.0242 11.3077C86.2189 11.2887 85.412 11.2971 84.5588 11.2971V13.0681C84.5588 13.5482 84.5444 14.0292 84.5641 14.5116C84.5763 14.7904 84.4942 14.9105 84.204 14.8763C84.0307 14.8667 83.8569 14.8667 83.6836 14.8763V6.80621C83.841 6.8157 83.9988 6.8157 84.1562 6.80621C84.4601 6.76974 84.574 6.87458 84.5664 7.19976C84.5452 8.11146 84.5588 9.0186 84.5588 9.92879V10.3846C85.4173 10.3846 86.2356 10.3915 87.0523 10.3748C87.1511 10.3748 87.2651 10.254 87.3418 10.1643C88.1601 9.20019 88.9874 8.24366 89.7776 7.2575C90.0503 6.91637 90.3329 6.73859 90.7652 6.80773C90.9104 6.83052 91.0623 6.80773 91.3214 6.80773L87.9504 10.8405L91.3351 14.8717Z" fill="var(--fill-0, white)"/>
<path id="Vector_6" d="M64.207 6.80571H64.6629C67.0004 6.80571 69.3386 6.80571 71.6777 6.80571C72.2999 6.80571 72.252 6.69099 72.2536 7.39832C72.2536 7.48417 72.2384 7.56926 72.227 7.69006H68.6835V14.8439H67.7931V7.71134H64.207V6.80571Z" fill="var(--fill-0, white)"/>
<path id="Vector_7" d="M9.9614 0.852169C9.83605 0.885598 9.70157 0.917508 9.56937 0.957774L3.77702 2.728C3.69193 2.75383 3.60836 2.78118 3.52327 2.80397C3.26647 2.87387 3.0583 2.80397 2.97245 2.54566C2.8828 2.27746 2.98916 2.07233 3.26799 1.98496C4.01559 1.75323 4.76394 1.52911 5.5123 1.30118C6.88745 0.878 8.26184 0.455578 9.64155 0.0445525C9.83132 -0.0115779 10.0328 -0.0147307 10.2243 0.0354355C12.3637 0.675147 14.4994 1.32701 16.6358 1.98192C16.7316 2.01155 16.8736 2.02827 16.9071 2.09436C16.9906 2.25771 17.0947 2.46284 17.059 2.62087C17.0035 2.86171 16.7635 2.91034 16.5317 2.84196C15.9017 2.65759 15.2731 2.46993 14.646 2.27898C13.1969 1.83731 11.7488 1.39463 10.3018 0.950937C10.1931 0.91143 10.0837 0.886358 9.9614 0.852169Z" fill="var(--fill-0, white)"/>
<path id="Vector_8" d="M77.1641 6.82031H78.0195V14.8395H77.1641V6.82031Z" fill="var(--fill-0, white)"/>
</g>
</svg>
