<svg preserveAspectRatio="none" width="100%" height="100%" overflow="visible" style="display: block;" viewBox="0 0 25.5599 21.4071" fill="none" xmlns="http://www.w3.org/2000/svg">
<g id="Vector" filter="url(#filter0_ii_35581_37070)">
<path d="M25.4482 10.2348C25.5969 10.4814 25.5972 10.79 25.4489 11.0369C23.4476 14.3691 21.4503 17.6975 19.449 21.0298C19.3078 21.265 19.0531 21.4083 18.7788 21.4071C14.7563 21.389 10.7336 21.3709 6.70661 21.3528C6.4347 21.3516 6.18318 21.2084 6.04328 20.9753C4.06572 17.6795 2.08816 14.3796 0.110609 11.0797C-0.0370658 10.8332 -0.0368552 10.5255 0.111156 10.2792C2.08346 6.99819 4.05577 3.71698 6.02807 0.431749C6.16801 0.198657 6.41951 0.0555516 6.69138 0.0543354C10.7394 0.0362262 14.7874 0.018117 18.8354 7.81455e-06C19.1091 -0.00121692 19.3634 0.141596 19.5048 0.376033C21.4859 3.66098 23.467 6.9498 25.4482 10.2348Z" fill="var(--fill-0, #D9DBE2)"/>
</g>
<defs>
<filter id="filter0_ii_35581_37070" x="0" y="-1.50871" width="29.2053" height="26.5612" filterUnits="userSpaceOnUse" color-interpolation-filters="sRGB">
<feFlood flood-opacity="0" result="BackgroundImageFix"/>
<feBlend mode="normal" in="SourceGraphic" in2="BackgroundImageFix" result="shape"/>
<feColorMatrix in="SourceAlpha" type="matrix" values="0 0 0 0 0 0 0 0 0 0 0 0 0 0 0 0 0 0 127 0" result="hardAlpha"/>
<feOffset dx="1.46205" dy="-1.50871"/>
<feGaussianBlur stdDeviation="3.35572"/>
<feComposite in2="hardAlpha" operator="arithmetic" k2="-1" k3="1"/>
<feColorMatrix type="matrix" values="0 0 0 0 0.664217 0 0 0 0 0.676861 0 0 0 0 0.721117 0 0 0 1 0"/>
<feBlend mode="normal" in2="shape" result="effect1_innerShadow_35581_37070"/>
<feColorMatrix in="SourceAlpha" type="matrix" values="0 0 0 0 0 0 0 0 0 0 0 0 0 0 0 0 0 0 127 0" result="hardAlpha"/>
<feOffset dx="3.64541" dy="3.64541"/>
<feGaussianBlur stdDeviation="3.28087"/>
<feComposite in2="hardAlpha" operator="arithmetic" k2="-1" k3="1"/>
<feColorMatrix type="matrix" values="0 0 0 0 1 0 0 0 0 1 0 0 0 0 1 0 0 0 0.25 0"/>
<feBlend mode="normal" in2="effect1_innerShadow_35581_37070" result="effect2_innerShadow_35581_37070"/>
</filter>
</defs>
</svg>
