<svg preserveAspectRatio="none" width="100%" height="100%" overflow="visible" style="display: block;" viewBox="0 0 12.5718 16" fill="none" xmlns="http://www.w3.org/2000/svg">
<path id="path56" fill-rule="evenodd" clip-rule="evenodd" d="M7.48938 8.75511C7.48938 7.58956 6.12354 6.98721 5.25403 7.72275C5.38774 7.04466 5.75089 6.49976 6.21877 6.26995H4.01232C4.48019 6.49976 4.84335 7.04466 4.97696 7.72275C4.10789 6.98721 2.74161 7.58956 2.74161 8.75511C2.74161 10.0164 3.92631 10.7911 5.11093 11.9854C6.30477 10.7911 7.48938 10.0164 7.48938 8.75511ZM10.5751 0C8.49251 0 6.40983 0 4.337 0C3.49648 0 2.77016 0.52576 2.47403 1.26217H8.23476C9.88725 1.26217 11.2245 2.60006 11.2245 4.25395V13.6297C12.008 13.352 12.5718 12.6165 12.5718 11.746C12.5718 8.48702 12.5718 5.23757 12.5718 1.98813C12.5718 0.899176 11.6734 0 10.5751 0ZM8.23476 2.25624H1.99667C0.898058 2.25624 0 3.15455 0 4.25395V14.0023C0 15.1008 0.898058 16 1.99667 16H8.23476C9.33302 16 10.231 15.1008 10.231 14.0023V4.25395C10.231 3.15455 9.33302 2.25624 8.23476 2.25624Z" fill="var(--fill-0, white)" fill-opacity="0.5"/>
</svg>
