<svg preserveAspectRatio="none" width="100%" height="100%" overflow="visible" style="display: block;" viewBox="0 0 13.9998 16.7998" fill="none" xmlns="http://www.w3.org/2000/svg">
<path id="Vector" fill-rule="evenodd" clip-rule="evenodd" d="M10.0273 2.87055C9.99469 2.88478 9.9603 2.89506 9.92492 2.90115C9.72758 3.16297 9.84818 3.13237 9.49734 3.34998C9.48271 3.64359 9.5248 3.93726 9.62159 4.21705C9.62416 4.22118 9.62551 4.22587 9.62551 4.23065C9.62551 4.23542 9.62416 4.24012 9.62159 4.24425C9.61456 4.2469 9.6067 4.2469 9.59966 4.24425C9.51561 4.26125 9.39501 4.29185 9.32191 4.30206C9.34379 4.44984 9.34379 4.59971 9.32191 4.74749C9.10428 5.14605 8.76644 5.47691 8.34979 5.69956C8.10493 5.74377 7.83449 5.54315 7.4069 5.35954C7.28995 5.31193 6.89525 5.07051 6.67598 5.01951C6.4567 4.96851 6.33244 5.35954 6.54441 5.45814C6.64308 5.50575 6.80023 5.57375 6.8514 5.69276C6.99758 6.04979 6.82947 7.42349 6.52248 7.69892C6.37995 7.69892 6.25935 7.57311 6.15702 7.60711C5.96698 7.70232 6.08758 8.24976 6.15702 8.34497C7.33746 9.47045 7.19493 10.3069 7.69561 10.9292C7.92585 10.9292 7.77601 11.1536 7.94778 11.4188C7.97278 11.5713 7.96029 11.7271 7.91123 11.8744V12.2145C7.91123 12.2485 7.88565 12.2859 7.87103 12.3199V12.6191C7.83814 12.7619 7.79794 12.9591 7.76505 13.0917C7.69561 13.3774 7.96605 13.6018 7.80525 13.8704C7.80525 14.0404 7.80525 14.0064 7.69561 14.1424C7.66264 14.4749 7.66264 14.8096 7.69561 15.1421C7.88553 15.4334 8.12639 15.6931 8.40826 15.9105C8.72621 16.0398 9.194 16.0126 9.04051 16.475C8.11224 16.7402 7.52019 16.3288 7.02682 16.322L7.00489 16.4002C6.78613 16.407 6.56764 16.3806 6.35802 16.322C6.38824 16.0579 6.4346 15.7957 6.4969 15.5365L6.60288 15.3801C6.60915 15.0135 6.59451 14.6469 6.55903 14.2818C6.36168 14.1492 6.32148 13.7378 6.32148 13.51C6.27351 13.3171 6.2502 13.1197 6.25204 12.9217C6.21394 12.7888 6.20156 12.6506 6.21549 12.5137C6.24473 12.4219 6.35437 12.3845 6.38361 12.3097V12.0547C6.43477 11.786 6.42015 11.6602 6.24473 11.5004C5.81349 11.5004 5.75136 11.5242 5.51381 11.1808C5.44072 11.0754 4.83405 10.1845 4.78289 10.1607C4.27855 9.95669 4.37722 10.0349 4.15795 9.67107C4.04854 9.71207 3.95626 9.78481 3.89481 9.87848C3.64912 10.3077 3.44723 10.7573 3.2918 11.2216C3.24064 11.3814 3.2918 11.5616 3.21506 11.6874C3.13831 11.8132 2.97751 11.8166 2.94096 11.8812C2.76188 12.1771 2.89345 12.1533 2.5755 12.3607C2.53144 12.4482 2.49597 12.5392 2.46952 12.6327L2.39277 12.7313C2.33795 12.8435 2.4549 13.0509 2.43297 13.1223C2.37259 13.3074 2.30059 13.4891 2.21735 13.6664C2.06385 14.0064 2.08578 14.4586 1.92863 14.6865C1.85189 14.7919 1.66185 14.6865 1.51932 14.7749C1.51932 14.8497 1.28177 15.3359 1.23791 15.4549V16.2302C1.27811 16.3594 1.39871 16.4818 1.36217 16.6484C1.32562 16.815 0.667792 16.8218 0.313295 16.7742C0.218783 16.7615 0.13336 16.7149 0.0753039 16.6444C0.0172481 16.5739 -0.00882897 16.485 0.00265275 16.3968C0.00265275 16.1724 0.492371 14.7239 0.463134 14.6218C0.0976727 14.2376 0.561808 13.8398 0.700684 13.4828C0.766467 13.3059 0.726266 13.0611 0.799358 12.9013L1.18675 12.2417C1.4243 12.0342 1.31831 12.024 1.44622 11.837C1.57414 11.65 1.69108 11.5684 1.61434 11.3202C1.45719 10.8238 1.79707 10.1165 1.81899 9.59626C1.76052 9.53846 1.55586 9.55886 1.53028 9.39905C1.49215 9.06603 1.57863 8.73097 1.77514 8.45037C1.82265 8.42657 1.88112 8.45037 1.92498 8.41977C1.92498 8.17835 1.6655 6.83185 1.86285 6.76384C1.98345 6.71964 2.26486 6.69924 2.31602 6.67544C2.36719 6.65164 2.27217 6.49522 2.221 6.48842C2.16984 6.48162 1.95787 6.46122 1.82996 6.42042C1.39871 6.32521 1.79707 4.73729 1.80438 4.72029C1.92132 4.57408 2.47683 4.77129 2.5353 4.52307C2.71803 4.30206 2.39277 3.45879 3.02136 2.41831C3.23698 2.07828 3.64265 1.71446 4.11775 1.86407C4.27855 1.91507 4.18353 2.12929 4.46128 1.90147C4.45132 1.78342 4.41786 1.66812 4.36261 1.56144C3.89116 0.262545 5.48457 -0.437909 6.58095 0.299948C6.68375 0.332065 6.781 0.377878 6.86967 0.435958C6.9318 0.728381 7.23513 1.24862 6.9318 1.59205C6.79457 1.62161 6.66445 1.67465 6.54806 1.74846C6.54544 1.84684 6.5565 1.94513 6.58095 2.04088C6.60288 2.10549 6.64308 2.12929 6.5371 2.17009C6.5371 2.17009 6.5371 2.21429 6.5371 2.2279C6.77853 2.25381 7.02292 2.21611 7.24244 2.11909H7.45075V1.88107H7.54577V1.70086H7.64445V2.04088H7.90392V2.14289H11.6974V2.3265H11.8655V1.64645H12.0044V2.18029H12.3297V2.49312H13.3383V2.40131H13.5247V2.44211H13.9998V2.70053H13.5247V2.74134H13.3566V2.64953H12.3443V2.74474H11.9021V2.68013H11.6974V2.87055H10.0273Z" fill="var(--fill-0, white)" fill-opacity="0.5"/>
</svg>
