<svg preserveAspectRatio="none" width="100%" height="100%" overflow="visible" style="display: block;" viewBox="0 0 21.8301 19.1836" fill="none" xmlns="http://www.w3.org/2000/svg">
<g id="number">
<path id="5" d="M8.56451 18.184C6.42851 18.184 2.58851 17.824 1.12451 17.2L1.79651 13.456C2.97251 14.056 6.83651 14.656 9.11651 14.656C12.9085 14.656 15.1165 13.984 15.4525 12.208C15.7165 10.576 14.3725 10 10.9885 10C8.75651 10 6.64451 10.36 4.96451 10.744L3.45251 9.304L4.91651 1H20.6365L20.0125 4.504H7.48451L6.90851 7.816C8.87651 7.192 10.8205 6.904 12.9565 6.904C16.6045 6.904 20.3725 7.744 19.5565 12.376C18.8845 16.096 14.4685 18.184 8.56451 18.184Z" fill="url(#paint0_linear_35581_36009)"/>
<path id="5 (Stroke)" d="M21.8301 0L20.8506 5.50391H8.3252L8.16309 6.43359C9.71559 6.07235 11.2845 5.90332 12.957 5.90332C14.8048 5.90336 16.902 6.1064 18.4502 7.04883C19.2533 7.53776 19.9218 8.23324 20.3096 9.19141C20.6931 10.1391 20.7681 11.2592 20.541 12.5488V12.5537C20.1351 14.8004 18.6004 16.4771 16.4785 17.5645C14.3695 18.6452 11.6202 19.1836 8.56445 19.1836C7.4515 19.1836 5.91783 19.0909 4.47461 18.9189C3.06876 18.7514 1.61099 18.4946 0.732422 18.1201L0 17.8076L1.05078 11.9521L2.25098 12.5654C2.43962 12.6617 2.811 12.7891 3.3584 12.9258C3.88714 13.0578 4.52235 13.1847 5.20117 13.2939C6.56585 13.5136 8.04602 13.6562 9.11621 13.6562V14.6562L8.67188 14.6484C6.36464 14.5804 2.89982 14.0185 1.79688 13.4561L1.125 17.2002C2.58936 17.824 6.42868 18.1836 8.56445 18.1836C14.2839 18.1836 18.6069 16.2242 19.4824 12.7197L19.5566 12.376C20.3217 8.03339 17.0575 7.02328 13.6406 6.91406L12.957 6.90332C10.821 6.90332 8.8762 7.19143 6.9082 7.81543L7.48438 4.50391H20.0127L20.6367 1H4.91699L3.45215 9.30371L4.96484 10.7441C6.64474 10.3602 8.75647 10 10.9883 10L11.5996 10.0068C14.5344 10.0761 15.6996 10.6781 15.4521 12.208C15.116 13.9838 12.908 14.6562 9.11621 14.6562V13.6562C10.9792 13.6562 12.3373 13.4868 13.2373 13.1582C14.0976 12.8441 14.3854 12.452 14.4678 12.0283C14.5064 11.7721 14.4685 11.6616 14.4482 11.6211C14.4303 11.5852 14.3745 11.4982 14.1562 11.3936C13.655 11.1533 12.6803 11 10.9883 11C8.8586 11 6.8267 11.3441 5.1875 11.7188L4.66406 11.8379L4.27441 11.4678L2.7627 10.0283L2.375 9.6582L4.07715 0H21.8301Z" fill="url(#paint1_linear_35581_36009)" fill-opacity="0.1"/>
</g>
<defs>
<linearGradient id="paint0_linear_35581_36009" x1="11.2685" y1="2.925" x2="11.2685" y2="14.4" gradientUnits="userSpaceOnUse">
<stop stop-color="white"/>
<stop offset="0.395833" stop-color="white"/>
<stop offset="0.46875" stop-color="#9DEDFF"/>
<stop offset="0.723958" stop-color="#C3F4FF"/>
<stop offset="1" stop-color="white"/>
</linearGradient>
<linearGradient id="paint1_linear_35581_36009" x1="12.9889" y1="0.631039" x2="8.66811" y2="18.5008" gradientUnits="userSpaceOnUse">
<stop stop-color="white"/>
<stop offset="1" stop-color="white" stop-opacity="0.3"/>
</linearGradient>
</defs>
</svg>
