<svg preserveAspectRatio="none" width="100%" height="100%" overflow="visible" style="display: block;" viewBox="0 0 16.6667 13.3333" fill="none" xmlns="http://www.w3.org/2000/svg">
<path id="Vector" fill-rule="evenodd" clip-rule="evenodd" d="M6.66667 0H10C13.1427 0 14.714 0 15.6904 0.976311C16.6667 1.95262 16.6667 3.52397 16.6667 6.66667C16.6667 9.80936 16.6667 11.3807 15.6904 12.357C14.714 13.3333 13.1427 13.3333 10 13.3333H6.66667C3.52397 13.3333 1.95262 13.3333 0.976311 12.357C0 11.3807 0 9.80936 0 6.66667C0 3.52397 0 1.95262 0.976311 0.976311C1.95262 0 3.52397 0 6.66667 0ZM9.375 4.16667C9.375 3.82149 9.65482 3.54167 10 3.54167H14.1667C14.5118 3.54167 14.7917 3.82149 14.7917 4.16667C14.7917 4.51184 14.5118 4.79167 14.1667 4.79167H10C9.65482 4.79167 9.375 4.51184 9.375 4.16667ZM10.2083 6.66667C10.2083 6.32149 10.4882 6.04167 10.8333 6.04167H14.1667C14.5118 6.04167 14.7917 6.32149 14.7917 6.66667C14.7917 7.01184 14.5118 7.29167 14.1667 7.29167H10.8333C10.4882 7.29167 10.2083 7.01184 10.2083 6.66667ZM11.0417 9.16667C11.0417 8.82149 11.3215 8.54167 11.6667 8.54167H14.1667C14.5118 8.54167 14.7917 8.82149 14.7917 9.16667C14.7917 9.51184 14.5118 9.79167 14.1667 9.79167H11.6667C11.3215 9.79167 11.0417 9.51184 11.0417 9.16667ZM7.5 4.16667C7.5 5.08714 6.75381 5.83333 5.83333 5.83333C4.91286 5.83333 4.16667 5.08714 4.16667 4.16667C4.16667 3.24619 4.91286 2.5 5.83333 2.5C6.75381 2.5 7.5 3.24619 7.5 4.16667ZM5.83333 10.8333C9.16667 10.8333 9.16667 10.0871 9.16667 9.16667C9.16667 8.24619 7.67428 7.5 5.83333 7.5C3.99238 7.5 2.5 8.24619 2.5 9.16667C2.5 10.0871 2.5 10.8333 5.83333 10.8333Z" fill="var(--fill-0, white)" fill-opacity="0.5"/>
</svg>
