<svg preserveAspectRatio="none" width="100%" height="100%" overflow="visible" style="display: block;" viewBox="0 0 13.23 11.2354" fill="none" xmlns="http://www.w3.org/2000/svg">
<g id="Volleyball">
<path id="2" d="M0.741699 10.6233L1.0077 9.23728C1.7357 5.48528 9.5897 5.61128 9.8697 3.97328C10.0377 3.02128 9.1837 2.68528 7.1117 2.68528C5.6977 2.68528 3.1077 3.09128 2.3797 3.38528L2.7577 1.25728C3.7377 0.893281 6.1597 0.613281 7.8537 0.613281C11.2837 0.613281 12.9637 1.20128 12.5577 3.48328C11.8437 7.54328 5.1237 6.85728 3.7377 8.57928H11.3397L10.9757 10.6233H0.741699Z" fill="url(#paint0_linear_35581_42373)"/>
<path id="2 (Stroke)" opacity="0.8" d="M7.85352 0C9.56274 0 10.987 0.138996 11.9365 0.65332C12.4364 0.924148 12.8261 1.31044 13.043 1.83984C13.255 2.35769 13.2753 2.94913 13.1611 3.59082C12.7328 6.02132 10.4978 6.94921 8.56738 7.49707C8.0688 7.63856 7.56614 7.76111 7.09375 7.87598C6.96861 7.90641 6.84599 7.93719 6.72559 7.9668H12.0713L11.4893 11.2354H0L0.140625 10.5078L0.40625 9.12207V9.12012C0.631774 7.95816 1.40666 7.13931 2.3291 6.54688C3.24589 5.95813 4.37162 5.55088 5.42676 5.22656C6.52814 4.88803 7.48585 4.65543 8.26562 4.38086C8.64517 4.24721 8.9213 4.12338 9.10059 4.00488C9.22357 3.92357 9.25847 3.87197 9.2666 3.8584C9.28973 3.72053 9.26773 3.67141 9.26172 3.66016C9.25513 3.64788 9.2229 3.59556 9.08008 3.53125C8.76001 3.38734 8.14777 3.29788 7.1123 3.29785C6.44949 3.29785 5.48229 3.39399 4.58008 3.53027C3.65831 3.66951 2.89745 3.83682 2.60938 3.95312L1.58301 4.36719L2.21582 0.804688L2.54492 0.682617C3.10694 0.473948 4.01838 0.306532 4.96289 0.19043C5.92291 0.0724389 6.97752 1.7162e-05 7.85352 0ZM7.85352 0.613281C6.15956 0.613316 3.73779 0.892868 2.75781 1.25684L2.37988 3.38477C3.10808 3.09077 5.6984 2.68457 7.1123 2.68457L7.48633 2.68945C9.28635 2.72987 10.0273 3.08051 9.87012 3.97266L9.85156 4.04883C9.34606 5.60818 1.72442 5.54404 1.00781 9.2373L0.742188 10.623H10.9756L11.3398 8.5791H3.73828C5.12458 6.85739 11.8433 7.54283 12.5576 3.4834C12.9382 1.34407 11.4857 0.693097 8.47656 0.620117L7.85352 0.613281Z" fill="url(#paint1_linear_35581_42373)" fill-opacity="0.1"/>
</g>
<defs>
<linearGradient id="paint0_linear_35581_42373" x1="6.9237" y1="-1.25172" x2="6.9237" y2="10.2233" gradientUnits="userSpaceOnUse">
<stop stop-color="white"/>
<stop offset="0.395833" stop-color="white"/>
<stop offset="0.46875" stop-color="#9DEDFF"/>
<stop offset="0.723958" stop-color="#C3F4FF"/>
<stop offset="1" stop-color="white"/>
</linearGradient>
<linearGradient id="paint1_linear_35581_42373" x1="7.87183" y1="0.369584" x2="5.41734" y2="10.8738" gradientUnits="userSpaceOnUse">
<stop stop-color="white"/>
<stop offset="1" stop-color="white" stop-opacity="0.3"/>
</linearGradient>
</defs>
</svg>
