<svg preserveAspectRatio="none" width="100%" height="100%" overflow="visible" style="display: block;" viewBox="0 0 7.00692 6.2191" fill="none" xmlns="http://www.w3.org/2000/svg">
<g id="Group 1321315004">
<path id="Vector" d="M1.75854 6.2191H0.580375C0.332807 6.2191 0.210521 6.2191 0.135949 6.17134C0.0554234 6.1192 0.00620209 6.03263 0.000238911 5.93722C-0.00423576 5.84923 0.0569121 5.74185 0.179198 5.5271L3.08823 0.399534C3.21201 0.1818 3.27465 0.0729285 3.35369 0.0326657C3.43869 -0.0105834 3.5401 -0.0105834 3.62511 0.0326657C3.70416 0.0729285 3.7668 0.1818 3.89057 0.399534L4.48861 1.44348C4.62432 1.6806 4.69291 1.79991 4.72275 1.92519C4.75555 2.0609 4.75555 2.20407 4.72275 2.33978C4.69291 2.46505 4.6258 2.58436 4.49009 2.82148L2.96205 5.52263C2.82485 5.76273 2.75625 5.88353 2.6608 5.97446C2.5579 6.0729 2.43412 6.1445 2.2984 6.18477C2.17463 6.2191 2.03593 6.2191 1.75854 6.2191Z" fill="var(--fill-0, white)"/>
<path id="Vector_2" d="M6.42207 6.21898H4.73385C4.4848 6.21898 4.35952 6.21898 4.28645 6.17131C4.20592 6.11908 4.1567 6.03105 4.15074 5.93564C4.14627 5.84765 4.2089 5.74027 4.33417 5.52403L5.17675 4.07742C5.30057 3.86416 5.36322 3.75828 5.44075 3.71801C5.52577 3.67476 5.62567 3.67476 5.71069 3.71801C5.78977 3.75828 5.85087 3.86416 5.97616 4.07593L6.82178 5.52254C6.94698 5.73879 7.01118 5.84616 7.0067 5.93415C7.00223 6.02958 6.95145 6.11762 6.871 6.16976C6.79639 6.21898 6.6711 6.21898 6.42207 6.21898Z" fill="var(--fill-0, white)"/>
</g>
</svg>
