<svg preserveAspectRatio="none" width="100%" height="100%" overflow="visible" style="display: block;" viewBox="0 0 91.336 21.7328" fill="none" xmlns="http://www.w3.org/2000/svg">
<g id="Group 1321315415">
<path id="Vector" d="M19.9332 5.70011C19.7137 12.7225 16.838 17.9154 10.8587 21.275C9.76546 21.8897 10.1415 21.8828 9.03534 21.2697C4.47682 18.7344 1.55026 14.9577 0.427345 9.84304C-0.0528183 7.65419 -0.152346 5.4418 0.251842 3.22484C0.282232 3.05769 0.486606 2.82217 0.631718 2.80394C0.776831 2.7857 1.03287 2.95589 1.1134 3.11392C2.34825 5.48738 3.56841 7.86794 4.77389 10.2556C4.89849 10.5017 5.03524 10.5975 5.31863 10.5967C8.49338 10.5861 11.6686 10.5861 14.8444 10.5967C15.1194 10.5967 15.2395 10.4995 15.3512 10.2647C16.4839 7.88364 17.6304 5.50866 18.77 3.13063C18.8772 2.90802 19.02 2.73252 19.2882 2.78039C19.5564 2.82825 19.646 3.00831 19.6681 3.27119C19.7585 4.16389 19.8626 5.0528 19.9332 5.70011ZM9.96224 20.3527L14.7016 11.4955H5.41816L9.96224 20.3527ZM8.89858 20.165L0.950055 4.68129C0.165231 10.4957 3.81888 17.6107 8.89478 20.165H8.89858ZM19.0056 4.90389C16.3895 9.96891 13.7777 15.0238 11.1702 20.0685C13.1312 19.2397 15.9954 16.1855 17.3364 13.4412C18.6584 10.7357 19.1613 7.87148 19.0056 4.90389Z" fill="var(--fill-0, white)"/>
<path id="Vector_2" d="M56.7776 11.8631L59.3076 14.8702C58.889 14.8702 58.563 14.8907 58.2439 14.8596C58.1307 14.8482 58.0099 14.7281 57.9264 14.6317C57.2213 13.805 56.5178 12.9769 55.8294 12.1366C55.7596 12.043 55.6673 11.9685 55.5611 11.9201C55.4548 11.8716 55.3381 11.8507 55.2216 11.8593C54.234 11.8745 53.2508 11.8654 52.2069 11.8654V14.8505H51.3271V6.83811C51.4586 6.83128 51.5923 6.81836 51.7268 6.81836C53.7371 6.81836 55.7474 6.81836 57.7577 6.81836C58.8791 6.81836 59.363 7.31296 59.3638 8.44575C59.3638 9.10293 59.3691 9.75936 59.3638 10.4158C59.3554 11.3169 58.8168 11.8532 57.9203 11.8593C57.5723 11.8654 57.2228 11.8631 56.7776 11.8631ZM55.3166 10.956C56.1637 10.956 57.0101 10.956 57.8565 10.956C58.3062 10.956 58.4468 10.8192 58.4506 10.371C58.4557 9.68972 58.4557 9.00822 58.4506 8.32647C58.4468 7.87062 58.3078 7.72626 57.8663 7.72474C56.1736 7.72069 54.4806 7.72069 52.7874 7.72474C52.3376 7.72474 52.1948 7.8691 52.1895 8.31583C52.1819 8.99708 52.1819 9.67857 52.1895 10.3603C52.194 10.8268 52.3338 10.9552 52.8155 10.9567C53.6489 10.9575 54.4832 10.956 55.3166 10.956Z" fill="var(--fill-0, white)"/>
<path id="Vector_3" d="M44.7768 11.2966H39.6325V13.9686H45.9894C46.0281 14.0286 46.0517 14.0446 46.0539 14.0704C46.1223 14.872 46.1223 14.872 45.32 14.872H38.7383V6.80566H45.5244C46.0744 6.80566 46.0745 6.80566 46.0669 7.35724C46.0669 7.45601 46.0562 7.55402 46.0486 7.69305H39.6416V10.3757H44.7768V11.2966Z" fill="var(--fill-0, white)"/>
<path id="Vector_4" d="M33.4573 13.9793V14.8546C33.3403 14.8614 33.2202 14.8751 33.1002 14.8751C31.0509 14.8751 29.0013 14.8751 26.9515 14.8751C25.9509 14.8751 25.4381 14.3562 25.4373 13.3556C25.4373 11.675 25.4373 9.99468 25.4373 8.31462C25.4373 7.33682 25.9562 6.81487 26.934 6.81335C28.997 6.8098 31.0592 6.8098 33.1207 6.81335C33.2202 6.81335 33.3198 6.82398 33.4474 6.83082V7.70985H33.0113C31.0248 7.70985 29.0383 7.70985 27.0518 7.70985C26.4501 7.70985 26.3407 7.81926 26.3407 8.4111C26.3407 10.0415 26.3407 11.6715 26.3407 13.3009C26.3407 13.8631 26.46 13.9846 27.0343 13.9846C29.0213 13.9846 31.0078 13.9846 32.9938 13.9846L33.4573 13.9793Z" fill="var(--fill-0, white)"/>
<path id="Vector_5" d="M91.336 14.8727C90.9235 14.8727 90.6204 14.8963 90.3248 14.8613C90.1972 14.8469 90.0589 14.7329 89.9692 14.6266C89.091 13.5978 88.2218 12.5593 87.3481 11.529C87.2653 11.431 87.1361 11.311 87.0252 11.3087C86.2199 11.2897 85.413 11.2981 84.5598 11.2981V13.0691C84.5598 13.5492 84.5454 14.0301 84.5651 14.5126C84.5773 14.7914 84.4952 14.9115 84.205 14.8773C84.0317 14.8676 83.8579 14.8676 83.6846 14.8773V6.80718C83.8419 6.81668 83.9998 6.81668 84.1571 6.80718C84.461 6.77071 84.575 6.87556 84.5674 7.20073C84.5461 8.11244 84.5598 9.01958 84.5598 9.92976V10.3856C85.4183 10.3856 86.2366 10.3925 87.0533 10.3757C87.1521 10.3757 87.266 10.2549 87.3428 10.1653C88.161 9.20116 88.9884 8.24463 89.7785 7.25848C90.0513 6.91735 90.3339 6.73956 90.7662 6.8087C90.9113 6.83149 91.0633 6.8087 91.3224 6.8087L87.9513 10.8415L91.336 14.8727Z" fill="var(--fill-0, white)"/>
<path id="Vector_6" d="M64.2053 6.80554H64.6612C66.9987 6.80554 69.3369 6.80554 71.676 6.80554C72.2982 6.80554 72.2503 6.69082 72.2518 7.39815C72.2518 7.484 72.2367 7.56909 72.2253 7.68989H68.6818V14.8437H67.7913V7.71116H64.2053V6.80554Z" fill="var(--fill-0, white)"/>
<path id="Vector_7" d="M9.9602 0.852169C9.83484 0.885598 9.70037 0.917508 9.56817 0.957774L3.77582 2.728C3.69073 2.75383 3.60716 2.78118 3.52206 2.80397C3.26527 2.87387 3.0571 2.80397 2.97124 2.54566C2.88159 2.27746 2.98796 2.07233 3.26679 1.98496C4.01438 1.75323 4.76274 1.52911 5.51109 1.30118C6.88625 0.878 8.26064 0.455578 9.64035 0.0445525C9.83012 -0.0115779 10.0316 -0.0147307 10.2231 0.0354355C12.3625 0.675147 14.4982 1.32701 16.6346 1.98192C16.7304 2.01155 16.8724 2.02827 16.9059 2.09436C16.9894 2.25771 17.0935 2.46284 17.0578 2.62087C17.0023 2.86171 16.7623 2.91034 16.5305 2.84196C15.9004 2.65759 15.2719 2.46993 14.6448 2.27898C13.1957 1.83731 11.7476 1.39463 10.3006 0.950937C10.1919 0.91143 10.0825 0.886358 9.9602 0.852169Z" fill="var(--fill-0, white)"/>
<path id="Vector_8" d="M77.165 6.82129H78.0205V14.8405H77.165V6.82129Z" fill="var(--fill-0, white)"/>
</g>
</svg>
