<svg preserveAspectRatio="none" width="100%" height="100%" overflow="visible" style="display: block;" viewBox="0 0 67.9872 12" fill="none" xmlns="http://www.w3.org/2000/svg">
<g id="Group">
<path id="Vector" d="M1.92836 11.5035V11.0192H0.964178H0V5.99395V0.980827L0.940073 0.9445L1.86809 0.908174L1.90425 0.460141L1.94041 0H2.66354H3.37462V0.496468V0.980827L3.83261 0.9445C4.25443 0.908174 4.27854 0.883956 4.31469 0.460141L4.35085 0H4.95346H5.54402V0.47225C5.54402 0.9445 5.54402 0.9445 6.18279 1.08981C7.72547 1.45308 8.46066 2.31282 8.48476 3.76589C8.48476 4.49243 8.44861 4.64985 8.1232 5.10999C7.93036 5.40061 7.5929 5.73966 7.37596 5.88496L6.99029 6.15136L7.42417 6.4783C7.95447 6.89001 8.19551 7.43491 8.18346 8.19778C8.17141 9.48133 7.50853 10.3532 6.24305 10.7891C5.62839 10.995 5.60428 11.0192 5.56813 11.4914L5.53197 11.9879H4.92936H4.3388V11.5035C4.3388 11.0192 4.3388 11.0192 3.86876 11.0192C3.39873 11.0192 3.38667 11.0313 3.35052 11.4793L3.31436 11.9273L2.62738 11.9637L1.92836 12V11.5035ZM5.53197 9.13017C6.45999 8.75479 6.62872 7.78607 5.86943 7.21695C5.55607 6.98688 5.36324 6.96266 3.70003 6.96266H1.86809L1.83194 7.97982C1.80783 8.53683 1.81989 9.06963 1.85604 9.1665C1.95246 9.40868 4.90525 9.38446 5.53197 9.13017ZM5.4476 5.18264C6.14663 4.97679 6.62872 4.48032 6.62872 3.97175C6.62872 2.94248 5.90559 2.63976 3.5554 2.68819L1.86809 2.72452L1.83194 4.03229L1.79578 5.32795H3.38667C4.26649 5.32795 5.18245 5.26741 5.4476 5.18264Z" fill="var(--fill-0, white)"/>
<path id="Vector_2" d="M22.0039 10.8973C21.1602 10.6309 20.1358 9.95275 19.7019 9.37152C19.5332 9.14145 19.2198 8.59655 19.0029 8.13641C18.6413 7.36143 18.6172 7.25245 18.6172 5.87203C18.6172 4.46739 18.6292 4.38262 19.027 3.5471C19.7742 1.94872 21.0999 0.979999 22.8957 0.72571C24.4746 0.49564 25.728 0.762037 27.0055 1.58545L27.7528 2.08192L27.0778 2.76002C26.4511 3.38969 26.3909 3.42601 26.186 3.24438C25.5713 2.69947 24.9084 2.49362 23.7996 2.48151C22.7993 2.48151 22.6547 2.51784 22.0521 2.85689C20.883 3.52288 20.2322 4.91542 20.425 6.34428C20.5817 7.60361 21.1964 8.51178 22.1967 9.00825C22.7149 9.27465 22.9921 9.32309 23.8117 9.32309C24.7036 9.32309 24.8843 9.28676 25.5713 8.92349L26.3427 8.52389L26.9694 9.08091L27.5961 9.65003L27.3189 9.89221C26.8006 10.3645 26.3065 10.643 25.5713 10.8851C24.6071 11.2121 23.0162 11.2242 22.0039 10.8973Z" fill="var(--fill-0, white)"/>
<path id="Vector_3" d="M31.6836 10.923C30.1892 10.5234 28.996 9.46994 28.4295 8.02897C28.2006 7.43563 28.1523 7.09657 28.1523 5.93411C28.1523 4.32362 28.3813 3.56075 29.1647 2.56782C30.8641 0.388199 34.5521 0.121801 36.6492 2.02291L37.1312 2.45883L37.0951 4.28729L37.0589 6.11575L34.986 6.15207L32.9009 6.17629V5.81302V5.44975H34.6485H36.3961V4.08144C36.3961 2.49516 36.3599 2.42251 35.1908 1.88971C33.4433 1.09052 31.1172 1.50222 29.924 2.8221C28.7309 4.1662 28.4536 6.4548 29.3094 8.15006C29.9843 9.51837 31.2377 10.2933 32.9009 10.3902C34.1543 10.4629 34.998 10.2449 35.914 9.62735C36.4081 9.2883 36.5889 9.22776 36.7094 9.33674C36.9384 9.51837 36.9264 9.6879 36.6733 9.89375C35.2511 11.032 33.4915 11.3953 31.6836 10.923Z" fill="var(--fill-0, white)"/>
<path id="Vector_4" d="M42.306 10.9587C41.39 10.6923 40.7512 10.2927 40.0522 9.51768C39.1483 8.52475 38.8711 7.68923 38.8711 5.93342C38.8711 4.77096 38.9193 4.43191 39.1603 3.83857C39.9437 1.86481 41.6672 0.726562 43.8848 0.726562C46.0663 0.726562 47.7174 1.80426 48.537 3.76592C48.8383 4.45613 48.8624 4.6862 48.8624 5.93342C48.8624 7.09589 48.8142 7.44705 48.5852 8.02828C48.079 9.29972 46.9822 10.4259 45.8011 10.8497C45.0177 11.1282 43.1255 11.1887 42.306 10.9587ZM45.7891 9.97782C47.4161 9.23918 48.3441 7.54392 48.1754 5.58226C48.0308 3.85068 47.2474 2.61556 45.8252 1.91324C45.09 1.54997 44.9334 1.51365 43.8728 1.52576C42.8724 1.52576 42.6314 1.57419 41.9806 1.86481C41.0767 2.27651 40.3656 3.00305 39.9196 3.97177C39.6304 4.57722 39.5942 4.80729 39.5942 5.93342C39.5942 7.07167 39.6304 7.27752 39.9437 7.95562C40.4981 9.17863 41.5226 10.002 42.8483 10.2927C43.6558 10.4743 45.0418 10.329 45.7891 9.97782Z" fill="var(--fill-0, white)"/>
<path id="Vector_5" d="M53.5741 11.0555C51.4288 10.5712 50.4285 9.37238 50.8503 7.77399C51.1275 6.75684 52.0314 6.24826 54.3936 5.7639C56.7679 5.27954 57.6357 4.79518 57.7924 3.86279C57.9008 3.22101 57.6839 2.63978 57.1295 2.14332C56.551 1.61052 55.6591 1.40467 54.2852 1.47732C53.1161 1.53787 52.1519 1.96168 51.5252 2.68822C51.1034 3.1968 51.019 3.22101 50.6816 2.97884C50.4646 2.82142 50.4646 2.78509 50.8985 2.2523C51.2239 1.86481 51.6216 1.56208 52.2845 1.24725C53.1884 0.799218 53.2366 0.787109 54.5985 0.787109C55.6832 0.787109 56.1292 0.835545 56.6233 1.02929C57.9732 1.52576 58.6601 2.51869 58.5517 3.80225C58.4311 5.30376 57.5393 5.87288 54.237 6.53888C51.9591 6.99902 51.2842 7.59236 51.6096 8.81536C51.8988 9.89306 52.8269 10.3532 54.7191 10.3532C55.8038 10.3532 56.0569 10.3169 56.5269 10.0747C56.8282 9.91728 57.2139 9.62667 57.3826 9.42081C57.6598 9.08176 57.708 9.06965 57.949 9.21496C58.2745 9.42081 58.2745 9.45714 57.9852 9.83252C57.6116 10.3048 56.8402 10.777 56.1533 10.9708C55.5386 11.1282 54.1164 11.1766 53.5741 11.0555Z" fill="var(--fill-0, white)"/>
<path id="Vector_6" d="M9.39844 10.1716V9.32394H10.9652H12.532V5.0858V0.847656H13.4962H14.4604V5.0858V9.32394H16.0272H17.5939V10.1716V11.0192H13.4962H9.39844V10.1716Z" fill="var(--fill-0, white)"/>
<path id="Vector_7" d="M60.2617 7.49353C60.2617 3.76397 60.334 3.21906 60.9125 2.34721C61.2621 1.80231 61.6236 1.5117 62.4311 1.07577C62.8891 0.833592 63.1422 0.785156 64.1184 0.785156C65.1308 0.785156 65.3357 0.821483 65.866 1.1121C66.6373 1.5238 67.2882 2.20191 67.6377 2.96477C67.9028 3.546 67.9149 3.70342 67.951 7.26346L67.9872 10.9567L67.6256 10.6055L67.252 10.2423V7.21502C67.252 5.54399 67.1917 3.98193 67.1315 3.75186C66.7579 2.40776 65.7455 1.58435 64.3474 1.47537C63.2868 1.40271 62.5878 1.657 61.8767 2.37143C61.0692 3.18273 60.9849 3.61866 60.9849 7.20292V10.2423L60.6233 10.5934L60.2617 10.9446V7.49353Z" fill="var(--fill-0, white)"/>
</g>
</svg>
