<svg preserveAspectRatio="none" width="100%" height="100%" overflow="visible" style="display: block;" viewBox="0 0 19.1245 19.86" fill="none" xmlns="http://www.w3.org/2000/svg">
<g id="Vector">
<path fill-rule="evenodd" clip-rule="evenodd" d="M9.55487 19.86C6.6059 19.8578 4.23045 19.1573 2.5707 17.8992C0.891049 16.6259 0 14.819 0 12.7744C0 10.8043 0.889099 9.38378 1.8951 8.42355C2.6835 7.67105 3.55351 7.18911 4.15931 6.91189C4.02231 6.49571 3.8514 5.95087 3.69848 5.38813C3.49387 4.63511 3.29314 3.75161 3.29314 3.10418C3.29314 2.33787 3.46192 1.56827 3.917 0.970272C4.39782 0.338464 5.12164 0 5.99243 0C6.67299 0 7.25078 0.249894 7.70312 0.680987C8.13551 1.09305 8.42328 1.64028 8.62197 2.21074C8.97112 3.21314 9.10707 4.47248 9.14519 5.72925H9.97926C10.0175 4.47248 10.1533 3.21314 10.5025 2.21074C10.7012 1.64028 10.989 1.09305 11.4214 0.680987C11.8737 0.249894 12.4515 0 13.132 0C14.0028 0 14.7267 0.338464 15.2075 0.970272C15.6626 1.56827 15.8314 2.33787 15.8314 3.10418C15.8314 3.75161 15.6307 4.63511 15.426 5.38813C15.2731 5.95087 15.1022 6.49571 14.9652 6.91189C15.571 7.18911 16.441 7.67105 17.2294 8.42355C18.2354 9.38378 19.1245 10.8043 19.1245 12.7744C19.1245 14.819 18.2335 16.6259 16.5538 17.8992C14.894 19.1573 12.5186 19.8578 9.56963 19.86H9.55487Z" fill="var(--fill-0, #633001)"/>
<path d="M5.99241 0.728807C4.717 0.728807 4.1299 1.68031 4.1299 2.99621C4.1299 4.04217 4.81205 6.13693 5.09194 6.95239C5.1549 7.1358 5.05599 7.33675 4.87557 7.40788C3.85338 7.81094 0.836761 9.28667 0.836761 12.6665C0.836761 16.2266 3.90233 18.911 9.55548 18.9153C9.55773 18.9153 9.55998 18.9152 9.56223 18.9152C9.56448 18.9152 9.56673 18.9153 9.56898 18.9153C15.2222 18.911 18.2877 16.2266 18.2877 12.6665C18.2877 9.28667 15.2711 7.81094 14.2489 7.40788C14.0685 7.33675 13.9695 7.1358 14.0325 6.95239C14.3124 6.13693 14.9946 4.04217 14.9946 2.99621C14.9946 1.68031 14.4075 0.728807 13.132 0.728807C11.2961 0.728807 10.8385 3.32943 10.8058 6.12053C10.8036 6.30687 10.653 6.45805 10.4666 6.45805H8.65777C8.47143 6.45805 8.32079 6.30687 8.31861 6.12053C8.28597 3.32943 7.82833 0.728807 5.99241 0.728807Z" fill="#D1884F"/>
<path d="M9.56898 17.7749C5.41532 17.7749 0.843941 15.5515 0.836781 12.6733C0.836771 12.6777 0.836761 12.6822 0.836761 12.6867C0.836761 16.2497 3.90721 18.9355 9.56898 18.9355C15.2308 18.9355 18.3012 16.2497 18.3012 12.6867C18.3012 12.6822 18.3012 12.6777 18.3012 12.6733C18.294 15.5515 13.7226 17.7749 9.56898 17.7749Z" fill="#FEDC90"/>
<path d="M7.2611 11.7892C7.2611 12.761 6.80187 13.267 6.23536 13.267C5.66887 13.267 5.20963 12.761 5.20963 11.7892C5.20963 10.8174 5.66887 10.3113 6.23536 10.3113C6.80187 10.3113 7.2611 10.8174 7.2611 11.7892Z" fill="var(--fill-0, #633001)"/>
<path d="M13.9283 11.7892C13.9283 12.761 13.4691 13.267 12.9027 13.267C12.3361 13.267 11.8769 12.761 11.8769 11.7892C11.8769 10.8174 12.3361 10.3113 12.9027 10.3113C13.4691 10.3113 13.9283 10.8174 13.9283 11.7892Z" fill="var(--fill-0, #633001)"/>
</g>
</svg>
