<svg preserveAspectRatio="none" width="100%" height="100%" overflow="visible" style="display: block;" viewBox="0 0 145 20" fill="none" xmlns="http://www.w3.org/2000/svg">
<g id="Dexsport logo">
<g id="Dexsport logo_White">
<path d="M69.3691 3.76469C69.5153 3.53113 69.4647 3.22367 69.2415 3.06198C67.3443 1.68733 64.9357 1 62.0157 1C60.3635 1 58.9534 1.2422 57.7852 1.7266C56.6337 2.19429 55.7492 2.85408 55.1318 3.70596C54.531 4.55783 54.2306 5.55168 54.2306 6.68752C54.2306 7.78994 54.4809 8.66687 54.9816 9.31831C55.4822 9.95304 56.1331 10.4374 56.9341 10.7715C57.7351 11.1056 58.5779 11.3728 59.4624 11.5733L61.9656 12.1245C62.4662 12.2414 62.8084 12.3583 62.9919 12.4753C63.1922 12.5922 63.2923 12.7676 63.2923 13.0014C63.2923 13.2186 63.1755 13.4023 62.9419 13.5526C62.7249 13.6863 62.316 13.7531 61.7153 13.7531C61.0811 13.7531 60.3969 13.6612 59.6626 13.4775C58.9283 13.2937 58.2191 13.0515 57.5349 12.7509C56.9999 12.5027 56.5262 12.2342 56.1137 11.9453C55.9344 11.8197 55.6826 11.8649 55.5699 12.0525L53.7213 15.1296C53.5825 15.3608 53.6329 15.6603 53.851 15.8189C54.4198 16.2327 55.072 16.5964 55.8076 16.91C56.7088 17.2775 57.6851 17.5615 58.7364 17.7619C59.7878 17.9456 60.8391 18.0375 61.8905 18.0375C63.2923 18.0375 64.5439 17.8287 65.6453 17.4111C66.7635 16.9935 67.6479 16.3588 68.2988 15.5069C68.9496 14.6384 69.275 13.5359 69.275 12.1997C69.275 10.8634 68.8411 9.81941 67.9734 9.06776C67.1223 8.3161 65.8539 7.74819 64.1684 7.36401L61.8905 6.83785C61.4232 6.72092 61.0311 6.61235 60.714 6.51213C60.4136 6.41191 60.2634 6.26158 60.2634 6.06114C60.2634 5.82729 60.3886 5.64355 60.6389 5.50993C60.9059 5.3596 61.3648 5.28443 62.0157 5.28443C63.017 5.28443 63.9432 5.45146 64.7942 5.78553C65.5462 6.07502 66.2669 6.44604 66.9562 6.89859C67.1299 7.01262 67.3651 6.96552 67.4753 6.78941L69.3691 3.76469Z" fill="white"/>
<path d="M19.5269 17.7869C19.2266 17.7869 18.9831 17.5435 18.9831 17.2432V1.7943C18.9831 1.494 19.2266 1.25055 19.5269 1.25055H32.1571C32.4574 1.25055 32.7008 1.494 32.7008 1.7943V4.99123C32.7008 5.29154 32.4574 5.53498 32.1571 5.53498H24.8156V7.5895H30.6301C30.9304 7.5895 31.1739 7.83295 31.1739 8.13325V11.0045C31.1739 11.3048 30.9304 11.5482 30.6301 11.5482H24.8156V13.5025H32.4575C32.7578 13.5025 33.0012 13.746 33.0012 14.0463V17.2432C33.0012 17.5435 32.7578 17.7869 32.4575 17.7869H19.5269Z" fill="white"/>
<path d="M52.3072 17.5035C52.3894 17.6238 52.3032 17.7869 52.1576 17.7869H45.6891C45.5527 17.7869 45.4278 17.7103 45.366 17.5887L43.2889 13.5025L41.384 17.5779C41.3244 17.7055 41.1964 17.7869 41.0556 17.7869H35.041C34.8964 17.7869 34.81 17.6258 34.8901 17.5053L40.1849 9.5438L35.0805 1.52917C35.0037 1.40851 35.0904 1.25055 35.2334 1.25055H41.556C41.6969 1.25055 41.825 1.33218 41.8846 1.45987L43.7145 5.38465L45.5689 1.45824C45.6288 1.33144 45.7565 1.25055 45.8967 1.25055H51.6925C51.836 1.25055 51.9226 1.4095 51.8447 1.53011L46.7684 9.39347L52.3072 17.5035Z" fill="white"/>
<path fill-rule="evenodd" clip-rule="evenodd" d="M81.0261 1.25055C83.2624 1.25055 84.9729 1.75165 86.1578 2.75386C87.3593 3.75607 87.9601 5.20091 87.9601 7.0884C87.9601 8.95918 87.3593 10.404 86.1578 11.4229C84.9729 12.4251 83.2624 12.9262 81.0261 12.9262H78.0974V17.2432C78.0974 17.5435 77.8539 17.7869 77.5536 17.7869H72.8086C72.5083 17.7869 72.2648 17.5435 72.2648 17.2432V1.7943C72.2648 1.494 72.5083 1.25055 72.8086 1.25055H81.0261ZM80.0749 8.79215C80.7091 8.79215 81.2097 8.65852 81.5769 8.39127C81.944 8.10731 82.1276 7.67302 82.1276 7.0884C82.1276 6.50378 81.944 6.07784 81.5769 5.81059C81.2097 5.52663 80.7091 5.38465 80.0749 5.38465H78.0974V8.79215H80.0749Z" fill="white"/>
<path fill-rule="evenodd" clip-rule="evenodd" d="M105.234 3.22991C103.765 1.7433 101.713 1 99.0758 1C97.3403 1 95.8383 1.33407 94.57 2.0022C93.3184 2.67034 92.3505 3.63914 91.6663 4.9086C90.9987 6.17806 90.665 7.71478 90.665 9.51875C90.665 11.3227 90.9987 12.8594 91.6663 14.1289C92.3505 15.3984 93.3184 16.3672 94.57 17.0353C95.8383 17.7034 97.3403 18.0375 99.0758 18.0375C101.713 18.0375 103.765 17.2942 105.234 15.8076C106.719 14.321 107.462 12.2247 107.462 9.51875C107.462 6.81279 106.719 4.71651 105.234 3.22991ZM97.1984 6.38686C97.5989 5.71872 98.2247 5.38465 99.0758 5.38465C99.9269 5.38465 100.544 5.71872 100.928 6.38686C101.312 7.03829 101.504 8.08225 101.504 9.51875C101.504 10.9552 101.312 12.0076 100.928 12.6757C100.544 13.3271 99.9269 13.6528 99.0758 13.6528C98.2247 13.6528 97.5989 13.3271 97.1984 12.6757C96.8146 12.0076 96.6227 10.9552 96.6227 9.51875C96.6227 8.08225 96.8146 7.03829 97.1984 6.38686Z" fill="white"/>
<path fill-rule="evenodd" clip-rule="evenodd" d="M119.64 1.25055C121.793 1.25055 123.445 1.73495 124.597 2.70375C125.748 3.65585 126.324 4.92531 126.324 6.51213C126.324 9.00094 125.289 10.6462 123.22 11.448L126.719 16.9515C126.949 17.3135 126.689 17.7869 126.26 17.7869H121.243C121.042 17.7869 120.858 17.6763 120.763 17.4992L117.988 12.2999H116.386V17.2432C116.386 17.5435 116.143 17.7869 115.842 17.7869H111.222C110.922 17.7869 110.679 17.5435 110.679 17.2432V1.7943C110.679 1.494 110.922 1.25055 111.222 1.25055H119.64ZM118.639 8.46643C119.256 8.46643 119.715 8.35786 120.016 8.14072C120.333 7.90687 120.491 7.50599 120.491 6.93807C120.491 6.38686 120.333 5.99433 120.016 5.76048C119.715 5.52663 119.256 5.40971 118.639 5.40971H116.386V8.46643H118.639Z" fill="white"/>
<path d="M144.456 5.53498C144.757 5.53498 145 5.29154 145 4.99123V1.7943C145 1.494 144.757 1.25055 144.456 1.25055H129.373C129.073 1.25055 128.829 1.494 128.829 1.7943V4.99123C128.829 5.29154 129.073 5.53498 129.373 5.53498H134.011V17.2432C134.011 17.5435 134.254 17.7869 134.555 17.7869H139.3C139.6 17.7869 139.843 17.5435 139.843 17.2432V5.53498H144.456Z" fill="white"/>
<path fill-rule="evenodd" clip-rule="evenodd" d="M8.11048 1.25051C10.6972 1.25051 12.6497 1.96876 13.968 3.40525C15.2864 4.84175 15.9456 6.87956 15.9456 9.51871C15.9456 12.1411 15.2864 14.179 13.968 15.6322C12.6497 17.0687 10.6972 17.7869 8.11048 17.7869H0.54375C0.243446 17.7869 0 17.5432 0 17.2427V1.79475C0 1.49418 0.243445 1.25051 0.54375 1.25051H8.11048ZM5.43682 13.5372C5.31303 13.8735 5.69943 14.1667 5.98949 13.9566L10.9809 10.3411C11.2032 10.1801 11.173 9.83975 10.9259 9.72039L8.35596 8.47939C8.18782 8.3982 8.10878 8.20248 8.17333 8.02715L9.16514 5.33312C9.28893 4.99685 8.90253 4.70363 8.61247 4.91373L3.62109 8.52921C3.39876 8.69025 3.42892 9.03057 3.67609 9.14993L6.246 10.3909C6.41414 10.4721 6.49318 10.6678 6.42863 10.8432L5.43682 13.5372Z" fill="white"/>
</g>
</g>
</svg>
