<svg preserveAspectRatio="none" width="100%" height="100%" overflow="visible" style="display: block;" viewBox="0 0 16 17.6" fill="none" xmlns="http://www.w3.org/2000/svg">
<path id="Vector" d="M2.4 0C2.2484 0 2.11019 0.0854938 2.04219 0.221094C1.97459 0.356694 1.98849 0.518644 2.07969 0.639844L3.2 2.13281V15.4672L1.67969 16.9602C1.58889 17.0814 1.57499 17.2433 1.64219 17.3789C1.71019 17.5145 1.8484 17.6 2 17.6H13.6C13.7216 17.6 13.8365 17.5448 13.9125 17.45L15.9125 15.45C16.0085 15.3296 16.0266 15.1654 15.9602 15.0266C15.8934 14.8886 15.754 14.8 15.6 14.8H7.2V0.4C7.2 0.1788 7.0212 0 6.8 0H2.4ZM8 1.6V2.4C11.97 2.4 15.2 5.63 15.2 9.6C15.2 11.2576 14.6315 12.7816 13.6867 14H14.6742C15.5098 12.7364 16 11.2252 16 9.6C16 5.1888 12.4112 1.6 8 1.6ZM8 3.2V14H12.6359C13.7263 12.852 14.4 11.3048 14.4 9.6C14.4 6.0712 11.5288 3.2 8 3.2ZM2.4 3.89609C1.0176 5.25369 0.122919 7.10604 0.0117188 9.16484C0.00411875 9.30884 0 9.454 0 9.6C0 9.836 0.0104687 10.07 0.0304688 10.3008C0.200869 12.2528 1.0772 14.0051 2.4 15.3039V14.1148C1.4012 12.8788 0.8 11.3092 0.8 9.6C0.8 7.8908 1.4012 6.32116 2.4 5.08516V3.89609ZM2.4 6.50859C1.8916 7.42579 1.6 8.4792 1.6 9.6C1.6 10.7208 1.8916 11.7742 2.4 12.6914V6.50859Z" fill="var(--fill-0, white)" fill-opacity="0.5"/>
</svg>
