<svg preserveAspectRatio="none" width="100%" height="100%" overflow="visible" style="display: block;" viewBox="0 0 31.4013 27.9707" fill="none" xmlns="http://www.w3.org/2000/svg">
<path id="Vector" d="M30.8211 11.7592C31.5933 13.0799 31.5948 14.7141 30.8249 16.0362C28.9168 19.3128 27.0109 22.5872 25.1028 25.8638C24.3396 27.1745 22.9345 27.9777 21.4178 27.9707C17.5705 27.9528 13.7227 27.935 9.87223 27.9171C8.369 27.9102 6.98168 27.1082 6.22579 25.8088C4.34199 22.5706 2.45819 19.3297 0.574396 16.0884C-0.192497 14.7689 -0.191383 13.1391 0.577251 11.8206C2.45352 8.60202 4.32979 5.38297 6.20607 2.16132C6.9625 0.862492 8.34959 0.0606772 9.85262 0.0537439C13.7329 0.0358444 17.6132 0.0179448 21.4935 4.5329e-05C23.0074 -0.00693804 24.4103 0.793392 25.1745 2.10026C27.0567 5.31918 28.9389 8.54023 30.8211 11.7592Z" fill="var(--fill-0, #CE9E3E)"/>
</svg>
