<svg preserveAspectRatio="none" width="100%" height="100%" overflow="visible" style="display: block;" viewBox="0 0 16 16" fill="none" xmlns="http://www.w3.org/2000/svg">
<g id="Vector">
<path d="M8 0C6.41775 0 4.87103 0.469192 3.55544 1.34824C2.23985 2.22729 1.21447 3.47672 0.608967 4.93853C0.00346632 6.40034 -0.15496 8.00887 0.153721 9.56072C0.462403 11.1126 1.22433 12.538 2.34315 13.6569C3.46197 14.7757 4.88743 15.5376 6.43928 15.8463C7.99113 16.155 9.59966 15.9965 11.0615 15.391C12.5233 14.7855 13.7727 13.7602 14.6518 12.4446C15.5308 11.129 16 9.58225 16 8C15.9975 5.87903 15.1538 3.84566 13.6541 2.34591C12.1543 0.84616 10.121 0.00250216 8 0ZM8 14.5455C6.70543 14.5455 5.43994 14.1616 4.36354 13.4423C3.28715 12.7231 2.4482 11.7009 1.95279 10.5048C1.45738 9.30881 1.32776 7.99274 1.58032 6.72304C1.83288 5.45335 2.45627 4.28706 3.37167 3.37166C4.28707 2.45627 5.45335 1.83287 6.72305 1.58031C7.99274 1.32776 9.30881 1.45738 10.5048 1.95279C11.7009 2.4482 12.7231 3.28715 13.4423 4.36354C14.1616 5.43993 14.5455 6.70543 14.5455 8C14.5433 9.73531 13.8531 11.3989 12.626 12.626C11.3989 13.853 9.73531 14.5433 8 14.5455Z" fill="white"/>
<path d="M8.7276 7.69895V3.63641C8.7276 3.44353 8.65097 3.25855 8.51458 3.12216C8.37819 2.98577 8.19321 2.90914 8.00032 2.90914C7.80744 2.90914 7.62246 2.98577 7.48607 3.12216C7.34968 3.25855 7.27305 3.44353 7.27305 3.63641V8.00004C7.27309 8.19291 7.34974 8.37786 7.48614 8.51422L9.66796 10.696C9.80513 10.8285 9.98884 10.9018 10.1795 10.9002C10.3702 10.8985 10.5526 10.822 10.6875 10.6872C10.8223 10.5523 10.8988 10.3699 10.9005 10.1792C10.9021 9.98855 10.8288 9.80484 10.6963 9.66768L8.7276 7.69895Z" fill="white"/>
</g>
</svg>
