<svg preserveAspectRatio="none" width="100%" height="100%" overflow="visible" style="display: block;" viewBox="0 0 10 12" fill="none" xmlns="http://www.w3.org/2000/svg">
<g id="Vector">
<path fill-rule="evenodd" clip-rule="evenodd" d="M7.26234 4.01212C8.0341 4.58875 8.97922 4.92806 9.99999 4.92806V3.31131C9.43021 3.18446 8.92578 2.8731 8.54649 2.44006C7.89733 2.01653 7.42956 1.31778 7.29244 0.499931H5.86136V8.70345C5.85812 9.65979 5.11575 10.4341 4.20031 10.4341C3.66084 10.4341 3.18159 10.1653 2.87808 9.74888C2.33608 9.46289 1.9644 8.87572 1.9644 8.19762C1.9644 7.23854 2.70797 6.46103 3.62538 6.46103C3.80114 6.46103 3.97055 6.48964 4.12946 6.54237V4.908C2.15933 4.95055 0.574848 6.6336 0.574848 8.70352C0.574848 9.73679 0.969436 10.6735 1.60979 11.3579C2.18754 11.7635 2.88302 12 3.63123 12C5.63661 12 7.26234 10.3003 7.26234 8.20359V4.01212Z" fill="white"/>
<path fill-rule="evenodd" clip-rule="evenodd" d="M9.99999 3.31131L10 2.87421C9.48616 2.87502 8.98245 2.72457 8.54649 2.44006C8.9324 2.88179 9.44055 3.18634 9.99999 3.31131ZM7.29244 0.499931C7.27934 0.421779 7.26931 0.343171 7.26234 0.264161V0H5.28637V8.20359C5.2832 9.15986 4.5409 9.9342 3.62539 9.9342C3.35658 9.9342 3.10284 9.86747 2.87808 9.74888C3.18159 10.1653 3.66084 10.4341 4.20031 10.4341C5.11575 10.4341 5.85812 9.65979 5.86136 8.70345V0.499931H7.29244ZM4.12946 4.908L4.12954 4.44265C3.96442 4.41904 3.79796 4.40724 3.63131 4.40733C1.62573 4.40733 0 6.10704 0 8.20359C0 9.51805 0.638862 10.6765 1.60979 11.3579C0.969436 10.6735 0.574848 9.73679 0.574848 8.70352C0.574848 6.6336 2.15933 4.95055 4.12946 4.908Z" fill="white"/>
</g>
</svg>
