<svg preserveAspectRatio="none" width="100%" height="100%" overflow="visible" style="display: block;" viewBox="0 0 64.8106 20.6194" fill="none" xmlns="http://www.w3.org/2000/svg">
<g id="WINNER OF THE DAY">
<path d="M11.6527 7.50842H9.69077L7.54853 0H8.85296L10.624 6.35246H10.7301L12.3314 0H13.8798L15.4706 6.35246H15.5766L17.3477 0H18.6415L16.5099 7.50842H14.5479L13.1586 1.68621H13.0526L11.6527 7.50842Z" fill="white"/>
<path d="M21.6624 7.50842H20.3262V0H21.6624V7.50842Z" fill="white"/>
<path d="M25.1075 7.50842H23.8031V0H25.5211L28.7133 5.76918H28.8193V0H30.1131V7.50842H28.4057L25.2136 1.73924H25.1075V7.50842Z" fill="white"/>
<path d="M33.5556 7.50842H32.2512V0H33.9692L37.1613 5.76918H37.2674V0H38.5612V7.50842H36.8538L33.6616 1.73924H33.5556V7.50842Z" fill="white"/>
<path d="M46.129 7.50842H40.6992V0H46.023V1.11354H42.0248V3.1179H45.6518V4.16781H42.0248V6.38428H46.129V7.50842Z" fill="white"/>
<path d="M49.1682 7.50842H47.832V0H51.2468C52.9224 0 54.0466 0.943855 54.0466 2.36494C54.0466 3.62695 53.0921 4.52838 51.7877 4.62383H51.7028L54.2799 7.50842H52.6785L50.2817 4.71928H49.1682V7.50842ZM49.1682 1.08172V3.66937H51.1514C52.1058 3.66937 52.7209 3.17093 52.7209 2.37554C52.7209 1.58016 52.0952 1.08172 51.1514 1.08172H49.1682Z" fill="white"/>
<path d="M4.10418 20.6194C1.68621 20.6194 0 18.9968 0 16.6318C0 14.2669 1.68621 12.6337 4.10418 12.6337C6.51154 12.6337 8.19775 14.2669 8.19775 16.6318C8.19775 18.9968 6.51154 20.6194 4.10418 20.6194ZM4.10418 19.4846C5.72676 19.4846 6.87211 18.3075 6.87211 16.6318C6.87211 14.9562 5.72676 13.7685 4.10418 13.7685C2.4816 13.7685 1.33624 14.9562 1.33624 16.6318C1.33624 18.3075 2.4816 19.4846 4.10418 19.4846Z" fill="white"/>
<path d="M11.2444 20.3861H9.90816V12.8776H14.9562V14.0336H11.2444V16.038H14.5214V17.1409H11.2444V20.3861Z" fill="white"/>
<path d="M21.6527 20.3861H20.3164V14.0124H17.8772V12.8776H24.0918V14.0124H21.6527V20.3861Z" fill="white"/>
<path d="M26.7688 20.3861H25.4432V12.8776H26.7688V15.9213H30.3958V12.8776H31.732V20.3861H30.3958V17.0348H26.7688V20.3861Z" fill="white"/>
<path d="M39.29 20.3861H33.8601V12.8776H39.1839V13.9912H35.1858V15.9955H38.8127V17.0454H35.1858V19.2619H39.29V20.3861Z" fill="white"/>
<path d="M45.7718 20.3861H43.1841V12.8776H45.7718C48.3806 12.8776 50.1199 14.373 50.1199 16.6318C50.1199 18.8801 48.3806 20.3861 45.7718 20.3861ZM44.4992 13.97V19.2831H45.7718C47.5746 19.2831 48.7942 18.265 48.7942 16.6318C48.7942 14.9987 47.5746 13.97 45.7718 13.97H44.4992Z" fill="white"/>
<path d="M52.2278 20.3861H50.9234L53.6277 12.8776H55.5048L58.1773 20.3861H56.8622L56.3108 18.8695H52.7899L52.2278 20.3861ZM54.5079 14.023L53.1292 17.8408H55.982L54.6139 14.023H54.5079Z" fill="white"/>
<path d="M62.1381 20.3861H60.8019V17.7136L58.0976 12.8776H59.4868L61.417 16.494H61.523L63.3895 12.8776H64.8106L62.1381 17.7136V20.3861Z" fill="white"/>
</g>
</svg>
