<svg preserveAspectRatio="none" width="100%" height="100%" overflow="visible" style="display: block;" viewBox="0 0 59.2768 64.0805" fill="none" xmlns="http://www.w3.org/2000/svg">
<g id="Lights">
<path id="Vector 264" d="M36.802 32.5179L59.2768 44.2031L54.8062 51.9463L33.4491 38.3252L36.802 32.5179Z" fill="url(#paint0_linear_35581_35673)" fill-opacity="0.6"/>
<path id="Vector 265" d="M33.0685 38.7741L34.1861 64.0805H25.2451L26.3627 38.7741H33.0685Z" fill="url(#paint1_linear_35581_35673)" fill-opacity="0.6"/>
<path id="Vector 276" d="M26.1882 25.3063L25.0705 3.57628e-07L34.0116 3.57628e-07L32.8939 25.3063H26.1882Z" fill="url(#paint2_linear_35581_35673)" fill-opacity="0.6"/>
<path id="Vector 267" d="M25.8276 38.4055L4.47052 52.0266L0 44.2834L22.4747 32.5981L25.8276 38.4055Z" fill="url(#paint3_linear_35581_35673)" fill-opacity="0.6"/>
<path id="Vector 274" d="M36.802 31.5798L59.2768 19.8945L54.8062 12.1514L33.4491 25.7724L36.802 31.5798Z" fill="url(#paint4_linear_35581_35673)" fill-opacity="0.6"/>
<path id="Vector 275" d="M25.8276 25.6922L4.47052 12.0711L0 19.8143L22.4747 31.4995L25.8276 25.6922Z" fill="url(#paint5_linear_35581_35673)" fill-opacity="0.6"/>
</g>
<defs>
<linearGradient id="paint0_linear_35581_35673" x1="57.2878" y1="48.2799" x2="35.2627" y2="35.5637" gradientUnits="userSpaceOnUse">
<stop stop-color="#FFEBA3" stop-opacity="0"/>
<stop offset="1" stop-color="#FFD15A" stop-opacity="0.4"/>
</linearGradient>
<linearGradient id="paint1_linear_35581_35673" x1="29.6611" y1="64.3964" x2="29.6611" y2="38.964" gradientUnits="userSpaceOnUse">
<stop stop-color="#FFEBA3" stop-opacity="0"/>
<stop offset="1" stop-color="#FFD15A" stop-opacity="0.4"/>
</linearGradient>
<linearGradient id="paint2_linear_35581_35673" x1="29.5956" y1="-0.31593" x2="29.5956" y2="25.1165" gradientUnits="userSpaceOnUse">
<stop stop-color="#FFEBA3" stop-opacity="0"/>
<stop offset="1" stop-color="#FFD15A" stop-opacity="0.4"/>
</linearGradient>
<linearGradient id="paint3_linear_35581_35673" x1="1.93438" y1="48.2657" x2="23.9595" y2="35.5495" gradientUnits="userSpaceOnUse">
<stop stop-color="#FFEBA3" stop-opacity="0"/>
<stop offset="1" stop-color="#FFD15A" stop-opacity="0.4"/>
</linearGradient>
<linearGradient id="paint4_linear_35581_35673" x1="57.2878" y1="15.8177" x2="35.2627" y2="28.5339" gradientUnits="userSpaceOnUse">
<stop stop-color="#FFEBA3" stop-opacity="0"/>
<stop offset="1" stop-color="#FFD15A" stop-opacity="0.4"/>
</linearGradient>
<linearGradient id="paint5_linear_35581_35673" x1="1.93438" y1="15.832" x2="23.9595" y2="28.5482" gradientUnits="userSpaceOnUse">
<stop stop-color="#FFEBA3" stop-opacity="0"/>
<stop offset="1" stop-color="#FFD15A" stop-opacity="0.4"/>
</linearGradient>
</defs>
</svg>
