<svg preserveAspectRatio="none" width="100%" height="100%" overflow="visible" style="display: block;" viewBox="0 0 10.1352 9.43922" fill="none" xmlns="http://www.w3.org/2000/svg">
<g id="Vector">
<path d="M6.38192 1.44056L7.2051 1.5809L7.82249 2.14318L7.96283 1.32L8.5251 0.70261L7.70192 0.562271L7.08453 0L6.94419 0.823177L6.38192 1.44056Z" fill="var(--fill-0, #FFDC42)"/>
<path d="M8.58703 4.31985L9.30036 3.88571L10.1352 3.90502L9.70106 3.19169L9.72037 2.35686L9.00704 2.79099L8.1722 2.77168L8.60634 3.48501L8.58703 4.31985Z" fill="var(--fill-0, #FFDC42)"/>
<path d="M7.61951 8.98045L6.92177 9.43922L6.91193 8.60422L6.45316 7.90648L7.28816 7.89664L7.9859 7.43787L7.99574 8.27287L8.45451 8.97061L7.61951 8.98045Z" fill="var(--fill-0, #FFDC42)"/>
<path d="M8.22529 6.82151L9.05526 6.72952L9.80371 7.09983L9.71172 6.26986L10.082 5.5214L9.25206 5.6134L8.5036 5.24309L8.5956 6.07306L8.22529 6.82151Z" fill="var(--fill-0, #FFDC42)"/>
<path fill-rule="evenodd" clip-rule="evenodd" d="M3.5 5.41525L1.33688 6.80501L2.135 4.52145L0 3.0968L2.65638 3.07525L3.5 0.805007L4.34362 3.07525L7 3.0968L4.865 4.52145L5.66312 6.80501L3.5 5.41525Z" fill="#FFDC42"/>
</g>
</svg>
