<svg preserveAspectRatio="none" width="100%" height="100%" overflow="visible" style="display: block;" viewBox="0 0 24.0001 17.1425" fill="none" xmlns="http://www.w3.org/2000/svg">
<g id="Rectangle 512">
<path d="M24 0H0V1.14286H24V0Z" fill="var(--fill-0, #D02F44)"/>
<path d="M24.0001 2.28555H9.82809e-05V3.42841H24.0001V2.28555Z" fill="var(--fill-0, #D02F44)"/>
<path d="M9.82809e-05 4.57124H24.0001V5.7141H9.82809e-05V4.57124Z" fill="var(--fill-0, #D02F44)"/>
<path d="M24.0001 6.85693H9.82809e-05V7.99978H24.0001V6.85693Z" fill="var(--fill-0, #D02F44)"/>
<path d="M9.82809e-05 9.14285H24.0001V10.2857H9.82809e-05V9.14285Z" fill="var(--fill-0, #D02F44)"/>
<path d="M24.0001 11.4283H9.82809e-05V12.5712H24.0001V11.4283Z" fill="var(--fill-0, #D02F44)"/>
<path d="M9.82809e-05 13.7142H24.0001V14.8571H9.82809e-05V13.7142Z" fill="var(--fill-0, #D02F44)"/>
<path d="M24.0001 15.9997H9.82809e-05V17.1425H24.0001V15.9997Z" fill="var(--fill-0, #D02F44)"/>
</g>
</svg>
