<svg preserveAspectRatio="none" width="100%" height="100%" overflow="visible" style="display: block;" viewBox="0 0 19.2745 40.0271" fill="none" xmlns="http://www.w3.org/2000/svg">
<g id="Group">
<path id="Vector" d="M0.168029 40.0256C2.42163 39.708 4.461 38.7103 6.25275 37.3496C6.26388 37.361 6.28649 37.3722 6.29779 37.3836C8.17944 38.1206 10.3204 37.5536 11.7289 36.1477C11.8979 35.9776 11.7626 35.7282 11.5485 35.7055C10.264 35.5807 8.6978 35.7282 7.45832 36.3519C8.44984 35.4559 9.35128 34.4696 10.1513 33.4263C10.6584 32.7687 11.143 32.0884 11.6162 31.3967H11.6275C13.7458 31.9636 15.8417 30.6483 16.5065 28.5847C16.5515 28.4372 16.4501 28.3012 16.3148 28.2559C15.5374 27.995 14.6022 28.5733 13.9374 28.9588C13.4417 29.2423 12.9796 29.5599 12.5402 29.9226C13.6218 28.0744 14.5233 26.1129 15.143 24.0831C15.1769 24.1058 15.2219 24.1172 15.2783 24.1058C17.3065 23.5502 18.839 21.77 19.2671 19.729C19.3122 19.5363 19.1431 19.3548 18.9404 19.4002C18.0614 19.6269 17.4192 20.1825 16.8558 20.897C16.3825 21.4979 15.8754 22.1896 15.4699 22.8813C15.56 22.5184 15.6389 22.1442 15.7177 21.7813C15.8191 21.2485 15.8867 20.7269 15.9318 20.1939C15.9431 20.1713 15.9431 20.1486 15.9431 20.1258V20.1146C16.067 18.6292 15.977 17.1324 15.7177 15.6583C15.729 15.6583 15.7403 15.6471 15.7627 15.6471C17.2726 14.6945 18.0276 10.6352 16.2811 9.5694C16.1797 9.50134 16.0557 9.53545 15.9657 9.61473C15.5036 10.0004 15.6163 11.0548 15.56 11.5877C15.4699 12.3928 15.4023 13.2092 15.3572 14.0143C14.8502 12.0979 14.0501 10.2384 13.0584 8.4922C14.6472 6.34918 14.4782 3.31041 12.9683 1.16739C12.8444 0.985933 12.5289 0.985933 12.4726 1.23529C11.9318 3.29904 12.281 5.54408 12.5515 7.64178C11.6275 6.15635 10.5683 4.76173 9.39649 3.49187C8.90056 2.68677 8.57382 1.76829 7.87531 1.08795C7.24427 0.475681 6.47811 0.135513 5.61041 0.0334959C5.5878 0.0334959 5.56537 0.0334959 5.54276 0.0448683C5.34001 -0.0798934 5.01327 0.0674458 5.11465 0.339547C5.46399 1.18997 5.82446 2.08571 6.48924 2.74347C7.26687 3.50307 8.38237 3.89994 9.34015 4.37624H9.35128C10.8613 6.13377 12.2135 8.05002 13.2726 10.091C12.1232 9.16117 10.8274 8.48083 9.41892 8.0047C9.20486 7.93663 9.02454 8.19736 9.13722 8.37882C10.1063 9.93232 11.9542 11.6557 13.8924 11.7465C13.9487 11.7465 13.9938 11.7238 14.0388 11.6899C14.9515 13.8555 15.5149 16.1346 15.5487 18.5044C15.0192 17.0078 14.1177 15.6811 12.9683 14.5699C12.7656 14.3771 12.5063 14.5811 12.5402 14.8193C12.7993 16.6676 13.7234 18.9126 15.3797 19.9218C15.4247 19.9445 15.4586 19.9557 15.4923 19.9557C15.4473 20.5794 15.3572 21.2144 15.2332 21.8494C14.9289 23.346 14.4669 24.8201 13.8811 26.2488C14.2191 24.5366 14.2078 22.8018 13.1711 21.2825C13.0584 21.1124 12.7767 21.1237 12.7204 21.3391C12.2135 23.1987 12.0332 25.7046 13.16 27.3714C13.1937 27.4167 13.2274 27.4394 13.2613 27.4508C13.25 27.4847 13.25 27.5189 13.2387 27.5528C13.2274 27.5868 13.2387 27.6209 13.25 27.6435C12.3599 29.4918 11.2557 31.238 10.05 32.848C9.85834 33.0975 9.66689 33.347 9.46396 33.585C10.0162 32.4966 10.2753 31.2607 10.264 30.0246C10.264 29.8433 10.0726 29.7412 9.91468 29.8206C9.22747 30.1947 8.88943 31.1359 8.61886 31.8502C8.25839 32.8368 8.1118 33.8685 8.1231 34.9231C8.1231 34.9684 8.1344 35.0138 8.15701 35.0479C6.96257 36.261 5.63301 37.3043 4.16817 38.132C5.0244 37.1909 5.54276 35.955 5.68935 34.685C5.72309 34.4468 5.39635 34.3675 5.24976 34.5035C4.15687 35.524 2.95112 37.1568 2.90609 38.7217L2.89478 38.7329C2.87235 38.7556 2.86105 38.7784 2.84975 38.8009C1.98221 39.1978 1.06947 39.5154 0.111689 39.7647C-0.0799333 39.8101 -0.000990848 40.0482 0.168029 40.0256ZM7.89774 1.98369C7.81897 1.91562 7.74002 1.84772 7.66108 1.76829C7.62734 1.70022 7.60474 1.64352 7.571 1.58683C7.68368 1.71159 7.79636 1.84772 7.89774 1.98369Z" fill="url(#paint0_linear_35581_35681)"/>
</g>
<defs>
<linearGradient id="paint0_linear_35581_35681" x1="9.63723" y1="-8.87176e-08" x2="-5.94702" y2="32.5704" gradientUnits="userSpaceOnUse">
<stop offset="0.228652" stop-color="#FFD962"/>
<stop offset="0.701112" stop-color="#FFA73F"/>
</linearGradient>
</defs>
</svg>
