<svg preserveAspectRatio="none" width="100%" height="100%" overflow="visible" style="display: block;" viewBox="0 0 20 20" fill="none" xmlns="http://www.w3.org/2000/svg">
<g id="Coin Gecko AI">
<g id="Exclude">
<path fill-rule="evenodd" clip-rule="evenodd" d="M18.3391 15.519C19.4307 13.8697 20.0086 11.9337 19.9999 9.95591C19.9941 8.64268 19.7297 7.34346 19.2218 6.13242C18.7139 4.92138 17.9724 3.82223 17.0397 2.89775C16.1071 1.97326 15.0014 1.24154 13.7859 0.744362C12.5704 0.247182 11.2689 -0.00571953 9.9557 9.81343e-05C7.97792 0.00885985 6.04715 0.603904 4.40754 1.70999C2.76794 2.81607 1.49314 4.38351 0.744365 6.21409C-0.0044148 8.04468 -0.19355 10.0562 0.200876 11.9943C0.595301 13.9324 1.55557 15.7099 2.96026 17.1023C4.36495 18.4946 6.15096 19.4391 8.09245 19.8164C10.0339 20.1937 12.0437 19.9868 13.8676 19.2218C15.6915 18.4569 17.2476 17.1683 18.3391 15.519ZM17.7164 15.1058C18.7252 13.5798 19.2589 11.7889 19.2499 9.95959C19.2375 7.50746 18.2518 5.16062 16.5097 3.43492C14.7676 1.70922 12.4115 0.745892 9.95934 0.756681C8.13003 0.765017 6.34427 1.31566 4.82793 2.33898C3.31158 3.36229 2.13277 4.81231 1.44058 6.50563C0.748384 8.19896 0.573907 10.0595 0.939213 11.852C1.30452 13.6445 2.1932 15.2884 3.49285 16.5758C4.79251 17.8632 6.44475 18.7362 8.24063 19.0845C10.0365 19.4328 11.8953 19.2407 13.582 18.5325C15.2687 17.8243 16.7075 16.6318 17.7164 15.1058Z" fill="white"/>
</g>
<path id="Exclude_2" fill-rule="evenodd" clip-rule="evenodd" d="M14.6912 6.69517C14.0251 6.50241 13.3349 6.22971 12.6359 5.95357L12.6201 5.94734L12.6193 5.94369L12.6202 5.94431L12.6176 5.93697C12.6053 5.88816 12.5842 5.8361 12.5535 5.78067C12.1257 4.87969 10.9836 4.77074 10.0347 5.06605L10.0443 5.0668L10.0346 5.06908C9.21 4.87488 8.3955 4.80604 7.61362 4.99662C4.21606 5.93253 3.64712 7.58435 3.50809 9.57508L3.48313 9.87573C3.3137 11.9223 3.18432 13.485 2.39111 15.2624C4.01479 17.8624 7.82821 19.8833 11.3591 19.1658C11.4528 19.149 11.5471 19.1306 11.6419 19.1104L11.6389 19.103C11.2541 16.3965 13.623 13.7457 14.952 12.3914C15.0776 12.2642 15.2312 12.1171 15.3989 11.9565C15.6306 11.7345 15.8894 11.4866 16.1384 11.2298C17.8846 9.6061 18.2444 7.66286 14.6912 6.69517ZM16.873 10.3625C16.423 10.7726 15.8875 11.0762 15.3425 11.3443C14.7909 11.606 14.2159 11.8153 13.6251 11.9697C13.0338 12.1226 12.4172 12.2378 11.7925 12.1813C11.1679 12.1248 10.5295 11.9125 10.1157 11.4443L10.1353 11.4219C10.6425 11.7509 11.228 11.8668 11.8106 11.8835C12.4012 11.9016 12.9919 11.853 13.5715 11.7385C14.157 11.6158 14.7298 11.4387 15.2824 11.2096C15.8353 10.9813 16.3824 10.7168 16.8534 10.34L16.873 10.3625ZM10.4781 7.72333C10.4782 8.07705 10.3735 8.42286 10.1771 8.71705C9.98068 9.01123 9.70146 9.24057 9.37472 9.37606C9.04799 9.51155 8.68841 9.54711 8.34147 9.47825C7.99452 9.40938 7.67579 9.23918 7.42557 8.98917C7.17536 8.73916 7.0049 8.42056 6.93575 8.07367C6.8666 7.72678 6.90188 7.36718 7.0371 7.04033C7.17233 6.71349 7.40144 6.43408 7.69547 6.23745C7.98949 6.04082 8.33522 5.93579 8.68893 5.93565C9.163 5.93565 9.61767 6.12387 9.95302 6.45895C10.2884 6.79403 10.477 7.24854 10.4773 7.72261L10.4781 7.72333ZM9.94795 7.73927C9.94795 7.98808 9.87417 8.23129 9.73595 8.43817C9.59772 8.64504 9.40125 8.80628 9.17139 8.90149C8.94152 8.9967 8.68859 9.02162 8.44456 8.97308C8.20054 8.92454 7.97639 8.80473 7.80046 8.6288C7.62453 8.45287 7.50472 8.22872 7.45618 7.98469C7.40764 7.74067 7.43255 7.48773 7.52776 7.25787C7.62298 7.028 7.78422 6.83154 7.99109 6.69331C8.19796 6.55508 8.44118 6.4813 8.68998 6.4813C9.02362 6.4813 9.34359 6.61384 9.5795 6.84975C9.81542 7.08567 9.94795 7.40564 9.94795 7.73927Z" fill="var(--fill-0, white)"/>
</g>
</svg>
