<svg preserveAspectRatio="none" width="100%" height="100%" overflow="visible" style="display: block;" viewBox="0 0 20.8869 19.4482" fill="none" xmlns="http://www.w3.org/2000/svg">
<g id="number">
<path id="6" d="M9.45209 18.448C3.57209 18.448 0.116089 15.592 1.19609 9.472C2.18009 3.904 6.98009 1 13.2201 1C16.1721 1 18.1161 1.504 19.7721 2.392L19.0761 6.208C17.5161 5.224 15.5481 4.504 12.5001 4.504C8.49209 4.504 5.85209 6.4 5.27609 9.76C6.88409 8.488 9.47609 7.12 12.5721 7.12C17.8761 7.12 19.7961 9.568 19.2201 12.832C18.6201 16.216 15.0441 18.448 9.45209 18.448ZM9.83609 14.944C12.7161 14.944 14.8281 14.128 15.1161 12.568C15.3801 11.008 14.1321 10.144 11.4201 10.144C9.45209 10.144 6.81209 10.864 5.30009 11.92C5.63609 13.744 7.19609 14.944 9.83609 14.944Z" fill="url(#paint0_linear_35581_38123)"/>
<path id="6 (Stroke)" d="M13.2199 0C16.2982 0 18.4127 0.52862 20.2444 1.51074L20.8869 1.85547L19.7942 7.84375L18.5432 7.05371C17.1486 6.17407 15.3663 5.50391 12.5002 5.50391C10.6478 5.50391 9.20842 5.94242 8.1887 6.68164C7.96703 6.84237 7.76098 7.0201 7.57249 7.21484C9.00498 6.57656 10.6997 6.12012 12.5725 6.12012C15.3487 6.12016 17.4566 6.75721 18.7912 8.02832C20.1658 9.33767 20.535 11.1374 20.2053 13.0059C19.4754 17.1223 15.2132 19.4482 9.45237 19.4482C6.3808 19.4482 3.73258 18.7061 2.00315 16.959C0.239296 15.177 -0.364868 12.562 0.211159 9.29785C0.750506 6.24625 2.35068 3.89232 4.67698 2.31934C6.9843 0.759222 9.95341 4.36715e-05 13.2199 0ZM13.2199 1C6.98028 1.00009 2.1807 3.9041 1.19651 9.47168C0.150244 15.4005 3.36077 18.2662 8.90843 18.4395L9.45237 18.4482C15.0443 18.4482 18.62 16.216 19.2199 12.832C19.7779 9.67011 17.9938 7.27368 13.0598 7.12695L12.5725 7.12012C9.47675 7.12012 6.88462 8.48786 5.27659 9.75977C5.85274 6.40004 8.4924 4.50391 12.5002 4.50391C15.5482 4.50391 17.5164 5.22401 19.0764 6.20801L19.7727 2.39258C18.2202 1.56006 16.414 1.06447 13.7619 1.00586L13.2199 1ZM11.9114 10.1543C14.2823 10.2549 15.3639 11.1058 15.1164 12.5684C14.8283 14.1283 12.7161 14.9443 9.83616 14.9443V13.9443C11.1983 13.9443 12.2976 13.7486 13.052 13.4229C13.8004 13.0996 14.0666 12.7209 14.1301 12.3945C14.1702 12.152 14.1437 12.0017 14.1057 11.9082C14.0692 11.8185 13.9961 11.7138 13.8303 11.6035C13.4595 11.3571 12.7108 11.1445 11.4201 11.1445C9.86942 11.1445 7.85514 11.6467 6.48557 12.3711C6.65977 12.7411 6.92173 13.05 7.27366 13.2939C7.82585 13.6766 8.66106 13.9443 9.83616 13.9443V14.9443L9.35374 14.9307C7.00592 14.7921 5.61502 13.6299 5.30003 11.9199C6.812 10.8639 9.45215 10.1446 11.4201 10.1445L11.9114 10.1543Z" fill="url(#paint1_linear_35581_38123)" fill-opacity="0.1"/>
</g>
<defs>
<linearGradient id="paint0_linear_35581_38123" x1="10.2081" y1="3.285" x2="10.2081" y2="14.76" gradientUnits="userSpaceOnUse">
<stop stop-color="white"/>
<stop offset="0.395833" stop-color="white"/>
<stop offset="0.46875" stop-color="#9DEDFF"/>
<stop offset="0.723958" stop-color="#C3F4FF"/>
<stop offset="1" stop-color="white"/>
</linearGradient>
<linearGradient id="paint1_linear_35581_38123" x1="12.4277" y1="0.639745" x2="7.81762" y2="18.6341" gradientUnits="userSpaceOnUse">
<stop stop-color="white"/>
<stop offset="1" stop-color="white" stop-opacity="0.3"/>
</linearGradient>
</defs>
</svg>
