<svg preserveAspectRatio="none" width="100%" height="100%" overflow="visible" style="display: block;" viewBox="0 0 5.714 5.14301" fill="none" xmlns="http://www.w3.org/2000/svg">
<g id="Group 1321314921">
<path id="Rectangle 139 Copy" fill-rule="evenodd" clip-rule="evenodd" d="M2.85693 2.28568H3.99979V2.85711H2.85693V2.28568Z" fill="var(--fill-0, #FFEDB1)"/>
<g id="Vector">
<path fill-rule="evenodd" clip-rule="evenodd" d="M3.66332 2.28725H2.05123L2.19771 4.04496C2.22245 4.34185 2.47063 4.5702 2.76854 4.5702H2.94601C3.24392 4.5702 3.4921 4.34185 3.51684 4.04496L3.66332 2.28725ZM2.05123 1.71444C1.71612 1.71444 1.45257 2.00086 1.4804 2.33482L1.62688 4.09253C1.67636 4.6863 2.17272 5.14301 2.76854 5.14301H2.94601C3.54183 5.14301 4.03819 4.6863 4.08767 4.09253L4.23415 2.33482C4.26198 2.00086 3.99843 1.71444 3.66332 1.71444H2.05123Z" fill="#A41517"/>
<path fill-rule="evenodd" clip-rule="evenodd" d="M1.71421 2.85693H3.99992V3.42836H3.42849L2.85707 4.57122L2.28564 3.42836H1.71421V2.85693Z" fill="var(--fill-0, #A41517)"/>
<path d="M0 1.71415C0 1.39856 0.255837 1.14273 0.571429 1.14273C0.88702 1.14273 1.14286 1.39856 1.14286 1.71415V4.5713C1.14286 4.88689 0.88702 5.14273 0.571429 5.14273C0.255837 5.14273 0 4.88689 0 4.5713V1.71415Z" fill="var(--fill-0, #A41517)"/>
<path d="M4.57114 1.71415C4.57114 1.39856 4.82698 1.14273 5.14257 1.14273C5.45816 1.14273 5.714 1.39856 5.714 1.71415V4.5713C5.714 4.88689 5.45816 5.14273 5.14257 5.14273C4.82698 5.14273 4.57114 4.88689 4.57114 4.5713V1.71415Z" fill="var(--fill-0, #A41517)"/>
<path d="M1.71421 0.914286C1.71421 0.40934 2.12355 0 2.62849 0H3.08564C3.59058 0 3.99992 0.40934 3.99992 0.914286C3.99992 1.04052 3.89759 1.14286 3.77135 1.14286H1.94278C1.81654 1.14286 1.71421 1.04052 1.71421 0.914286Z" fill="var(--fill-0, #A41517)"/>
</g>
</g>
</svg>
