<svg preserveAspectRatio="none" width="100%" height="100%" overflow="visible" style="display: block;" viewBox="0 0 20 14" fill="none" xmlns="http://www.w3.org/2000/svg">
<path id="Subtract" fill-rule="evenodd" clip-rule="evenodd" d="M17.8142 0.416819C18.6764 0.649091 19.3541 1.32682 19.5832 2.18591C20 3.745 20 7 20 7C20 7 20 10.255 19.5832 11.8141C19.3509 12.6764 18.6732 13.3541 17.8142 13.5832C16.2552 14 10 14 10 14C10 14 3.74801 14 2.18581 13.5832C1.32358 13.3509 0.64588 12.6732 0.416799 11.8141C0 10.255 0 7 0 7C0 7 0 3.745 0.416799 2.18591C0.649061 1.32364 1.32676 0.645909 2.18581 0.416819C3.74801 0 10 0 10 0C10 0 16.2552 0 17.8142 0.416819ZM13.1976 7L8.00191 10.0005V3.99955L13.1976 7Z" fill="var(--fill-0, white)"/>
</svg>
