<svg preserveAspectRatio="none" width="100%" height="100%" overflow="visible" style="display: block;" viewBox="0 0 16 12.2353" fill="none" xmlns="http://www.w3.org/2000/svg">
<g id="Vector">
<path d="M0 0C0.407009 0.458095 0.817249 0.913008 1.22426 1.37428C4.35543 4.92876 7.48445 8.4843 10.6113 12.0409L10.7761 12.2349H5.18775C5.13572 12.2373 5.08387 12.2273 5.03662 12.2057C4.98937 12.1841 4.94813 12.1516 4.91641 12.1109L0 6.58829V0Z" fill="white" fill-opacity="0.5"/>
<path d="M9.31665 8.95173L15.9838 0.508793C15.9926 0.559293 15.998 0.6103 16 0.661491C16 2.57022 16 4.48637 16 6.40994C15.9954 6.49472 15.9687 6.5769 15.9225 6.64853C15.4347 7.38021 14.9534 8.11189 14.4398 8.83721C14.4168 8.86997 14.3871 8.89764 14.3526 8.91846C14.3181 8.93928 14.2796 8.95278 14.2395 8.9581C12.6416 8.9581 11.0427 8.9581 9.44262 8.9581C9.41032 8.96446 9.36833 8.9581 9.31665 8.95173Z" fill="white" fill-opacity="0.5"/>
</g>
</svg>
