<svg preserveAspectRatio="none" width="100%" height="100%" overflow="visible" style="display: block;" viewBox="0 0 13.0286 13" fill="none" xmlns="http://www.w3.org/2000/svg">
<g id="Vector">
<path d="M3.03273 4.17709H0.417208C0.301127 4.17709 0.207069 4.27119 0.207069 4.38723V12.7898C0.207069 12.9058 0.301127 12.9999 0.417208 12.9999H3.03273C3.14881 12.9999 3.24286 12.9058 3.24286 12.7898V4.38723C3.24286 4.27119 3.14881 4.17709 3.03273 4.17709Z" fill="white"/>
<path d="M1.72591 0C0.774237 0 0 0.773396 0 1.72402C0 2.67507 0.774237 3.44876 1.72591 3.44876C2.67684 3.44876 3.45044 2.67503 3.45044 1.72402C3.45048 0.773396 2.67684 0 1.72591 0Z" fill="white"/>
<path d="M9.68549 3.96829C8.635 3.96829 7.85846 4.41988 7.38745 4.93299V4.38726C7.38745 4.27122 7.29339 4.17712 7.17731 4.17712H4.67249C4.55641 4.17712 4.46236 4.27122 4.46236 4.38726V12.7898C4.46236 12.9059 4.55641 13 4.67249 13H7.2823C7.39838 13 7.49244 12.9059 7.49244 12.7898V8.6325C7.49244 7.23159 7.87295 6.68581 8.84951 6.68581C9.91307 6.68581 9.99759 7.56075 9.99759 8.70458V12.7899C9.99759 12.9059 10.0916 13 10.2077 13H12.8185C12.9346 13 13.0286 12.9059 13.0286 12.7899V8.18091C13.0286 6.0978 12.6314 3.96829 9.68549 3.96829Z" fill="white"/>
</g>
</svg>
