<svg preserveAspectRatio="none" width="100%" height="100%" overflow="visible" style="display: block;" viewBox="0 0 51.3401 12.857" fill="none" xmlns="http://www.w3.org/2000/svg">
<g id="Group 1321315002">
<path id="Vector" d="M36.7329 4.07654C36.4795 4.1639 36.3237 4.24111 35.7488 4.24111C34.7741 4.24111 34.1992 3.5564 34.1992 2.51755C34.1992 1.56888 34.5888 0.881348 35.5828 0.881348C36.3525 0.881348 36.8594 1.26856 36.8594 1.83001H36.0408C36.0408 1.54669 35.97 1.12335 35.5438 1.12335C35.0764 1.12335 34.9689 1.63641 34.9689 2.29443C34.9689 3.31086 35.4364 3.87255 36.0701 3.87255C36.2845 3.87255 36.5671 3.83383 36.7326 3.77811V4.07796L36.7329 4.07654ZM37.181 2.56618C37.181 1.414 37.6683 0.881584 38.6817 0.881584C39.6851 0.881584 40.1823 1.56628 40.1823 2.56618C40.1823 3.68909 39.7149 4.24111 38.6817 4.24111C37.5611 4.24111 37.181 3.52477 37.181 2.56618ZM38.6817 3.99933C39.3664 3.99933 39.4223 3.24428 39.4223 2.5591C39.4223 1.9202 39.3638 1.10706 38.6817 1.10706C37.9899 1.10706 37.941 1.94925 37.941 2.5591C37.941 3.13992 37.9899 3.99933 38.6817 3.99933ZM40.6012 3.98942C40.7377 3.87326 41.3515 3.3602 41.3515 2.96331C41.3515 2.79875 41.2247 2.69226 41.0592 2.69226C40.8642 2.69226 40.7863 2.83747 40.757 2.91491H40.6401C40.6791 2.79875 40.7865 2.55674 41.1076 2.55674C41.4193 2.55674 41.6341 2.68258 41.6341 3.00203C41.6341 3.41828 40.9617 3.87562 40.8253 3.9991H41.3418C41.5661 3.9991 41.585 3.90466 41.5952 3.76677H41.6731V4.16343H40.6012V3.98918V3.98942ZM32.1015 7.3657C32.1015 6.88169 31.9843 6.76553 31.5459 6.75585V6.62032L32.7932 6.39768V7.27835H32.8027C32.9099 7.03634 33.2706 6.39768 33.9624 6.39768C34.5959 6.39768 34.8006 6.84297 34.8006 7.3657V9.67952H34.1088V7.88844C34.1088 7.34634 34.1088 6.86233 33.6413 6.86233C33.1833 6.86233 32.7838 7.50123 32.7838 7.99492V9.67952H32.092V7.3657H32.1019H32.1015ZM38.1065 9.56548C37.97 9.61389 37.6095 9.74964 37.1319 9.74964C36.0694 9.74964 35.4265 9.11075 35.4265 7.95856C35.4265 6.86469 35.953 6.39012 36.8903 6.39012C38.0794 6.39012 38.1771 7.24199 38.1771 7.70664H36.1986C36.1986 8.39134 36.4812 9.37188 37.4655 9.37188C37.7578 9.37188 38.0014 9.30412 38.1183 9.25572V9.56548H38.1089H38.1065ZM37.4827 7.43583C37.4827 7.28094 37.4733 6.63237 36.8689 6.63237C36.3523 6.63237 36.2061 7.17446 36.2061 7.43583H37.4827V7.43583ZM40.9428 8.89778H40.9334C40.8165 9.19763 40.5339 9.74964 39.8615 9.74964C38.9359 9.74964 38.9359 8.84938 38.9359 8.34577V7.3683C38.9359 6.88429 38.8288 6.76813 38.4 6.75844V6.62292L39.6277 6.40028V8.47209C39.6277 9.1013 39.8638 9.28523 40.193 9.28523C40.6416 9.28523 40.9532 8.69497 40.9532 8.1236V7.36854C40.9532 6.88452 40.8363 6.76836 40.4173 6.75868V6.62316L41.645 6.40051V9.68236H40.9532V8.89849H40.9438L40.9428 8.89778ZM44.2263 9.70124C44.0705 9.73028 43.9147 9.75933 43.7588 9.75933C43.0961 9.75933 42.7063 9.65308 42.7063 8.86874V6.74853H42.1633V6.4678H42.7063V5.92571L43.3981 5.31585V6.47748H44.3042V6.76081H43.3981V8.76486C43.3981 9.24887 43.437 9.46183 43.9633 9.46183C44.0486 9.46238 44.1337 9.45263 44.2167 9.43279V9.70384H44.2261L44.2263 9.70124ZM45.133 7.36807C45.133 6.88405 45.0258 6.76789 44.5899 6.75821V6.62269L45.8373 6.40004V7.30998H45.8467C45.9442 6.99053 46.1584 6.40004 46.7139 6.40004C46.8407 6.40004 46.9675 6.40948 47.0846 6.43876V7.09702C46.9774 7.0583 46.8485 7.00966 46.7338 7.00966C46.0321 7.00966 45.8271 7.55175 45.8271 8.03577V9.68141H45.1353V7.36759L45.133 7.36807ZM49.1675 9.27508C49.0407 9.42028 48.8067 9.75909 48.2708 9.75909C47.7278 9.75909 47.3453 9.37188 47.3453 8.96531C47.3453 7.99728 48.7288 7.91984 49.168 7.90284V7.55435C49.168 7.11874 49.168 6.63473 48.7293 6.63473C48.2713 6.63473 48.2422 7.03138 48.2422 7.34139H47.4159C47.4938 6.88641 47.7181 6.4024 48.7215 6.4024C49.7061 6.4024 49.8619 6.90577 49.8619 7.59331V9.68448H49.1701V9.27744L49.1675 9.27508ZM49.1675 8.15217C48.9139 8.16161 48.105 8.19089 48.105 8.84915C48.105 9.16859 48.2609 9.39124 48.5239 9.39124C48.9236 9.39124 49.1673 9.02339 49.1673 8.55874V8.15217H49.1675ZM50.6484 5.79018C50.6484 5.29437 50.5315 5.18033 50.1218 5.16097V5.02757L51.3401 4.85332V9.68401H50.6484V5.79018V5.79018Z" fill="var(--fill-0, #45AB21)"/>
<path id="Vector_2" d="M39.9585 11.4823C39.9099 11.308 39.8806 11.2693 39.6955 11.2596V11.2015H40.163L40.4163 12.179H40.4258L40.7573 11.2015H40.8838L41.2545 12.1889H41.264L41.4783 11.2015H41.6247L41.3225 12.518H41.1081L40.7866 11.6178H40.7766L40.465 12.518H40.2525L39.9602 11.4823H39.9585ZM42.8917 12.4696C42.8333 12.489 42.6872 12.5471 42.4922 12.5471C42.0537 12.5471 41.7905 12.2857 41.7905 11.8114C41.7905 11.3661 42.0048 11.1725 42.385 11.1725C42.8723 11.1725 42.9115 11.521 42.9115 11.7146H42.1026C42.1026 11.9979 42.2195 12.3993 42.6192 12.3993C42.7091 12.3992 42.7982 12.3828 42.8822 12.3509V12.467H42.8917V12.4696ZM42.6383 11.589C42.6383 11.5212 42.6289 11.2598 42.385 11.2598C42.1706 11.2598 42.112 11.4825 42.112 11.589H42.6385H42.6383ZM43.1747 10.9109C43.1747 10.7173 43.1259 10.6689 42.9622 10.6592V10.6011L43.4692 10.5334V11.3755H43.4786C43.5083 11.3084 43.5579 11.252 43.6206 11.2139C43.6833 11.1759 43.7562 11.1579 43.8295 11.1626C44.2386 11.1626 44.3361 11.5304 44.3361 11.8789C44.3361 12.2274 44.1898 12.5372 43.8198 12.5372C43.6248 12.5372 43.5176 12.4113 43.4491 12.3436L43.2543 12.4984H43.1764V10.9109H43.1747ZM43.4571 11.8884C43.4571 12.0336 43.4767 12.3917 43.7204 12.3917C43.9933 12.3917 44.0127 12.0626 44.0127 11.84C44.0127 11.6463 43.9834 11.3172 43.7397 11.3172C43.4961 11.3172 43.4571 11.6076 43.4571 11.7722V11.8884V11.8884ZM45.3476 11.4242C45.3087 11.3951 45.1722 11.2887 45.0067 11.2887C44.9188 11.2887 44.8117 11.3177 44.8117 11.4435C44.8117 11.7146 45.4354 11.7146 45.4354 12.1502C45.4354 12.4335 45.1993 12.5374 44.9188 12.5374C44.7434 12.5374 44.6166 12.4987 44.5583 12.489V12.2664C44.6362 12.3244 44.7727 12.4116 44.9361 12.4116C45.1115 12.4116 45.1797 12.3242 45.1797 12.218C45.1797 11.9346 44.556 11.9275 44.556 11.5333C44.556 11.3302 44.6924 11.1555 45.0336 11.1555C45.18 11.1555 45.3063 11.1942 45.3552 11.2039V11.4265H45.3452L45.3476 11.4242ZM45.8033 11.5696C45.8033 11.376 45.7544 11.3276 45.5889 11.3179V11.2598L46.0956 11.1725V12.5183H45.8033V11.5673V11.5696ZM45.774 10.7662C45.774 10.6717 45.8519 10.5919 45.9494 10.5919C46.0469 10.5919 46.1345 10.6693 46.1345 10.7662C46.1345 10.863 46.0467 10.9404 45.9494 10.9404C45.8522 10.9404 45.774 10.863 45.774 10.7662ZM47.1994 12.518C47.135 12.5296 47.0698 12.5361 47.0044 12.5374C46.7314 12.5374 46.5756 12.4987 46.5756 12.1696V11.296H46.3513V11.1798H46.5756V10.9572L46.8582 10.7055V11.1777H47.2284V11.2938H46.8582V12.1167C46.8582 12.3103 46.8676 12.4 47.0943 12.4C47.1233 12.4 47.1651 12.4 47.2015 12.3905V12.5164L47.1994 12.518ZM48.4562 12.4696C48.3976 12.489 48.2515 12.5471 48.0567 12.5471C47.618 12.5471 47.355 12.2857 47.355 11.8114C47.355 11.3661 47.5693 11.1725 47.9495 11.1725C48.4366 11.1725 48.4755 11.521 48.4755 11.7146H47.6669C47.6669 11.9979 47.7837 12.3993 48.1832 12.3993C48.2731 12.3992 48.3622 12.3828 48.4462 12.3509V12.467H48.4562V12.4696ZM48.1929 11.589C48.1929 11.5212 48.1835 11.2598 47.9396 11.2598C47.7252 11.2598 47.6669 11.4825 47.6669 11.589H48.1929ZM49.733 11.1824L51.1071 11.86L49.733 12.5376V11.1824V11.1824Z" fill="var(--fill-0, #485C5C)"/>
<path id="Vector_3" opacity="0.25" d="M20.1182 12.3343C20.1182 12.6247 21.9211 12.857 24.1428 12.857C26.3645 12.857 28.1674 12.6247 28.1674 12.3343C28.1674 12.0438 26.3648 11.8115 24.1428 11.8115C21.9234 11.821 20.1182 12.0535 20.1182 12.3343V12.3343Z" fill="url(#paint0_radial_35581_41583)"/>
<path id="Vector_4" d="M19.885 8.53854C19.885 10.0295 21.0934 11.2301 22.5941 11.2301C23.9878 11.2301 25.1279 10.1847 25.2838 8.84855C25.6053 9.58425 26.3462 10.0999 27.2033 10.0999C28.3531 10.0999 29.2888 9.17059 29.2888 8.02809C29.2888 7.0891 28.6553 6.28564 27.7881 6.03372C28.2034 5.57101 28.4325 4.97085 28.4313 4.34911C28.4313 2.94524 27.2814 1.80297 25.8683 1.80297C25.722 1.80297 25.5661 1.81241 25.4297 1.84169C25.186 0.786307 24.2409 0.00244141 23.1104 0.00244141C21.8048 0.00244141 20.7423 1.05783 20.7423 2.36466C20.7423 2.81963 20.8691 3.23825 21.0931 3.59405C20.4014 3.77822 19.8848 4.39752 19.8848 5.1429C19.8848 5.76243 20.2356 6.29508 20.7522 6.56613C20.4788 6.81736 20.2605 7.12262 20.1112 7.46259C19.9619 7.80256 19.8848 8.16983 19.8848 8.54114L19.885 8.53854Z" fill="var(--fill-0, #69A82F)"/>
<path id="Vector_5" d="M20.6254 6.68994C20.1674 7.17395 19.8848 7.82253 19.8848 8.53911C19.8848 10.0299 21.0931 11.2307 22.5938 11.2307C23.088 11.2311 23.5728 11.0959 23.9955 10.8398C24.4182 10.5837 24.7625 10.2166 24.991 9.77841C24.494 10.2915 23.8022 10.6206 23.0226 10.6206C21.5316 10.6206 20.3232 9.42025 20.3232 7.93893C20.3215 7.50436 20.4252 7.07586 20.6254 6.69018V6.68994Z" fill="var(--fill-0, #94C122)"/>
<path id="Vector_6" d="M20.6254 6.68994C20.1674 7.17395 19.8848 7.82253 19.8848 8.53911C19.8848 10.0299 21.0931 11.2307 22.5938 11.2307C23.088 11.2311 23.5728 11.0959 23.9955 10.8398C24.4182 10.5837 24.7625 10.2166 24.991 9.77841C24.494 10.2915 23.8022 10.6206 23.0226 10.6206C21.5316 10.6206 20.3232 9.42025 20.3232 7.93893C20.3215 7.50436 20.4252 7.07586 20.6254 6.69018V6.68994Z" fill="url(#paint1_linear_35581_41583)"/>
<path id="Vector_7" d="M20.9562 1.37507C21.3949 0.871695 22.038 0.542566 22.7688 0.542566C23.305 0.541716 23.8257 0.721952 24.2467 1.05406C24.6676 1.38618 24.9641 1.85071 25.088 2.37237C25.2344 2.34333 25.3808 2.33365 25.5267 2.33365C26.9398 2.33365 28.0896 3.47592 28.0896 4.87979C28.0898 5.25479 28.0065 5.62512 27.8459 5.96398C28.2162 5.51869 28.4405 4.95724 28.4405 4.33723C28.4405 2.93335 27.2906 1.79108 25.8775 1.79108C25.7312 1.79108 25.5753 1.80053 25.4389 1.8298C25.1855 0.784337 24.2404 0 23.1099 0C22.1549 0 21.3363 0.561455 20.9562 1.3746V1.37507ZM24.9322 9.3908C24.8932 9.70056 24.8153 9.98106 24.6788 10.2526C24.8347 10.0684 24.9615 9.86536 25.0566 9.64272C25.0077 9.55536 24.9688 9.47815 24.9298 9.39103L24.9322 9.3908Z" fill="url(#paint2_linear_35581_41583)"/>
<g id="Group">
<path id="Vector_8" d="M27.1649 4.8308L25.7714 5.83755C25.3327 6.21532 24.9039 6.67973 24.7285 7.31863L25.2645 7.42488C25.3037 6.94086 25.7324 6.57301 26.0932 6.157C26.4634 5.73107 26.7557 5.22769 27.1651 4.83057L27.1649 4.8308Z" fill="var(--fill-0, #277833)"/>
<path id="Vector_9" d="M23.3835 3.04004C24.3579 4.30792 24.3869 6.11883 24.5723 7.60959C24.7281 8.95539 24.5817 10.3687 24.0753 11.5209C23.8316 12.0049 23.2177 12.4016 23.1592 12.5276L25.235 12.5182C25.8394 10.7852 25.732 9.0621 25.3035 7.46463C24.8549 5.89619 24.8355 3.71057 23.384 3.04004H23.3835Z" fill="var(--fill-0, #277833)"/>
<path id="Vector_10" d="M22.1553 7.03881C22.7011 7.20337 23.2957 7.18401 23.8411 7.39698C24.377 7.60995 24.8934 8.0746 25.2638 8.62637L24.7963 8.89742C24.6013 8.45213 24.1629 8.08428 23.6852 7.80355C23.2078 7.51314 22.6936 7.30018 22.1553 7.03857V7.03881Z" fill="var(--fill-0, #277833)"/>
</g>
<path id="Vector_11" d="M12.5135 6.42008C12.5135 2.96458 9.71226 0.163334 6.25675 0.163334C2.80124 0.163334 0 2.96458 0 6.42008C0 9.87559 2.80124 12.6768 6.25675 12.6768C9.71226 12.6768 12.5135 9.87559 12.5135 6.42008Z" fill="var(--fill-0, #004343)"/>
<path id="Vector_12" fill-rule="evenodd" clip-rule="evenodd" d="M5.9678 8.9939L14.1741 0.787634L13.4322 0.0455591L5.96733 7.51046L3.10339 4.64651L2.36132 5.38859L5.9678 8.9939Z" fill="var(--fill-0, #45AB21)"/>
</g>
<defs>
<radialGradient id="paint0_radial_35581_41583" cx="0" cy="0" r="1" gradientUnits="userSpaceOnUse" gradientTransform="translate(24.1435 12.3388) rotate(180) scale(4.0209 0.521211)">
<stop offset="0.292" stop-color="#000505"/>
<stop offset="1" stop-color="#004343"/>
</radialGradient>
<linearGradient id="paint1_linear_35581_41583" x1="19.8848" y1="8.96197" x2="24.9936" y2="8.96197" gradientUnits="userSpaceOnUse">
<stop offset="0.067" stop-color="#69A82F"/>
<stop offset="0.365" stop-color="#DAE49B"/>
<stop offset="0.697" stop-color="#69A82F"/>
</linearGradient>
<linearGradient id="paint2_linear_35581_41583" x1="20.9576" y1="5.12511" x2="28.4346" y2="5.12511" gradientUnits="userSpaceOnUse">
<stop offset="0.062" stop-color="#69A82F"/>
<stop offset="0.182" stop-color="#9DBF55"/>
<stop offset="0.293" stop-color="#C0D37B"/>
<stop offset="0.38" stop-color="#D3E092"/>
<stop offset="0.433" stop-color="#DAE49B"/>
<stop offset="0.565" stop-color="#C7D883"/>
<stop offset="0.846" stop-color="#90B84A"/>
<stop offset="1" stop-color="#69A82F"/>
</linearGradient>
</defs>
</svg>
