<svg preserveAspectRatio="none" width="100%" height="100%" overflow="visible" style="display: block;" viewBox="0 0 20 20" fill="none" xmlns="http://www.w3.org/2000/svg">
<path id="Vector" d="M17.387 11.9506C17.2287 12.058 17.044 12.1214 16.8522 12.1341C16.6605 12.1468 16.4688 12.1083 16.2974 12.0227C15.895 11.7986 15.6781 11.2733 15.6781 10.5575V8.36359C15.6781 7.31042 15.2548 6.56109 14.5466 6.35767C13.3499 6.01262 12.4562 7.45719 12.1113 8.00052L9.99477 11.3763V7.25634C9.97126 6.30617 9.65769 5.73709 9.06454 5.56714C8.67259 5.45384 8.08466 5.50019 7.51241 6.36024L2.78025 13.8458C2.15061 12.6587 1.82414 11.3382 1.82911 9.99871C1.82911 5.48732 5.48733 1.81795 9.99477 1.81795C14.5022 1.81795 18.1735 5.48732 18.1735 9.99871V10.0219C18.1735 10.0219 18.1735 10.0373 18.1735 10.0451C18.2179 10.918 17.9305 11.6132 17.3896 11.9506H17.387ZM20 10.0013V9.95751C19.9634 4.45989 15.4899 0 9.99477 0C4.49961 0 0 4.48565 0 9.99871C0 15.5118 4.48393 20 9.99477 20C12.5223 19.9999 14.9536 19.0452 16.7886 17.3323C16.9667 17.1669 17.0715 16.9391 17.0803 16.6981C17.0891 16.4571 17.0012 16.2224 16.8356 16.0448C16.7564 15.9584 16.6606 15.8884 16.5538 15.8386C16.447 15.7888 16.3312 15.7604 16.2132 15.7549C16.0952 15.7494 15.9772 15.7669 15.8661 15.8065C15.755 15.8461 15.6529 15.907 15.5657 15.9856C14.7757 16.7241 13.8424 17.2976 12.8218 17.6718C11.8013 18.046 10.7145 18.2131 9.62682 18.1631C8.5391 18.113 7.47285 17.8469 6.4921 17.3807C5.51134 16.9145 4.6363 16.2578 3.91952 15.45L8.17873 8.70349V11.8167C8.17873 13.3127 8.76666 13.7968 9.26052 13.9385C9.75438 14.0801 10.5095 13.9822 11.3013 12.7153L13.653 8.96356C13.7262 8.84254 13.7967 8.73954 13.8594 8.64941V10.5575C13.8594 11.9557 14.4291 13.0733 15.4272 13.6243C15.8811 13.8658 16.3926 13.9824 16.9079 13.962C17.4233 13.9416 17.9236 13.785 18.3564 13.5084C19.4539 12.8055 20.0523 11.5334 19.9895 10.0013H20Z" fill="var(--fill-0, white)"/>
</svg>
