<svg preserveAspectRatio="none" width="100%" height="100%" overflow="visible" style="display: block;" viewBox="0 0 16 13.3388" fill="none" xmlns="http://www.w3.org/2000/svg">
<path id="Vector" d="M13.5447 1.10572C12.5249 0.593928 11.4313 0.216865 10.2879 0.000905922C10.2671 -0.00326203 10.2463 0.0071539 10.2356 0.0279863C10.0949 0.30158 9.93915 0.658505 9.83006 0.939047C8.60027 0.737674 7.37679 0.737674 6.17221 0.939047C6.0631 0.652269 5.90166 0.30158 5.76038 0.0279863C5.74966 0.00784897 5.72886 -0.00256696 5.70803 0.000905922C4.56527 0.216175 3.47171 0.593238 2.45129 1.10572C2.44246 1.10988 2.43488 1.11683 2.42986 1.12585C0.355594 4.51528 -0.212633 7.82139 0.0661201 11.0865C0.0673814 11.1025 0.0755799 11.1178 0.086932 11.1275C1.45547 12.2267 2.78114 12.8941 4.08219 13.3364C4.10301 13.3433 4.12507 13.335 4.13832 13.3163C4.44608 12.8566 4.72043 12.3719 4.95565 11.8622C4.96953 11.8323 4.95628 11.7969 4.92791 11.7851C4.49275 11.6045 4.0784 11.3844 3.67982 11.1344C3.64829 11.1143 3.64577 11.065 3.67477 11.0414C3.75865 10.9726 3.84255 10.9011 3.92264 10.8289C3.93713 10.8157 3.95732 10.8129 3.97435 10.8212C6.59286 12.1288 9.4277 12.1288 12.0153 10.8212C12.0323 10.8122 12.0525 10.815 12.0677 10.8282C12.1478 10.9004 12.2316 10.9726 12.3161 11.0414C12.3451 11.065 12.3433 11.1143 12.3117 11.1344C11.9131 11.3893 11.4988 11.6045 11.063 11.7844C11.0346 11.7962 11.022 11.8323 11.0359 11.8622C11.2762 12.3712 11.5505 12.8559 11.8526 13.3156C11.8652 13.335 11.8879 13.3433 11.9087 13.3364C13.2161 12.8941 14.5417 12.2267 15.9103 11.1275C15.9223 11.1178 15.9298 11.1032 15.9311 11.0872C16.2647 7.31236 15.3723 4.03336 13.5655 1.12654C13.5611 1.11683 13.5535 1.10988 13.5447 1.10572ZM5.34668 9.09839C4.55833 9.09839 3.90875 8.30678 3.90875 7.33459C3.90875 6.36241 4.54574 5.57079 5.34668 5.57079C6.15392 5.57079 6.79721 6.36936 6.78459 7.33459C6.78459 8.30678 6.14761 9.09839 5.34668 9.09839ZM10.6632 9.09839C9.87484 9.09839 9.22526 8.30678 9.22526 7.33459C9.22526 6.36241 9.86222 5.57079 10.6632 5.57079C11.4704 5.57079 12.1137 6.36936 12.1011 7.33459C12.1011 8.30678 11.4704 9.09839 10.6632 9.09839Z" fill="var(--fill-0, white)"/>
</svg>
