<svg width="800" height="94" viewBox="0 0 800 94" fill="none" xmlns="http://www.w3.org/2000/svg">
<style>
.trace-path {
  fill: transparent;
  stroke: rgba(255,255,255,0.9);
  stroke-width: 1.5;
  stroke-linejoin: round;
  stroke-linecap: round;
  stroke-dasharray: 100;
  stroke-dashoffset: 100;
}
@keyframes trace-anim {
  0% { stroke-dashoffset: 100; fill: transparent; stroke: rgba(255,255,255,0.9); stroke-width: 1.5; }
  30% { stroke-dashoffset: 0; fill: transparent; stroke: rgba(255,255,255,0.9); stroke-width: 1.5; }
  45% { stroke-dashoffset: 0; fill: rgba(255,255,255,1); stroke: rgba(255,255,255,0.5); stroke-width: 1.0; }
  55% { stroke-dashoffset: 0; fill: rgba(255,255,255,1); stroke: transparent; stroke-width: 0; }
  85% { stroke-dashoffset: 0; fill: rgba(255,255,255,1); stroke: transparent; stroke-width: 0; }
  92% { stroke-dashoffset: 0; fill: transparent; stroke: transparent; stroke-width: 0; }
  100% { stroke-dashoffset: 100; fill: transparent; stroke: transparent; stroke-width: 0; }
}
.path-0 {
  animation: trace-anim 4.5s cubic-bezier(0.4, 0, 0.2, 1) infinite;
  animation-delay: 0.0s;
}
.path-1 {
  animation: trace-anim 4.5s cubic-bezier(0.4, 0, 0.2, 1) infinite;
  animation-delay: 0.12s;
}
.path-2 {
  animation: trace-anim 4.5s cubic-bezier(0.4, 0, 0.2, 1) infinite;
  animation-delay: 0.24s;
}
.path-3 {
  animation: trace-anim 4.5s cubic-bezier(0.4, 0, 0.2, 1) infinite;
  animation-delay: 0.36s;
}
.path-4 {
  animation: trace-anim 4.5s cubic-bezier(0.4, 0, 0.2, 1) infinite;
  animation-delay: 0.48s;
}
.path-5 {
  animation: trace-anim 4.5s cubic-bezier(0.4, 0, 0.2, 1) infinite;
  animation-delay: 0.6s;
}
.path-6 {
  animation: trace-anim 4.5s cubic-bezier(0.4, 0, 0.2, 1) infinite;
  animation-delay: 0.72s;
}
.path-7 {
  animation: trace-anim 4.5s cubic-bezier(0.4, 0, 0.2, 1) infinite;
  animation-delay: 0.84s;
}
</style>

<path class="trace-path path-0" pathLength="100" d="M382.726 15.2535C383.533 13.9648 383.253 12.2685 382.022 11.3765C371.555 3.79216 358.266 0 342.155 0C333.04 0 325.26 1.33627 318.815 4.00882C312.462 6.58921 307.582 10.2294 304.175 14.9294C300.861 19.6294 299.203 25.1127 299.203 31.3794C299.203 37.4618 300.584 42.3 303.347 45.8941C306.109 49.3961 309.7 52.0686 314.119 53.9118C318.539 55.7549 323.188 57.2294 328.068 58.3353L341.879 61.3765C344.641 62.0216 346.529 62.6667 347.542 63.3118C348.647 63.9569 349.199 64.9245 349.199 66.2147C349.199 67.4127 348.554 68.4265 347.265 69.2559C346.068 69.9931 343.813 70.3618 340.498 70.3618C336.999 70.3618 333.224 69.8549 329.173 68.8412C325.122 67.8275 321.209 66.4912 317.434 64.8324C314.482 63.4634 311.869 61.9819 309.593 60.3876C308.604 59.6949 307.215 59.9445 306.593 60.9796L296.394 77.9567C295.627 79.2319 295.906 80.8845 297.109 81.7596C300.247 84.0426 303.846 86.0492 307.904 87.7794C312.876 89.8069 318.262 91.3735 324.063 92.4794C329.864 93.4931 335.664 94 341.465 94C349.199 94 356.104 92.848 362.181 90.5441C368.35 88.2402 373.23 84.7382 376.821 80.0382C380.412 75.2461 382.207 69.1637 382.207 61.7912C382.207 54.4186 379.813 48.6588 375.025 44.5118C370.33 40.3647 363.332 37.2314 354.033 35.1118L341.465 32.2088C338.887 31.5637 336.723 30.9647 334.974 30.4118C333.316 29.8588 332.488 29.0294 332.488 27.9235C332.488 26.6333 333.178 25.6196 334.559 24.8824C336.033 24.0529 338.565 23.6382 342.155 23.6382C347.68 23.6382 352.79 24.5598 357.486 26.4029C361.634 28.0001 365.61 30.0471 369.414 32.544C370.372 33.1731 371.669 32.9132 372.278 31.9416L382.726 15.2535Z" />
<path class="trace-path path-1" pathLength="100" d="M107.734 92.6176C106.078 92.6176 104.734 91.2745 104.734 89.6176V4.38235C104.734 2.7255 106.078 1.38235 107.734 1.38235H177.418C179.075 1.38235 180.418 2.7255 180.418 4.38235V22.0206C180.418 23.6774 179.075 25.0206 177.418 25.0206H136.914V36.3559H168.994C170.651 36.3559 171.994 37.699 171.994 39.3559V55.1971C171.994 56.8539 170.651 58.1971 168.994 58.1971H136.914V68.9794H179.076C180.733 68.9794 182.076 70.3226 182.076 71.9794V89.6176C182.076 91.2745 180.733 92.6176 179.076 92.6176H107.734Z" />
<path class="trace-path path-2" pathLength="100" d="M288.592 91.0537C289.045 91.7174 288.57 92.6176 287.766 92.6176H252.078C251.325 92.6176 250.636 92.195 250.295 91.5239L238.835 68.9794L228.326 91.4645C227.997 92.1681 227.29 92.6176 226.514 92.6176H193.33C192.532 92.6176 192.055 91.7285 192.497 91.0639L221.71 47.1382L193.548 2.91954C193.124 2.25383 193.602 1.38235 194.391 1.38235H229.275C230.052 1.38235 230.759 1.83272 231.087 2.53721L241.183 24.1912L251.415 2.52823C251.745 1.82862 252.449 1.38235 253.223 1.38235H285.2C285.992 1.38235 286.47 2.2593 286.04 2.92472L258.033 46.3088L288.592 91.0537Z" />
<path class="trace-path path-3" pathLength="100" fill-rule="evenodd" clip-rule="evenodd" d="M447.041 1.38235C459.379 1.38235 468.816 4.14706 475.353 9.67647C481.983 15.2059 485.297 23.1774 485.297 33.5912C485.297 43.9127 481.983 51.8843 475.353 57.5059C468.816 63.0353 459.379 65.8 447.041 65.8H430.882V89.6176C430.882 91.2745 429.539 92.6176 427.882 92.6176H401.703C400.046 92.6176 398.703 91.2745 398.703 89.6176V4.38235C398.703 2.7255 400.046 1.38235 401.703 1.38235H447.041ZM441.793 42.9912C445.291 42.9912 448.054 42.2539 450.079 40.7794C452.105 39.2127 453.118 36.8167 453.118 33.5912C453.118 30.3657 452.105 28.0157 450.079 26.5412C448.054 24.9745 445.291 24.1912 441.793 24.1912H430.882V42.9912H441.793Z" />
<path class="trace-path path-4" pathLength="100" fill-rule="evenodd" clip-rule="evenodd" d="M580.6 12.3029C572.498 4.10098 561.173 0 546.625 0C537.05 0 528.763 1.84314 521.766 5.52941C514.86 9.21568 509.52 14.5608 505.745 21.5647C502.062 28.5686 500.221 37.0471 500.221 47C500.221 56.9529 502.062 65.4314 505.745 72.4353C509.52 79.4392 514.86 84.7843 521.766 88.4706C528.763 92.1569 537.05 94 546.625 94C561.173 94 572.498 89.899 580.6 81.6971C588.795 73.4951 592.892 61.9294 592.892 47C592.892 32.0706 588.795 20.5049 580.6 12.3029ZM536.267 29.7206C538.477 26.0343 541.93 24.1912 546.625 24.1912C551.321 24.1912 554.728 26.0343 556.845 29.7206C558.963 33.3147 560.022 39.0745 560.022 47C560.022 54.9255 558.963 60.7314 556.845 64.4176C554.728 68.0118 551.321 69.8088 546.625 69.8088C541.93 69.8088 538.477 68.0118 536.267 64.4176C534.149 60.7314 533.091 54.9255 533.091 47C533.091 39.0745 534.149 33.3147 536.267 29.7206Z" />
<path class="trace-path path-5" pathLength="100" fill-rule="evenodd" clip-rule="evenodd" d="M660.084 1.38235C671.962 1.38235 681.077 4.0549 687.43 9.39999C693.783 14.6529 696.96 21.6569 696.96 30.4118C696.96 44.1431 691.251 53.2206 679.834 57.6441L699.139 88.0081C700.409 90.0053 698.974 92.6176 696.607 92.6176H668.927C667.82 92.6176 666.802 92.0074 666.281 91.0303L650.969 62.3441H642.13V89.6176C642.13 91.2745 640.787 92.6176 639.13 92.6176H613.641C611.984 92.6176 610.641 91.2745 610.641 89.6176V4.38235C610.641 2.7255 611.984 1.38235 613.641 1.38235H660.084ZM654.56 41.1941C657.967 41.1941 660.499 40.5951 662.156 39.3971C663.905 38.1069 664.78 35.8951 664.78 32.7618C664.78 29.7206 663.905 27.5549 662.156 26.2647C660.499 24.9745 657.967 24.3294 654.56 24.3294H642.13V41.1941H654.56Z" />
<path class="trace-path path-6" pathLength="100" d="M797 25.0206C798.657 25.0206 800 23.6774 800 22.0206V4.38235C800 2.7255 798.657 1.38235 797 1.38235H713.781C712.124 1.38235 710.781 2.7255 710.781 4.38235V22.0206C710.781 23.6774 712.124 25.0206 713.781 25.0206H739.37V89.6176C739.37 91.2745 740.713 92.6176 742.37 92.6176H768.549C770.206 92.6176 771.549 91.2745 771.549 89.6176V25.0206H797Z" />
<path class="trace-path path-7" pathLength="100" fill-rule="evenodd" clip-rule="evenodd" d="M44.7475 1.38212C59.0188 1.38212 69.7913 5.34486 77.0651 13.2704C84.3389 21.1958 87.9757 32.439 87.9757 46.9998C87.9757 61.4684 84.3389 72.7115 77.0651 80.7292C69.7913 88.6547 59.0188 92.6174 44.7475 92.6174H3C1.34315 92.6174 0 91.273 0 89.6147V4.38485C0 2.72649 1.34315 1.38212 3 1.38212H44.7475ZM29.9963 69.1708C29.3133 71.026 31.4451 72.6438 33.0455 71.4846L60.5841 51.5371C61.8108 50.6486 61.6444 48.771 60.2806 48.1125L46.1018 41.2656C45.1742 40.8176 44.7381 39.7378 45.0942 38.7705L50.5663 23.9069C51.2493 22.0516 49.1174 20.4338 47.5171 21.593L19.9784 41.5405C18.7518 42.429 18.9182 44.3066 20.2819 44.9651L34.4607 51.812C35.3883 52.26 35.8244 53.3398 35.4683 54.3071L29.9963 69.1708Z" />
</svg>
